<?xml version="1.0" encoding="UTF-8" standalone="no"?>
<svg
   xmlns:dc="http://purl.org/dc/elements/1.1/"
   xmlns:cc="http://creativecommons.org/ns#"
   xmlns:rdf="http://www.w3.org/1999/02/22-rdf-syntax-ns#"
   xmlns:svg="http://www.w3.org/2000/svg"
   xmlns="http://www.w3.org/2000/svg"
   id="svg8"
   version="1.1"
   viewBox="0 0 114.26706 18.482785"
   height="69.856194"
   width="431.87552">
  <defs
     id="defs2" />
  <metadata
     id="metadata5">
    <rdf:RDF>
      <cc:Work
         rdf:about="">
        <dc:format>image/svg+xml</dc:format>
        <dc:type
           rdf:resource="http://purl.org/dc/dcmitype/StillImage" />
        <dc:title></dc:title>
      </cc:Work>
    </rdf:RDF>
  </metadata>
  <g
     transform="translate(-26.777167,-222.74666)"
     id="layer1">
    <path
       id="path5112"
       transform="matrix(0.26458333,0,0,0.26458333,0,169.99998)"
       d="m 261.12695,200.7207 c -22.67937,13.16852 -11.93204,38.58537 0.14844,46.56055 12.31974,8.1332 36.02483,3.95055 40.72852,-16.71484 -8.90643,-14.12081 -25.27233,-26.09313 -40.87696,-29.84571 z m -147.30859,4.24219 c -2.08434,0.0164 -4.13166,0.14346 -6.12305,0.38672 -16.636371,20.27297 2.32597,40.31959 16.4336,43.5625 14.38706,3.30716 35.12898,-8.90547 32.30273,-29.91016 -11.62449,-8.84685 -28.02288,-14.15413 -42.61328,-14.03906 z m 155.19922,2.30078 c 5.04196,0.22563 8.96507,4.06814 10.3457,11.31836 4.89126,-2.3565 11.50489,-2.75215 13.6582,5.25977 1.74275,7.58267 -0.84004,12.81877 -10.86328,10.27148 l -0.96289,1.44141 c 0.20463,6.49856 -8.16129,10.44507 -16.02343,5.08789 -5.60465,-3.81887 -10.69743,-11.11428 -0.6211,-15.65039 l 1.10742,-1.65821 c -11.30285,-6.73704 -7.1952,-13.81507 -0.29297,-15.64648 1.2651,-0.33568 2.48882,-0.4759 3.65235,-0.42383 z M 120.71875,208.25 c 3.71373,0.15933 7.36382,2.59652 10.31055,7.44922 3.7572,-3.9193 9.81363,-6.60523 14.63476,0.14648 4.2863,6.49319 3.69882,12.30406 -6.58203,13.42578 l -0.39648,1.68555 c 2.46603,6.01595 -3.98869,12.63982 -13.22852,10.37305 -6.58672,-1.61586 -13.91208,-6.66567 -6.06055,-14.44141 l 0.45704,-1.9414 c -12.94587,-2.35522 -11.57282,-10.42344 -5.74805,-14.55469 2.13522,-1.51441 4.38504,-2.23818 6.61328,-2.14258 z m 402.19922,1.60352 c -15.89172,0.21957 -33.41497,6.72548 -44.60938,16.77929 -2.01656,26.14761 25.01179,31.71184 38.43164,26.28516 13.68571,-5.5341 23.68487,-27.42918 9.33204,-43.02344 -1.04259,-0.0421 -2.09485,-0.0557 -3.1543,-0.041 z m -11.42578,2.89843 c 1.16906,-0.0164 2.48101,0.20712 3.94726,0.72657 7.23364,2.86507 10.08145,7.9628 2.29883,14.77343 l 0.64063,1.60938 c 5.46837,3.51704 3.97474,12.64485 -4.89649,16.08203 -6.32394,2.45023 -15.22084,2.50842 -13.24219,-8.36328 l -0.73828,-1.85156 c -11.95906,5.4884 -15.4569,-1.9093 -13.05078,-8.63282 2.35212,-6.57248 8.59701,-9.01283 16.91016,-5.35156 0.67697,-4.35906 3.06493,-8.92099 8.13086,-8.99219 z m -154.39063,1.81055 c -11.07321,-0.10802 -22.32066,2.20896 -31.2539,6.77148 -8.66014,24.7541 16.03529,37.06807 30.39843,35.26758 14.64765,-1.83613 29.93203,-20.43178 20.0625,-39.1875 -5.98118,-1.84946 -12.5631,-2.78675 -19.20703,-2.85156 z m 2.2168,1.64258 c 1.71776,-0.0777 3.65328,0.47939 5.79297,1.94336 6.25594,4.62569 7.69963,10.28412 -1.57031,14.86914 l 0.20703,1.7207 c 4.38249,4.80276 0.59492,13.24008 -8.86133,14.28516 -6.74097,0.74506 -15.35509,-1.48082 -10.65234,-11.48047 l -0.23633,-1.98047 c -12.96714,2.2351 -14.44965,-5.81264 -10.39844,-11.69336 3.96023,-5.74859 10.62183,-6.50431 17.7168,-0.83203 1.50031,-3.41784 4.22288,-6.661 8.00195,-6.83203 z m 75.56445,8.45898 c -11.07321,-0.10802 -22.32066,2.20894 -31.2539,6.77149 -8.66015,24.75409 16.03528,37.06807 30.39843,35.26757 14.64764,-1.83613 29.93202,-20.43178 20.0625,-39.1875 -5.98118,-1.84946 -12.5631,-2.78675 -19.20703,-2.85156 z m 2.2168,1.64258 c 1.71775,-0.0777 3.65328,0.4794 5.79297,1.94336 6.25595,4.62573 7.70157,10.28416 -1.56836,14.86914 l 0.20508,1.7207 c 4.38247,4.8028 0.59689,13.24008 -8.85938,14.28516 -6.74097,0.74506 -15.35509,-1.48086 -10.65234,-11.48047 l -0.23828,-1.98047 c -12.96711,2.2351 -14.44964,-5.81264 -10.39844,-11.69336 3.96023,-5.74862 10.62382,-6.50434 17.71875,-0.83203 1.50033,-3.41786 4.22094,-6.661 8,-6.83203 z m -234.75391,0.69531 c -11.07321,-0.10802 -22.32066,2.20896 -31.2539,6.77149 -8.66014,24.75409 16.03529,37.06807 30.39843,35.26758 14.64765,-1.83614 29.93203,-20.42983 20.0625,-39.18555 -5.98118,-1.84947 -12.5631,-2.7887 -19.20703,-2.85352 z m 2.2168,1.64453 c 1.71776,-0.0777 3.65328,0.4794 5.79297,1.94336 6.25594,4.62569 7.70159,10.28412 -1.56836,14.86914 l 0.20703,1.71875 c 4.3825,4.80276 0.59492,13.24204 -8.86133,14.28711 -6.74097,0.74506 -15.35509,-1.48277 -10.65234,-11.48242 l -0.23828,-1.97851 c -12.96713,2.2351 -14.44965,-5.81264 -10.39844,-11.69336 3.96023,-5.74859 10.62379,-6.50431 17.71875,-0.83203 1.50031,-3.41784 4.22093,-6.661 8,-6.83204 z"
       style="fill:#cdac2a;fill-opacity:1;stroke:none;stroke-width:0.81328857px;stroke-linecap:butt;stroke-linejoin:miter;stroke-opacity:1" />
    <path
       id="path5107-3-7"
       transform="matrix(0.26458333,0,0,0.26458333,0,169.99998)"
       d="m 269.5,199.36328 c -2.74006,-0.0567 -5.50871,0.3037 -8.24219,1.16211 -19.99338,6.2787 -12.16463,38.53216 4.26953,45.94336 12.32499,5.5581 35.78171,-0.52435 36.67774,-16.20508 0.50401,-8.82047 -6.18815,-19.11319 -15.69922,-25.31445 -5.08577,-3.31596 -10.97772,-5.4611 -17.00586,-5.58594 z m -144.75781,0.16406 c -6.0477,0.0428 -12.0198,1.72005 -16.99219,5.59375 -16.531548,12.8789 2.09148,40.35212 20.08008,41.54297 13.49075,0.89314 33.33412,-13.01298 28.68554,-28.01562 -2.61481,-8.43905 -12.48652,-15.73832 -23.5664,-18.21875 -2.69303,-0.60287 -5.45808,-0.92179 -8.20703,-0.90235 z m 385.65039,5.64063 c -4.6809,0.0737 -9.61453,1.07443 -14.20899,2.96289 -8.16793,3.35732 -15.26446,9.52296 -17.96289,18.28516 -6.16781,20.02786 24.83721,31.87139 40.26172,22.53906 11.56778,-6.99889 19.86191,-29.76726 7.45508,-39.39844 -3.92561,-3.04736 -9.52662,-4.48341 -15.54492,-4.38867 z m -241.46289,0.34375 c 6.15744,-0.10252 11.01132,5.42543 11.53125,11.42773 6.40297,-2.46931 11.6055,-0.75386 13.30273,5.43164 1.96824,7.49103 -2.89007,14.34587 -11.60547,11.74219 -1.60464,7.77385 -7.95128,10.1301 -15.8164,4.77734 -5.60681,-3.81561 -10.4456,-11.49115 -0.6836,-15.55664 -7.63341,-4.57149 -8.47824,-12.81006 -2.14062,-16.29882 1.86185,-1.02492 3.68802,-1.49474 5.41211,-1.52344 z m -148.75781,0.90234 c 4.67715,-0.0875 9.24036,3.00873 11.31054,7.36133 5.13383,-4.55407 10.60859,-4.76869 14.36328,0.43164 4.46546,6.3284 2.31177,14.45327 -6.76367,15.06445 1.21752,7.84377 -3.90152,12.27136 -13.14258,10.00977 -6.58761,-1.61208 -13.80773,-7.10912 -6.08593,-14.33398 -8.75059,-1.61084 -12.42481,-9.0334 -7.70899,-14.51954 2.37497,-2.76291 5.22105,-3.96117 8.02735,-4.01367 z m 231.93554,1.29883 c -1.40992,0.0328 -2.82716,0.13966 -4.23437,0.32422 -8.75599,1.14841 -17.19576,5.28642 -22.05274,13.0625 -11.10162,17.77391 15.82389,37.17997 33.12696,32.11914 12.97663,-3.79536 26.83564,-23.67313 17.3164,-36.16602 -4.68525,-6.14889 -14.28682,-9.56969 -24.15625,-9.33984 z m 159.32031,3.69141 c 1.00954,0.028 2.08501,0.23129 3.22071,0.62695 7.28602,2.62738 10.17714,10.51917 3.08984,16.2207 5.4926,5.73045 3.83407,12.2942 -5.03516,15.73633 -6.3225,2.45386 -15.38917,2.08613 -13.20117,-8.25976 -8.09442,3.69433 -15.35961,-0.2839 -14.63867,-7.48243 0.96817,-9.66731 11.06228,-12.14708 17.76758,-8.33789 1.29805,-5.42269 4.4222,-8.62503 8.79687,-8.5039 z m -151.57031,3.38476 c 1.56452,0.067 3.20115,0.6366 4.86133,1.75977 6.36759,4.40938 7.13552,12.77728 -1.17773,16.46875 3.83781,6.94828 0.55131,12.86561 -8.9043,13.91601 -6.74052,0.74892 -15.4088,-1.93335 -10.63867,-11.37109 -8.77145,1.49306 -14.77285,-4.21605 -12.22852,-10.98828 3.41699,-9.09498 13.80952,-8.90062 19.3125,-3.49805 2.23925,-4.1528 5.33345,-6.4345 8.77539,-6.28711 z m 70.03125,3.02539 c -1.40992,0.0328 -2.82521,0.13966 -4.23242,0.32422 -8.75599,1.14841 -17.19773,5.28643 -22.05469,13.0625 -11.1016,17.77391 15.82582,37.17997 33.12891,32.11914 12.97663,-3.79536 26.83564,-23.67312 17.31641,-36.16601 -4.68525,-6.1489 -14.28878,-9.5697 -24.15821,-9.33985 z m -232.53711,2.33985 c -1.40992,0.0328 -2.8252,0.13965 -4.23242,0.32422 -8.75599,1.14841 -17.19771,5.28642 -22.05469,13.0625 -11.10161,17.7739 15.82584,37.17996 33.12891,32.11914 12.97663,-3.79537 26.83563,-23.67313 17.31641,-36.16602 -4.68526,-6.1489 -14.28878,-9.56969 -24.15821,-9.33984 z m 240.28906,4.73632 c 1.56453,0.067 3.1992,0.6366 4.85938,1.75977 6.3676,4.40939 7.13748,12.77729 -1.17578,16.46875 3.83781,6.94828 0.54937,12.86561 -8.90625,13.91602 -6.74052,0.74891 -15.40881,-1.93335 -10.63867,-11.3711 -8.77146,1.49307 -14.77286,-4.21605 -12.22852,-10.98828 3.417,-9.09498 13.80951,-8.90062 19.3125,-3.49805 2.23925,-4.1528 5.3354,-6.43449 8.77734,-6.28711 z m -233.17773,2.33985 c 0.2123,-0.01 0.4255,-0.009 0.64063,0 1.56451,0.067 3.20115,0.63464 4.86132,1.75781 6.36759,4.40939 7.13552,12.77924 -1.17773,16.4707 3.83782,6.94829 0.54936,12.86561 -8.90625,13.91602 -6.74052,0.74891 -15.4088,-1.93335 -10.63867,-11.37109 -8.77145,1.49306 -14.77285,-4.21605 -12.22852,-10.98829 3.41699,-9.09496 13.80952,-8.90061 19.3125,-3.49804 2.0993,-3.89326 4.95229,-6.14267 8.13672,-6.28711 z"
       style="fill:#f3d814;fill-opacity:1;stroke:none;stroke-width:0.78833973px;stroke-linecap:butt;stroke-linejoin:miter;stroke-opacity:1" />
  </g>
</svg>
