<?xml version="1.0" encoding="UTF-8" standalone="no"?>
<svg
   xmlns:dc="http://purl.org/dc/elements/1.1/"
   xmlns:cc="http://creativecommons.org/ns#"
   xmlns:rdf="http://www.w3.org/1999/02/22-rdf-syntax-ns#"
   xmlns:svg="http://www.w3.org/2000/svg"
   xmlns="http://www.w3.org/2000/svg"
   id="svg8"
   version="1.1"
   viewBox="0 0 113.78085 19.826949"
   height="74.936501"
   width="430.03787">
  <defs
     id="defs2" />
  <metadata
     id="metadata5">
    <rdf:RDF>
      <cc:Work
         rdf:about="">
        <dc:format>image/svg+xml</dc:format>
        <dc:type
           rdf:resource="http://purl.org/dc/dcmitype/StillImage" />
        <dc:title></dc:title>
      </cc:Work>
    </rdf:RDF>
  </metadata>
  <g
     transform="translate(-38.359573,-217.16091)"
     id="layer1">
    <g
       id="g5393"
       transform="translate(9.8800557,-17.280314)">
      <path
         style="fill:#48842c;fill-opacity:1;stroke:none;stroke-width:3.20668411;stroke-linecap:butt;stroke-linejoin:miter;stroke-miterlimit:4;stroke-dasharray:none;stroke-opacity:1"
         d="m 48.20089,250.36209 c -2.804477,4.33916 -9.199581,5.19288 -14.28386,1.90683 -5.084279,-3.28606 -6.932419,-9.46753 -4.127942,-13.8067 3.434259,-5.31358 9.70946,-4.75083 14.23257,-1.82747 4.410877,2.85083 7.634737,8.38089 4.179232,13.72734 z"
         id="ellipse4514" />
      <ellipse
         style="fill:#d7f4c6;fill-opacity:1;stroke:none;stroke-width:2.9104166;stroke-linecap:butt;stroke-linejoin:miter;stroke-miterlimit:4;stroke-dasharray:none;stroke-opacity:1"
         id="path4512"
         cx="165.3822"
         cy="183.40434"
         rx="10.394345"
         ry="8.1264877"
         transform="rotate(32.875281)" />
      <path
         style="fill:#fcfded;fill-opacity:1;stroke:none;stroke-width:11;stroke-linecap:butt;stroke-linejoin:miter;stroke-miterlimit:4;stroke-dasharray:none;stroke-opacity:1"
         d="m 152.84961,268.36719 a 1.3889597,3.5355339 32.875281 0 0 -2.70313,2.31054 1.3889597,3.5355339 32.875281 0 0 -0.75195,3.72266 1.3889597,3.5355339 32.875281 0 0 3.08594,-2.21484 1.3889597,3.5355339 32.875281 0 0 0.75195,-3.72461 1.3889597,3.5355339 32.875281 0 0 -0.38281,-0.0937 z m 4.4043,2.8457 a 1.3889597,3.5355339 32.875281 0 0 -2.70508,2.31055 1.3889597,3.5355339 32.875281 0 0 -0.75195,3.72265 1.3889597,3.5355339 32.875281 0 0 3.08593,-2.21484 1.3889597,3.5355339 32.875281 0 0 0.75196,-3.72461 1.3889597,3.5355339 32.875281 0 0 -0.38086,-0.0937 z m -15.22657,2.40625 a 1.5509779,3.8686425 77.426081 0 0 -2.2207,0.28711 1.5509779,3.8686425 77.426081 0 0 -3.11719,2.40039 1.5509779,3.8686425 77.426081 0 0 4.36133,0.49219 1.5509779,3.8686425 77.426081 0 0 3.11719,-2.40039 1.5509779,3.8686425 77.426081 0 0 -2.14063,-0.7793 z m 2.34571,5.45898 a 1.5509779,3.8686425 77.426081 0 0 -2.21875,0.28516 1.5509779,3.8686425 77.426081 0 0 -3.11914,2.40039 1.5509779,3.8686425 77.426081 0 0 4.36132,0.49219 1.5509779,3.8686425 77.426081 0 0 3.11914,-2.40039 1.5509779,3.8686425 77.426081 0 0 -2.14257,-0.77735 z m 11.62109,2.9629 a 3.868642,1.5509779 78.324481 0 0 -0.9082,3.82812 3.868642,1.5509779 78.324481 0 0 2.24023,3.77539 3.868642,1.5509779 78.324481 0 0 0.90625,-3.82812 3.868642,1.5509779 78.324481 0 0 -2.23828,-3.77539 z m -5.93945,0.10156 a 3.868642,1.5509779 78.324481 0 0 -0.90821,3.82812 3.868642,1.5509779 78.324481 0 0 2.24024,3.77539 3.868642,1.5509779 78.324481 0 0 0.90625,-3.82812 3.868642,1.5509779 78.324481 0 0 -2.23828,-3.77539 z"
         transform="matrix(0.26458333,0,0,0.26458333,0,169.99998)"
         id="path4517" />
    </g>
    <g
       transform="translate(28.400889,-17.280314)"
       id="g9228">
      <path
         id="path9222"
         d="m 48.20089,250.36209 c -2.804477,4.33916 -9.199581,5.19288 -14.28386,1.90683 -5.084279,-3.28606 -6.932419,-9.46753 -4.127942,-13.8067 3.434259,-5.31358 9.70946,-4.75083 14.23257,-1.82747 4.410877,2.85083 7.634737,8.38089 4.179232,13.72734 z"
         style="fill:#48842c;fill-opacity:1;stroke:none;stroke-width:3.20668411;stroke-linecap:butt;stroke-linejoin:miter;stroke-miterlimit:4;stroke-dasharray:none;stroke-opacity:1" />
      <ellipse
         transform="rotate(32.875281)"
         ry="8.1264877"
         rx="10.394345"
         cy="183.40434"
         cx="165.3822"
         id="ellipse9224"
         style="fill:#d7f4c6;fill-opacity:1;stroke:none;stroke-width:2.9104166;stroke-linecap:butt;stroke-linejoin:miter;stroke-miterlimit:4;stroke-dasharray:none;stroke-opacity:1" />
      <path
         id="path9226"
         transform="matrix(0.26458333,0,0,0.26458333,0,169.99998)"
         d="m 152.84961,268.36719 a 1.3889597,3.5355339 32.875281 0 0 -2.70313,2.31054 1.3889597,3.5355339 32.875281 0 0 -0.75195,3.72266 1.3889597,3.5355339 32.875281 0 0 3.08594,-2.21484 1.3889597,3.5355339 32.875281 0 0 0.75195,-3.72461 1.3889597,3.5355339 32.875281 0 0 -0.38281,-0.0937 z m 4.4043,2.8457 a 1.3889597,3.5355339 32.875281 0 0 -2.70508,2.31055 1.3889597,3.5355339 32.875281 0 0 -0.75195,3.72265 1.3889597,3.5355339 32.875281 0 0 3.08593,-2.21484 1.3889597,3.5355339 32.875281 0 0 0.75196,-3.72461 1.3889597,3.5355339 32.875281 0 0 -0.38086,-0.0937 z m -15.22657,2.40625 a 1.5509779,3.8686425 77.426081 0 0 -2.2207,0.28711 1.5509779,3.8686425 77.426081 0 0 -3.11719,2.40039 1.5509779,3.8686425 77.426081 0 0 4.36133,0.49219 1.5509779,3.8686425 77.426081 0 0 3.11719,-2.40039 1.5509779,3.8686425 77.426081 0 0 -2.14063,-0.7793 z m 2.34571,5.45898 a 1.5509779,3.8686425 77.426081 0 0 -2.21875,0.28516 1.5509779,3.8686425 77.426081 0 0 -3.11914,2.40039 1.5509779,3.8686425 77.426081 0 0 4.36132,0.49219 1.5509779,3.8686425 77.426081 0 0 3.11914,-2.40039 1.5509779,3.8686425 77.426081 0 0 -2.14257,-0.77735 z m 11.62109,2.9629 a 3.868642,1.5509779 78.324481 0 0 -0.9082,3.82812 3.868642,1.5509779 78.324481 0 0 2.24023,3.77539 3.868642,1.5509779 78.324481 0 0 0.90625,-3.82812 3.868642,1.5509779 78.324481 0 0 -2.23828,-3.77539 z m -5.93945,0.10156 a 3.868642,1.5509779 78.324481 0 0 -0.90821,3.82812 3.868642,1.5509779 78.324481 0 0 2.24024,3.77539 3.868642,1.5509779 78.324481 0 0 0.90625,-3.82812 3.868642,1.5509779 78.324481 0 0 -2.23828,-3.77539 z"
         style="fill:#fcfded;fill-opacity:1;stroke:none;stroke-width:11;stroke-linecap:butt;stroke-linejoin:miter;stroke-miterlimit:4;stroke-dasharray:none;stroke-opacity:1" />
    </g>
    <g
       id="g9236"
       transform="translate(46.921719,-17.280314)">
      <path
         style="fill:#48842c;fill-opacity:1;stroke:none;stroke-width:3.20668411;stroke-linecap:butt;stroke-linejoin:miter;stroke-miterlimit:4;stroke-dasharray:none;stroke-opacity:1"
         d="m 48.20089,250.36209 c -2.804477,4.33916 -9.199581,5.19288 -14.28386,1.90683 -5.084279,-3.28606 -6.932419,-9.46753 -4.127942,-13.8067 3.434259,-5.31358 9.70946,-4.75083 14.23257,-1.82747 4.410877,2.85083 7.634737,8.38089 4.179232,13.72734 z"
         id="path9230" />
      <ellipse
         style="fill:#d7f4c6;fill-opacity:1;stroke:none;stroke-width:2.9104166;stroke-linecap:butt;stroke-linejoin:miter;stroke-miterlimit:4;stroke-dasharray:none;stroke-opacity:1"
         id="ellipse9232"
         cx="165.3822"
         cy="183.40434"
         rx="10.394345"
         ry="8.1264877"
         transform="rotate(32.875281)" />
      <path
         style="fill:#fcfded;fill-opacity:1;stroke:none;stroke-width:11;stroke-linecap:butt;stroke-linejoin:miter;stroke-miterlimit:4;stroke-dasharray:none;stroke-opacity:1"
         d="m 152.84961,268.36719 a 1.3889597,3.5355339 32.875281 0 0 -2.70313,2.31054 1.3889597,3.5355339 32.875281 0 0 -0.75195,3.72266 1.3889597,3.5355339 32.875281 0 0 3.08594,-2.21484 1.3889597,3.5355339 32.875281 0 0 0.75195,-3.72461 1.3889597,3.5355339 32.875281 0 0 -0.38281,-0.0937 z m 4.4043,2.8457 a 1.3889597,3.5355339 32.875281 0 0 -2.70508,2.31055 1.3889597,3.5355339 32.875281 0 0 -0.75195,3.72265 1.3889597,3.5355339 32.875281 0 0 3.08593,-2.21484 1.3889597,3.5355339 32.875281 0 0 0.75196,-3.72461 1.3889597,3.5355339 32.875281 0 0 -0.38086,-0.0937 z m -15.22657,2.40625 a 1.5509779,3.8686425 77.426081 0 0 -2.2207,0.28711 1.5509779,3.8686425 77.426081 0 0 -3.11719,2.40039 1.5509779,3.8686425 77.426081 0 0 4.36133,0.49219 1.5509779,3.8686425 77.426081 0 0 3.11719,-2.40039 1.5509779,3.8686425 77.426081 0 0 -2.14063,-0.7793 z m 2.34571,5.45898 a 1.5509779,3.8686425 77.426081 0 0 -2.21875,0.28516 1.5509779,3.8686425 77.426081 0 0 -3.11914,2.40039 1.5509779,3.8686425 77.426081 0 0 4.36132,0.49219 1.5509779,3.8686425 77.426081 0 0 3.11914,-2.40039 1.5509779,3.8686425 77.426081 0 0 -2.14257,-0.77735 z m 11.62109,2.9629 a 3.868642,1.5509779 78.324481 0 0 -0.9082,3.82812 3.868642,1.5509779 78.324481 0 0 2.24023,3.77539 3.868642,1.5509779 78.324481 0 0 0.90625,-3.82812 3.868642,1.5509779 78.324481 0 0 -2.23828,-3.77539 z m -5.93945,0.10156 a 3.868642,1.5509779 78.324481 0 0 -0.90821,3.82812 3.868642,1.5509779 78.324481 0 0 2.24024,3.77539 3.868642,1.5509779 78.324481 0 0 0.90625,-3.82812 3.868642,1.5509779 78.324481 0 0 -2.23828,-3.77539 z"
         transform="matrix(0.26458333,0,0,0.26458333,0,169.99998)"
         id="path9234" />
    </g>
    <g
       transform="translate(65.442553,-17.280314)"
       id="g9260">
      <path
         id="path9254"
         d="m 48.20089,250.36209 c -2.804477,4.33916 -9.199581,5.19288 -14.28386,1.90683 -5.084279,-3.28606 -6.932419,-9.46753 -4.127942,-13.8067 3.434259,-5.31358 9.70946,-4.75083 14.23257,-1.82747 4.410877,2.85083 7.634737,8.38089 4.179232,13.72734 z"
         style="fill:#48842c;fill-opacity:1;stroke:none;stroke-width:3.20668411;stroke-linecap:butt;stroke-linejoin:miter;stroke-miterlimit:4;stroke-dasharray:none;stroke-opacity:1" />
      <ellipse
         transform="rotate(32.875281)"
         ry="8.1264877"
         rx="10.394345"
         cy="183.40434"
         cx="165.3822"
         id="ellipse9256"
         style="fill:#d7f4c6;fill-opacity:1;stroke:none;stroke-width:2.9104166;stroke-linecap:butt;stroke-linejoin:miter;stroke-miterlimit:4;stroke-dasharray:none;stroke-opacity:1" />
      <path
         id="path9258"
         transform="matrix(0.26458333,0,0,0.26458333,0,169.99998)"
         d="m 152.84961,268.36719 a 1.3889597,3.5355339 32.875281 0 0 -2.70313,2.31054 1.3889597,3.5355339 32.875281 0 0 -0.75195,3.72266 1.3889597,3.5355339 32.875281 0 0 3.08594,-2.21484 1.3889597,3.5355339 32.875281 0 0 0.75195,-3.72461 1.3889597,3.5355339 32.875281 0 0 -0.38281,-0.0937 z m 4.4043,2.8457 a 1.3889597,3.5355339 32.875281 0 0 -2.70508,2.31055 1.3889597,3.5355339 32.875281 0 0 -0.75195,3.72265 1.3889597,3.5355339 32.875281 0 0 3.08593,-2.21484 1.3889597,3.5355339 32.875281 0 0 0.75196,-3.72461 1.3889597,3.5355339 32.875281 0 0 -0.38086,-0.0937 z m -15.22657,2.40625 a 1.5509779,3.8686425 77.426081 0 0 -2.2207,0.28711 1.5509779,3.8686425 77.426081 0 0 -3.11719,2.40039 1.5509779,3.8686425 77.426081 0 0 4.36133,0.49219 1.5509779,3.8686425 77.426081 0 0 3.11719,-2.40039 1.5509779,3.8686425 77.426081 0 0 -2.14063,-0.7793 z m 2.34571,5.45898 a 1.5509779,3.8686425 77.426081 0 0 -2.21875,0.28516 1.5509779,3.8686425 77.426081 0 0 -3.11914,2.40039 1.5509779,3.8686425 77.426081 0 0 4.36132,0.49219 1.5509779,3.8686425 77.426081 0 0 3.11914,-2.40039 1.5509779,3.8686425 77.426081 0 0 -2.14257,-0.77735 z m 11.62109,2.9629 a 3.868642,1.5509779 78.324481 0 0 -0.9082,3.82812 3.868642,1.5509779 78.324481 0 0 2.24023,3.77539 3.868642,1.5509779 78.324481 0 0 0.90625,-3.82812 3.868642,1.5509779 78.324481 0 0 -2.23828,-3.77539 z m -5.93945,0.10156 a 3.868642,1.5509779 78.324481 0 0 -0.90821,3.82812 3.868642,1.5509779 78.324481 0 0 2.24024,3.77539 3.868642,1.5509779 78.324481 0 0 0.90625,-3.82812 3.868642,1.5509779 78.324481 0 0 -2.23828,-3.77539 z"
         style="fill:#fcfded;fill-opacity:1;stroke:none;stroke-width:11;stroke-linecap:butt;stroke-linejoin:miter;stroke-miterlimit:4;stroke-dasharray:none;stroke-opacity:1" />
    </g>
    <g
       id="g9268"
       transform="translate(83.963386,-17.280314)">
      <path
         style="fill:#48842c;fill-opacity:1;stroke:none;stroke-width:3.20668411;stroke-linecap:butt;stroke-linejoin:miter;stroke-miterlimit:4;stroke-dasharray:none;stroke-opacity:1"
         d="m 48.20089,250.36209 c -2.804477,4.33916 -9.199581,5.19288 -14.28386,1.90683 -5.084279,-3.28606 -6.932419,-9.46753 -4.127942,-13.8067 3.434259,-5.31358 9.70946,-4.75083 14.23257,-1.82747 4.410877,2.85083 7.634737,8.38089 4.179232,13.72734 z"
         id="path9262" />
      <ellipse
         style="fill:#d7f4c6;fill-opacity:1;stroke:none;stroke-width:2.9104166;stroke-linecap:butt;stroke-linejoin:miter;stroke-miterlimit:4;stroke-dasharray:none;stroke-opacity:1"
         id="ellipse9264"
         cx="165.3822"
         cy="183.40434"
         rx="10.394345"
         ry="8.1264877"
         transform="rotate(32.875281)" />
      <path
         style="fill:#fcfded;fill-opacity:1;stroke:none;stroke-width:11;stroke-linecap:butt;stroke-linejoin:miter;stroke-miterlimit:4;stroke-dasharray:none;stroke-opacity:1"
         d="m 152.84961,268.36719 a 1.3889597,3.5355339 32.875281 0 0 -2.70313,2.31054 1.3889597,3.5355339 32.875281 0 0 -0.75195,3.72266 1.3889597,3.5355339 32.875281 0 0 3.08594,-2.21484 1.3889597,3.5355339 32.875281 0 0 0.75195,-3.72461 1.3889597,3.5355339 32.875281 0 0 -0.38281,-0.0937 z m 4.4043,2.8457 a 1.3889597,3.5355339 32.875281 0 0 -2.70508,2.31055 1.3889597,3.5355339 32.875281 0 0 -0.75195,3.72265 1.3889597,3.5355339 32.875281 0 0 3.08593,-2.21484 1.3889597,3.5355339 32.875281 0 0 0.75196,-3.72461 1.3889597,3.5355339 32.875281 0 0 -0.38086,-0.0937 z m -15.22657,2.40625 a 1.5509779,3.8686425 77.426081 0 0 -2.2207,0.28711 1.5509779,3.8686425 77.426081 0 0 -3.11719,2.40039 1.5509779,3.8686425 77.426081 0 0 4.36133,0.49219 1.5509779,3.8686425 77.426081 0 0 3.11719,-2.40039 1.5509779,3.8686425 77.426081 0 0 -2.14063,-0.7793 z m 2.34571,5.45898 a 1.5509779,3.8686425 77.426081 0 0 -2.21875,0.28516 1.5509779,3.8686425 77.426081 0 0 -3.11914,2.40039 1.5509779,3.8686425 77.426081 0 0 4.36132,0.49219 1.5509779,3.8686425 77.426081 0 0 3.11914,-2.40039 1.5509779,3.8686425 77.426081 0 0 -2.14257,-0.77735 z m 11.62109,2.9629 a 3.868642,1.5509779 78.324481 0 0 -0.9082,3.82812 3.868642,1.5509779 78.324481 0 0 2.24023,3.77539 3.868642,1.5509779 78.324481 0 0 0.90625,-3.82812 3.868642,1.5509779 78.324481 0 0 -2.23828,-3.77539 z m -5.93945,0.10156 a 3.868642,1.5509779 78.324481 0 0 -0.90821,3.82812 3.868642,1.5509779 78.324481 0 0 2.24024,3.77539 3.868642,1.5509779 78.324481 0 0 0.90625,-3.82812 3.868642,1.5509779 78.324481 0 0 -2.23828,-3.77539 z"
         transform="matrix(0.26458333,0,0,0.26458333,0,169.99998)"
         id="path9266" />
    </g>
    <g
       transform="translate(102.48422,-17.280314)"
       id="g9276">
      <path
         id="path9270"
         d="m 48.20089,250.36209 c -2.804477,4.33916 -9.199581,5.19288 -14.28386,1.90683 -5.084279,-3.28606 -6.932419,-9.46753 -4.127942,-13.8067 3.434259,-5.31358 9.70946,-4.75083 14.23257,-1.82747 4.410877,2.85083 7.634737,8.38089 4.179232,13.72734 z"
         style="fill:#48842c;fill-opacity:1;stroke:none;stroke-width:3.20668411;stroke-linecap:butt;stroke-linejoin:miter;stroke-miterlimit:4;stroke-dasharray:none;stroke-opacity:1" />
      <ellipse
         transform="rotate(32.875281)"
         ry="8.1264877"
         rx="10.394345"
         cy="183.40434"
         cx="165.3822"
         id="ellipse9272"
         style="fill:#d7f4c6;fill-opacity:1;stroke:none;stroke-width:2.9104166;stroke-linecap:butt;stroke-linejoin:miter;stroke-miterlimit:4;stroke-dasharray:none;stroke-opacity:1" />
      <path
         id="path9274"
         transform="matrix(0.26458333,0,0,0.26458333,0,169.99998)"
         d="m 152.84961,268.36719 a 1.3889597,3.5355339 32.875281 0 0 -2.70313,2.31054 1.3889597,3.5355339 32.875281 0 0 -0.75195,3.72266 1.3889597,3.5355339 32.875281 0 0 3.08594,-2.21484 1.3889597,3.5355339 32.875281 0 0 0.75195,-3.72461 1.3889597,3.5355339 32.875281 0 0 -0.38281,-0.0937 z m 4.4043,2.8457 a 1.3889597,3.5355339 32.875281 0 0 -2.70508,2.31055 1.3889597,3.5355339 32.875281 0 0 -0.75195,3.72265 1.3889597,3.5355339 32.875281 0 0 3.08593,-2.21484 1.3889597,3.5355339 32.875281 0 0 0.75196,-3.72461 1.3889597,3.5355339 32.875281 0 0 -0.38086,-0.0937 z m -15.22657,2.40625 a 1.5509779,3.8686425 77.426081 0 0 -2.2207,0.28711 1.5509779,3.8686425 77.426081 0 0 -3.11719,2.40039 1.5509779,3.8686425 77.426081 0 0 4.36133,0.49219 1.5509779,3.8686425 77.426081 0 0 3.11719,-2.40039 1.5509779,3.8686425 77.426081 0 0 -2.14063,-0.7793 z m 2.34571,5.45898 a 1.5509779,3.8686425 77.426081 0 0 -2.21875,0.28516 1.5509779,3.8686425 77.426081 0 0 -3.11914,2.40039 1.5509779,3.8686425 77.426081 0 0 4.36132,0.49219 1.5509779,3.8686425 77.426081 0 0 3.11914,-2.40039 1.5509779,3.8686425 77.426081 0 0 -2.14257,-0.77735 z m 11.62109,2.9629 a 3.868642,1.5509779 78.324481 0 0 -0.9082,3.82812 3.868642,1.5509779 78.324481 0 0 2.24023,3.77539 3.868642,1.5509779 78.324481 0 0 0.90625,-3.82812 3.868642,1.5509779 78.324481 0 0 -2.23828,-3.77539 z m -5.93945,0.10156 a 3.868642,1.5509779 78.324481 0 0 -0.90821,3.82812 3.868642,1.5509779 78.324481 0 0 2.24024,3.77539 3.868642,1.5509779 78.324481 0 0 0.90625,-3.82812 3.868642,1.5509779 78.324481 0 0 -2.23828,-3.77539 z"
         style="fill:#fcfded;fill-opacity:1;stroke:none;stroke-width:11;stroke-linecap:butt;stroke-linejoin:miter;stroke-miterlimit:4;stroke-dasharray:none;stroke-opacity:1" />
    </g>
  </g>
</svg>
