<?xml version="1.0" encoding="UTF-8" standalone="no"?>
<svg
   xmlns:dc="http://purl.org/dc/elements/1.1/"
   xmlns:cc="http://creativecommons.org/ns#"
   xmlns:rdf="http://www.w3.org/1999/02/22-rdf-syntax-ns#"
   xmlns:svg="http://www.w3.org/2000/svg"
   xmlns="http://www.w3.org/2000/svg"
   id="svg8"
   version="1.1"
   viewBox="0 0 126.62225 33.394061"
   height="126.21378"
   width="478.5723">
  <defs
     id="defs2" />
  <metadata
     id="metadata5">
    <rdf:RDF>
      <cc:Work
         rdf:about="">
        <dc:format>image/svg+xml</dc:format>
        <dc:type
           rdf:resource="http://purl.org/dc/dcmitype/StillImage" />
        <dc:title></dc:title>
      </cc:Work>
    </rdf:RDF>
  </metadata>
  <g
     transform="translate(-14.173993,-191.85652)"
     id="layer1">
    <path
       style="fill:#aa5524;fill-opacity:1;stroke:none;stroke-width:4.45793152;stroke-linecap:butt;stroke-linejoin:miter;stroke-miterlimit:4;stroke-dasharray:none;stroke-opacity:1"
       d="m 37.230467,192.36628 c -12.773329,0 -23.056474,10.28366 -23.056474,23.05699 0,0.31668 0.0082,0.63113 0.02067,0.94464 h 0.02532 c 0.472598,4.99775 4.6558,8.88267 9.781316,8.88267 H 130.96841 c 5.12551,0 9.30923,-3.88492 9.78183,-8.88267 h 0.0253 c 0.0127,-0.31351 0.0207,-0.62796 0.0207,-0.94464 0,-12.77333 -10.28366,-23.05699 -23.05699,-23.05699 z"
       id="path5825" />
    <path
       id="path5829"
       d="m 69.587926,191.85652 c 0,0 -0.03314,0.88025 -0.130741,1.88877 -0.0976,1.00851 -0.307216,2.19419 -0.480589,2.54093 l 0.876948,0.4377 c 0.355793,-0.71158 0.477419,-1.84103 0.57826,-2.88303 0.100838,-1.042 0.134874,-1.94716 0.134874,-1.94716 z m 11.8985,0.0274 -0.593762,0.77721 c 1.132472,0.86601 2.510235,1.45567 3.800285,1.83555 -0.257371,0.26792 -0.505667,0.55764 -0.745691,0.86196 -0.960097,1.21726 -1.795918,2.6942 -2.529047,4.09381 l 0.867133,0.45475 c 0.722079,-1.37851 1.53784,-2.81045 2.429824,-3.94136 0.357098,-0.45275 0.725784,-0.84982 1.100193,-1.18184 0.977083,0.20866 1.831232,0.28357 2.434477,0.22324 l -0.09715,-0.97307 c -0.256429,0.0256 -0.660225,0.0113 -1.145667,-0.047 0.170974,-0.0762 0.34199,-0.14123 0.51263,-0.18139 l -0.224792,-0.95084 c -0.625158,0.14709 -1.20051,0.45351 -1.73736,0.86454 -0.126833,-0.0311 -0.254244,-0.0632 -0.38344,-0.0992 -1.26188,-0.35141 -2.634747,-0.93119 -3.68763,-1.73633 z m 12.748059,0.0413 -0.69143,0.69298 c 0.569158,0.56916 1.161489,1.65291 1.593699,2.77347 0.05171,0.13406 0.100936,0.26894 0.148312,0.4036 -1.693246,0.52305 -3.42039,1.19679 -4.931481,1.99677 l 0.456819,0.86559 c 1.440121,-0.76241 3.118593,-1.41665 4.764566,-1.92547 0.17975,0.64419 0.303538,1.23994 0.338997,1.66553 l 0.976686,-0.0801 c -0.04379,-0.52527 -0.173855,-1.1721 -0.369485,-1.86293 0.536866,-0.14882 1.066228,-0.28391 1.57458,-0.39688 l -0.210841,-0.95704 c -0.537051,0.11934 -1.094978,0.26144 -1.660364,0.41858 -0.05595,-0.15937 -0.114099,-0.31934 -0.175699,-0.47905 -0.460695,-1.19441 -1.060733,-2.36128 -1.814359,-3.11505 z m -44.111521,0.002 c -0.538466,0.12426 -1.166458,0.43919 -1.905825,0.86713 -0.662205,0.38329 -1.402718,0.86756 -2.154391,1.38235 -0.57277,-0.64843 -1.052568,-1.36031 -1.326534,-2.07946 l -0.91364,0.34985 c 0.316553,0.83094 0.827561,1.60333 1.428856,2.2965 -1.500212,1.06386 -2.973282,2.19526 -3.925343,2.96881 l 0.617532,0.76016 c 0.956699,-0.77732 2.470293,-1.9395 3.986837,-3.01015 0.304999,0.2929 0.622131,0.56627 0.942578,0.81648 1.258253,0.98247 2.497701,1.6428 3.492294,1.6428 v -0.97876 c -0.460616,0 -1.734712,-0.53288 -2.890779,-1.43557 -0.243959,-0.19048 -0.483995,-0.39902 -0.717786,-0.61701 0.687938,-0.46781 1.360834,-0.90682 1.950268,-1.24799 0.703437,-0.40715 1.315164,-0.68546 1.636593,-0.75964 z m 57.248186,0.01 c -1.05124,0.32346 -2.07862,1.26829 -2.99982,2.3089 -0.92119,1.0406 -1.69536,2.17227 -2.06447,2.98432 l 0.89245,0.40411 c 0.29235,-0.64317 1.03953,-1.7615 1.90428,-2.73834 0.86474,-0.97685 1.88634,-1.81742 2.55488,-2.02313 z m -67.000045,0.0429 c -2.212723,1.04814 -3.815476,2.20243 -5.457031,4.05402 -0.481981,-0.52573 -0.955175,-1.06988 -1.373042,-1.56373 l -0.747757,0.63097 c 0.445569,0.52658 0.956365,1.11347 1.482079,1.68258 -0.843838,1.03686 -1.719283,2.27329 -2.710944,3.78995 l 0.820621,0.53744 c 0.955802,-1.46182 1.782087,-2.63882 2.567283,-3.61994 0.113716,0.1146 0.227521,0.23402 0.340548,0.34262 0.433819,0.4168 0.858589,0.78495 1.266074,1.0604 0.407485,0.27545 0.79003,0.48214 1.238168,0.48214 v -0.97824 c -0.08103,0 -0.358907,-0.0915 -0.69143,-0.31626 -0.332523,-0.22477 -0.725274,-0.55995 -1.134817,-0.95343 -0.127823,-0.12281 -0.258884,-0.25872 -0.389123,-0.39119 1.568477,-1.79418 3.05987,-2.85387 5.209501,-3.87211 z m 13.73818,0.0274 c 0,1.50493 -0.104621,2.70545 -0.251148,3.67884 -0.787812,0.42215 -1.601171,0.90898 -2.442228,1.46968 l 0.543121,0.81649 c 0.569701,-0.3798 1.123206,-0.7208 1.663464,-1.03198 -0.135141,0.57684 -0.27936,1.03538 -0.407728,1.37769 l 0.916223,0.34365 c 0.201525,-0.5374 0.43089,-1.3 0.61495,-2.33164 2.32301,-1.18239 4.35057,-1.71514 6.070431,-1.71514 v -0.9803 c -1.755762,0 -3.721362,0.48881 -5.900415,1.51825 0.103693,-0.89 0.172082,-1.92516 0.172082,-3.14554 z m 35.865512,0.27957 c -0.0075,0.0299 -0.109149,0.29271 -0.2558,0.58601 -0.14665,0.2933 -0.341489,0.64768 -0.55087,1.00201 -0.418761,0.70868 -0.965147,1.44721 -1.1405,1.5875 l 0.611333,0.76377 c 0.486106,-0.38888 0.931908,-1.1071 1.373042,-1.85363 0.220568,-0.37327 0.422606,-0.74392 0.581877,-1.06247 0.159274,-0.31855 0.271534,-0.55232 0.330213,-0.78703 z m 25.923483,0.0212 c -0.10769,0.5384 -0.91124,3.20157 -2.41588,5.08237 l 0.76585,0.61134 c 1.67036,-2.08797 2.45429,-4.71542 2.61121,-5.49993 z m 1.87327,0.0822 -0.93379,0.29507 c 0.4194,1.3281 1.11185,2.46442 1.78542,3.32797 0.15973,0.20479 0.31532,0.39076 0.46715,0.56275 -0.33973,0.97742 -0.555,1.86754 -0.555,2.44326 h 0.97823 c 0,-0.23044 0.12813,-0.9087 0.35347,-1.66604 0.1793,0.1534 0.346,0.27746 0.49247,0.36535 l 0.50385,-0.83819 c -0.11513,-0.0691 -0.35403,-0.26469 -0.64234,-0.54622 0.35861,-0.89273 0.83471,-1.74236 1.24592,-2.10788 l -0.65061,-0.73278 c -0.55047,0.48931 -0.97925,1.23593 -1.32601,2.03605 -0.0319,-0.0395 -0.0637,-0.0769 -0.0956,-0.11782 -0.61627,-0.79009 -1.2488,-1.83608 -1.62316,-3.02152 z m -55.236423,0.12299 -0.790649,0.57619 c 1.31832,1.80401 3.157656,3.12651 4.769217,4.0256 0.805784,0.44954 1.556025,0.79182 2.160077,1.03301 0.604049,0.24119 1.030441,0.37922 1.322398,0.42788 l 0.160197,-0.9648 c -0.104917,-0.0175 -0.553407,-0.14508 -1.119311,-0.37104 -0.565904,-0.22597 -1.279655,-0.55392 -2.044835,-0.98081 -1.530364,-0.85378 -3.261871,-2.11045 -4.457094,-3.74603 z m 11.183813,0.2775 -0.935858,0.28681 c 0.289221,0.93997 0.814887,1.80706 1.342035,2.47478 0.263576,0.33386 0.526659,0.61715 0.773597,0.83613 0.246938,0.21899 0.443209,0.38482 0.747758,0.46095 l 0.238228,-0.95136 c 0.03996,0.01 -0.144619,-0.0728 -0.335897,-0.24236 -0.191278,-0.16962 -0.423772,-0.41603 -0.656291,-0.71056 -0.465039,-0.58904 -0.933627,-1.37458 -1.173572,-2.15439 z m 38.24211,0.61134 c -0.0361,0.0841 -0.23404,0.33152 -0.54105,0.57826 -0.30701,0.24674 -0.71518,0.51321 -1.15239,0.75964 -0.87442,0.49285 -1.89416,0.91027 -2.45101,1.02164 l 0.1912,0.9586 c 0.76607,-0.15321 1.79581,-0.59465 2.7404,-1.12706 0.47229,-0.2662 0.91835,-0.55473 1.2852,-0.84956 0.36685,-0.29483 0.66391,-0.57608 0.8263,-0.95498 z m 14.041,0.0155 -0.88883,0.41031 c 0.49722,1.07732 0.51573,2.50775 0.51573,3.4432 h 0.9803 c 0,-0.93545 0.0181,-2.49869 -0.6072,-3.85351 z m -22.83013,0.62683 c -1.8359,0.42367 -3.666517,1.54017 -4.677747,3.27371 l 0.845942,0.49195 c 0.840855,-1.44146 2.448785,-2.44216 4.052465,-2.81223 z m -26.300716,0.78549 c -0.50255,2.76401 -1.932284,3.79723 -2.953308,4.43538 l 0.519864,0.82993 c 1.095642,-0.68477 2.840389,-2.0328 3.396175,-5.08962 z m 35.988496,2.93728 -0.89865,0.38654 c 0.84472,1.97102 2.31084,3.15895 4.0349,3.58997 l 0.23668,-0.95085 c -1.45093,-0.36273 -2.63016,-1.29252 -3.37293,-3.02566 z"
       style="color:#000000;font-style:normal;font-variant:normal;font-weight:normal;font-stretch:normal;font-size:medium;line-height:normal;font-family:sans-serif;font-variant-ligatures:normal;font-variant-position:normal;font-variant-caps:normal;font-variant-numeric:normal;font-variant-alternates:normal;font-feature-settings:normal;text-indent:0;text-align:start;text-decoration:none;text-decoration-line:none;text-decoration-style:solid;text-decoration-color:#000000;letter-spacing:normal;word-spacing:normal;text-transform:none;writing-mode:lr-tb;direction:ltr;text-orientation:mixed;dominant-baseline:auto;baseline-shift:baseline;text-anchor:start;white-space:normal;shape-padding:0;clip-rule:nonzero;display:inline;overflow:visible;visibility:visible;opacity:1;isolation:auto;mix-blend-mode:normal;color-interpolation:sRGB;color-interpolation-filters:linearRGB;solid-color:#000000;solid-opacity:1;vector-effect:none;fill:#cd864c;fill-opacity:1;fill-rule:nonzero;stroke:none;stroke-width:0.97895831;stroke-linecap:butt;stroke-linejoin:miter;stroke-miterlimit:4;stroke-dasharray:none;stroke-dashoffset:0;stroke-opacity:1;color-rendering:auto;image-rendering:auto;shape-rendering:auto;text-rendering:auto;enable-background:accumulate" />
  </g>
</svg>
