<?xml version="1.0" encoding="UTF-8" standalone="no"?>
<svg
   xmlns:dc="http://purl.org/dc/elements/1.1/"
   xmlns:cc="http://creativecommons.org/ns#"
   xmlns:rdf="http://www.w3.org/1999/02/22-rdf-syntax-ns#"
   xmlns:svg="http://www.w3.org/2000/svg"
   xmlns="http://www.w3.org/2000/svg"
   id="svg8"
   version="1.1"
   viewBox="0 0 113.12687 27.52958"
   height="104.04881"
   width="427.56613">
  <defs
     id="defs2" />
  <metadata
     id="metadata5">
    <rdf:RDF>
      <cc:Work
         rdf:about="">
        <dc:format>image/svg+xml</dc:format>
        <dc:type
           rdf:resource="http://purl.org/dc/dcmitype/StillImage" />
        <dc:title></dc:title>
      </cc:Work>
    </rdf:RDF>
  </metadata>
  <g
     transform="translate(-41.332357,-210.28578)"
     id="layer1">
    <path
       id="path5072"
       d="m 89.587811,210.28991 c -1.302618,0.95057 -2.496476,1.96767 -3.579111,3.02204 l -0.51883,0.0269 c 0.0079,0.15244 0.02106,0.30318 0.031,0.45476 -0.660744,0.67282 -1.269717,1.3595 -1.831411,2.05465 -0.10287,-1.25722 -0.411478,-2.5009 -1.011825,-3.68763 l -1.120347,0.56741 c 0.738368,1.45956 0.977014,3.0569 0.89607,4.68033 -0.133638,0.0813 -0.268875,0.16441 -0.403074,0.2465 0.128741,-0.62185 0.23173,-1.24047 0.298172,-1.85053 l -1.146183,-0.12558 c 0.227291,-0.43928 0.398592,-0.83437 0.49816,-1.18287 l -1.205611,-0.3421 c -0.145502,0.50926 -0.786738,1.69017 -1.699122,3.1042 -0.217125,0.3365 -0.450789,0.68937 -0.696598,1.05575 -1.377616,-1.81764 -2.809293,-3.65973 -4.192508,-5.39863 l -0.981853,0.78031 c 1.274144,1.60178 2.588104,3.29351 3.864364,4.97075 -1.155292,0.0754 -2.108885,0.12661 -2.512507,0.12661 v 0.88574 l -0.257865,-0.0646 c -0.531236,-1.35648 -1.06026,-2.81395 -1.575615,-4.38578 l -1.192176,0.39119 c -0.177914,0.24261 -0.513635,0.63519 -0.955497,1.11932 -0.541256,0.14942 -1.165501,0.29304 -1.83813,0.43304 -0.08375,-0.26428 -0.172611,-0.52546 -0.269753,-0.77928 l -1.170989,0.44959 c 0.0712,0.18604 0.13856,0.37627 0.202057,0.5705 -0.783656,0.14314 -1.610838,0.28062 -2.482537,0.41135 -0.14119,-0.25246 -0.28688,-0.50391 -0.441833,-0.75292 l -0.133842,0.0832 c 0.0388,-0.0583 0.07921,-0.12643 0.117821,-0.18293 l -1.035079,-0.70797 c -0.3947,0.57761 -0.790152,1.23096 -1.190625,1.93115 -0.374833,0.0478 -0.751422,0.0907 -1.127577,0.13539 -0.08318,-0.43879 -0.159303,-0.88271 -0.225828,-1.3317 1.021112,-0.48343 1.879262,-0.8171 2.484086,-0.9431 l -0.257347,-1.22731 c -0.674449,0.14051 -1.487654,0.43987 -2.39572,0.84853 -0.02593,-0.24235 -0.0502,-0.4854 -0.0708,-0.73019 1.054071,-1.0451 2.227323,-2.05512 3.515548,-2.99517 l -0.74104,-1.0144 c -1.302618,0.95057 -2.496476,1.96766 -3.57911,3.02203 l -0.518315,0.0269 c 0.0079,0.15243 0.02055,0.30265 0.03049,0.45423 -0.660744,0.67282 -1.269718,1.36002 -1.831413,2.05517 -0.102869,-1.25722 -0.411476,-2.5009 -1.011824,-3.68763 l -1.120345,0.56689 c 0.738366,1.45956 0.977012,3.05742 0.896069,4.68085 -0.13364,0.0813 -0.268875,0.16389 -0.403076,0.24598 0.128741,-0.62185 0.231731,-1.23995 0.298173,-1.85001 l -1.146183,-0.12558 c 0.22729,-0.43928 0.398593,-0.83437 0.498161,-1.18287 l -1.205611,-0.34262 c -0.145504,0.50926 -0.786739,1.69018 -1.699121,3.10421 -0.217127,0.3365 -0.450792,0.68989 -0.696599,1.05626 -1.377618,-1.81764 -2.809294,-3.65973 -4.192508,-5.39863 l -0.981853,0.78031 c 1.274142,1.60178 2.588105,3.29299 3.864364,4.97024 -1.155292,0.0754 -2.108886,0.12661 -2.512508,0.12661 v 1.25522 c 0.486221,0 1.50314,-0.0501 2.719214,-0.12506 -0.454118,0.65474 -0.917873,1.32019 -1.407666,2.0128 -0.341254,-0.33166 -0.694092,-0.68202 -1.065568,-1.06454 -0.699665,-1.70121 -1.401245,-3.57451 -2.07946,-5.64306 l -1.192175,0.39171 c 0.313488,0.95614 0.6323,1.86138 0.952396,2.73988 -0.04118,-0.0466 -0.07997,-0.0888 -0.121439,-0.13591 l -0.939478,0.82889 c 0.824631,0.93644 1.588774,1.76702 2.303736,2.51199 0.208841,0.50525 0.417,0.99487 0.624768,1.46813 -0.281047,0.20467 -0.560942,0.40842 -0.84181,0.61598 -0.496511,-0.63298 -0.986532,-1.24596 -1.447973,-1.80454 l -0.965316,0.79892 c 0.44979,0.54449 0.926079,1.14081 1.4087,1.75648 -1.548093,1.16418 -3.079075,2.3573 -4.538219,3.55115 l 0.795818,0.97203 c 1.086284,-0.88877 2.219912,-1.77479 3.365169,-2.65307 l 0.295589,0.39843 c 0.05785,-0.0429 0.125684,-0.0865 0.187585,-0.12971 -1.47619,2.09795 -2.844819,4.09502 -3.767211,5.65598 l 1.08107,0.63872 c 0.985128,-1.66714 2.548225,-3.92527 4.21163,-6.28075 0.557442,0.76781 1.099727,1.54969 1.598868,2.32234 0.06139,0.095 0.117801,0.18939 0.177767,0.28422 -0.705567,1.09118 -1.409542,2.08515 -2.062406,2.91455 -0.98524,1.25164 -1.881209,2.15888 -2.391069,2.50941 l 0.711068,1.03508 c 0.744528,-0.51187 1.640847,-1.46462 2.667021,-2.76831 0.57528,-0.73082 1.182863,-1.57824 1.795239,-2.49855 0.09414,0.16463 0.182772,0.32609 0.270785,0.48782 l 0.236678,0.95033 c 0.07318,-0.0183 0.148119,-0.0428 0.221692,-0.0625 0.162471,0.33362 0.313123,0.6595 0.438732,0.9679 -0.271965,0.15465 -0.547741,0.29699 -0.829406,0.42065 l 0.504879,1.14876 c 0.248164,-0.10894 0.490236,-0.22968 0.729154,-0.3576 0.05558,0.22411 0.09906,0.43768 0.118339,0.63046 l 1.068151,-0.10646 0.772046,0.81287 c 0.965433,-0.91592 1.9757,-2.38725 2.910417,-4.18785 0.278879,0.15728 0.573123,0.30327 0.886251,0.43408 -1.600416,1.85511 -2.926098,3.51106 -3.639571,4.49895 l 1.016475,0.7338 c 0.714006,-0.98863 2.188315,-2.79202 3.945496,-4.7904 1.467086,0.38264 3.231425,0.52756 5.316471,0.40204 -0.78254,1.26233 -1.80634,2.35127 -3.059761,3.18688 l 0.694531,1.04439 c 1.773537,-1.18237 3.127185,-2.79828 4.040064,-4.67414 0.204443,0.27427 0.407656,0.53875 0.610298,0.786 -0.513786,1.24549 -1.095523,2.24311 -1.685687,2.84841 l 0.898655,0.87488 c 0.651825,-0.66855 1.231003,-1.58022 1.730642,-2.66495 0.539557,0.55631 1.061181,1.00794 1.54771,1.33635 l 0.701249,-1.03922 c -0.489368,-0.33033 -1.08105,-0.87357 -1.720824,-1.59318 0.488607,-1.34207 0.876809,-2.86518 1.152902,-4.47724 0.367678,-0.29768 0.7371,-0.59518 1.11311,-0.89194 0.172085,0.46902 0.355478,0.93848 0.555005,1.4056 -0.761619,1.12281 -1.449072,2.17414 -1.979723,3.07216 l 1.081069,0.63872 c 0.411139,-0.69577 0.938972,-1.51088 1.516705,-2.3766 0.451342,0.91239 0.960552,1.80511 1.537891,2.65721 -0.62361,0.70446 -1.167278,1.22731 -1.519806,1.46967 l 0.711067,1.03508 c 0.74453,-0.51187 1.640848,-1.46513 2.667021,-2.76882 0.575281,-0.73082 1.182865,-1.57773 1.795241,-2.49804 0.09414,0.16464 0.182771,0.32558 0.270785,0.48731 l 0.236678,0.95084 c 0.07318,-0.0183 0.148119,-0.0428 0.221691,-0.0625 0.162473,0.33362 0.313124,0.6595 0.438732,0.9679 -0.271965,0.15465 -0.54774,0.29698 -0.829405,0.42064 l 0.504878,1.14825 c 0.248166,-0.10895 0.490236,-0.22968 0.729155,-0.3576 0.05558,0.22411 0.09906,0.43819 0.118337,0.63097 l 1.068152,-0.10645 0.772046,0.81235 c 0.965433,-0.91592 1.9757,-2.38674 2.910417,-4.18734 0.278879,0.15728 0.573125,0.30276 0.886251,0.43357 -1.600414,1.85511 -2.926099,3.51157 -3.639571,4.49946 l 1.016476,0.73381 c 0.714005,-0.98863 2.188313,-2.79203 3.945496,-4.79041 1.467085,0.38264 3.231425,0.52705 5.316471,0.40153 -0.78254,1.26233 -1.806855,2.35126 -3.060279,3.18689 l 0.69505,1.04437 c 1.773536,-1.18237 3.126668,-2.79827 4.039544,-4.67413 0.204446,0.27427 0.408175,0.53875 0.610817,0.786 -0.513786,1.24549 -1.095523,2.24362 -1.685687,2.84892 L 91.817132,236.4 c 0.651825,-0.66855 1.230487,-1.58023 1.730126,-2.66496 0.539554,0.55631 1.061696,1.00795 1.548225,1.33636 l 0.701249,-1.03922 c -0.489368,-0.33033 -1.08105,-0.87357 -1.720823,-1.59318 0.400822,-1.10096 0.73302,-2.32464 0.992187,-3.61839 0.487119,-0.39715 0.981869,-0.79401 1.484146,-1.18959 0.173292,0.44454 0.362109,0.8871 0.560689,1.32809 -0.80627,1.18448 -1.535289,2.29393 -2.091343,3.23494 l 1.081069,0.63872 c 0.441362,-0.74692 1.010833,-1.62444 1.641245,-2.56418 0.423341,0.81284 0.894281,1.6076 1.420585,2.36781 l 0.924493,-0.6413 c -0.0198,0.0253 -0.0408,0.0535 -0.0605,0.0786 -0.985241,1.25164 -1.88121,2.15887 -2.39107,2.5094 l 0.711067,1.03508 c 0.74453,-0.51187 1.640848,-1.46513 2.667023,-2.76882 0.57528,-0.73082 1.18286,-1.57773 1.79524,-2.49804 0.0941,0.16464 0.18277,0.32558 0.27078,0.48731 l 0.23668,0.95084 c 0.0732,-0.0183 0.14812,-0.0428 0.22169,-0.0625 0.16248,0.33362 0.31313,0.6595 0.43874,0.9679 -0.27197,0.15465 -0.54774,0.29698 -0.82941,0.42064 l 0.50488,1.14825 c 0.24816,-0.10895 0.49023,-0.22968 0.72915,-0.3576 0.0556,0.22411 0.0991,0.43819 0.11834,0.63097 l 1.06815,-0.10645 0.77205,0.81235 c 0.96543,-0.91592 1.9757,-2.38674 2.91042,-4.18734 0.27887,0.15728 0.57312,0.30276 0.88625,0.43357 -1.60042,1.85511 -2.9261,3.51157 -3.63957,4.49946 l 1.01647,0.73381 c 0.71401,-0.98863 2.18831,-2.79203 3.9455,-4.79041 1.46708,0.38264 3.23142,0.52705 5.31647,0.40153 -0.78254,1.26233 -1.80686,2.35126 -3.06028,3.18689 l 0.69505,1.04437 c 1.77354,-1.18237 3.12667,-2.79827 4.03954,-4.67413 0.20445,0.27427 0.40818,0.53875 0.61082,0.786 -0.51379,1.24549 -1.09552,2.24362 -1.68569,2.84892 l 0.89866,0.87437 c 0.65182,-0.66855 1.23049,-1.58023 1.73012,-2.66496 0.53956,0.55631 1.0617,1.00795 1.54823,1.33636 l 0.70125,-1.03922 c -0.48937,-0.33033 -1.08105,-0.87357 -1.72082,-1.59318 0.40082,-1.10096 0.73302,-2.32464 0.99218,-3.61839 0.48695,-0.39701 0.98206,-0.79363 1.48415,-1.18907 0.17324,0.44438 0.36217,0.88673 0.56069,1.32757 -0.80627,1.18448 -1.53529,2.29393 -2.09135,3.23494 l 1.08107,0.63872 c 0.44137,-0.74692 1.01084,-1.62444 1.64125,-2.56418 0.42334,0.81284 0.89428,1.6076 1.42058,2.36781 l 0.92449,-0.6413 c -0.0198,0.0253 -0.0408,0.0535 -0.0605,0.0786 -0.98523,1.25164 -1.8812,2.15887 -2.39106,2.5094 l 0.71106,1.03508 c 0.74453,-0.51187 1.64085,-1.46513 2.66703,-2.76882 0.57528,-0.73082 1.18286,-1.57773 1.79524,-2.49804 0.0941,0.16464 0.18277,0.32558 0.27078,0.48731 l 0.23668,0.95084 c 0.0732,-0.0183 0.14812,-0.0428 0.22169,-0.0625 0.16247,0.33362 0.31312,0.6595 0.43873,0.9679 -0.27196,0.15465 -0.54774,0.29698 -0.8294,0.42064 l 0.50487,1.14825 c 0.24817,-0.10895 0.49024,-0.22968 0.72916,-0.3576 0.0556,0.22411 0.0991,0.43819 0.11834,0.63097 l 1.06815,-0.10645 0.77205,0.81235 c 0.96543,-0.91592 1.9757,-2.38674 2.91041,-4.18734 0.27888,0.15728 0.57313,0.30276 0.88625,0.43357 -1.60041,1.85511 -2.9261,3.51157 -3.63957,4.49946 l 1.01648,0.73381 c 0.714,-0.98863 2.18831,-2.79203 3.94549,-4.79041 1.46709,0.38264 3.23142,0.52705 5.31648,0.40153 -0.78254,1.26233 -1.80634,2.35126 -3.05977,3.18689 l 0.69454,1.04437 c 1.77354,-1.18237 3.12719,-2.79827 4.04006,-4.67413 0.20445,0.27427 0.40766,0.53875 0.6103,0.786 -0.51379,1.24549 -1.09552,2.24362 -1.68568,2.84892 l 0.89865,0.87437 c 0.65183,-0.66855 1.231,-1.58023 1.73064,-2.66496 0.53955,0.55631 1.06118,1.00795 1.54771,1.33636 l 0.70125,-1.03922 c -0.48937,-0.33033 -1.08105,-0.87357 -1.72082,-1.59318 0.55846,-1.53396 0.98578,-3.30432 1.26452,-5.17385 0.044,-0.29486 0.0829,-0.59204 0.11885,-0.8909 0.16872,-0.12859 0.33727,-0.25723 0.50437,-0.38912 0.73731,2.26148 1.7686,4.58251 3.20084,6.65127 l 1.03042,-0.7152 c -1.43817,-2.07737 -2.46236,-4.47428 -3.17965,-6.79545 2.18597,-1.85762 4.0326,-3.88616 4.52737,-5.86527 l -1.21853,-0.30541 c -0.32839,1.31358 -1.80955,3.13201 -3.69434,4.83071 -0.40292,-1.52636 -0.67279,-2.97853 -0.84595,-4.24832 0.47913,-0.0361 0.90467,-0.0561 1.19321,-0.0388 l 0.0739,-1.25212 c -0.20832,-0.0125 -0.44649,-0.0117 -0.69918,-0.005 0.36448,-0.3709 0.70364,-0.72406 0.99632,-1.04076 5.3e-4,-1.7e-4 0.001,-2e-4 0.002,-5.3e-4 l -5.3e-4,-0.001 c 0.57063,-0.61754 1.0059,-1.1271 1.26659,-1.48259 l -1.01131,-0.74311 c -0.17791,0.24261 -0.51364,0.63468 -0.9555,1.1188 -0.54126,0.14943 -1.1655,0.29304 -1.83813,0.43305 -0.0837,-0.26429 -0.17261,-0.52495 -0.26975,-0.77877 l -1.17099,0.44959 c 0.0712,0.18604 0.13856,0.37576 0.20206,0.56999 -0.78366,0.14314 -1.61032,0.28113 -2.48202,0.41186 -0.14119,-0.25246 -0.2874,-0.50391 -0.44235,-0.75293 l -0.13384,0.0827 c 0.0388,-0.0583 0.0792,-0.12591 0.11782,-0.18241 l -1.03508,-0.70797 c -0.3947,0.57761 -0.79015,1.23096 -1.19063,1.93115 -0.37483,0.0478 -0.75142,0.0907 -1.12758,0.13539 -0.0832,-0.43879 -0.15879,-0.88271 -0.22531,-1.3317 1.02111,-0.48343 1.87876,-0.8171 2.48358,-0.9431 l -0.25735,-1.22783 c -0.67445,0.14051 -1.48766,0.43987 -2.39573,0.84853 -0.0259,-0.24235 -0.0503,-0.4854 -0.0708,-0.73019 1.05407,-1.0451 2.22733,-2.05512 3.51555,-2.99516 l -0.74104,-1.01441 c -1.30261,0.95057 -2.49648,1.96767 -3.57911,3.02204 l -0.51831,0.0269 c 0.008,0.15244 0.0206,0.30317 0.0305,0.45475 -0.66074,0.67282 -1.26972,1.3595 -1.83142,2.05465 -0.10287,-1.25722 -0.41147,-2.5009 -1.01182,-3.68763 l -1.12035,0.56741 c 0.73837,1.45956 0.97702,3.05691 0.89607,4.68034 -0.13364,0.0813 -0.26887,0.1644 -0.40307,0.24649 0.12874,-0.62185 0.23173,-1.24047 0.29817,-1.85053 l -1.14618,-0.12557 c 0.22728,-0.43928 0.39859,-0.83438 0.49816,-1.18288 l -1.20561,-0.3421 c -0.14551,0.50926 -0.78674,1.69018 -1.69913,3.10421 -0.21712,0.3365 -0.45078,0.68937 -0.69659,1.05575 -1.37762,-1.81764 -2.8093,-3.65974 -4.19251,-5.39864 l -0.98185,0.78031 c 1.27414,1.60178 2.5881,3.29351 3.86436,4.97076 -1.15529,0.0754 -2.10889,0.12661 -2.51251,0.12661 v 0.2651 l -0.41083,-0.10284 c -0.0118,0.0475 -0.0286,0.097 -0.0434,0.14573 -0.465,-1.21139 -0.92749,-2.49479 -1.37924,-3.87263 l -0.65681,0.21549 -0.63975,-0.47026 c -0.17792,0.24261 -0.51364,0.63468 -0.9555,1.1188 -0.54125,0.14943 -1.1655,0.29304 -1.83813,0.43305 -0.0837,-0.26429 -0.17261,-0.52495 -0.26975,-0.77877 l -1.17099,0.44959 c 0.0712,0.18604 0.13856,0.37576 0.20206,0.56999 -0.78366,0.14314 -1.61084,0.28113 -2.48254,0.41186 -0.14119,-0.25246 -0.28688,-0.50391 -0.44183,-0.75293 l -0.13385,0.0827 c 0.0388,-0.0583 0.0792,-0.12591 0.11783,-0.18241 l -1.03508,-0.70797 c -0.3947,0.57761 -0.79016,1.23096 -1.19063,1.93115 -0.37483,0.0478 -0.75142,0.0907 -1.12758,0.13539 -0.0832,-0.43879 -0.1593,-0.88271 -0.22582,-1.3317 1.02111,-0.48343 1.87926,-0.8171 2.48408,-0.9431 l -0.25735,-1.22783 c -0.67444,0.14051 -1.48765,0.43987 -2.39571,0.84853 -0.0259,-0.24235 -0.0502,-0.4854 -0.0708,-0.73019 1.05407,-1.0451 2.22732,-2.05512 3.51554,-2.99516 l -0.74104,-1.01441 c -1.30261,0.95057 -2.49647,1.96767 -3.57911,3.02204 l -0.51831,0.0269 c 0.008,0.15244 0.0206,0.30317 0.0305,0.45475 -0.66074,0.67282 -1.26972,1.3595 -1.83141,2.05465 -0.10287,-1.25722 -0.41148,-2.5009 -1.01183,-3.68763 l -1.12034,0.56741 c 0.73836,1.45956 0.97701,3.05691 0.89607,4.68034 -0.13364,0.0813 -0.26888,0.1644 -0.40308,0.24649 0.12874,-0.62185 0.23173,-1.24047 0.29817,-1.85053 l -1.14618,-0.12557 c 0.22729,-0.43928 0.39859,-0.83438 0.49816,-1.18288 l -1.20561,-0.3421 c -0.1455,0.50926 -0.78674,1.69018 -1.69912,3.10421 -0.21713,0.3365 -0.45079,0.68937 -0.6966,1.05575 -1.37762,-1.81764 -2.80929,-3.65974 -4.19251,-5.39864 l -0.981851,0.78031 c 1.274141,1.60178 2.588101,3.29351 3.864361,4.97076 -1.15529,0.0754 -2.10888,0.12661 -2.5125,0.12661 v 0.2651 l -0.41083,-0.10284 c -0.0118,0.0475 -0.0286,0.097 -0.0434,0.14573 -0.465008,-1.21139 -0.927494,-2.49479 -1.379247,-3.87263 l -0.656806,0.21549 -0.639755,-0.47026 c -0.177914,0.24261 -0.513636,0.63468 -0.955498,1.1188 -0.541255,0.14943 -1.1655,0.29304 -1.838132,0.43305 -0.08376,-0.26429 -0.172608,-0.52495 -0.26975,-0.77877 l -1.170988,0.44959 c 0.0712,0.18604 0.13856,0.37576 0.202055,0.56999 -0.783657,0.14314 -1.610837,0.28113 -2.482536,0.41186 -0.141189,-0.25246 -0.286882,-0.50391 -0.441833,-0.75293 l -0.133842,0.0827 c 0.0388,-0.0583 0.07921,-0.12591 0.117822,-0.18241 l -1.035079,-0.70797 c -0.3947,0.57761 -0.790155,1.23096 -1.190625,1.93115 -0.374833,0.0478 -0.751938,0.0907 -1.128096,0.13539 -0.08318,-0.43879 -0.158785,-0.88271 -0.225309,-1.3317 1.021112,-0.48343 1.879262,-0.8171 2.484086,-0.9431 l -0.25735,-1.22783 c -0.674447,0.14051 -1.487651,0.43987 -2.395717,0.84853 -0.02593,-0.24235 -0.0502,-0.4854 -0.0708,-0.73019 1.05407,-1.0451 2.227323,-2.05512 3.515547,-2.99516 z m -8.521962,5.64617 c -0.09999,0.79455 -0.261006,1.61082 -0.472839,2.43809 -0.387723,0.0337 -0.723165,0.0591 -1.088822,0.0889 0.116412,-0.17636 0.237895,-0.35787 0.34675,-0.52659 0.483627,-0.74949 0.894781,-1.41317 1.214911,-2.00039 z m 26.458331,0 c -0.1,0.79455 -0.261,1.61082 -0.47284,2.43809 -0.38772,0.0337 -0.72316,0.0591 -1.08882,0.0889 0.11641,-0.17636 0.2379,-0.35787 0.34675,-0.52659 0.48363,-0.74949 0.89478,-1.41317 1.21491,-2.00039 z m 26.45834,0 c -0.1,0.79455 -0.26101,1.61082 -0.47284,2.43809 -0.38773,0.0337 -0.72317,0.0591 -1.08883,0.0889 0.11642,-0.17636 0.2379,-0.35787 0.34675,-0.52659 0.48363,-0.74949 0.89479,-1.41317 1.21492,-2.00039 z m -9.52604,0.53588 c 0.21999,0.64496 0.44096,1.2769 0.66353,1.88774 -0.0412,-0.0466 -0.08,-0.0888 -0.12144,-0.1359 l -0.93948,0.82837 c 0.59698,0.67792 1.15251,1.28368 1.69034,1.85828 -0.26457,0.36328 -0.56639,0.73577 -0.90434,1.11518 -0.0484,-0.059 -0.0995,-0.12348 -0.14728,-0.18138 l -0.96531,0.7984 c 0.079,0.0956 0.16236,0.20056 0.24288,0.2992 -0.2845,0.28272 -0.57771,0.56486 -0.88729,0.84388 -0.40292,-1.52636 -0.67278,-2.97853 -0.84594,-4.24832 0.47913,-0.0361 0.90467,-0.0561 1.19321,-0.0388 l 0.0739,-1.25212 c -0.20833,-0.0125 -0.4465,-0.0117 -0.69919,-0.005 0.36449,-0.3709 0.70364,-0.72406 0.99633,-1.04076 5.3e-4,-1.7e-4 0.002,-2e-4 0.002,-5.3e-4 l -0.001,-0.001 c 0.24701,-0.26731 0.45594,-0.50392 0.64905,-0.72708 z m -26.458848,5.3e-4 c 0.21994,0.64482 0.441515,1.2765 0.664043,1.88722 -0.04118,-0.0466 -0.07997,-0.0888 -0.121441,-0.1359 l -0.939477,0.82837 c 0.596979,0.67792 1.152509,1.28368 1.690335,1.85828 -0.264564,0.36328 -0.566385,0.73577 -0.904335,1.11518 -0.04842,-0.059 -0.09945,-0.12348 -0.147277,-0.18138 l -0.965317,0.7984 c 0.07898,0.0956 0.162367,0.20056 0.24288,0.2992 -0.284496,0.28272 -0.577702,0.56486 -0.887286,0.84388 -0.402923,-1.52636 -0.67278,-2.97853 -0.845942,-4.24832 0.479129,-0.0361 0.904666,-0.0561 1.193208,-0.0388 l 0.0739,-1.25212 c -0.208328,-0.0125 -0.446498,-0.0117 -0.699183,-0.005 0.364482,-0.37091 0.703641,-0.72407 0.996323,-1.04077 5.29e-4,-1.7e-4 0.0016,-2e-4 0.0021,-5.3e-4 l -0.0011,-0.001 c 0.246824,-0.26712 0.45553,-0.50354 0.648538,-0.72657 z m -43.28573,0.11007 c -0.09999,0.79455 -0.261007,1.61083 -0.472839,2.4381 -0.387724,0.0337 -0.723165,0.0591 -1.088823,0.0889 0.116413,-0.17636 0.237896,-0.35787 0.346749,-0.52658 0.483523,-0.74934 0.894812,-1.41327 1.214913,-2.0004 z m 17.014984,0.44339 c 0.158059,0.45318 0.317272,0.89688 0.476456,1.33376 -0.04118,-0.0466 -0.07997,-0.0888 -0.121441,-0.1359 l -0.939477,0.82837 c 0.717026,0.81424 1.380863,1.53551 2.013831,2.20297 -0.255252,0.37691 -0.561933,0.76965 -0.903819,1.1684 -0.158351,-0.19574 -0.318408,-0.39423 -0.47129,-0.57929 l -0.965316,0.7984 c 0.188008,0.22759 0.382455,0.46874 0.578257,0.7121 -0.352446,0.36052 -0.723558,0.72171 -1.118277,1.07745 -0.402923,-1.52636 -0.67278,-2.97853 -0.845942,-4.24832 0.479132,-0.0361 0.904666,-0.056 1.193208,-0.0387 l 0.0739,-1.25264 c -0.208328,-0.0125 -0.446498,-0.0111 -0.699183,-0.005 0.364482,-0.37091 0.703641,-0.72406 0.996323,-1.04076 5.29e-4,-1.7e-4 0.0016,-2.1e-4 0.0021,-5.3e-4 l -0.0011,-0.001 c 0.278452,-0.30134 0.522295,-0.57496 0.731739,-0.81958 z m 13.371277,0.32711 c 0.0053,0.19098 0.0078,0.38298 0.0062,0.57774 -0.427413,0.046 -0.856994,0.0945 -1.280025,0.13746 0.440478,-0.25533 0.861904,-0.49024 1.273825,-0.7152 z m 26.458337,0 c 0.005,0.19098 0.008,0.38298 0.006,0.57774 -0.42742,0.046 -0.857,0.0945 -1.28003,0.13746 0.44048,-0.25533 0.86191,-0.49024 1.27383,-0.7152 z m 26.45833,0 c 0.005,0.19098 0.008,0.38298 0.006,0.57774 -0.42741,0.046 -0.85751,0.0945 -1.28054,0.13746 0.44047,-0.25533 0.86242,-0.49024 1.27434,-0.7152 z m -44.102735,0.63924 c 0.03596,0.15516 0.06564,0.31502 0.09715,0.47387 -0.627259,0.0877 -1.289556,0.19077 -2.021065,0.32246 -0.03058,0.005 -0.06488,0.0125 -0.0956,0.0181 -0.06289,-0.14357 -0.121293,-0.28758 -0.1881,-0.43047 0.770096,-0.12147 1.502346,-0.25073 2.207617,-0.38395 z m 26.458335,0 c 0.036,0.15516 0.0656,0.31502 0.0971,0.47387 -0.62726,0.0877 -1.28956,0.19077 -2.02107,0.32246 -0.0306,0.005 -0.0649,0.0125 -0.0956,0.0181 -0.0629,-0.14357 -0.12129,-0.28758 -0.1881,-0.43047 0.7701,-0.12147 1.50235,-0.25073 2.20762,-0.38395 z m 26.45833,0 c 0.036,0.15516 0.0657,0.31502 0.0971,0.47387 -0.62725,0.0877 -1.28956,0.19077 -2.02106,0.32246 -0.0306,0.005 -0.0649,0.0125 -0.0956,0.0181 -0.0629,-0.14357 -0.12129,-0.28758 -0.1881,-0.43047 0.7701,-0.12147 1.50234,-0.25073 2.20761,-0.38395 z m -88.084546,0.007 c 0.0053,0.19098 0.0078,0.3835 0.0062,0.57826 -0.427415,0.046 -0.856994,0.0939 -1.280025,0.13694 0.440477,-0.25533 0.861904,-0.49024 1.273825,-0.7152 z m 31.660083,0.57154 c 0.0791,0.1594 0.15264,0.31939 0.226343,0.47956 -0.590196,0.1179 -1.197666,0.2468 -1.823662,0.38602 0.125074,-0.2304 0.254198,-0.47476 0.376722,-0.69557 0.411485,-0.0551 0.817038,-0.11172 1.220597,-0.17001 z m 26.458333,0 c 0.0791,0.1594 0.15264,0.31939 0.22634,0.47956 -0.59019,0.1179 -1.19766,0.2468 -1.82366,0.38602 0.12508,-0.2304 0.2542,-0.47476 0.37672,-0.69557 0.41149,-0.0551 0.81704,-0.11172 1.2206,-0.17001 z m 26.45834,0 c 0.0791,0.1594 0.15264,0.31939 0.22634,0.47956 -0.59019,0.1179 -1.19766,0.2468 -1.82366,0.38602 0.12507,-0.2304 0.25419,-0.47476 0.37672,-0.69557 0.41148,-0.0551 0.81704,-0.11172 1.2206,-0.17001 z m -75.762823,0.0677 c 0.03596,0.15516 0.06565,0.31554 0.09715,0.47439 -0.627261,0.0877 -1.289558,0.19026 -2.021067,0.32195 -0.03058,0.005 -0.06488,0.013 -0.0956,0.0186 -0.06288,-0.14357 -0.121295,-0.28758 -0.188102,-0.43047 0.770096,-0.12147 1.502346,-0.25125 2.207617,-0.38447 z m 20.075261,0.30179 c -0.02098,0.0388 -0.0437,0.0827 -0.06511,0.12248 -0.0087,-0.0376 -0.01823,-0.0745 -0.02687,-0.11214 0.03084,-0.004 0.06108,-0.007 0.09199,-0.0103 z m 26.458332,0 c -0.021,0.0388 -0.0437,0.0827 -0.0651,0.12248 -0.009,-0.0376 -0.0182,-0.0745 -0.0269,-0.11214 0.0308,-0.004 0.0611,-0.007 0.092,-0.0103 z m 26.45833,0 c -0.021,0.0388 -0.0437,0.0827 -0.0651,0.12248 -0.009,-0.0376 -0.0183,-0.0745 -0.0269,-0.11214 0.0308,-0.004 0.0611,-0.007 0.092,-0.0103 z m -54.235962,0.27284 c 0.059,0.25824 0.121002,0.51382 0.185002,0.76791 -0.08612,0.0213 -0.171714,0.0422 -0.257865,0.0636 0.03061,-0.27848 0.05319,-0.5555 0.07286,-0.83148 z m 26.458332,0 c 0.059,0.25824 0.121,0.51382 0.185,0.76791 -0.0861,0.0213 -0.17171,0.0422 -0.25786,0.0636 0.0306,-0.27848 0.0532,-0.5555 0.0729,-0.83148 z m 26.45833,0 c 0.059,0.25824 0.12102,0.51382 0.18501,0.76791 -0.0861,0.0213 -0.17172,0.0422 -0.25787,0.0636 0.0306,-0.27848 0.0532,-0.5555 0.0729,-0.83148 z m -75.180419,0.004 c 0.0791,0.1594 0.152641,0.31938 0.226341,0.47955 -0.590193,0.11792 -1.197666,0.24681 -1.823659,0.38603 0.125071,-0.2304 0.254198,-0.47424 0.376719,-0.69505 0.411485,-0.0551 0.817038,-0.11224 1.220599,-0.17053 z m 20.997684,0.016 c -0.0297,0.37901 -0.07061,0.76192 -0.121439,1.14825 -0.11567,0.0305 -0.230201,0.0592 -0.346231,0.0904 -0.476472,0.12808 -0.951815,0.26093 -1.426271,0.39688 0.13022,-0.48718 0.242909,-0.98129 0.333314,-1.48001 0.517808,-0.0506 1.033751,-0.10014 1.560627,-0.15555 z m 26.458335,0 c -0.0297,0.37901 -0.0706,0.76192 -0.12144,1.14825 -0.11567,0.0305 -0.2302,0.0592 -0.34623,0.0904 -0.47647,0.12808 -0.95182,0.26093 -1.42627,0.39688 0.13022,-0.48718 0.24291,-0.98129 0.33331,-1.48001 0.51781,-0.0506 1.03375,-0.10014 1.56063,-0.15555 z m 26.45833,0 c -0.0297,0.37901 -0.0707,0.76192 -0.12144,1.14825 -0.11567,0.0305 -0.2302,0.0592 -0.34623,0.0904 -0.47647,0.12808 -0.95182,0.26093 -1.42627,0.39688 0.13022,-0.48718 0.24291,-0.98129 0.33332,-1.48001 0.5178,-0.0506 1.03375,-0.10014 1.56062,-0.15555 z m -76.684724,0.35347 c -0.02106,0.0389 -0.04411,0.0825 -0.06563,0.12247 -0.0087,-0.0376 -0.01826,-0.0745 -0.02687,-0.11214 0.03102,-0.004 0.06142,-0.007 0.0925,-0.0103 z m -1.319816,0.27337 c 0.059,0.25823 0.121003,0.51381 0.185002,0.76791 -0.08612,0.0213 -0.171714,0.0416 -0.257865,0.063 0.03061,-0.27848 0.05319,-0.55498 0.07286,-0.83095 z m -1.266072,0.0191 v 5.2e-4 c -0.0297,0.37901 -0.07062,0.76193 -0.12144,1.14825 -0.11567,0.0305 -0.230201,0.0587 -0.346232,0.0899 -0.476472,0.12808 -0.951814,0.26093 -1.426269,0.39688 0.130221,-0.48718 0.242909,-0.98078 0.333313,-1.4795 0.517809,-0.0506 1.033752,-0.10065 1.560628,-0.15606 z m 18.301726,0.0444 c -0.454118,0.65474 -0.91839,1.31967 -1.408184,2.01228 -0.271362,-0.26374 -0.55753,-0.55232 -0.846976,-0.84646 0.177668,-0.35678 0.3171,-0.71354 0.414962,-1.06867 0.512868,-0.0216 1.116399,-0.0525 1.840198,-0.0971 z m 26.458336,0 c -0.45412,0.65474 -0.91788,1.31967 -1.40767,2.01228 -0.34125,-0.33166 -0.69409,-0.68202 -1.06557,-1.06454 -0.0159,-0.0386 -0.0317,-0.08 -0.0475,-0.11885 0.13386,-0.24051 0.25089,-0.48113 0.35088,-0.72141 0.54804,-0.0177 1.26131,-0.0515 2.1699,-0.10748 z m 26.45833,0 c -0.45412,0.65474 -0.91787,1.31967 -1.40766,2.01228 -0.34126,-0.33166 -0.6941,-0.68202 -1.06557,-1.06454 -0.0159,-0.0386 -0.0317,-0.08 -0.0475,-0.11885 0.13385,-0.24051 0.25089,-0.48113 0.35088,-0.72141 0.54803,-0.0177 1.26131,-0.0515 2.16989,-0.10748 z m -37.111429,0.003 c -0.114747,0.10655 -0.22466,0.21016 -0.342614,0.31833 -0.02813,-0.0827 -0.06249,-0.16495 -0.09199,-0.24753 0.1509,-0.0267 0.287859,-0.0462 0.434599,-0.0708 z m 26.458329,0 c -0.11474,0.10655 -0.22466,0.21016 -0.34261,0.31833 -0.0281,-0.0827 -0.0625,-0.16495 -0.092,-0.24753 0.1509,-0.0267 0.28786,-0.0462 0.4346,-0.0708 z m 26.45834,0 c -0.11475,0.10655 -0.22465,0.21016 -0.34261,0.31833 -0.0281,-0.0827 -0.0625,-0.16495 -0.092,-0.24753 0.1509,-0.0267 0.28786,-0.0462 0.4346,-0.0708 z m -54.595638,0.30644 c 0.115004,0.3084 0.223285,0.61757 0.317812,0.92708 -0.648795,0.5758 -1.317167,1.15636 -2.018998,1.73788 -0.183621,0.15214 -0.372875,0.30319 -0.559657,0.45475 -0.2936,-0.78869 -0.566068,-1.60846 -0.812353,-2.45515 1.070668,-0.25075 2.100791,-0.47361 3.073196,-0.66456 z m 26.458338,0 c 0.115,0.3084 0.22328,0.61757 0.31781,0.92708 -0.6488,0.5758 -1.31717,1.15636 -2.019,1.73788 -0.18362,0.15214 -0.37288,0.30319 -0.55966,0.45475 -0.2936,-0.78869 -0.56607,-1.60846 -0.81235,-2.45515 1.07067,-0.25075 2.10079,-0.47361 3.0732,-0.66456 z m 26.45833,0 c 0.115,0.3084 0.22328,0.61757 0.31781,0.92708 -0.64879,0.5758 -1.31716,1.15636 -2.01899,1.73788 -0.18363,0.15214 -0.37287,0.30319 -0.55966,0.45475 -0.2936,-0.78869 -0.56555,-1.60846 -0.81184,-2.45515 1.07067,-0.25075 2.10027,-0.47361 3.07268,-0.66456 z m -49.753553,0.0362 c 0.0805,0.76207 0.122827,1.54493 0.129709,2.33732 l -0.551389,-0.89607 c -0.270531,0.16647 -0.55227,0.3575 -0.844391,0.56793 -0.04878,-0.23176 -0.103391,-0.4633 -0.162264,-0.69505 0.501039,-0.45042 0.974585,-0.88761 1.428335,-1.31413 z m 26.458333,0 c 0.0805,0.76207 0.12283,1.54493 0.12971,2.33732 l -0.55139,-0.89607 c -0.27053,0.16647 -0.55227,0.3575 -0.84439,0.56793 -0.0488,-0.23176 -0.10339,-0.4633 -0.16226,-0.69505 0.50103,-0.45042 0.97458,-0.88761 1.42833,-1.31413 z m 26.45834,0 c 0.0805,0.76207 0.12282,1.54493 0.12971,2.33732 l -0.55139,-0.89607 c -0.27053,0.16647 -0.55228,0.3575 -0.84439,0.56793 -0.0488,-0.23176 -0.10339,-0.4633 -0.16227,-0.69505 0.50105,-0.45042 0.97458,-0.88761 1.42834,-1.31413 z m -67.243445,0.2005 c -0.02577,0.0745 -0.0542,0.14873 -0.08062,0.22324 -0.02741,-0.0371 -0.05725,-0.0754 -0.08475,-0.11265 0.05453,-0.036 0.110993,-0.0748 0.165365,-0.11059 z m 52.917185,0 c -0.0258,0.0745 -0.0547,0.14873 -0.0811,0.22324 -0.0274,-0.0371 -0.0567,-0.0754 -0.0842,-0.11265 0.0545,-0.036 0.11099,-0.0748 0.16536,-0.11059 z m -26.45885,5.3e-4 c -0.0257,0.0743 -0.0543,0.14837 -0.0806,0.22272 -0.0274,-0.0371 -0.0572,-0.0754 -0.0847,-0.11265 0.0543,-0.0359 0.11117,-0.0744 0.16536,-0.11007 z m -39.969657,0.10232 c -0.114747,0.10655 -0.224658,0.21015 -0.342614,0.31832 -0.02813,-0.0827 -0.06248,-0.16443 -0.09198,-0.24701 0.1509,-0.0267 0.287861,-0.0467 0.434599,-0.0713 z m -1.678966,0.30695 c 0.115001,0.30841 0.223282,0.61705 0.317809,0.92657 -0.648795,0.57579 -1.316648,1.15687 -2.018482,1.73839 -0.183621,0.15214 -0.373391,0.30267 -0.560173,0.45423 -0.293598,-0.78868 -0.565553,-1.60794 -0.811835,-2.45463 1.070666,-0.25075 2.100273,-0.47361 3.072681,-0.66456 z m 3.163113,0.0362 c 0.0805,0.76207 0.12283,1.54494 0.129709,2.33732 l -0.55139,-0.89606 c -0.270531,0.16646 -0.55227,0.35698 -0.844391,0.5674 -0.04878,-0.23176 -0.103391,-0.4633 -0.162264,-0.69505 0.501042,-0.45042 0.974585,-0.88709 1.428336,-1.31361 z m -14.326257,0.19999 c -0.02578,0.0745 -0.05472,0.14925 -0.08113,0.22375 -0.02741,-0.0371 -0.05673,-0.0755 -0.08423,-0.11265 0.05453,-0.036 0.110993,-0.0753 0.165365,-0.1111 z m 25.145752,0.16381 c 0.192789,0.26026 0.380106,0.51454 0.567925,0.7705 -0.903694,0.30199 -1.782566,0.61181 -2.612244,0.93276 -0.06444,-0.058 -0.121846,-0.10479 -0.187584,-0.16485 0.753864,-0.53269 1.496449,-1.04171 2.231903,-1.53841 z m 26.458335,0 c 0.19279,0.26026 0.3801,0.51454 0.56792,0.7705 -0.90369,0.30199 -1.78256,0.61181 -2.61224,0.93276 -0.0644,-0.058 -0.12185,-0.10479 -0.18758,-0.16485 0.75386,-0.53269 1.49644,-1.04171 2.2319,-1.53841 z m 26.45833,0 c 0.19279,0.26026 0.38011,0.51454 0.56793,0.7705 -0.9037,0.30199 -1.78257,0.61181 -2.61225,0.93276 -0.0644,-0.058 -0.12184,-0.10479 -0.18758,-0.16485 0.75386,-0.53269 1.49645,-1.04171 2.2319,-1.53841 z m -45.293874,0.0248 c -0.148465,0.27918 -0.304178,0.56229 -0.455268,0.84336 0.04977,-0.254 0.09575,-0.50738 0.137975,-0.76119 0.105492,-0.0267 0.211902,-0.0556 0.317293,-0.0822 z m 26.458334,0 c -0.14847,0.27918 -0.30418,0.56229 -0.45527,0.84336 0.0498,-0.254 0.0958,-0.50738 0.13798,-0.76119 0.10549,-0.0267 0.2119,-0.0556 0.31729,-0.0822 z m 26.45833,0 c -0.14846,0.27918 -0.30418,0.56229 -0.45527,0.84336 0.0498,-0.254 0.0958,-0.50738 0.13798,-0.76119 0.10549,-0.0267 0.2119,-0.0556 0.31729,-0.0822 z m -54.581163,0.4346 c -0.263866,1.40778 -0.646491,2.82769 -1.108458,4.18941 -0.443643,-0.65919 -0.933995,-1.3665 -1.453658,-2.1022 0.07885,-0.19244 0.15716,-0.38616 0.232545,-0.58239 0.117723,-0.30644 0.228565,-0.62007 0.336412,-0.93638 0.662109,-0.19623 1.327417,-0.38769 1.993159,-0.56844 z m 26.458333,0 c -0.26387,1.40778 -0.64649,2.82769 -1.10846,4.18941 -0.44364,-0.65919 -0.93399,-1.3665 -1.45366,-2.1022 0.0789,-0.19244 0.15716,-0.38616 0.23255,-0.58239 0.11772,-0.30644 0.22908,-0.62007 0.33693,-0.93638 0.66211,-0.19623 1.3269,-0.38769 1.99264,-0.56844 z m 26.45833,0 c -0.26387,1.40778 -0.64649,2.82769 -1.10845,4.18941 -0.44366,-0.65919 -0.934,-1.3665 -1.45366,-2.1022 0.0788,-0.19244 0.15715,-0.38616 0.23254,-0.58239 0.11772,-0.30644 0.22908,-0.62007 0.33693,-0.93638 0.66211,-0.19623 1.3269,-0.38769 1.99264,-0.56844 z m -85.228902,0.18655 c 0.192788,0.26026 0.380104,0.51454 0.567924,0.7705 -0.903695,0.30199 -1.782566,0.61181 -2.612243,0.93276 -0.06444,-0.058 -0.121846,-0.10427 -0.187586,-0.16433 0.753865,-0.53269 1.496449,-1.04223 2.231905,-1.53893 z m 7.62279,0.0253 c -0.148466,0.27918 -0.304177,0.56229 -0.455269,0.84336 0.04977,-0.254 0.09576,-0.50738 0.137976,-0.76119 0.105491,-0.0267 0.211903,-0.0556 0.317293,-0.0822 z m 40.073522,0.0579 c 0.1455,0.34605 0.29113,0.69441 0.43615,1.02475 -0.28104,0.20466 -0.56094,0.40894 -0.841809,0.61649 -0.160832,-0.20503 -0.318775,-0.40289 -0.47749,-0.60254 0.318124,-0.34392 0.61441,-0.69034 0.883149,-1.0387 z m 26.45834,0 c 0.14549,0.34605 0.29112,0.69441 0.43614,1.02475 -0.28104,0.20466 -0.56094,0.40894 -0.8418,0.61649 -0.16084,-0.20503 -0.31878,-0.40289 -0.4775,-0.60254 0.31813,-0.34392 0.61441,-0.69034 0.88316,-1.0387 z m -68.19636,0.37621 c -0.263867,1.40778 -0.646492,2.82768 -1.108459,4.1894 -0.443644,-0.65919 -0.933995,-1.36649 -1.453658,-2.10219 0.07885,-0.19244 0.157161,-0.38617 0.232544,-0.58239 0.117725,-0.30644 0.229084,-0.62007 0.33693,-0.93638 0.662109,-0.19623 1.326899,-0.38769 1.992643,-0.56844 z m 28.849402,0.0295 c 0.197088,0.60139 0.405543,1.18827 0.625287,1.75855 -0.910439,0.71026 -1.844267,1.40626 -2.790013,2.06292 0.0768,-0.12601 0.157369,-0.25021 0.233061,-0.37672 0.691232,-1.15529 1.322139,-2.31067 1.931665,-3.44475 z m 26.458338,0 c 0.19708,0.60139 0.40554,1.18827 0.62528,1.75855 -0.91044,0.71026 -1.84426,1.40626 -2.79001,2.06292 0.0768,-0.12601 0.15737,-0.25021 0.23306,-0.37672 0.69123,-1.15529 1.32214,-2.31067 1.93167,-3.44475 z m 26.45833,0 c 0.19709,0.60139 0.40554,1.18827 0.62529,1.75855 -0.91045,0.71026 -1.84427,1.40626 -2.79002,2.06292 0.0768,-0.12601 0.15737,-0.25021 0.23306,-0.37672 0.69124,-1.15529 1.32214,-2.31067 1.93167,-3.44475 z m -66.271406,0.0987 c 0.07374,0.1718 0.147545,0.35267 0.221173,0.52039 -0.281045,0.20466 -0.56094,0.40894 -0.841809,0.61649 -0.05217,-0.0665 -0.103028,-0.12931 -0.15503,-0.19533 0.278244,-0.31215 0.539475,-0.62613 0.775666,-0.94155 z m 17.943089,0.0139 c 0.04326,0.20418 0.08254,0.40821 0.117306,0.61185 -0.737042,0.60323 -1.513734,1.29989 -2.304251,2.05362 -0.08917,-0.20351 -0.177946,-0.4079 -0.264583,-0.6165 0.294655,-0.23706 0.590928,-0.47435 0.878498,-0.71262 0.540843,-0.44813 1.064961,-0.89441 1.57303,-1.33635 z m 26.458337,0 c 0.0433,0.20418 0.0825,0.40821 0.1173,0.61185 -0.73704,0.60323 -1.51373,1.29989 -2.30425,2.05362 -0.0892,-0.20351 -0.17794,-0.4079 -0.26458,-0.6165 0.29465,-0.23706 0.59093,-0.47435 0.8785,-0.71262 0.54084,-0.44813 1.06496,-0.89441 1.57303,-1.33635 z m 26.45833,0 c 0.0433,0.20418 0.0825,0.40821 0.11731,0.61185 -0.73705,0.60323 -1.51373,1.29989 -2.30425,2.05362 -0.0892,-0.20351 -0.17795,-0.4079 -0.26459,-0.6165 0.29466,-0.23706 0.59093,-0.47435 0.8785,-0.71262 0.54084,-0.44813 1.06496,-0.89441 1.57303,-1.33635 z m -50.292021,0.32091 c -2.65e-4,0.94792 -0.05118,1.90552 -0.146244,2.84995 -0.301082,0.22066 -0.603562,0.43869 -0.905888,0.64751 0.03764,-0.87242 -5.29e-4,-1.76241 -0.111104,-2.65875 0.413663,-0.32499 0.805064,-0.61038 1.163236,-0.83871 z m 26.458331,0 c -2.6e-4,0.94792 -0.0512,1.90552 -0.14624,2.84995 -0.30108,0.22066 -0.60356,0.43869 -0.90589,0.64751 0.0376,-0.87242 -5.3e-4,-1.76241 -0.1111,-2.65875 0.41366,-0.32499 0.80506,-0.61038 1.16323,-0.83871 z m 26.45834,0 c -2.7e-4,0.94792 -0.0507,1.90552 -0.14573,2.84995 -0.30108,0.22066 -0.60356,0.43869 -0.90589,0.64751 0.0376,-0.87242 -0.001,-1.76241 -0.11162,-2.65875 0.41366,-0.32499 0.80507,-0.61038 1.16324,-0.83871 z m -86.483613,0.21239 c 0.197085,0.60139 0.405542,1.18827 0.625284,1.75855 -0.910439,0.71026 -1.844266,1.40626 -2.790011,2.06292 0.0768,-0.12602 0.157367,-0.25021 0.23306,-0.37672 0.691232,-1.15529 1.322139,-2.31067 1.931667,-3.44475 z m 4.588348,0.11317 c 0.04325,0.20418 0.08254,0.40821 0.117306,0.61185 -0.737042,0.60323 -1.513734,1.29989 -2.304251,2.05362 -0.08917,-0.20351 -0.177946,-0.40842 -0.264584,-0.61702 0.294656,-0.23705 0.590931,-0.47383 0.878499,-0.7121 0.540843,-0.44813 1.064961,-0.89441 1.57303,-1.33635 z m 2.624647,0.32091 c -2.65e-4,0.94792 -0.05066,1.90553 -0.145728,2.84996 -0.301083,0.22066 -0.60356,0.43817 -0.905889,0.64699 0.03764,-0.87242 -0.0011,-1.76242 -0.11162,-2.65876 0.413663,-0.32499 0.805064,-0.60986 1.163237,-0.83819 z m 10.618475,0.12093 c -0.113189,0.24685 -0.224325,0.49482 -0.342098,0.73897 -0.16632,-0.12743 -0.348581,-0.27895 -0.52555,-0.42272 0.283919,-0.10607 0.574016,-0.21157 0.867648,-0.31625 z m 26.458333,0 c -0.11319,0.24685 -0.22432,0.49482 -0.3421,0.73897 -0.16632,-0.12743 -0.34858,-0.27895 -0.52555,-0.42272 0.28392,-0.10607 0.57402,-0.21157 0.86765,-0.31625 z m 26.45833,0 c -0.11319,0.24685 -0.22432,0.49482 -0.34209,0.73897 -0.16632,-0.12743 -0.34859,-0.27895 -0.52555,-0.42272 0.28391,-0.10607 0.57401,-0.21157 0.86764,-0.31625 z m -33.276518,0.32969 c 0.120343,0.152 0.239236,0.30084 0.360701,0.45579 -0.511532,0.38469 -1.019614,0.77324 -1.52549,1.16323 -0.04731,-0.14574 -0.09722,-0.29193 -0.14211,-0.43718 0.455221,-0.38684 0.890283,-0.78217 1.306899,-1.18184 z m 26.458338,0 c 0.12034,0.152 0.23923,0.30084 0.3607,0.45579 -0.51154,0.38469 -1.01962,0.77324 -1.52549,1.16323 -0.0473,-0.14574 -0.0972,-0.29193 -0.14211,-0.43718 0.45522,-0.38684 0.89028,-0.78217 1.3069,-1.18184 z m -72.452432,0.31678 c -0.113187,0.24686 -0.224324,0.4943 -0.342098,0.73845 -0.16632,-0.12743 -0.348579,-0.27894 -0.525549,-0.42271 0.283919,-0.10607 0.574016,-0.21106 0.867647,-0.31574 z m 19.872689,0.10903 c 0.008,0.0102 0.01577,0.0198 0.02379,0.03 -0.09287,0.0698 -0.184769,0.1408 -0.277503,0.21084 0.08398,-0.0804 0.171741,-0.16001 0.25373,-0.24082 z m 4.267441,0.0801 c 0.455782,0.3914 0.89372,0.75235 1.296045,1.05265 -0.190685,0.36657 -0.38373,0.72935 -0.581361,1.08469 -0.327805,-0.61835 -0.667371,-1.30167 -1.010274,-2.01486 0.09834,-0.0408 0.195358,-0.0818 0.29559,-0.12248 z m 26.458332,0 c 0.45578,0.3914 0.89372,0.75235 1.29605,1.05265 -0.19069,0.36657 -0.38373,0.72935 -0.58136,1.08469 -0.32781,-0.61835 -0.66738,-1.30167 -1.01028,-2.01486 0.0983,-0.0408 0.19536,-0.0818 0.29559,-0.12248 z m 26.45833,0 c 0.45579,0.3914 0.89372,0.75235 1.29605,1.05265 -0.19069,0.36657 -0.38373,0.72935 -0.58136,1.08469 -0.32781,-0.61835 -0.66737,-1.30167 -1.01028,-2.01486 0.0983,-0.0408 0.19536,-0.0818 0.29559,-0.12248 z m -49.772669,0.1664 c -0.0081,0.0922 -0.01736,0.18499 -0.02273,0.27647 -0.0065,0.11086 -0.0067,0.22035 -0.0088,0.33021 -0.06503,-0.0407 -0.134276,-0.0875 -0.201538,-0.13126 0.0777,-0.15833 0.157065,-0.31567 0.233061,-0.47542 z m 26.458329,0 c -0.008,0.0922 -0.0174,0.18499 -0.0227,0.27647 -0.007,0.11086 -0.007,0.22035 -0.009,0.33021 -0.065,-0.0407 -0.13427,-0.0875 -0.20153,-0.13126 0.0777,-0.15833 0.15706,-0.31567 0.23306,-0.47542 z m 26.45834,0 c -0.008,0.0922 -0.0174,0.18499 -0.0227,0.27647 -0.007,0.11086 -0.007,0.22035 -0.009,0.33021 -0.065,-0.0407 -0.13428,-0.0875 -0.20154,-0.13126 0.0777,-0.15833 0.15706,-0.31567 0.23306,-0.47542 z m -40.438361,0.0346 c 0.06042,0.87283 0.0433,1.73161 -0.04961,2.56729 -0.380799,0.23912 -0.750112,0.45782 -1.110525,0.66456 -0.189391,-0.34341 -0.37633,-0.69412 -0.559657,-1.05885 -0.06424,-0.12781 -0.127775,-0.25981 -0.191204,-0.39016 0.656262,-0.64147 1.300218,-1.24624 1.910996,-1.78284 z m 26.458331,0 c 0.0604,0.87283 0.0433,1.73161 -0.0496,2.56729 -0.3808,0.23912 -0.75011,0.45782 -1.11052,0.66456 -0.18939,-0.34341 -0.37633,-0.69412 -0.55966,-1.05885 -0.0642,-0.12781 -0.12777,-0.25981 -0.1912,-0.39016 0.65626,-0.64147 1.30021,-1.24624 1.91099,-1.78284 z m 26.45834,0 c 0.0604,0.87283 0.0433,1.73161 -0.0496,2.56729 -0.3808,0.23912 -0.75011,0.45782 -1.11053,0.66456 -0.18939,-0.34341 -0.37632,-0.69412 -0.55965,-1.05885 -0.0642,-0.12781 -0.12778,-0.25981 -0.19121,-0.39016 0.65627,-0.64147 1.30022,-1.24624 1.911,-1.78284 z m -69.999348,0.4253 c 0.489212,1.02 0.967595,1.95038 1.428853,2.79001 -0.02289,0.0381 -0.0453,0.0758 -0.06821,0.11369 -0.55163,-0.84298 -1.144378,-1.68792 -1.750282,-2.51044 0.07501,-0.10571 0.149971,-0.21048 0.224793,-0.31575 0.05571,-0.0258 0.10823,-0.0517 0.164848,-0.0775 z m 26.458338,0 c 0.48921,1.02 0.96759,1.95038 1.42885,2.79001 -0.0229,0.0381 -0.0453,0.0758 -0.0682,0.11369 -0.55163,-0.84298 -1.14438,-1.68792 -1.75028,-2.51044 0.075,-0.10571 0.14997,-0.21048 0.22479,-0.31575 0.0557,-0.0258 0.10823,-0.0517 0.16485,-0.0775 z m 26.45833,0 c 0.48921,1.02 0.96759,1.95038 1.42885,2.79001 -0.0229,0.0381 -0.0453,0.0758 -0.0682,0.11369 -0.55163,-0.84298 -1.14438,-1.68792 -1.75028,-2.51044 0.075,-0.10571 0.14997,-0.21048 0.22479,-0.31575 0.0557,-0.0258 0.10823,-0.0517 0.16485,-0.0775 z m -77.81024,0.0196 c 0.455783,0.3914 0.89372,0.75287 1.296045,1.05317 -0.190684,0.36657 -0.383731,0.72935 -0.58136,1.08469 -0.327807,-0.61835 -0.666854,-1.30219 -1.009757,-2.01538 0.09833,-0.0408 0.19484,-0.0818 0.295072,-0.12248 z m 31.438909,0.0729 c 0.246724,0.35415 0.508725,0.72393 0.736907,1.05936 -0.304732,4e-5 -0.669513,-0.0621 -1.135333,-0.22324 0.134276,-0.27135 0.26584,-0.55058 0.398426,-0.83612 z m 26.458331,0 c 0.24673,0.35415 0.50873,0.72393 0.73691,1.05936 -0.30473,4e-5 -0.66951,-0.0621 -1.13533,-0.22324 0.13427,-0.27135 0.26584,-0.55058 0.39842,-0.83612 z m 26.45834,0 c 0.24671,0.35415 0.50872,0.72393 0.7369,1.05936 -0.30473,4e-5 -0.66951,-0.0621 -1.13533,-0.22324 0.13428,-0.27135 0.26583,-0.55058 0.39843,-0.83612 z m -81.211586,0.0941 c -0.0081,0.0922 -0.01735,0.18447 -0.02274,0.27595 -0.0065,0.11086 -0.0067,0.22035 -0.0088,0.33021 -0.06503,-0.0407 -0.134275,-0.087 -0.201538,-0.13074 0.0777,-0.15833 0.157063,-0.31567 0.23306,-0.47542 z m 12.478307,0.0341 c 0.06042,0.87283 0.0433,1.73212 -0.04961,2.56781 -0.380799,0.23912 -0.75011,0.45782 -1.110525,0.66456 -0.189391,-0.34342 -0.37633,-0.69464 -0.559657,-1.05937 -0.06424,-0.12781 -0.127776,-0.25981 -0.191201,-0.39016 0.656259,-0.64147 1.300215,-1.24623 1.910993,-1.78284 z m 22.58467,0.0827 c 0.107837,0.25248 0.216842,0.50164 0.328145,0.74672 -1.004351,0.99913 -2.014514,2.06339 -2.98018,3.12332 -0.218866,-0.40662 -0.483608,-0.85415 -0.800983,-1.36787 1.173697,-0.78278 2.330431,-1.63146 3.453018,-2.50217 z m 26.458339,0 c 0.10783,0.25248 0.21684,0.50164 0.32814,0.74672 -1.00435,0.99913 -2.01451,2.06339 -2.98018,3.12332 -0.21887,-0.40662 -0.48361,-0.85415 -0.80098,-1.36787 1.17369,-0.78278 2.33043,-1.63146 3.45302,-2.50217 z m 26.45833,0 c 0.10784,0.25248 0.21685,0.50164 0.32814,0.74672 -1.00435,0.99913 -2.01451,2.06339 -2.98018,3.12332 -0.21886,-0.40662 -0.48308,-0.85415 -0.80046,-1.36787 1.17369,-0.78278 2.32991,-1.63146 3.4525,-2.50217 z m -92.584016,0.34313 c 0.489213,1.02 0.967596,1.95038 1.428854,2.79001 -0.02289,0.0381 -0.0453,0.0753 -0.06821,0.11317 -0.551629,-0.84298 -1.144378,-1.68741 -1.750281,-2.50993 0.07501,-0.1057 0.149971,-0.211 0.224792,-0.31625 0.05571,-0.0258 0.108231,-0.0512 0.164848,-0.077 z m 6.545337,0.0925 c 0.246723,0.35415 0.508726,0.72342 0.736906,1.05885 -0.30473,4e-5 -0.66951,-0.0616 -1.135332,-0.22273 0.134276,-0.27135 0.26584,-0.55058 0.398426,-0.83612 z m 40.764436,0.17001 c 0.04333,0.13292 0.09104,0.26672 0.136428,0.39998 -0.24039,0.18888 -0.480045,0.37798 -0.717786,0.56741 0.02641,-0.19247 0.05369,-0.38429 0.077,-0.57826 0.168716,-0.12859 0.337261,-0.25723 0.504361,-0.38913 z m 26.458333,0 c 0.0433,0.13292 0.091,0.26672 0.13643,0.39998 -0.24039,0.18888 -0.48005,0.37798 -0.71779,0.56741 0.0264,-0.19247 0.0537,-0.38429 0.077,-0.57826 0.16872,-0.12859 0.33726,-0.25723 0.50436,-0.38913 z m -60.454707,0.0408 c 0.107837,0.25248 0.216842,0.50113 0.328145,0.74621 -1.004351,0.99913 -2.014513,2.0634 -2.980179,3.12332 -0.218866,-0.40662 -0.483091,-0.85415 -0.800468,-1.36787 1.173697,-0.78278 2.329915,-1.63095 3.452502,-2.50166 z m 16.837217,0.19741 c 0.220109,0.13925 0.429535,0.2598 0.633553,0.37207 -0.408456,0.7613 -0.791666,1.42947 -1.122929,2.00453 -0.139319,-0.23473 -0.278493,-0.4693 -0.42323,-0.72399 0.310478,-0.53623 0.615489,-1.08797 0.912606,-1.65261 z m 26.45833,0 c 0.22011,0.13925 0.42954,0.2598 0.63356,0.37207 -0.40846,0.7613 -0.79167,1.42947 -1.12293,2.00453 -0.13932,-0.23473 -0.2785,-0.4693 -0.42323,-0.72399 0.31048,-0.53623 0.61549,-1.08797 0.9126,-1.65261 z m 26.45885,0 c 0.22011,0.13925 0.42902,0.2598 0.63304,0.37207 -0.40846,0.7613 -0.79115,1.42947 -1.12241,2.00453 -0.13932,-0.23473 -0.27901,-0.4693 -0.42375,-0.72399 0.31048,-0.53623 0.61601,-1.08797 0.91312,-1.65261 z m -59.874378,0.046 0.295072,0.39894 c 0.05785,-0.0429 0.126201,-0.0865 0.188102,-0.12971 -0.318087,0.45207 -0.627515,0.896 -0.932243,1.33532 -0.127008,-0.32483 -0.248121,-0.64969 -0.362252,-0.97513 0.270682,-0.2098 0.538832,-0.42045 0.811321,-0.62942 z m 26.458333,0 0.295072,0.39894 c 0.05785,-0.0429 0.126201,-0.0865 0.188102,-0.12971 -0.285326,0.40551 -0.561265,0.80233 -0.836125,1.19786 -0.125828,-0.304 -0.244967,-0.60908 -0.359151,-0.91467 0.237813,-0.18406 0.47294,-0.36901 0.712102,-0.55242 z m 26.458335,0 0.29559,0.39894 c 0.0579,-0.0429 0.12568,-0.0865 0.18758,-0.12971 -0.28532,0.40551 -0.56126,0.80233 -0.83612,1.19786 -0.12583,-0.304 -0.24497,-0.60908 -0.35915,-0.91467 0.23785,-0.18409 0.47289,-0.36898 0.7121,-0.55242 z m -50.908007,0.28318 c 0.557443,0.76782 1.099728,1.54918 1.598869,2.32183 0.06139,0.095 0.117801,0.18939 0.177769,0.28422 -0.705567,1.09118 -1.409544,2.08567 -2.062409,2.91507 -0.0098,0.0125 -0.01913,0.0238 -0.02894,0.0362 -0.592201,-0.91096 -1.113954,-1.87232 -1.564762,-2.85926 0.595519,-0.86839 1.22342,-1.76902 1.87947,-2.69803 z m 26.458337,0 c 0.55744,0.76782 1.09972,1.54918 1.59887,2.32183 0.0614,0.095 0.1178,0.18939 0.17776,0.28422 -0.65487,1.01277 -1.30674,1.93601 -1.91926,2.72748 -0.612484,-0.88905 -1.146043,-1.83721 -1.615921,-2.8112 0.561019,-0.81563 1.146569,-1.65572 1.758551,-2.52233 z m 26.45833,0 c 0.55744,0.76782 1.09973,1.54918 1.59887,2.32183 0.0614,0.095 0.1178,0.18939 0.17777,0.28422 -0.65487,1.01277 -1.30675,1.93601 -1.91927,2.72748 -0.61248,-0.88905 -1.14604,-1.83721 -1.61592,-2.8112 0.56102,-0.81563 1.14657,-1.65572 1.75855,-2.52233 z m -74.321562,0.3173 c 0.220111,0.13925 0.429019,0.25928 0.633036,0.37155 -0.408455,0.7613 -0.791149,1.42999 -1.122412,2.00505 -0.139319,-0.23473 -0.278492,-0.4693 -0.42323,-0.72399 0.310478,-0.53623 0.61549,-1.08797 0.912606,-1.65261 z m 28.670086,0.43305 c 0.641382,0.16877 1.186837,0.18298 1.644343,0.13642 -0.115263,0.16627 -0.230362,0.33281 -0.347781,0.49558 -0.255281,0.153 -0.510495,0.30555 -0.764294,0.44958 -0.225708,-0.33485 -0.400651,-0.69673 -0.532268,-1.08158 z m 26.458336,0 c 0.64138,0.16877 1.18735,0.18298 1.64486,0.13642 -0.11527,0.16627 -0.23088,0.33281 -0.3483,0.49558 -0.25528,0.153 -0.5105,0.30555 -0.76429,0.44958 -0.22571,-0.33485 -0.40066,-0.69673 -0.53227,-1.08158 z m 26.45833,0 c 0.64139,0.16877 1.18736,0.18298 1.64486,0.13642 -0.11526,0.16627 -0.23088,0.33281 -0.3483,0.49558 -0.25528,0.153 -0.51049,0.30555 -0.76429,0.44958 -0.22571,-0.33485 -0.40065,-0.69673 -0.53227,-1.08158 z m -44.797265,0.0641 c 0.0031,0.006 0.0062,0.0129 0.0093,0.0191 0.189114,0.37624 0.381667,0.73891 0.575675,1.09347 -0.432726,0.21918 -0.842052,0.41223 -1.193723,0.54984 l 0.456301,1.16685 c 0.415676,-0.16265 0.87562,-0.375 1.362709,-0.62218 0.23386,0.39103 0.469472,0.76648 0.705898,1.12448 -0.05025,0.12127 -0.09932,0.24274 -0.153477,0.36173 l -0.0031,-0.0331 c -2.009347,0.17905 -3.68018,0.10164 -5.04517,-0.16743 0.05397,-0.0599 0.111572,-0.12078 0.16588,-0.18087 l 0.135401,-0.031 c -0.0067,-0.0289 -0.01701,-0.0599 -0.02479,-0.0894 0.974204,-1.07491 1.997752,-2.16651 3.00912,-3.19153 z m 26.458335,0 c 0.003,0.006 0.006,0.0129 0.009,0.0191 0.18911,0.37624 0.38167,0.73891 0.57567,1.09347 -0.43272,0.21918 -0.84205,0.41223 -1.19372,0.54984 l 0.4563,1.16685 c 0.41568,-0.16265 0.87562,-0.375 1.36271,-0.62218 0.23386,0.39103 0.46947,0.76648 0.7059,1.12448 -0.0502,0.12127 -0.0993,0.24274 -0.15348,0.36173 l -0.003,-0.0331 c -2.00934,0.17905 -3.68018,0.10164 -5.04517,-0.16743 0.054,-0.0599 0.11157,-0.12078 0.16588,-0.18087 l 0.13538,-0.031 c -0.007,-0.0289 -0.017,-0.0599 -0.0248,-0.0894 0.9742,-1.07491 1.99775,-2.16651 3.00912,-3.19153 z m 26.45833,0 c 0.003,0.006 0.006,0.0129 0.009,0.0191 0.18911,0.37624 0.38167,0.73891 0.57567,1.09347 -0.43272,0.21918 -0.84205,0.41223 -1.19372,0.54984 l 0.4563,1.16685 c 0.41567,-0.16265 0.87614,-0.375 1.36323,-0.62218 0.23386,0.39103 0.46947,0.76648 0.70589,1.12448 -0.0502,0.12127 -0.0993,0.24274 -0.15347,0.36173 l -0.003,-0.0331 c -2.00934,0.17905 -3.68017,0.10164 -5.04517,-0.16743 0.054,-0.0599 0.11157,-0.12078 0.16588,-0.18087 l 0.13539,-0.031 c -0.007,-0.0289 -0.0175,-0.0599 -0.0253,-0.0894 0.97421,-1.07491 1.99826,-2.16651 3.00963,-3.19153 z m -48.109723,0.0331 c -0.222279,1.378 -0.543824,2.69597 -0.927592,3.87315 -0.182202,-0.23941 -0.36559,-0.48924 -0.550354,-0.75241 0.288083,-0.81715 0.500168,-1.67168 0.634587,-2.55178 0.27981,-0.18239 0.561319,-0.37378 0.843359,-0.56896 z m 26.458333,0 c -0.22228,1.378 -0.54382,2.69597 -0.92759,3.87315 -0.1822,-0.23941 -0.36559,-0.48924 -0.55036,-0.75241 0.28809,-0.81715 0.50017,-1.67168 0.63459,-2.55178 0.27981,-0.18239 0.56132,-0.37378 0.84336,-0.56896 z m 26.45834,0 c -0.22229,1.378 -0.54383,2.69597 -0.9276,3.87315 -0.1822,-0.23941 -0.36558,-0.48924 -0.55035,-0.75241 0.28809,-0.81715 0.50017,-1.67168 0.63459,-2.55178 0.27981,-0.18239 0.56132,-0.37378 0.84336,-0.56896 z m -92.196964,0.5488 c 0.641383,0.16877 1.187353,0.18351 1.644861,0.13695 -0.115263,0.16627 -0.230878,0.3328 -0.348299,0.49557 -0.255282,0.153 -0.510494,0.30555 -0.764295,0.44959 -0.225706,-0.33486 -0.40065,-0.69726 -0.532267,-1.08211 z m 8.119401,0.0646 c 0.0031,0.006 0.0062,0.0129 0.0093,0.0191 0.189113,0.37624 0.381666,0.73839 0.575677,1.09296 -0.432728,0.21918 -0.842055,0.41274 -1.193726,0.55035 l 0.456304,1.16634 c 0.415673,-0.16265 0.875617,-0.37501 1.362707,-0.62219 0.23386,0.39103 0.469987,0.76648 0.706416,1.12448 -0.05025,0.12127 -0.09984,0.24326 -0.153995,0.36225 l -0.0031,-0.0331 c -2.009346,0.17905 -3.680179,0.10112 -5.04517,-0.16795 0.05397,-0.06 0.111572,-0.12077 0.165881,-0.18087 l 0.135392,-0.031 c -0.0067,-0.0289 -0.01703,-0.0599 -0.0248,-0.0894 0.974206,-1.07491 1.997752,-2.166 3.009119,-3.19102 z m 17.197402,0.0227 c 0.133329,0.32668 0.289404,0.64249 0.479039,0.94102 -0.470644,0.24343 -0.93245,0.45847 -1.390095,0.65991 0.250701,-0.43357 0.567317,-0.98471 0.911056,-1.60093 z m 26.458331,0 c 0.13333,0.32668 0.28941,0.64249 0.47904,0.94102 -0.47064,0.24343 -0.93245,0.45847 -1.39009,0.65991 0.2507,-0.43357 0.56731,-0.98471 0.91105,-1.60093 z m 26.45885,0 c 0.13333,0.32668 0.28889,0.64249 0.47852,0.94102 -0.47064,0.24343 -0.93245,0.45847 -1.39009,0.65991 0.2507,-0.43357 0.56783,-0.98471 0.91157,-1.60093 z m -65.307641,0.0103 c -0.222279,1.378 -0.543824,2.69545 -0.927592,3.87263 -0.182202,-0.23941 -0.36559,-0.48872 -0.550354,-0.75189 0.288083,-0.81715 0.500168,-1.67168 0.634587,-2.55178 0.27981,-0.18239 0.561319,-0.37378 0.843359,-0.56896 z m -13.962972,0.63562 c 0.13333,0.32668 0.288887,0.64302 0.478523,0.94155 -0.470644,0.24343 -0.93245,0.45795 -1.390096,0.65939 0.250703,-0.43357 0.567835,-0.98471 0.911573,-1.60094 z m 30.158365,0.009 c 0.376055,0.62075 0.671476,1.16318 0.867648,1.57148 -0.06484,0.073 -0.132659,0.14746 -0.196887,0.22015 -0.451972,-0.16014 -0.856567,-0.34745 -1.217496,-0.55656 0.187272,-0.40064 0.369226,-0.81159 0.546735,-1.23507 z m 26.458338,0 c 0.37605,0.62075 0.67147,1.16318 0.86764,1.57148 -0.0648,0.073 -0.13266,0.14746 -0.19688,0.22015 -0.45198,-0.16014 -0.85657,-0.34745 -1.2175,-0.55656 0.18727,-0.40064 0.36923,-0.81159 0.54674,-1.23507 z m 26.45833,0 c 0.37606,0.62075 0.67148,1.16318 0.86765,1.57148 -0.0648,0.073 -0.13266,0.14746 -0.19689,0.22015 -0.45197,-0.16014 -0.85657,-0.34745 -1.2175,-0.55656 0.18727,-0.40064 0.36923,-0.81159 0.54674,-1.23507 z m -45.051513,0.17238 c -0.024,0.0993 -0.05236,0.19724 -0.07855,0.29559 -0.03818,-0.0619 -0.0761,-0.12431 -0.114205,-0.18707 0.06489,-0.0371 0.127275,-0.0705 0.192755,-0.10852 z m 26.458333,0 c -0.024,0.0993 -0.0524,0.19724 -0.0785,0.29559 -0.0382,-0.0619 -0.0761,-0.12431 -0.1142,-0.18707 0.0649,-0.0371 0.12727,-0.0705 0.19275,-0.10852 z m 26.45834,0 c -0.024,0.0993 -0.0523,0.19724 -0.0785,0.29559 -0.0382,-0.0619 -0.0761,-0.12431 -0.11421,-0.18707 0.0649,-0.0371 0.12727,-0.0705 0.19276,-0.10852 z m -67.525083,0.2527 c 0.158985,0.26962 0.30956,0.50968 0.46147,0.75396 -0.01117,0.0217 -0.02722,0.05 -0.03772,0.0708 -0.14655,-0.25837 -0.292399,-0.51679 -0.452171,-0.77928 0.0094,-0.015 0.01908,-0.0304 0.02842,-0.0455 z m 26.458333,0 c 0.15899,0.26962 0.30956,0.50968 0.46147,0.75396 -0.0112,0.0217 -0.0272,0.05 -0.0377,0.0708 -0.14655,-0.25837 -0.2924,-0.51679 -0.45217,-0.77928 0.009,-0.015 0.0191,-0.0304 0.0284,-0.0455 z m 26.45833,0 c 0.15899,0.26962 0.30956,0.50968 0.46147,0.75396 -0.0112,0.0217 -0.0272,0.05 -0.0377,0.0708 -0.14655,-0.25837 -0.2924,-0.51679 -0.45217,-0.77928 0.009,-0.015 0.0191,-0.0304 0.0284,-0.0455 z m -72.527354,0.22014 c 0.376053,0.62075 0.671473,1.1637 0.867647,1.572 -0.06484,0.073 -0.132659,0.14693 -0.196887,0.21962 -0.451974,-0.16014 -0.856567,-0.34693 -1.217497,-0.55604 0.187272,-0.40064 0.369227,-0.8121 0.546737,-1.23558 z m 7.865153,0.17363 c -0.024,0.0993 -0.05236,0.19672 -0.07855,0.29507 -0.03818,-0.0619 -0.0761,-0.12379 -0.114204,-0.18655 0.06489,-0.0371 0.127272,-0.0705 0.192754,-0.10852 z m -14.608411,0.25217 c 0.158987,0.26962 0.309561,0.50968 0.461471,0.75396 -0.01116,0.0217 -0.02721,0.0505 -0.03772,0.0713 -0.146551,-0.25838 -0.2924,-0.51679 -0.452169,-0.77928 0.0094,-0.015 0.01908,-0.0309 0.02842,-0.046 z m 26.796814,0.21188 0.11834,0.0589 c 0.03169,0.0505 0.06565,0.1089 0.09715,0.15864 -0.02471,0.009 -0.04975,0.0172 -0.07441,0.0258 -0.04455,-0.0803 -0.09545,-0.16276 -0.141078,-0.2434 z m 26.458338,0 0.11885,0.0589 c 0.0317,0.0505 0.0651,0.1089 0.0966,0.15864 -0.0247,0.009 -0.0498,0.0172 -0.0744,0.0258 -0.0446,-0.0803 -0.0954,-0.16276 -0.14108,-0.2434 z m 26.45833,0 0.11885,0.0589 c 0.0317,0.0505 0.0651,0.1089 0.0966,0.15864 -0.0247,0.009 -0.0498,0.0172 -0.0744,0.0258 -0.0445,-0.0803 -0.0954,-0.16276 -0.14107,-0.2434 z m -50.254299,0.56482 c -0.138329,0.14067 -0.278455,0.27774 -0.41961,0.41134 -0.04128,-0.0577 -0.07959,-0.10914 -0.121957,-0.16949 0.180202,-0.0795 0.360357,-0.15663 0.541567,-0.24185 z m 26.458329,0 c -0.13832,0.14067 -0.27845,0.27774 -0.41961,0.41134 -0.0413,-0.0577 -0.0796,-0.10914 -0.12195,-0.16949 0.1802,-0.0795 0.36035,-0.15663 0.54156,-0.24185 z m 26.45834,0 c -0.13833,0.14067 -0.27846,0.27774 -0.41961,0.41134 -0.0413,-0.0577 -0.0796,-0.10914 -0.12196,-0.16949 0.1802,-0.0795 0.36036,-0.15663 0.54157,-0.24185 z m -81.932985,0.0816 0.118856,0.0584 c 0.0317,0.0505 0.06513,0.10891 0.09664,0.15865 -0.02471,0.009 -0.04975,0.0172 -0.07441,0.0258 -0.04455,-0.0803 -0.09545,-0.16224 -0.141077,-0.24288 z m 2.66237,0.5643 c -0.138331,0.14068 -0.278457,0.27827 -0.419613,0.41187 -0.04128,-0.0577 -0.07959,-0.10914 -0.121956,-0.1695 0.180202,-0.0795 0.360357,-0.15715 0.541569,-0.24237 z m 24.619687,0.0853 c 0.123434,0.1786 0.242615,0.34567 0.359151,0.50591 -0.0903,0.0711 -0.180912,0.14137 -0.272336,0.20929 -0.09035,-0.213 -0.184951,-0.42744 -0.289388,-0.64544 0.06788,-0.0242 0.134464,-0.0446 0.202573,-0.0698 z m 26.458338,0 c 0.12343,0.1786 0.24261,0.34567 0.35915,0.50591 -0.0903,0.0711 -0.18091,0.14137 -0.27234,0.20929 -0.0904,-0.213 -0.18495,-0.42744 -0.28939,-0.64544 0.0679,-0.0242 0.13447,-0.0446 0.20258,-0.0698 z m 26.45833,0 c 0.12343,0.1786 0.24261,0.34567 0.35915,0.50591 -0.0903,0.0711 -0.18091,0.14137 -0.27234,0.20929 -0.0904,-0.213 -0.18495,-0.42744 -0.28938,-0.64544 0.0679,-0.0242 0.13446,-0.0446 0.20257,-0.0698 z m -50.31166,0.1757 c -0.130863,0.22609 -0.261858,0.45493 -0.392223,0.66353 -0.04237,-0.0503 -0.08511,-0.10082 -0.128159,-0.15245 0.177003,-0.16444 0.348469,-0.33808 0.520382,-0.51108 z m 26.45833,0 c -0.13086,0.22609 -0.26185,0.45493 -0.39222,0.66353 -0.0424,-0.0503 -0.0851,-0.10082 -0.12816,-0.15245 0.17701,-0.16444 0.34847,-0.33808 0.52038,-0.51108 z m 26.45834,0 c -0.13086,0.22609 -0.26186,0.45493 -0.39223,0.66353 -0.0424,-0.0503 -0.0851,-0.10082 -0.12816,-0.15245 0.17701,-0.16444 0.34848,-0.33808 0.52039,-0.51108 z m -81.875626,0.47077 c 0.123435,0.1786 0.242615,0.34568 0.359151,0.50592 -0.0903,0.0711 -0.180912,0.14137 -0.272335,0.20928 -0.09035,-0.213 -0.184953,-0.42743 -0.289388,-0.64543 0.06788,-0.0242 0.134465,-0.0446 0.202572,-0.0698 z m 2.605009,0.1757 c -0.130862,0.22609 -0.26186,0.45441 -0.392225,0.66301 -0.04237,-0.0503 -0.08511,-0.10081 -0.128157,-0.15244 0.177004,-0.16444 0.34847,-0.33757 0.520382,-0.51057 z m 25.788607,0.28732 c -0.455597,0.70331 -0.90093,1.29072 -1.310513,1.72393 -0.04558,-0.28938 -0.106942,-0.58446 -0.195339,-0.88987 0.202739,-0.14057 0.401902,-0.28757 0.597897,-0.4408 0.06565,0.0783 0.134128,0.16292 0.195853,0.23306 z m 26.45833,0 c -0.45559,0.70331 -0.90093,1.29072 -1.31051,1.72393 -0.0456,-0.28938 -0.10694,-0.58446 -0.19534,-0.88987 0.20274,-0.14057 0.4019,-0.28757 0.5979,-0.4408 0.0657,0.0783 0.13413,0.16292 0.19585,0.23306 z m 26.45834,0 c -0.4556,0.70331 -0.90093,1.29072 -1.31052,1.72393 -0.0456,-0.28938 -0.10694,-0.58446 -0.19534,-0.88987 0.20274,-0.14057 0.40191,-0.28757 0.5979,-0.4408 0.0657,0.0783 0.13413,0.16292 0.19585,0.23306 z m -79.270618,0.64596 c -0.455598,0.70331 -0.90093,1.29123 -1.310514,1.72444 -0.04558,-0.28938 -0.10694,-0.58497 -0.195337,-0.89038 0.202738,-0.14057 0.401901,-0.28757 0.597897,-0.4408 0.06565,0.0783 0.134128,0.16343 0.195853,0.23357 z"
       style="color:#000000;font-style:normal;font-variant:normal;font-weight:normal;font-stretch:normal;font-size:medium;line-height:normal;font-family:sans-serif;font-variant-ligatures:normal;font-variant-position:normal;font-variant-caps:normal;font-variant-numeric:normal;font-variant-alternates:normal;font-feature-settings:normal;text-indent:0;text-align:start;text-decoration:none;text-decoration-line:none;text-decoration-style:solid;text-decoration-color:#000000;letter-spacing:normal;word-spacing:normal;text-transform:none;writing-mode:lr-tb;direction:ltr;text-orientation:mixed;dominant-baseline:auto;baseline-shift:baseline;text-anchor:start;white-space:normal;shape-padding:0;clip-rule:nonzero;display:inline;overflow:visible;visibility:visible;opacity:1;isolation:auto;mix-blend-mode:normal;color-interpolation:sRGB;color-interpolation-filters:linearRGB;solid-color:#000000;solid-opacity:1;vector-effect:none;fill:#fac133;fill-opacity:1;fill-rule:nonzero;stroke:none;stroke-width:1.25439179;stroke-linecap:butt;stroke-linejoin:miter;stroke-miterlimit:4;stroke-dasharray:none;stroke-dashoffset:0;stroke-opacity:1;color-rendering:auto;image-rendering:auto;shape-rendering:auto;text-rendering:auto;enable-background:accumulate" />
    <path
       id="path5058"
       d="m 85.53431,210.28578 -1.190107,0.39584 c 1.186127,3.55839 2.182733,5.63386 2.773474,7.19646 0.513241,1.35761 0.733459,2.28369 0.588079,3.62149 -0.405702,0.0884 -0.818505,0.18164 -1.24437,0.28215 -1.517901,-2.42166 -4.259506,-5.34947 -9.082648,-10.0242 l -0.872816,0.90124 c 4.55789,4.41764 7.209084,7.2568 8.665104,9.43818 -1.149437,0.29467 -2.366497,0.64312 -3.632853,1.04697 -1.431198,-0.62336 -2.888941,-1.30664 -4.299995,-2.01176 0.127526,-1.1349 0.234119,-2.3192 0.330729,-3.54294 l -1.250053,-0.0997 c -0.08241,1.0439 -0.178607,2.05496 -0.290423,3.02618 -1.995842,-1.03623 -3.834812,-2.08801 -5.245158,-3.02824 l -0.694531,1.04386 c 1.571778,1.04785 3.589763,2.21141 5.768641,3.33881 -0.538781,3.90796 -1.393351,6.98371 -2.807581,8.39794 l 0.886767,0.88677 c 1.767599,-1.7676 2.618407,-4.86942 3.133659,-8.67027 0.875755,0.43591 1.767255,0.86061 2.659269,1.26762 -0.450255,0.15875 -0.900425,0.31746 -1.362191,0.49248 l 0.443902,1.17357 c 0.89559,-0.33946 1.761495,-0.63715 2.611725,-0.91623 0.193588,0.083 0.384924,0.16187 0.577226,0.24237 -0.142674,0.14988 -0.284382,0.29712 -0.433565,0.46302 -0.856379,0.95238 -1.785948,2.16282 -2.690275,3.48454 -1.808671,2.64344 -3.514371,5.71281 -4.256588,8.10441 l 1.198378,0.37259 c 0.668954,-2.15556 2.334778,-5.1989 4.093289,-7.76903 0.879255,-1.28508 1.783239,-2.4589 2.587956,-3.3538 0.270393,-0.3007 0.526772,-0.55532 0.77153,-0.78549 1.251357,0.49403 2.448391,0.91968 3.54552,1.25212 0.04592,0.81883 -0.02342,1.68531 -0.147796,2.71147 l 1.245401,0.15038 c 0.108167,-0.89237 0.171101,-1.71626 0.152448,-2.51406 0.527034,0.13232 1.031306,0.24477 1.482079,0.31471 l 0.19172,-1.23817 c -0.520832,-0.0808 -1.126088,-0.22195 -1.792655,-0.40876 -0.137517,-0.85535 -0.403741,-1.70788 -0.848527,-2.60966 1.238099,-0.28576 2.382438,-0.51444 3.438033,-0.71107 -0.05481,0.43602 -0.104754,0.87293 -0.145727,1.31 -0.358762,3.82686 -0.17897,7.67056 1.911511,10.10946 l 0.954463,-0.81494 c -1.672698,-1.95148 -1.963269,-5.47668 -1.61644,-9.17618 0.05188,-0.55346 0.120264,-1.10844 0.194821,-1.66243 1.245129,-0.21871 2.366282,-0.40527 3.261299,-0.5855 1.092613,-0.22002 1.903299,-0.41173 2.505273,-0.82217 l -0.706416,-1.03663 c -0.260398,0.17755 -0.997712,0.41824 -2.046385,0.62942 -0.762397,0.15353 -1.745306,0.32078 -2.822051,0.50798 0.4285,-2.68106 1.019204,-5.22666 1.368393,-7.08897 l -1.23145,-0.22945 c -0.357455,1.90644 -1.001345,4.64272 -1.443324,7.54838 -0.550442,0.10046 -1.137901,0.21445 -1.744596,0.33642 0.07362,-1.35699 -0.189963,-2.48797 -0.684713,-3.79667 -0.624448,-1.65178 -1.59159,-3.65291 -2.757455,-7.15047 z m 26.45833,0 -1.1901,0.39584 c 1.18612,3.55839 2.18273,5.63386 2.77347,7.19646 0.51324,1.35761 0.73346,2.28369 0.58808,3.62149 -0.4057,0.0884 -0.81851,0.18164 -1.24437,0.28215 -1.5179,-2.42166 -4.25951,-5.34947 -9.08265,-10.0242 l -0.87281,0.90124 c 4.55789,4.41764 7.20908,7.2568 8.6651,9.43818 -1.14944,0.29467 -2.3665,0.64312 -3.63285,1.04697 -1.4312,-0.62336 -2.88894,-1.30664 -4.3,-2.01176 0.12753,-1.1349 0.23412,-2.3192 0.33073,-3.54294 l -1.25005,-0.0997 c -0.0824,1.0439 -0.17861,2.05496 -0.29043,3.02618 -1.99584,-1.03623 -3.834808,-2.08801 -5.245154,-3.02824 l -0.694531,1.04386 c 1.571778,1.04785 3.589765,2.21141 5.768645,3.33881 -0.53878,3.90796 -1.39335,6.98371 -2.807585,8.39794 l 0.886765,0.88677 c 1.7676,-1.7676 2.61841,-4.86942 3.13366,-8.67027 0.87576,0.43591 1.76726,0.86061 2.65927,1.26762 -0.45025,0.15875 -0.90042,0.31746 -1.36219,0.49248 l 0.44442,1.17357 c 0.89559,-0.33946 1.76098,-0.63715 2.61121,-0.91623 0.19358,0.083 0.38492,0.16187 0.57722,0.24237 -0.14267,0.14988 -0.28438,0.29712 -0.43356,0.46302 -0.85638,0.95238 -1.78595,2.16282 -2.69028,3.48454 -1.80867,2.64344 -3.51437,5.71281 -4.25659,8.10441 l 1.19838,0.37259 c 0.66896,-2.15556 2.33478,-5.1989 4.09329,-7.76903 0.87926,-1.28508 1.78324,-2.4589 2.58796,-3.3538 0.27039,-0.3007 0.52677,-0.55532 0.77153,-0.78549 1.25135,0.49403 2.44839,0.91968 3.54552,1.25212 0.0459,0.81883 -0.0234,1.68531 -0.1478,2.71147 l 1.2454,0.15038 c 0.10817,-0.89237 0.1711,-1.71626 0.15245,-2.51406 0.52703,0.13232 1.03131,0.24477 1.48208,0.31471 l 0.19172,-1.23817 c -0.52083,-0.0808 -1.12609,-0.22195 -1.79266,-0.40876 -0.13751,-0.85535 -0.40374,-1.70788 -0.84852,-2.60966 1.2381,-0.28576 2.38244,-0.51444 3.43803,-0.71107 -0.0548,0.43602 -0.10475,0.87293 -0.14573,1.31 -0.35876,3.82686 -0.17897,7.67056 1.91151,10.10946 l 0.95447,-0.81494 c -1.6727,-1.95148 -1.96327,-5.47668 -1.61644,-9.17618 0.0519,-0.55346 0.12026,-1.10844 0.19482,-1.66243 1.24513,-0.21871 2.36628,-0.40527 3.2613,-0.5855 1.09261,-0.22002 1.9033,-0.41173 2.50527,-0.82217 l -0.70642,-1.03663 c -0.26039,0.17755 -0.99771,0.41824 -2.04638,0.62942 -0.7624,0.15353 -1.74531,0.32078 -2.82205,0.50798 0.4285,-2.68106 1.0192,-5.22666 1.36839,-7.08897 l -1.23145,-0.22945 c -0.35745,1.90644 -1.00134,4.64272 -1.44332,7.54838 -0.55044,0.10046 -1.1379,0.21445 -1.7446,0.33642 0.0736,-1.35699 -0.18996,-2.48797 -0.68471,-3.79667 -0.62445,-1.65178 -1.59159,-3.65291 -2.75746,-7.15047 z m 26.45834,0 -1.19011,0.39584 c 1.18612,3.55839 2.18273,5.63386 2.77347,7.19646 0.51324,1.35761 0.73346,2.28369 0.58808,3.62149 -0.4057,0.0884 -0.8185,0.18164 -1.24437,0.28215 -1.5179,-2.42166 -4.25951,-5.34947 -9.08265,-10.0242 l -0.87281,0.90124 c 4.55789,4.41764 7.20908,7.2568 8.6651,9.43818 -1.14944,0.29467 -2.3665,0.64312 -3.63285,1.04697 -1.4312,-0.62336 -2.88894,-1.30664 -4.3,-2.01176 0.12753,-1.1349 0.23412,-2.3192 0.33073,-3.54294 l -1.25005,-0.0997 c -0.0824,1.0439 -0.17861,2.05496 -0.29042,3.02618 -1.99584,-1.03623 -3.83481,-2.08801 -5.24516,-3.02824 l -0.69453,1.04386 c 1.57178,1.04785 3.58976,2.21141 5.76864,3.33881 -0.53878,3.90796 -1.39335,6.98371 -2.80758,8.39794 l 0.88677,0.88677 c 1.7676,-1.7676 2.6184,-4.86942 3.13365,-8.67027 0.87576,0.43591 1.76726,0.86061 2.65927,1.26762 -0.45025,0.15875 -0.90042,0.31746 -1.36219,0.49248 l 0.44442,1.17357 c 0.89559,-0.33946 1.76098,-0.63715 2.61121,-0.91623 0.19359,0.083 0.38493,0.16187 0.57723,0.24237 -0.14267,0.14988 -0.28439,0.29712 -0.43357,0.46302 -0.85638,0.95238 -1.78595,2.16282 -2.69027,3.48454 -1.80867,2.64344 -3.51437,5.71281 -4.25659,8.10441 l 1.19838,0.37259 c 0.66895,-2.15556 2.33477,-5.1989 4.09328,-7.76903 0.87926,-1.28508 1.78324,-2.4589 2.58796,-3.3538 0.27039,-0.3007 0.52677,-0.55532 0.77153,-0.78549 1.25136,0.49403 2.44839,0.91968 3.54552,1.25212 0.0459,0.81883 -0.0234,1.68531 -0.1478,2.71147 l 1.24541,0.15038 c 0.10817,-0.89237 0.1711,-1.71626 0.15244,-2.51406 0.52705,0.13232 1.03131,0.24477 1.48209,0.31471 l 0.19172,-1.23817 c -0.52083,-0.0808 -1.12609,-0.22195 -1.79266,-0.40876 -0.13752,-0.85535 -0.40374,-1.70788 -0.84853,-2.60966 1.2381,-0.28576 2.38245,-0.51444 3.43804,-0.71107 -0.0548,0.43602 -0.10476,0.87293 -0.14573,1.31 -0.35876,3.82686 -0.17897,7.67056 1.91151,10.10946 l 0.95446,-0.81494 c -1.6727,-1.95148 -1.96327,-5.47668 -1.61644,-9.17618 0.0519,-0.55346 0.12027,-1.10844 0.19482,-1.66243 1.24513,-0.21871 2.36629,-0.40527 3.2613,-0.5855 1.09262,-0.22002 1.90331,-0.41173 2.50528,-0.82217 l -0.70642,-1.03663 c -0.2604,0.17755 -0.99772,0.41824 -2.04639,0.62942 -0.7624,0.15353 -1.74531,0.32078 -2.82205,0.50798 0.4285,-2.68106 1.01921,-5.22666 1.3684,-7.08897 l -1.23145,-0.22945 c -0.35745,1.90644 -1.00135,4.64272 -1.44333,7.54838 -0.55044,0.10046 -1.13789,0.21445 -1.74459,0.33642 0.0736,-1.35699 -0.18997,-2.48797 -0.68472,-3.79667 -0.62445,-1.65178 -1.59158,-3.65291 -2.75745,-7.15047 z m -79.270617,0.64647 -1.190108,0.39533 c 1.186128,3.55839 2.182734,5.63437 2.773474,7.19697 0.513241,1.35761 0.733459,2.28317 0.588079,3.62097 -0.405702,0.0884 -0.818505,0.18216 -1.24437,0.28267 -1.517902,-2.42166 -4.259506,-5.34946 -9.082649,-10.0242 l -0.872815,0.90073 c 4.55789,4.41763 7.209084,7.25732 8.665104,9.4387 -1.149437,0.29466 -2.366497,0.64311 -3.632853,1.04696 -1.431198,-0.62336 -2.88894,-1.30716 -4.299996,-2.01228 0.127528,-1.1349 0.234119,-2.31868 0.330729,-3.54242 l -1.250052,-0.10025 c -0.08241,1.0439 -0.178606,2.05548 -0.290422,3.02669 -1.995841,-1.03623 -3.834814,-2.08801 -5.245158,-3.02824 l -0.694531,1.04386 c 1.571778,1.04785 3.589764,2.2109 5.76864,3.3383 -0.53878,3.90796 -1.393352,6.98371 -2.807581,8.39794 l 0.886768,0.88728 c 1.767598,-1.7676 2.618408,-4.86994 3.133659,-8.67079 0.875753,0.43591 1.767255,0.86113 2.659268,1.26814 -0.450253,0.15875 -0.900423,0.31746 -1.36219,0.49248 l 0.444417,1.17305 c 0.895592,-0.33946 1.76098,-0.63714 2.61121,-0.91622 0.193588,0.083 0.384924,0.16238 0.577226,0.24288 -0.142675,0.14988 -0.284383,0.29712 -0.433565,0.46302 -0.85638,0.95238 -1.785949,2.16282 -2.690275,3.48454 -1.80867,2.64344 -3.51437,5.71281 -4.256588,8.10442 l 1.198377,0.37258 c 0.668955,-2.15555 2.334779,-5.1989 4.093289,-7.76903 0.879257,-1.28508 1.783238,-2.45942 2.587956,-3.35432 0.270393,-0.3007 0.526772,-0.5548 0.771529,-0.78496 1.251357,0.49403 2.448391,0.91967 3.545521,1.25212 0.04592,0.81882 -0.02342,1.6853 -0.147795,2.71146 l 1.245403,0.14986 c 0.108164,-0.89237 0.171098,-1.71574 0.152445,-2.51354 0.527037,0.13232 1.031309,0.24477 1.482079,0.31471 l 0.19172,-1.23868 c -0.520832,-0.0808 -1.126088,-0.22144 -1.792655,-0.40825 -0.137518,-0.85535 -0.403741,-1.70839 -0.848527,-2.61017 1.238102,-0.28576 2.382438,-0.51444 3.438033,-0.71107 -0.05481,0.43602 -0.104754,0.87344 -0.145727,1.31051 -0.358762,3.82686 -0.17897,7.67004 1.911511,10.10894 l 0.954463,-0.81441 c -1.672698,-1.95149 -1.963269,-5.47721 -1.61644,-9.17671 0.05188,-0.55346 0.120264,-1.10792 0.194821,-1.66191 1.245129,-0.21871 2.366283,-0.40526 3.2613,-0.5855 1.092613,-0.22001 1.903299,-0.41173 2.505273,-0.82217 l -0.706416,-1.03714 c -0.260398,0.17755 -0.997712,0.41875 -2.046385,0.62993 -0.762398,0.15353 -1.745307,0.32027 -2.822053,0.50747 0.428501,-2.68106 1.019205,-5.22667 1.368394,-7.08898 l -1.231451,-0.22892 c -0.357454,1.90644 -1.001344,4.64271 -1.443323,7.54837 -0.550442,0.10046 -1.137899,0.21445 -1.744596,0.33641 0.07362,-1.35697 -0.18996,-2.48848 -0.684713,-3.79718 -0.624448,-1.65178 -1.591591,-3.65239 -2.757454,-7.14995 z m 26.66969,12.28866 c 0.359569,0.67224 0.601845,1.2877 0.756028,1.89394 -0.705773,-0.23316 -1.453332,-0.50093 -2.236041,-0.80306 l -0.269232,-0.62838 c 0.599469,-0.16775 1.180504,-0.32012 1.749245,-0.4625 z m 26.458337,0 c 0.35957,0.67224 0.60184,1.2877 0.75602,1.89394 -0.70577,-0.23316 -1.45333,-0.50093 -2.23604,-0.80306 l -0.26923,-0.62838 c 0.59947,-0.16775 1.18051,-0.32012 1.74925,-0.4625 z m 26.45833,0 c 0.35957,0.67224 0.60185,1.2877 0.75603,1.89394 -0.70577,-0.23316 -1.45333,-0.50093 -2.23604,-0.80306 l -0.26924,-0.62838 c 0.59948,-0.16775 1.18051,-0.32012 1.74925,-0.4625 z m -79.270614,0.64647 c 0.359569,0.67224 0.601845,1.2877 0.756026,1.89394 -0.705771,-0.23316 -1.453332,-0.50093 -2.236039,-0.80305 l -0.269234,-0.62839 c 0.599471,-0.16775 1.180506,-0.32012 1.749247,-0.4625 z"
       style="color:#000000;font-style:normal;font-variant:normal;font-weight:normal;font-stretch:normal;font-size:medium;line-height:normal;font-family:sans-serif;font-variant-ligatures:normal;font-variant-position:normal;font-variant-caps:normal;font-variant-numeric:normal;font-variant-alternates:normal;font-feature-settings:normal;text-indent:0;text-align:start;text-decoration:none;text-decoration-line:none;text-decoration-style:solid;text-decoration-color:#000000;letter-spacing:normal;word-spacing:normal;text-transform:none;writing-mode:lr-tb;direction:ltr;text-orientation:mixed;dominant-baseline:auto;baseline-shift:baseline;text-anchor:start;white-space:normal;shape-padding:0;clip-rule:nonzero;display:inline;overflow:visible;visibility:visible;opacity:1;isolation:auto;mix-blend-mode:normal;color-interpolation:sRGB;color-interpolation-filters:linearRGB;solid-color:#000000;solid-opacity:1;vector-effect:none;fill:#f2dfc3;fill-opacity:1;fill-rule:nonzero;stroke:none;stroke-width:1.25439179;stroke-linecap:butt;stroke-linejoin:miter;stroke-miterlimit:4;stroke-dasharray:none;stroke-dashoffset:0;stroke-opacity:1;color-rendering:auto;image-rendering:auto;shape-rendering:auto;text-rendering:auto;enable-background:accumulate" />
  </g>
</svg>
