<?xml version="1.0" encoding="UTF-8" standalone="no"?>
<svg
   xmlns:dc="http://purl.org/dc/elements/1.1/"
   xmlns:cc="http://creativecommons.org/ns#"
   xmlns:rdf="http://www.w3.org/1999/02/22-rdf-syntax-ns#"
   xmlns:svg="http://www.w3.org/2000/svg"
   xmlns="http://www.w3.org/2000/svg"
   id="svg8"
   version="1.1"
   viewBox="0 0 120.38753 27.123619"
   height="102.51447"
   width="455.008">
  <defs
     id="defs2" />
  <metadata
     id="metadata5">
    <rdf:RDF>
      <cc:Work
         rdf:about="">
        <dc:format>image/svg+xml</dc:format>
        <dc:type
           rdf:resource="http://purl.org/dc/dcmitype/StillImage" />
        <dc:title></dc:title>
      </cc:Work>
    </rdf:RDF>
  </metadata>
  <g
     transform="translate(-58.490754,-243.75067)"
     id="layer1">
    <path
       id="path5188-6-4"
       d="m 113.14698,243.75827 c -5.74746,0.22146 -12.73096,4.75209 -16.701176,13.64258 -3.071238,6.87741 -8.612552,9.85001 -11.919923,9.65625 -1.653685,-0.0969 -2.669317,-0.73527 -3.210937,-2.14453 -0.541621,-1.40927 -0.496131,-3.89496 1.083984,-7.46485 1.757917,-3.97159 1.873637,-7.36745 0.490234,-9.85742 -1.383402,-2.48997 -4.148206,-3.72097 -7.105468,-3.72656 -5.914525,-0.0112 -13.172776,4.37749 -17.134766,13.25781 a 1.5932155,1.5932155 0 1 0 2.908203,1.29883 c 3.524179,-7.89902 9.952704,-11.37916 14.220703,-11.37109 2.134,0.004 3.584567,0.75503 4.326172,2.08984 0.741606,1.3348 0.893037,3.60754 -0.617187,7.01953 -1.786292,4.0357 -2.126367,7.34688 -1.146485,9.89649 0.979882,2.5496 3.392296,4.03093 5.998047,4.18359 5.211501,0.30532 11.516111,-3.70261 15.015625,-11.53906 3.559344,-7.97042 9.812904,-11.59979 13.914064,-11.75782 2.05058,-0.079 3.40505,0.5748 4.11133,1.78516 0.70628,1.21036 0.88907,3.35778 -0.5,6.64453 -1.7472,4.13414 -1.64608,7.77129 -0.12695,10.45313 1.51912,2.68184 4.32201,4.24041 7.37304,4.65234 6.10206,0.82386 13.57274,-2.80805 16.25,-11.19531 2.7648,-8.66151 8.68431,-12.1767 12.63672,-12.03321 1.9762,0.0718 3.42635,0.90474 4.2539,2.55079 0.82756,1.64604 1.01759,4.33373 -0.38867,8.13281 -1.57588,4.25734 -1.66304,7.56994 -0.26953,9.93359 1.39352,2.36366 4.16347,3.24126 6.91797,2.95703 5.50898,-0.56846 11.99969,-5.08674 15.20507,-12.36328 a 1.5932155,1.5932155 0 1 0 -2.91601,-1.2832 c -2.74115,6.22268 -8.67326,10.0698 -12.61523,10.47656 -1.97099,0.20338 -3.18363,-0.27798 -3.84766,-1.4043 -0.66403,-1.12631 -0.88352,-3.43437 0.51367,-7.20898 1.6086,-4.34574 1.59736,-7.98414 0.2461,-10.67187 -1.35127,-2.68774 -4.05834,-4.19658 -6.98242,-4.30274 -5.84817,-0.21232 -12.7007,4.57288 -15.78907,14.24805 -2.23992,7.01719 -8.25165,9.61847 -12.78906,9.00586 -2.2687,-0.30631 -4.07408,-1.38159 -5.02734,-3.06446 -0.95326,-1.68286 -1.18869,-4.14137 0.29101,-7.64257 1.62487,-3.84468 1.70254,-7.11481 0.31641,-9.49024 -1.38613,-2.37543 -4.11065,-3.47401 -6.98437,-3.36328 z"
       style="color:#000000;font-style:normal;font-variant:normal;font-weight:normal;font-stretch:normal;font-size:medium;line-height:normal;font-family:sans-serif;font-variant-ligatures:normal;font-variant-position:normal;font-variant-caps:normal;font-variant-numeric:normal;font-variant-alternates:normal;font-feature-settings:normal;text-indent:0;text-align:start;text-decoration:none;text-decoration-line:none;text-decoration-style:solid;text-decoration-color:#000000;letter-spacing:normal;word-spacing:normal;text-transform:none;writing-mode:lr-tb;direction:ltr;text-orientation:mixed;dominant-baseline:auto;baseline-shift:baseline;text-anchor:start;white-space:normal;shape-padding:0;clip-rule:nonzero;display:inline;overflow:visible;visibility:visible;opacity:1;isolation:auto;mix-blend-mode:normal;color-interpolation:sRGB;color-interpolation-filters:linearRGB;solid-color:#000000;solid-opacity:1;vector-effect:none;fill:#ceaa2c;fill-opacity:1;fill-rule:nonzero;stroke:none;stroke-width:3.1861124;stroke-linecap:round;stroke-linejoin:miter;stroke-miterlimit:4;stroke-dasharray:none;stroke-dashoffset:0;stroke-opacity:1;color-rendering:auto;image-rendering:auto;shape-rendering:auto;text-rendering:auto;enable-background:accumulate" />
  </g>
</svg>
