<?xml version="1.0" encoding="UTF-8" standalone="no"?>
<svg
   xmlns:dc="http://purl.org/dc/elements/1.1/"
   xmlns:cc="http://creativecommons.org/ns#"
   xmlns:rdf="http://www.w3.org/1999/02/22-rdf-syntax-ns#"
   xmlns:svg="http://www.w3.org/2000/svg"
   xmlns="http://www.w3.org/2000/svg"
   id="svg8"
   version="1.1"
   viewBox="0 0 119.33929 21.90259"
   height="82.781441"
   width="451.04614">
  <defs
     id="defs2" />
  <metadata
     id="metadata5">
    <rdf:RDF>
      <cc:Work
         rdf:about="">
        <dc:format>image/svg+xml</dc:format>
        <dc:type
           rdf:resource="http://purl.org/dc/dcmitype/StillImage" />
        <dc:title></dc:title>
      </cc:Work>
    </rdf:RDF>
  </metadata>
  <g
     transform="translate(-2.3184663,-221.79274)"
     id="layer1">
    <path
       id="path4914"
       d="m 31.500625,239.45523 c -0.740415,0.10688 -1.478902,0.17756 -2.21175,0.20825 -0.75134,0.0315 -1.497335,0.0238 -2.235523,-0.0217 -0.738187,-0.0455 -1.468202,-0.12882 -2.187979,-0.24805 -0.719781,-0.11922 -1.429343,-0.27426 -2.125451,-0.46405 -0.696111,-0.1898 -1.378691,-0.4141 -2.045872,-0.67128 -0.667179,-0.25718 -1.318829,-0.5473 -1.951818,-0.86868 -0.632989,-0.32139 -1.247691,-0.67386 -1.84123,-1.05627 -0.593543,-0.38241 -1.165794,-0.79482 -1.714625,-1.23506 -0.548833,-0.44025 -1.074168,-0.90864 -1.57303,-1.40354 -0.498864,-0.49489 -0.971269,-1.01633 -1.414901,-1.56269 -0.443633,-0.54636 -0.858642,-1.11739 -1.241785,-1.71204 -0.383143,-0.59465 -0.734737,-1.21285 -1.0521317,-1.8526 -0.3173968,-0.63975 -0.6005909,-1.30116 -0.8469788,-1.98283 -0.2463853,-0.68167 -0.455684,-1.38334 -0.6258005,-2.10375 -0.00513,-0.0217 -0.00683,-0.0449 -0.01188,-0.0667 l -0.1886241,0.30799 c -0.2834799,6.99255 10.8671121,19.7491 23.5293141,15.68586 z"
       style="fill:#b6598d;fill-opacity:1;stroke:none;stroke-width:0.26458332px;stroke-linecap:butt;stroke-linejoin:miter;stroke-opacity:1" />
    <path
       id="path4902"
       d="m 10.026484,221.79274 -1.606619,2.62155 c 0.00505,0.0217 0.00677,0.045 0.01188,0.0667 0.1701165,0.7204 0.3794151,1.42208 0.6258004,2.10374 0.2463879,0.68167 0.529582,1.34308 0.8469788,1.98283 0.3173938,0.63975 0.6689878,1.25795 1.0521318,1.8526 0.383143,0.59465 0.798152,1.16568 1.241784,1.71204 0.443633,0.54636 0.916038,1.0678 1.414902,1.56269 0.498861,0.4949 1.024197,0.96329 1.57303,1.40354 0.54883,0.44024 1.121082,0.85266 1.714624,1.23506 0.59354,0.38241 1.208241,0.73488 1.84123,1.05627 0.63299,0.32139 1.28464,0.6115 1.951818,0.86868 0.667182,0.25718 1.349762,0.48148 2.045872,0.67128 0.696109,0.18979 1.405671,0.34483 2.125451,0.46405 0.719778,0.11923 1.449793,0.20258 2.18798,0.24805 0.738188,0.0455 1.484183,0.0532 2.235523,0.0217 0.732848,-0.0307 1.471334,-0.10137 2.21175,-0.20825 l -0.590656,-2.16524 c -10.677829,2.26786 -22.5843778,-8.31569 -20.88348,-15.49724 z"
       style="fill:#dbd6dc;fill-opacity:1;stroke:none;stroke-width:0.26458332px;stroke-linecap:butt;stroke-linejoin:miter;stroke-opacity:1" />
    <path
       id="path4914-9"
       d="m 12.478915,227.26786 c 0.409938,0.46135 0.837922,0.89884 1.283629,1.30813 0.456953,0.41961 0.93138,0.81168 1.42097,1.1758 0.489598,0.36411 0.994197,0.69998 1.511433,1.0078 0.517235,0.30781 1.047083,0.58761 1.586942,0.83834 0.539863,0.25072 1.089554,0.4725 1.647031,0.66535 0.557477,0.19284 1.122685,0.35667 1.692769,0.49084 0.570081,0.13418 1.145176,0.23903 1.722855,0.31375 0.577681,0.0747 1.157908,0.11918 1.738171,0.13364 0.580267,0.0145 1.160698,-0.001 1.738538,-0.0479 0.577842,-0.0466 1.153126,-0.12397 1.723531,-0.23239 0.570404,-0.10841 1.135888,-0.24761 1.693849,-0.41865 0.55796,-0.17105 1.108564,-0.37373 1.649069,-0.60819 0.540507,-0.23446 1.070974,-0.50078 1.589016,-0.79945 0.51804,-0.29867 1.023345,-0.62969 1.51391,-0.99337 0.01478,-0.0109 0.02822,-0.0247 0.04296,-0.0357 l -0.04495,0.29453 c -3.541876,4.55942 -17.359485,6.669 -23.18063,-2.63005 z"
       style="fill:#b6598d;fill-opacity:1;stroke:none;stroke-width:0.21827723px;stroke-linecap:butt;stroke-linejoin:miter;stroke-opacity:1" />
    <path
       id="path4902-0"
       d="m 35.415548,227.5582 -0.381953,2.50765 c -0.01474,0.011 -0.0282,0.0248 -0.04296,0.0357 -0.490565,0.36368 -0.995871,0.6947 -1.513911,0.99337 -0.518041,0.29867 -1.048509,0.56499 -1.589016,0.79945 -0.540505,0.23446 -1.091108,0.43714 -1.649069,0.60818 -0.55796,0.17105 -1.123444,0.31024 -1.693849,0.41866 -0.570404,0.10842 -1.145688,0.18581 -1.72353,0.23239 -0.577841,0.0466 -1.158272,0.0624 -1.738538,0.0479 -0.580264,-0.0145 -1.160491,-0.0589 -1.738172,-0.13365 -0.577678,-0.0747 -1.152773,-0.17956 -1.722855,-0.31374 -0.570083,-0.13418 -1.135291,-0.298 -1.692768,-0.49085 -0.557478,-0.19285 -1.107169,-0.41462 -1.647031,-0.66535 -0.53986,-0.25072 -1.069707,-0.53052 -1.586943,-0.83834 -0.517235,-0.30781 -1.021834,-0.64369 -1.511432,-1.00779 -0.489599,-0.36411 -0.964022,-0.75619 -1.42097,-1.1758 -0.445708,-0.40929 -0.873692,-0.84678 -1.283629,-1.30813 l 1.524468,-1.05084 c 5.525348,7.11128 18.663354,6.77393 21.412157,1.34118 z"
       style="fill:#dbd6dc;fill-opacity:1;stroke:none;stroke-width:0.21827723px;stroke-linecap:butt;stroke-linejoin:miter;stroke-opacity:1" />
    <path
       id="path4914-9-8"
       d="m 25.238772,225.26369 c 0.300934,0.53883 0.62463,1.05824 0.971709,1.55393 0.355836,0.50819 0.734669,0.99326 1.134331,1.45429 0.399671,0.46102 0.820073,0.89771 1.258859,1.30971 0.438786,0.41201 0.895923,0.79937 1.3691,1.16051 0.473179,0.36113 0.962193,0.69611 1.46504,1.00452 0.502849,0.3084 1.019498,0.59013 1.547295,0.84396 0.527795,0.25383 1.066803,0.4801 1.614825,0.6775 0.548025,0.1974 1.105051,0.36581 1.668576,0.50493 0.563528,0.13912 1.133734,0.24873 1.708043,0.32772 0.57431,0.079 1.152759,0.12733 1.733127,0.14433 0.580367,0.017 1.16256,0.003 1.744266,-0.0439 0.581706,-0.0468 1.163043,-0.12616 1.741365,-0.23868 0.578323,-0.11253 1.153704,-0.25832 1.723921,-0.43839 0.570216,-0.18007 1.134964,-0.39447 1.692352,-0.64394 0.01679,-0.008 0.03287,-0.018 0.04964,-0.0256 l -0.107341,0.27794 c -4.440873,3.68942 -18.388521,2.77302 -22.069891,-7.56167 z"
       style="fill:#b6598d;fill-opacity:1;stroke:none;stroke-width:0.21827723px;stroke-linecap:butt;stroke-linejoin:miter;stroke-opacity:1" />
    <path
       id="path4902-0-5"
       d="m 47.574392,230.48801 -0.913161,2.36651 c -0.01677,0.008 -0.03287,0.0181 -0.04964,0.0256 -0.557387,0.24947 -1.122136,0.46387 -1.692351,0.64394 -0.570217,0.18007 -1.145598,0.32586 -1.723921,0.43839 -0.578322,0.11252 -1.159659,0.19184 -1.741365,0.23868 -0.581706,0.0468 -1.163899,0.0609 -1.744267,0.0439 -0.580367,-0.017 -1.158816,-0.0653 -1.733127,-0.14433 -0.574308,-0.079 -1.144514,-0.1886 -1.708042,-0.32772 -0.563525,-0.13912 -1.120551,-0.30753 -1.668576,-0.50493 -0.548022,-0.1974 -1.08703,-0.42367 -1.614825,-0.6775 -0.527797,-0.25383 -1.044447,-0.53556 -1.547295,-0.84397 -0.502847,-0.3084 -0.991861,-0.64338 -1.465041,-1.00451 -0.473176,-0.36114 -0.930313,-0.7485 -1.369099,-1.16051 -0.438786,-0.412 -0.859188,-0.84869 -1.25886,-1.30971 -0.399671,-0.46103 -0.778499,-0.94609 -1.13433,-1.45429 -0.34708,-0.49569 -0.670775,-1.01511 -0.971709,-1.55393 l 1.71504,-0.69777 c 3.863786,8.13455 16.766028,10.63518 20.620572,5.92209 z"
       style="fill:#dbd6dc;fill-opacity:1;stroke:none;stroke-width:0.21827723px;stroke-linecap:butt;stroke-linejoin:miter;stroke-opacity:1" />
    <path
       id="path4914-7"
       d="m 29.385078,231.74108 c -0.364018,0.65355 -0.755653,1.28361 -1.175665,1.88494 -0.43061,0.6165 -0.889128,1.205 -1.372927,1.7644 -0.483811,0.55939 -0.992783,1.08931 -1.524076,1.58933 -0.531292,0.50003 -1.084863,0.97021 -1.657912,1.40862 -0.573053,0.43841 -1.165337,0.84514 -1.774426,1.21968 -0.60909,0.37454 -1.234948,0.71676 -1.874356,1.02518 -0.639405,0.30842 -1.292443,0.58345 -1.956445,0.8235 -0.664007,0.24004 -1.338966,0.44496 -2.021843,0.61439 -0.682881,0.16943 -1.373897,0.3031 -2.06993,0.39965 -0.696035,0.0966 -1.39713,0.15596 -2.100594,0.17739 -0.703464,0.0214 -1.409185,0.005 -2.1143615,-0.0508 -0.7051768,-0.056 -1.4099517,-0.15129 -2.1111183,-0.28687 -0.7011681,-0.13559 -1.3988167,-0.3115 -2.0902541,-0.52897 -0.6914357,-0.21746 -1.3762923,-0.47656 -2.0522766,-0.77816 -0.020364,-0.009 -0.039875,-0.0218 -0.06021,-0.031 l 0.1305037,0.33675 c 5.388157,4.46586 22.2934068,3.33545 26.7412238,-9.19684 z"
       style="fill:#b6598d;fill-opacity:1;stroke:none;stroke-width:0.26458332px;stroke-linecap:butt;stroke-linejoin:miter;stroke-opacity:1" />
    <path
       id="path4902-9"
       d="m 2.3184663,238.10509 1.1102079,2.86726 c 0.020337,0.009 0.03987,0.0219 0.06021,0.031 0.6759842,0.3016 1.3608409,0.56069 2.0522766,0.77816 0.6914373,0.21747 1.3890859,0.39338 2.0902541,0.52897 0.7011666,0.13558 1.4059415,0.23091 2.1111182,0.28687 0.7051769,0.0559 1.4108969,0.0722 2.1143609,0.0508 0.703465,-0.0214 1.40456,-0.0808 2.100595,-0.1774 0.696033,-0.0965 1.387049,-0.23021 2.06993,-0.39964 0.682877,-0.16943 1.357836,-0.37435 2.021842,-0.61439 0.664003,-0.24005 1.31704,-0.51508 1.956446,-0.8235 0.639408,-0.30842 1.265265,-0.65064 1.874355,-1.02518 0.60909,-0.37454 1.201373,-0.78127 1.774426,-1.21968 0.57305,-0.43841 1.126621,-0.90859 1.657913,-1.40862 0.531292,-0.50002 1.040265,-1.02994 1.524076,-1.58933 0.483811,-0.55939 0.942322,-1.14789 1.372926,-1.7644 0.420013,-0.60133 0.811648,-1.23139 1.175666,-1.88495 l -2.079855,-0.84339 C 22.63319,240.76334 6.9973486,243.8126 2.3184665,238.10508 Z"
       style="fill:#dbd6dc;fill-opacity:1;stroke:none;stroke-width:0.26458332px;stroke-linecap:butt;stroke-linejoin:miter;stroke-opacity:1" />
    <path
       style="fill:#b6598d;fill-opacity:1;stroke:none;stroke-width:0.26458332px;stroke-linecap:butt;stroke-linejoin:miter;stroke-opacity:1"
       d="m 68.542289,239.45523 c -0.740415,0.10688 -1.478902,0.17756 -2.21175,0.20825 -0.75134,0.0315 -1.497335,0.0238 -2.235523,-0.0217 -0.738187,-0.0455 -1.468202,-0.12882 -2.187979,-0.24805 -0.719781,-0.11922 -1.429343,-0.27426 -2.125451,-0.46405 -0.696111,-0.1898 -1.378691,-0.4141 -2.045872,-0.67128 -0.667179,-0.25718 -1.318829,-0.5473 -1.951818,-0.86868 -0.632989,-0.32139 -1.247691,-0.67386 -1.84123,-1.05627 -0.593543,-0.38241 -1.165794,-0.79482 -1.714625,-1.23506 -0.548833,-0.44025 -1.074168,-0.90864 -1.57303,-1.40354 -0.498864,-0.49489 -0.971269,-1.01633 -1.414901,-1.56269 -0.443633,-0.54636 -0.858642,-1.11739 -1.241785,-1.71204 -0.383143,-0.59465 -0.734737,-1.21285 -1.052132,-1.8526 -0.317396,-0.63975 -0.600591,-1.30116 -0.846979,-1.98283 -0.246385,-0.68167 -0.455683,-1.38334 -0.6258,-2.10375 -0.0051,-0.0217 -0.0068,-0.0449 -0.01188,-0.0667 l -0.188624,0.30799 c -0.28348,6.99255 10.867112,19.7491 23.529314,15.68586 z"
       id="path11959" />
    <path
       style="fill:#dbd6dc;fill-opacity:1;stroke:none;stroke-width:0.26458332px;stroke-linecap:butt;stroke-linejoin:miter;stroke-opacity:1"
       d="m 47.068148,221.79274 -1.606619,2.62155 c 0.0051,0.0217 0.0068,0.045 0.01188,0.0667 0.170116,0.7204 0.379415,1.42208 0.6258,2.10374 0.246388,0.68167 0.529582,1.34308 0.846979,1.98283 0.317394,0.63975 0.668988,1.25795 1.052132,1.8526 0.383143,0.59465 0.798152,1.16568 1.241784,1.71204 0.443633,0.54636 0.916038,1.0678 1.414902,1.56269 0.498861,0.4949 1.024197,0.96329 1.57303,1.40354 0.54883,0.44024 1.121082,0.85266 1.714624,1.23506 0.59354,0.38241 1.208241,0.73488 1.84123,1.05627 0.63299,0.32139 1.28464,0.6115 1.951818,0.86868 0.667182,0.25718 1.349762,0.48148 2.045872,0.67128 0.696109,0.18979 1.405671,0.34483 2.125451,0.46405 0.719778,0.11923 1.449793,0.20258 2.18798,0.24805 0.738188,0.0455 1.484183,0.0532 2.235523,0.0217 0.732848,-0.0307 1.471334,-0.10137 2.21175,-0.20825 l -0.590656,-2.16524 c -10.677829,2.26786 -22.584378,-8.31569 -20.88348,-15.49724 z"
       id="path11961" />
    <path
       style="fill:#b6598d;fill-opacity:1;stroke:none;stroke-width:0.21827723px;stroke-linecap:butt;stroke-linejoin:miter;stroke-opacity:1"
       d="m 49.520575,227.26786 c 0.409938,0.46135 0.837922,0.89884 1.283629,1.30813 0.456953,0.41961 0.93138,0.81168 1.42097,1.1758 0.489598,0.36411 0.994197,0.69998 1.511433,1.0078 0.517235,0.30781 1.047083,0.58761 1.586942,0.83834 0.539863,0.25072 1.089554,0.4725 1.647031,0.66535 0.557477,0.19284 1.122685,0.35667 1.692769,0.49084 0.570081,0.13418 1.145176,0.23903 1.722855,0.31375 0.577681,0.0747 1.157908,0.11918 1.738171,0.13364 0.580267,0.0145 1.160698,-0.001 1.738538,-0.0479 0.577842,-0.0466 1.153126,-0.12397 1.723531,-0.23239 0.570404,-0.10841 1.135888,-0.24761 1.693849,-0.41865 0.55796,-0.17105 1.108564,-0.37373 1.649069,-0.60819 0.540507,-0.23446 1.070974,-0.50078 1.589016,-0.79945 0.51804,-0.29867 1.023345,-0.62969 1.51391,-0.99337 0.01478,-0.0109 0.02822,-0.0247 0.04296,-0.0357 l -0.04495,0.29453 c -3.541876,4.55942 -17.359485,6.669 -23.18063,-2.63005 z"
       id="path11965" />
    <path
       style="fill:#dbd6dc;fill-opacity:1;stroke:none;stroke-width:0.21827723px;stroke-linecap:butt;stroke-linejoin:miter;stroke-opacity:1"
       d="m 72.457208,227.5582 -0.381953,2.50765 c -0.01474,0.011 -0.0282,0.0248 -0.04296,0.0357 -0.490565,0.36368 -0.995871,0.6947 -1.513911,0.99337 -0.518041,0.29867 -1.048509,0.56499 -1.589016,0.79945 -0.540505,0.23446 -1.091108,0.43714 -1.649069,0.60818 -0.55796,0.17105 -1.123444,0.31024 -1.693849,0.41866 -0.570404,0.10842 -1.145688,0.18581 -1.72353,0.23239 -0.577841,0.0466 -1.158272,0.0624 -1.738538,0.0479 -0.580264,-0.0145 -1.160491,-0.0589 -1.738172,-0.13365 -0.577678,-0.0747 -1.152773,-0.17956 -1.722855,-0.31374 -0.570083,-0.13418 -1.135291,-0.298 -1.692768,-0.49085 -0.557478,-0.19285 -1.107169,-0.41462 -1.647031,-0.66535 -0.53986,-0.25072 -1.069707,-0.53052 -1.586943,-0.83834 -0.517235,-0.30781 -1.021834,-0.64369 -1.511432,-1.00779 -0.489599,-0.36411 -0.964022,-0.75619 -1.42097,-1.1758 -0.445708,-0.40929 -0.873692,-0.84678 -1.283629,-1.30813 l 1.524468,-1.05084 c 5.525348,7.11128 18.663354,6.77393 21.412157,1.34118 z"
       id="path11967" />
    <path
       style="fill:#b6598d;fill-opacity:1;stroke:none;stroke-width:0.21827723px;stroke-linecap:butt;stroke-linejoin:miter;stroke-opacity:1"
       d="m 62.280432,225.26369 c 0.300934,0.53883 0.62463,1.05824 0.971709,1.55393 0.355836,0.50819 0.734669,0.99326 1.134331,1.45429 0.399671,0.46102 0.820073,0.89771 1.258859,1.30971 0.438786,0.41201 0.895923,0.79937 1.3691,1.16051 0.473179,0.36113 0.962193,0.69611 1.46504,1.00452 0.502849,0.3084 1.019498,0.59013 1.547295,0.84396 0.527795,0.25383 1.066803,0.4801 1.614825,0.6775 0.548025,0.1974 1.105051,0.36581 1.668576,0.50493 0.563528,0.13912 1.133734,0.24873 1.708043,0.32772 0.57431,0.079 1.152759,0.12733 1.733127,0.14433 0.580367,0.017 1.16256,0.003 1.744266,-0.0439 0.581706,-0.0468 1.163043,-0.12616 1.741365,-0.23868 0.578323,-0.11253 1.153704,-0.25832 1.723921,-0.43839 0.570216,-0.18007 1.134964,-0.39447 1.692352,-0.64394 0.01679,-0.008 0.03288,-0.018 0.04964,-0.0256 l -0.107341,0.27794 c -4.440873,3.68942 -18.388521,2.77302 -22.069891,-7.56167 z"
       id="path11971" />
    <path
       style="fill:#dbd6dc;fill-opacity:1;stroke:none;stroke-width:0.21827723px;stroke-linecap:butt;stroke-linejoin:miter;stroke-opacity:1"
       d="m 84.616052,230.48801 -0.913161,2.36651 c -0.01677,0.008 -0.03287,0.0181 -0.04964,0.0256 -0.557387,0.24947 -1.122136,0.46387 -1.692351,0.64394 -0.570217,0.18007 -1.145598,0.32586 -1.723921,0.43839 -0.578322,0.11252 -1.159659,0.19184 -1.741365,0.23868 -0.581706,0.0468 -1.163899,0.0609 -1.744267,0.0439 -0.580367,-0.017 -1.158816,-0.0653 -1.733127,-0.14433 -0.574308,-0.079 -1.144514,-0.1886 -1.708042,-0.32772 -0.563525,-0.13912 -1.120551,-0.30753 -1.668576,-0.50493 -0.548022,-0.1974 -1.08703,-0.42367 -1.614825,-0.6775 -0.527797,-0.25383 -1.044447,-0.53556 -1.547295,-0.84397 -0.502847,-0.3084 -0.991861,-0.64338 -1.465041,-1.00451 -0.473176,-0.36114 -0.930313,-0.7485 -1.369099,-1.16051 -0.438786,-0.412 -0.859188,-0.84869 -1.25886,-1.30971 -0.399671,-0.46103 -0.778499,-0.94609 -1.13433,-1.45429 -0.34708,-0.49569 -0.670775,-1.01511 -0.971709,-1.55393 l 1.71504,-0.69777 c 3.863786,8.13455 16.766028,10.63518 20.620572,5.92209 z"
       id="path11973" />
    <path
       style="fill:#b6598d;fill-opacity:1;stroke:none;stroke-width:0.26458332px;stroke-linecap:butt;stroke-linejoin:miter;stroke-opacity:1"
       d="m 66.42675,231.74107 c -0.364018,0.65355 -0.755653,1.28361 -1.175665,1.88494 -0.43061,0.6165 -0.889128,1.205 -1.372927,1.7644 -0.483811,0.55939 -0.992783,1.08931 -1.524076,1.58933 -0.531292,0.50003 -1.084863,0.97021 -1.657912,1.40862 -0.573053,0.43841 -1.165337,0.84514 -1.774426,1.21968 -0.60909,0.37454 -1.234948,0.71676 -1.874356,1.02518 -0.639405,0.30842 -1.292443,0.58345 -1.956445,0.8235 -0.664007,0.24004 -1.338966,0.44496 -2.021843,0.61439 -0.682881,0.16943 -1.373897,0.3031 -2.06993,0.39965 -0.696035,0.0965 -1.39713,0.15596 -2.100594,0.17739 -0.703464,0.0214 -1.409185,0.005 -2.114362,-0.0508 -0.705176,-0.056 -1.409951,-0.15129 -2.111118,-0.28687 -0.701168,-0.13559 -1.398817,-0.3115 -2.090254,-0.52897 -0.691436,-0.21746 -1.376292,-0.47656 -2.052277,-0.77816 -0.02036,-0.009 -0.03987,-0.0218 -0.06021,-0.031 l 0.130503,0.33675 c 5.388158,4.46586 22.293407,3.33545 26.741224,-9.19684 z"
       id="path11977" />
    <path
       style="fill:#dbd6dc;fill-opacity:1;stroke:none;stroke-width:0.26458332px;stroke-linecap:butt;stroke-linejoin:miter;stroke-opacity:1"
       d="m 39.360138,238.10508 1.110208,2.86726 c 0.02034,0.009 0.03987,0.0219 0.06021,0.031 0.675984,0.3016 1.360841,0.56069 2.052277,0.77816 0.691437,0.21747 1.389086,0.39338 2.090254,0.52897 0.701166,0.13558 1.405941,0.23091 2.111118,0.28687 0.705177,0.0559 1.410897,0.0722 2.114361,0.0508 0.703465,-0.0214 1.40456,-0.0808 2.100595,-0.1774 0.696033,-0.0965 1.387049,-0.23021 2.06993,-0.39964 0.682877,-0.16943 1.357836,-0.37435 2.021842,-0.61439 0.664003,-0.24005 1.31704,-0.51508 1.956446,-0.8235 0.639408,-0.30842 1.265265,-0.65064 1.874355,-1.02518 0.60909,-0.37454 1.201373,-0.78127 1.774426,-1.21968 0.57305,-0.43841 1.126621,-0.90859 1.657913,-1.40862 0.531292,-0.50002 1.040265,-1.02994 1.524076,-1.58933 0.483811,-0.55939 0.942322,-1.14789 1.372926,-1.7644 0.420013,-0.60133 0.811648,-1.23139 1.175666,-1.88495 l -2.079855,-0.84339 c -4.672024,9.86567 -20.307866,12.91493 -24.986748,7.20741 z"
       id="path11979" />
    <path
       id="path11985"
       d="m 105.58396,239.45523 c -0.74042,0.10688 -1.47891,0.17756 -2.21175,0.20825 -0.75134,0.0315 -1.49734,0.0238 -2.23553,-0.0217 -0.73819,-0.0455 -1.4682,-0.12882 -2.187977,-0.24805 -0.719781,-0.11922 -1.429343,-0.27426 -2.125451,-0.46405 -0.696111,-0.1898 -1.378691,-0.4141 -2.045872,-0.67128 -0.667179,-0.25718 -1.318829,-0.5473 -1.951818,-0.86868 -0.632989,-0.32139 -1.247691,-0.67386 -1.84123,-1.05627 -0.593543,-0.38241 -1.165794,-0.79482 -1.714625,-1.23506 -0.548833,-0.44025 -1.074168,-0.90864 -1.57303,-1.40354 -0.498864,-0.49489 -0.971269,-1.01633 -1.414901,-1.56269 -0.443633,-0.54636 -0.858642,-1.11739 -1.241785,-1.71204 -0.383143,-0.59465 -0.734737,-1.21285 -1.052132,-1.8526 -0.317396,-0.63975 -0.600591,-1.30116 -0.846979,-1.98283 -0.246385,-0.68167 -0.455683,-1.38334 -0.6258,-2.10375 -0.0051,-0.0217 -0.0068,-0.0449 -0.01188,-0.0667 l -0.188624,0.30799 c -0.28348,6.99255 10.867112,19.7491 23.529314,15.68586 z"
       style="fill:#b6598d;fill-opacity:1;stroke:none;stroke-width:0.26458332px;stroke-linecap:butt;stroke-linejoin:miter;stroke-opacity:1" />
    <path
       id="path11987"
       d="m 84.109814,221.79274 -1.606619,2.62155 c 0.0051,0.0217 0.0068,0.045 0.01188,0.0667 0.170116,0.7204 0.379415,1.42208 0.6258,2.10374 0.246388,0.68167 0.529582,1.34308 0.846979,1.98283 0.317394,0.63975 0.668988,1.25795 1.052132,1.8526 0.383143,0.59465 0.798152,1.16568 1.241784,1.71204 0.443633,0.54636 0.916038,1.0678 1.414902,1.56269 0.498861,0.4949 1.024197,0.96329 1.57303,1.40354 0.54883,0.44024 1.121082,0.85266 1.714624,1.23506 0.59354,0.38241 1.208241,0.73488 1.84123,1.05627 0.63299,0.32139 1.28464,0.6115 1.951818,0.86868 0.667182,0.25718 1.349762,0.48148 2.045872,0.67128 0.696109,0.18979 1.405671,0.34483 2.125451,0.46405 0.719778,0.11923 1.449793,0.20258 2.187983,0.24805 0.73818,0.0455 1.48418,0.0532 2.23552,0.0217 0.73285,-0.0307 1.47133,-0.10137 2.21175,-0.20825 l -0.59066,-2.16524 c -10.677825,2.26786 -22.584374,-8.31569 -20.883476,-15.49724 z"
       style="fill:#dbd6dc;fill-opacity:1;stroke:none;stroke-width:0.26458332px;stroke-linecap:butt;stroke-linejoin:miter;stroke-opacity:1" />
    <path
       id="path11991"
       d="m 86.562245,227.26786 c 0.409938,0.46135 0.837922,0.89884 1.283629,1.30813 0.456953,0.41961 0.93138,0.81168 1.42097,1.1758 0.489598,0.36411 0.994197,0.69998 1.511433,1.0078 0.517235,0.30781 1.047083,0.58761 1.586942,0.83834 0.539863,0.25072 1.089554,0.4725 1.647031,0.66535 0.557477,0.19284 1.122685,0.35667 1.692769,0.49084 0.570081,0.13418 1.145176,0.23903 1.722855,0.31375 0.577681,0.0747 1.157908,0.11918 1.738171,0.13364 0.580267,0.0145 1.160695,-0.001 1.738535,-0.0479 0.57785,-0.0466 1.15313,-0.12397 1.72353,-0.23239 0.57041,-0.10841 1.13589,-0.24761 1.69385,-0.41865 0.55796,-0.17105 1.10857,-0.37373 1.64907,-0.60819 0.54051,-0.23446 1.07098,-0.50078 1.58902,-0.79945 0.51804,-0.29867 1.02334,-0.62969 1.51391,-0.99337 0.0148,-0.0109 0.0282,-0.0247 0.043,-0.0357 l -0.045,0.29453 c -3.54188,4.55942 -17.359488,6.669 -23.180633,-2.63005 z"
       style="fill:#b6598d;fill-opacity:1;stroke:none;stroke-width:0.21827723px;stroke-linecap:butt;stroke-linejoin:miter;stroke-opacity:1" />
    <path
       id="path11993"
       d="m 109.49888,227.5582 -0.38195,2.50765 c -0.0147,0.011 -0.0282,0.0248 -0.043,0.0357 -0.49057,0.36368 -0.99587,0.6947 -1.51391,0.99337 -0.51805,0.29867 -1.04851,0.56499 -1.58902,0.79945 -0.54051,0.23446 -1.09111,0.43714 -1.64907,0.60818 -0.55796,0.17105 -1.12344,0.31024 -1.69385,0.41866 -0.5704,0.10842 -1.14569,0.18581 -1.72353,0.23239 -0.57784,0.0466 -1.158271,0.0624 -1.738537,0.0479 -0.580264,-0.0145 -1.160491,-0.0589 -1.738172,-0.13365 -0.577678,-0.0747 -1.152773,-0.17956 -1.722855,-0.31374 -0.570083,-0.13418 -1.135291,-0.298 -1.692768,-0.49085 -0.557478,-0.19285 -1.107169,-0.41462 -1.647031,-0.66535 -0.53986,-0.25072 -1.069707,-0.53052 -1.586943,-0.83834 -0.517235,-0.30781 -1.021834,-0.64369 -1.511432,-1.00779 -0.489599,-0.36411 -0.964022,-0.75619 -1.42097,-1.1758 -0.445708,-0.40929 -0.873692,-0.84678 -1.283629,-1.30813 l 1.524468,-1.05084 c 5.525348,7.11128 18.663359,6.77393 21.412159,1.34118 z"
       style="fill:#dbd6dc;fill-opacity:1;stroke:none;stroke-width:0.21827723px;stroke-linecap:butt;stroke-linejoin:miter;stroke-opacity:1" />
    <path
       id="path11997"
       d="m 99.322102,225.26369 c 0.300934,0.53883 0.62463,1.05824 0.971708,1.55393 0.35584,0.50819 0.73467,0.99326 1.13433,1.45429 0.39967,0.46102 0.82007,0.89771 1.25886,1.30971 0.43879,0.41201 0.89592,0.79937 1.3691,1.16051 0.47318,0.36113 0.96219,0.69611 1.46504,1.00452 0.50285,0.3084 1.0195,0.59013 1.5473,0.84396 0.52779,0.25383 1.0668,0.4801 1.61482,0.6775 0.54803,0.1974 1.10505,0.36581 1.66858,0.50493 0.56353,0.13912 1.13373,0.24873 1.70804,0.32772 0.57431,0.079 1.15276,0.12733 1.73313,0.14433 0.58036,0.017 1.16256,0.003 1.74426,-0.0439 0.58171,-0.0468 1.16305,-0.12616 1.74137,-0.23868 0.57832,-0.11253 1.1537,-0.25832 1.72392,-0.43839 0.57021,-0.18007 1.13496,-0.39447 1.69235,-0.64394 0.0168,-0.008 0.0329,-0.018 0.0496,-0.0256 l -0.10734,0.27794 c -4.44087,3.68942 -18.38852,2.77302 -22.069889,-7.56167 z"
       style="fill:#b6598d;fill-opacity:1;stroke:none;stroke-width:0.21827723px;stroke-linecap:butt;stroke-linejoin:miter;stroke-opacity:1" />
    <path
       id="path11999"
       d="m 121.65772,230.48801 -0.91316,2.36651 c -0.0168,0.008 -0.0329,0.0181 -0.0496,0.0256 -0.55739,0.24947 -1.12214,0.46387 -1.69235,0.64394 -0.57022,0.18007 -1.1456,0.32586 -1.72392,0.43839 -0.57833,0.11252 -1.15966,0.19184 -1.74137,0.23868 -0.58171,0.0468 -1.1639,0.0609 -1.74427,0.0439 -0.58036,-0.017 -1.15881,-0.0653 -1.73312,-0.14433 -0.57431,-0.079 -1.14452,-0.1886 -1.70804,-0.32772 -0.56353,-0.13912 -1.12056,-0.30753 -1.66858,-0.50493 -0.54802,-0.1974 -1.08703,-0.42367 -1.61483,-0.6775 -0.52779,-0.25383 -1.04444,-0.53556 -1.54729,-0.84397 -0.50285,-0.3084 -0.99186,-0.64338 -1.46504,-1.00451 -0.47318,-0.36114 -0.93031,-0.7485 -1.3691,-1.16051 -0.43879,-0.412 -0.85919,-0.84869 -1.25886,-1.30971 -0.39967,-0.46103 -0.7785,-0.94609 -1.13433,-1.45429 -0.347081,-0.49569 -0.670776,-1.01511 -0.97171,-1.55393 l 1.71504,-0.69777 c 3.86379,8.13455 16.76603,10.63518 20.62057,5.92209 z"
       style="fill:#dbd6dc;fill-opacity:1;stroke:none;stroke-width:0.21827723px;stroke-linecap:butt;stroke-linejoin:miter;stroke-opacity:1" />
    <path
       id="path12003"
       d="m 103.46841,231.74107 c -0.36402,0.65355 -0.75565,1.28361 -1.17566,1.88494 -0.43061,0.6165 -0.88913,1.205 -1.37293,1.7644 -0.48381,0.55939 -0.992783,1.08931 -1.524076,1.58933 -0.531292,0.50003 -1.084863,0.97021 -1.657912,1.40862 -0.573053,0.43841 -1.165337,0.84514 -1.774426,1.21968 -0.60909,0.37454 -1.234948,0.71676 -1.874356,1.02518 -0.639405,0.30842 -1.292443,0.58345 -1.956445,0.8235 -0.664007,0.24004 -1.338966,0.44496 -2.021843,0.61439 -0.682881,0.16943 -1.373897,0.3031 -2.06993,0.39965 -0.696035,0.0965 -1.39713,0.15596 -2.100594,0.17739 -0.703464,0.0214 -1.409185,0.005 -2.114362,-0.0508 -0.705176,-0.056 -1.409951,-0.15129 -2.111118,-0.28687 -0.701168,-0.13559 -1.398817,-0.3115 -2.090254,-0.52897 -0.691436,-0.21746 -1.376292,-0.47656 -2.052277,-0.77816 -0.02036,-0.009 -0.03987,-0.0218 -0.06021,-0.031 l 0.130503,0.33675 c 5.388158,4.46586 22.293407,3.33545 26.74123,-9.19684 z"
       style="fill:#b6598d;fill-opacity:1;stroke:none;stroke-width:0.26458332px;stroke-linecap:butt;stroke-linejoin:miter;stroke-opacity:1" />
    <path
       id="path12005"
       d="m 76.4018,238.10508 1.110208,2.86726 c 0.02034,0.009 0.03987,0.0219 0.06021,0.031 0.675984,0.3016 1.360841,0.56069 2.052277,0.77816 0.691437,0.21747 1.389086,0.39338 2.090254,0.52897 0.701166,0.13558 1.405941,0.23091 2.111118,0.28687 0.705177,0.0559 1.410897,0.0722 2.114361,0.0508 0.703465,-0.0214 1.40456,-0.0808 2.100595,-0.1774 0.696033,-0.0965 1.387049,-0.23021 2.06993,-0.39964 0.682877,-0.16943 1.357836,-0.37435 2.021842,-0.61439 0.664003,-0.24005 1.31704,-0.51508 1.956446,-0.8235 0.639408,-0.30842 1.265265,-0.65064 1.874355,-1.02518 0.60909,-0.37454 1.201373,-0.78127 1.774426,-1.21968 0.57305,-0.43841 1.126621,-0.90859 1.657913,-1.40862 0.531292,-0.50002 1.040265,-1.02994 1.524075,-1.58933 0.48381,-0.55939 0.94232,-1.14789 1.37293,-1.7644 0.42001,-0.60133 0.81164,-1.23139 1.17566,-1.88495 l -2.07985,-0.84339 c -4.672026,9.86567 -20.307868,12.91493 -24.98675,7.20741 z"
       style="fill:#dbd6dc;fill-opacity:1;stroke:none;stroke-width:0.26458332px;stroke-linecap:butt;stroke-linejoin:miter;stroke-opacity:1" />
  </g>
</svg>
