<?xml version="1.0" encoding="UTF-8" standalone="no"?>
<svg
   xmlns:dc="http://purl.org/dc/elements/1.1/"
   xmlns:cc="http://creativecommons.org/ns#"
   xmlns:rdf="http://www.w3.org/1999/02/22-rdf-syntax-ns#"
   xmlns:svg="http://www.w3.org/2000/svg"
   xmlns="http://www.w3.org/2000/svg"
   id="svg8"
   version="1.1"
   viewBox="0 0 116.70051 30.943058"
   height="116.95014"
   width="441.07278">
  <defs
     id="defs2" />
  <metadata
     id="metadata5">
    <rdf:RDF>
      <cc:Work
         rdf:about="">
        <dc:format>image/svg+xml</dc:format>
        <dc:type
           rdf:resource="http://purl.org/dc/dcmitype/StillImage" />
        <dc:title></dc:title>
      </cc:Work>
    </rdf:RDF>
  </metadata>
  <g
     transform="translate(1.6537712,-203.66532)"
     id="layer1">
    <path
       id="path5078"
       transform="matrix(0.26458333,0,0,0.26458333,0,169.99998)"
       d="m 128.54492,127.24414 c -11.42999,0.19634 -23.7352,6.10923 -32.689451,17.73047 -11.325079,14.6982 0.12801,24.48841 3.982422,36.85937 2.193719,7.04086 -1.503006,15.16264 -6.38086,22.58399 -7.616155,-2.83464 -13.198382,-6.37124 -15.384765,-12.14844 -2.878481,-7.60603 -0.526226,-27.33748 -24.558594,-35.98633 -23.83482,-8.57775 -51.9721245,0.44559 -58.2187501,16.42774 -6.4564489,16.51899 7.7046292,39.15417 35.2441401,50.22656 21.769479,8.75255 28.350571,-4.82261 41.091797,-11.12891 4.601193,-2.27737 10.698212,-2.21665 17.257813,-0.96093 -2.113712,2.79506 -4.196996,5.39548 -5.917969,7.65234 l 7.738281,5.16797 c 2.205704,-3.73485 4.16437,-7.40741 6.041016,-10.85156 8.80234,2.62899 17.70631,6.52228 24.44141,9.19921 l 2.76562,-8.89257 c -8.56323,-2.50731 -16.69635,-4.39632 -23.72656,-6.47266 4.67291,-7.86216 9.35934,-13.34736 16.55469,-13.16992 3.79795,0.0937 10.30844,2.34036 17.31054,2.28711 -6.36043,8.84217 -9.27286,18.68258 -7.03515,26.73047 4.75123,17.08773 29.66508,26.68976 58.33789,19.01562 22.66534,-6.06625 19.78004,-20.87284 26.18554,-33.56445 3.31902,-6.57619 11.9935,-11.14377 21.55469,-14.58203 -3.22415,7.49752 -5.38243,17.06311 2.76953,26.92187 12.76851,15.44183 38.61224,18.42829 52.21094,7.96289 14.0555,-10.81697 16.33242,-33.95414 2.23242,-52.7207 -11.14578,-14.83461 -23.63705,-6.40602 -36.58789,-5.99023 -12.59487,0.40433 -23.66895,-16.58732 -30.84179,-26.03516 l -7.04297,6.08008 c 12.63411,13.09746 25.55722,21.92171 22.14062,33.18164 -0.1425,0.46964 -0.33696,0.97806 -0.5625,1.51367 -13.58946,5.47152 -24.57355,9.16687 -32.44922,4.17187 -6.86767,-4.35575 -16.82917,-21.54848 -41.24219,-14.04101 -1.97379,0.60698 -3.89438,1.33509 -5.76562,2.15039 5.35649,-15.68056 0.66977,-34.91496 -10.74023,-43.49805 -5.31507,-3.99819 -11.85685,-5.93811 -18.71485,-5.82031 z m 189.91211,3.7832 c -7.91924,0.17585 -14.94175,2.46166 -19.57812,6.92383 -12.77899,12.29885 -9.39422,38.78257 10.98047,60.36719 16.10581,17.06222 27.76552,7.49073 41.97656,7.09766 8.62548,-0.23858 18.32409,7.27806 26.91015,15.60546 -3.03404,4.69036 -6.70615,9.07738 -9.37304,12.54102 l 6.51367,4.39453 c 2.66657,-4.4674 4.9202,-8.81029 7.1289,-12.64648 3.51816,3.62952 6.7689,7.19115 9.55665,10.12109 l 6.23437,-6.91797 c -3.98034,-3.46846 -7.89384,-6.65801 -11.58984,-9.70117 3.02673,-3.92198 6.35309,-6.37486 10.80859,-6.24414 6.25844,0.18368 21.20524,7.35239 31.04297,-6.58594 9.75689,-13.82373 6.46855,-35.54578 -5.07031,-44.31054 -11.92649,-9.05915 -31.28368,-5.79128 -43.45508,9.85351 -9.62127,12.36696 0.0105,20.67901 3.2168,31.14063 1.15504,3.76913 0.31408,7.89734 -1.50782,12.0039 -9.88871,-8.39292 -16.98511,-15.76151 -16.38476,-24.30469 0.57011,-8.11245 10.96598,-25.04552 -7.23828,-42.96093 -11.28414,-11.10508 -26.97315,-16.67004 -40.17188,-16.37696 z"
       style="fill:#76b010;fill-opacity:1;stroke:none;stroke-width:0.99999994px;stroke-linecap:butt;stroke-linejoin:miter;stroke-opacity:1" />
    <path
       id="path5080"
       transform="matrix(0.26458333,0,0,0.26458333,0,169.99998)"
       d="m 141.66602,142.17188 c -8.66782,14.80894 -18.49894,29.08419 -28.73829,41.7871 16.07768,-7.51268 25.91415,-32.17021 28.73829,-41.7871 z m 167.26171,4.7832 c 16.36147,14.16805 32.0597,29.44954 45.95704,44.69336 -7.72845,-20.06117 -35.19463,-38.58391 -45.95704,-44.69336 z m 110.31055,22.38476 c -7.37783,12.47097 -15.73506,24.48748 -24.43164,35.17383 13.60619,-6.28051 22.00889,-27.06413 24.43164,-35.17383 z M 8.1894531,176.68164 C 28.979476,182.6988 49.634135,190.00557 68.636719,198.03125 53.219689,183.04814 20.521023,177.72437 8.1894531,176.68164 Z M 248.22461,181.5918 c 2.95309,17.49887 24.09386,33.55338 32.60937,38.83984 -11.96118,-12.30316 -23.09707,-25.58375 -32.60937,-38.83984 z m -53.49219,16.82031 c -20.47456,0.38708 -45.46897,13.56743 -54.97461,19.51953 20.24008,-7.6662 41.14608,-14.22021 61.16211,-19.20703 -1.99915,-0.25594 -4.06944,-0.35254 -6.1875,-0.3125 z"
       style="fill:#97c73d;fill-opacity:1;stroke:none;stroke-width:0.99999994px;stroke-linecap:butt;stroke-linejoin:miter;stroke-opacity:1" />
  </g>
</svg>
