<?xml version="1.0" encoding="UTF-8" standalone="no"?>
<svg
   xmlns:dc="http://purl.org/dc/elements/1.1/"
   xmlns:cc="http://creativecommons.org/ns#"
   xmlns:rdf="http://www.w3.org/1999/02/22-rdf-syntax-ns#"
   xmlns:svg="http://www.w3.org/2000/svg"
   xmlns="http://www.w3.org/2000/svg"
   version="1.1"
   id="svg2"
   viewBox="0 0 128 128"
   height="128"
   width="128">
  <defs
     id="defs4" />
  <metadata
     id="metadata7">
    <rdf:RDF>
      <cc:Work
         rdf:about="">
        <dc:format>image/svg+xml</dc:format>
        <dc:type
           rdf:resource="http://purl.org/dc/dcmitype/StillImage" />
        <dc:title></dc:title>
      </cc:Work>
    </rdf:RDF>
  </metadata>
  <g
     transform="translate(0,-924.36216)"
     id="layer1">
    <path
       id="path4223-4"
       d="m 46.072752,1042.4989 c 8.593898,-0.8752 20.001892,-1.6438 22.461888,-1.537 2.459993,0.1067 10.814714,-4.9543 13.496581,-7.7765 2.681869,-2.8223 7.791045,-6.8367 9.066001,-10.0043 1.274955,-3.1678 2.402411,-11.319 3.323536,-15.0708 0.921125,-3.7517 2.036898,-7.6013 2.480645,-13.45926 0.443746,-5.85792 -4.76924,-9.8903 -7.246051,-13.97908 -2.476814,-4.08877 -7.932276,-6.41749 -11.577305,-9.79862 -3.64503,-3.38114 -13.285743,-5.1707 -17.037509,-6.09183 -3.75177,-0.92112 -8.553733,-3.41595 -12.889586,-3.98332 -4.335886,-0.56727 -13.218516,4.06757 -16.602021,6.04453 -2.796955,1.63423 -9.927014,3.28314 -11.564821,9.93288 -1.447351,5.87505 -5.566636,18.21179 -8.240097,23.02505 -2.6734508,4.81325 2.830486,15.27935 4.110129,19.87925 1.354662,4.8695 5.145571,10.5652 10.427794,13.3538 5.282231,2.7886 14.612351,9.9925 19.790816,9.4652 z"
       style="fill:#e8bb73;fill-opacity:1;fill-rule:evenodd;stroke:none;stroke-width:1px;stroke-linecap:butt;stroke-linejoin:miter;stroke-opacity:1" />
    <path
       id="path4227-5"
       d="m 27.466765,978.15706 c 3.58534,-2.39547 6.658487,-2.66163 10.585286,0.13308 -1.825362,-5.61433 -8.445088,-5.60026 -10.585286,-0.13308 z"
       style="fill:#f0d299;fill-opacity:1;fill-rule:evenodd;stroke:none;stroke-width:0.99999994px;stroke-linecap:butt;stroke-linejoin:miter;stroke-opacity:1" />
    <path
       id="path4227-2-6"
       d="m 34.150741,1002.1327 c 3.585339,-2.39548 6.65849,-2.66163 10.585286,0.1331 -1.825367,-5.61436 -8.445089,-5.60029 -10.585286,-0.1331 z"
       style="fill:#f0d299;fill-opacity:1;fill-rule:evenodd;stroke:none;stroke-width:0.99999994px;stroke-linecap:butt;stroke-linejoin:miter;stroke-opacity:1" />
    <path
       id="path4227-8-7"
       d="m 76.097562,1022.1608 c 3.585338,-2.3955 6.658479,-2.6616 10.585285,0.1331 -1.825367,-5.6143 -8.445097,-5.6003 -10.585285,-0.1331 z"
       style="fill:#f0d299;fill-opacity:1;fill-rule:evenodd;stroke:none;stroke-width:0.99999994px;stroke-linecap:butt;stroke-linejoin:miter;stroke-opacity:1" />
    <path
       id="path4227-9-9"
       d="m 50.021041,1030.1287 c 3.585338,-2.3955 6.658486,-2.6617 10.585285,0.1331 -1.825363,-5.6144 -8.445088,-5.6003 -10.585285,-0.1331 z"
       style="fill:#f0d299;fill-opacity:1;fill-rule:evenodd;stroke:none;stroke-width:0.99999994px;stroke-linecap:butt;stroke-linejoin:miter;stroke-opacity:1" />
    <path
       id="path4227-27-1"
       d="m 24.910321,1015.6417 c 3.585338,-2.3955 6.658486,-2.6616 10.585286,0.1331 -1.825363,-5.6143 -8.44509,-5.6003 -10.585286,-0.1331 z"
       style="fill:#f0d299;fill-opacity:1;fill-rule:evenodd;stroke:none;stroke-width:0.99999994px;stroke-linecap:butt;stroke-linejoin:miter;stroke-opacity:1" />
    <path
       id="path4310"
       d="m 47.287394,960.75168 c -2.557523,0.0274 -6.186649,1.3621 -9.450727,2.85146 -1.609145,5.17438 -1.309022,15.22051 -1.309022,19.27866 0,4.24844 -0.17565,8.65215 0.847783,15.02482 1.023433,6.37258 7.40555,9.31118 10.987567,13.02858 3.582018,3.7173 9.78632,4.775 14.391772,7.4302 4.605452,2.6553 14.977649,2.0392 19.071384,2.0392 2.847564,0 6.408129,0.6704 9.863414,0.9057 1.032773,-3.7962 1.956526,-10.0421 2.731954,-13.2005 0.921125,-3.7517 2.036111,-7.6001 2.479859,-13.458 0.443745,-5.85793 -4.76856,-9.89032 -7.245371,-13.97909 -2.476814,-4.08877 -7.932626,-6.41879 -11.577655,-9.79993 -3.64503,-3.38113 -13.28606,-5.17021 -17.037826,-6.09133 -3.751769,-0.92113 -8.554556,-3.41573 -12.89041,-3.98309 -0.270993,-0.0355 -0.558661,-0.0499 -0.862722,-0.0466 z"
       style="fill:#b5691c;fill-opacity:1;fill-rule:evenodd;stroke:none;stroke-width:1px;stroke-linecap:butt;stroke-linejoin:miter;stroke-opacity:1" />
    <path
       id="path4223"
       d="m 77.29909,936.24888 c -8.137353,2.89907 -19.033064,6.36556 -21.447556,6.84846 -2.414493,0.48289 -9.321534,7.38994 -11.253128,10.77022 -1.931593,3.3803 -5.936218,8.49718 -6.419116,11.87747 -0.4829,3.38029 0.365727,11.5653 0.365727,15.42849 0,3.86318 -0.165705,7.86781 0.800093,13.66259 0.965796,5.79479 6.989893,8.46789 10.370181,11.84819 3.380289,3.3803 9.233657,4.341 13.579743,6.7555 4.346087,2.4145 14.135442,1.8538 17.998629,1.8538 3.863188,0 9.121512,1.2779 13.467598,0.7951 4.346086,-0.4829 11.867419,-7.102 14.681949,-9.8287 2.32662,-2.254 8.85787,-5.5554 8.8629,-12.4039 0.005,-6.0507 1.06373,-19.01382 2.51243,-24.32571 1.44869,-5.31188 -6.392,-14.16378 -8.73152,-18.32587 -2.47667,-4.40609 -7.5163,-9.03363 -13.311081,-10.48233 -5.794782,-1.44869 -16.57349,-6.22022 -21.476849,-4.47331 z"
       style="fill:#e8bb73;fill-opacity:1;fill-rule:evenodd;stroke:none;stroke-width:1px;stroke-linecap:butt;stroke-linejoin:miter;stroke-opacity:1" />
    <path
       id="path4227"
       d="m 54.452234,959.97847 c 3.585338,-2.39547 6.658486,-2.66163 10.585285,0.13308 -1.825363,-5.61434 -8.445088,-5.60026 -10.585285,-0.13308 z"
       style="fill:#f0d299;fill-opacity:1;fill-rule:evenodd;stroke:none;stroke-width:0.99999994px;stroke-linecap:butt;stroke-linejoin:miter;stroke-opacity:1" />
    <path
       id="path4227-4"
       d="m 92.061296,952.36568 c 3.585338,-2.39548 6.658486,-2.66163 10.585284,0.13308 -1.82536,-5.61434 -8.445087,-5.60026 -10.585284,-0.13308 z"
       style="fill:#f0d299;fill-opacity:1;fill-rule:evenodd;stroke:none;stroke-width:0.99999994px;stroke-linecap:butt;stroke-linejoin:miter;stroke-opacity:1" />
    <path
       id="path4227-2"
       d="m 81.43753,977.23495 c 3.585338,-2.39547 6.658485,-2.66163 10.585285,0.13308 -1.825362,-5.61433 -8.445089,-5.60026 -10.585285,-0.13308 z"
       style="fill:#f0d299;fill-opacity:1;fill-rule:evenodd;stroke:none;stroke-width:0.99999994px;stroke-linecap:butt;stroke-linejoin:miter;stroke-opacity:1" />
    <path
       id="path4227-8"
       d="m 93.509992,993.65349 c 3.585338,-2.39548 6.658488,-2.66163 10.585288,0.13307 -1.82537,-5.61433 -8.445092,-5.60026 -10.585288,-0.13307 z"
       style="fill:#f0d299;fill-opacity:1;fill-rule:evenodd;stroke:none;stroke-width:0.99999994px;stroke-linecap:butt;stroke-linejoin:miter;stroke-opacity:1" />
    <path
       id="path4227-9"
       d="m 65.50188,1000.897 c 3.585339,-2.39551 6.658486,-2.66166 10.585285,0.1331 -1.825363,-5.61439 -8.445088,-5.60031 -10.585285,-0.1331 z"
       style="fill:#f0d299;fill-opacity:1;fill-rule:evenodd;stroke:none;stroke-width:0.99999994px;stroke-linecap:butt;stroke-linejoin:miter;stroke-opacity:1" />
    <path
       id="path4227-27"
       d="m 45.703044,984.71987 c 3.585339,-2.39548 6.658485,-2.66163 10.585284,0.13307 -1.825363,-5.61433 -8.445087,-5.60026 -10.585284,-0.13307 z"
       style="fill:#f0d299;fill-opacity:1;fill-rule:evenodd;stroke:none;stroke-width:0.99999994px;stroke-linecap:butt;stroke-linejoin:miter;stroke-opacity:1" />
  </g>
</svg>
