<?xml version="1.0" encoding="UTF-8" standalone="no"?>
<svg
   xmlns:dc="http://purl.org/dc/elements/1.1/"
   xmlns:cc="http://creativecommons.org/ns#"
   xmlns:rdf="http://www.w3.org/1999/02/22-rdf-syntax-ns#"
   xmlns:svg="http://www.w3.org/2000/svg"
   xmlns="http://www.w3.org/2000/svg"
   version="1.1"
   id="svg4260"
   viewBox="0 0 128 128"
   height="128"
   width="128">
  <defs
     id="defs4262" />
  <metadata
     id="metadata4265">
    <rdf:RDF>
      <cc:Work
         rdf:about="">
        <dc:format>image/svg+xml</dc:format>
        <dc:type
           rdf:resource="http://purl.org/dc/dcmitype/StillImage" />
        <dc:title></dc:title>
      </cc:Work>
    </rdf:RDF>
  </metadata>
  <g
     transform="translate(0,-924.36216)"
     id="layer1">
    <path
       style="fill:#333032;fill-opacity:1;stroke:none;stroke-width:1.97251141;stroke-linecap:butt;stroke-linejoin:miter;stroke-miterlimit:4;stroke-dasharray:none;stroke-opacity:1"
       d="m 27.561077,998.61792 0.36635,6.06858 c 0.39874,5.3327 7.53115,9.1458 15.93006,8.5165 8.39894,-0.6293 14.88345,-5.4627 14.4831,-10.7953 l -0.43692,-5.82759 c -3.577,-1.49579 -7.8307,-6.03377 -15.28375,-5.62105 -4.80441,0.26602 -15.43535,1.42183 -15.05884,7.65886 z m 14.91752,-1.71911 c 4.89953,-0.2079 7.15487,2.69801 7.35041,5.29709 0.19513,2.5997 -2.78112,4.9421 -6.64735,5.2317 -3.8662,0.2898 -7.15827,-1.583 -7.35276,-4.1827 -0.19396,-2.5992 1.92,-6.14539 6.6497,-6.34609 z"
       id="path5126" />
    <path
       id="path5118"
       d="m 42.005397,988.48573 a 9.6820276,15.249194 85.714968 0 0 -14.48315,10.79399 9.6820276,15.249194 85.714968 0 0 15.93005,8.51648 9.6820276,15.249194 85.714968 0 0 14.48306,-10.79529 9.6820276,15.249194 85.714968 0 0 -15.92996,-8.51518 z m 0.0659,4.12205 a 4.7199886,7.0194696 85.714968 0 1 7.35262,4.18133 4.7199886,7.0194696 85.714968 0 1 -6.64732,5.23169 4.7199886,7.0194696 85.714968 0 1 -7.35276,-4.18268 4.7199886,7.0194696 85.714968 0 1 6.64746,-5.23034 z"
       style="fill:#655c58;fill-opacity:1;stroke:none;stroke-width:1.97251141;stroke-linecap:butt;stroke-linejoin:miter;stroke-miterlimit:4;stroke-dasharray:none;stroke-opacity:1" />
    <path
       style="fill:#333032;fill-opacity:1;stroke:none;stroke-width:1.97251141;stroke-linecap:butt;stroke-linejoin:miter;stroke-miterlimit:4;stroke-dasharray:none;stroke-opacity:1"
       d="m 49.227005,961.17727 -1.944442,5.76026 c -1.637518,5.09073 3.535466,11.30775 11.553722,13.88559 8.018294,2.57785 15.845091,0.54019 17.481067,-4.55103 l 1.788393,-5.5636 c -2.751096,-2.73198 -4.984223,-8.53718 -12.044653,-10.95973 -4.551298,-1.56164 -14.835641,-4.4917 -16.834087,1.42851 z m 14.467772,4.02136 c 4.617568,1.65127 5.613463,5.19235 4.816479,7.67395 -0.797594,2.482 -4.43658,3.5321 -8.127565,2.34538 -3.691005,-1.18656 -6.036248,-4.16057 -5.238045,-6.64237 0.798498,-2.48111 4.091632,-4.97101 8.549131,-3.37696 z"
       id="path5126-9" />
    <path
       id="path5118-5"
       d="m 66.422584,957.22601 a 15.249194,9.6820276 17.822381 0 0 -17.480603,4.54974 15.249194,9.6820276 17.822381 0 0 11.553721,13.88559 15.249194,9.6820276 17.822381 0 0 17.481029,-4.55104 15.249194,9.6820276 17.822381 0 0 -11.554147,-13.88429 z m -1.490248,3.8438 a 7.0194696,4.7199886 17.822381 0 1 5.238423,6.64105 7.0194696,4.7199886 17.822381 0 1 -8.127517,2.34536 7.0194696,4.7199886 17.822381 0 1 -5.238054,-6.64234 7.0194696,4.7199886 17.822381 0 1 8.127148,-2.34407 z"
       style="fill:#655c58;fill-opacity:1;stroke:none;stroke-width:1.97251141;stroke-linecap:butt;stroke-linejoin:miter;stroke-miterlimit:4;stroke-dasharray:none;stroke-opacity:1" />
    <path
       style="fill:#333032;fill-opacity:1;stroke:none;stroke-width:1.97251141;stroke-linecap:butt;stroke-linejoin:miter;stroke-miterlimit:4;stroke-dasharray:none;stroke-opacity:1"
       d="m 67.830895,999.70822 -1.882146,5.78088 c -1.582467,5.1081 3.657331,11.2689 11.702946,13.7601 8.045659,2.4911 15.850011,0.3691 17.430931,-4.7395 l 1.72822,-5.5826 c -2.78042,-2.7021 -5.076094,-8.4829 -12.162268,-10.82898 -4.56789,-1.51251 -14.883265,-4.33134 -16.817683,1.6101 z m 14.510338,3.86488 c 4.635124,1.6014 5.669189,5.1315 4.899041,7.6216 -0.770754,2.4904 -4.398192,3.5797 -8.101772,2.4329 -3.703598,-1.1466 -6.080809,-4.0951 -5.309445,-6.5854 0.771667,-2.4896 4.037731,-5.0149 8.512176,-3.4691 z"
       id="path5126-0" />
    <path
       id="path5118-9"
       d="m 84.982814,995.57151 a 15.249194,9.6820276 17.203845 0 0 -17.430467,4.73819 15.249194,9.6820276 17.203845 0 0 11.702946,13.7601 15.249194,9.6820276 17.203845 0 0 17.430883,-4.7395 15.249194,9.6820276 17.203845 0 0 -11.703362,-13.75879 z m -1.448666,3.85971 a 7.0194696,4.7199886 17.203845 0 1 5.30981,6.58408 7.0194696,4.7199886 17.203845 0 1 -8.101725,2.433 7.0194696,4.7199886 17.203845 0 1 -5.309453,-6.5854 7.0194696,4.7199886 17.203845 0 1 8.101368,-2.43168 z"
       style="fill:#655c58;fill-opacity:1;stroke:none;stroke-width:1.97251141;stroke-linecap:butt;stroke-linejoin:miter;stroke-miterlimit:4;stroke-dasharray:none;stroke-opacity:1" />
  </g>
</svg>
