<?xml version="1.0" encoding="UTF-8" standalone="no"?>
<svg
   xmlns:dc="http://purl.org/dc/elements/1.1/"
   xmlns:cc="http://creativecommons.org/ns#"
   xmlns:rdf="http://www.w3.org/1999/02/22-rdf-syntax-ns#"
   xmlns:svg="http://www.w3.org/2000/svg"
   xmlns="http://www.w3.org/2000/svg"
   version="1.1"
   id="svg4260"
   viewBox="0 0 128 128"
   height="128"
   width="128">
  <defs
     id="defs4262" />
  <metadata
     id="metadata4265">
    <rdf:RDF>
      <cc:Work
         rdf:about="">
        <dc:format>image/svg+xml</dc:format>
        <dc:type
           rdf:resource="http://purl.org/dc/dcmitype/StillImage" />
        <dc:title></dc:title>
      </cc:Work>
    </rdf:RDF>
  </metadata>
  <g
     transform="translate(0,-924.36216)"
     id="layer1">
    <g
       id="layer1-38"
       transform="matrix(1.9325516,0,0,1.9325516,-35.623791,526.88464)">
      <path
         style="fill:#dfb8b5;fill-opacity:1;stroke:none;stroke-width:3;stroke-linecap:butt;stroke-linejoin:miter;stroke-miterlimit:4;stroke-dasharray:none;stroke-opacity:1"
         d="m -24.398438,210.05859 c -11.891892,51.35135 -1.621461,95.1357 13.513672,98.37891 0,0 42.689883,-7.08329 79.548828,-15.56055 0.0618,13.49356 6.52646,19.93136 22.363282,16.04688 9.458676,-2.32006 26.692336,-8.41402 39.259766,-14.05274 1.49181,2.21099 3.00028,3.54472 4.49609,3.65039 8.04222,0.56842 29.23538,-1.64401 49.51953,-5.5 3.31817,8.78719 7.79423,14.34069 12.8125,15.41602 0,0 42.68989,-7.08329 79.54883,-15.56055 0.0618,13.49356 6.52646,19.93136 22.36328,16.04688 9.45868,-2.32006 26.69234,-8.41402 39.25977,-14.05274 1.49181,2.21099 3.00028,3.54472 4.49609,3.65039 13.15537,0.92981 61.5099,-5.55353 83.49024,-14.56445 5.85902,-18.66777 6.52157,-27.81775 1.1289,-46.73633 -19.29944,-3.44863 -107.04296,-15.81054 -107.04296,-15.81054 0.17314,2.94311 0.623,6.97328 1.26171,11.55078 -14.44067,-6.22908 -58.88731,-23.60033 -76.67773,-9.72266 l -61.3418,-13.17969 c -1.66808,7.20307 -2.88677,14.24822 -3.73047,21.0625 -31.10102,-4.57774 -67.51171,-9.71093 -67.51171,-9.71093 0.17314,2.94311 0.623,6.97328 1.26171,11.55078 -14.440668,-6.22908 -58.88731,-23.60033 -76.677731,-9.72266 z"
         transform="matrix(0.26458333,0,0,0.26458333,0,169.99998)"
         id="path4654-1" />
      <path
         style="color:#000000;font-style:normal;font-variant:normal;font-weight:normal;font-stretch:normal;font-size:medium;line-height:normal;font-family:sans-serif;text-indent:0;text-align:start;text-decoration:none;text-decoration-line:none;text-decoration-style:solid;text-decoration-color:#000000;letter-spacing:normal;word-spacing:normal;text-transform:none;direction:ltr;writing-mode:lr-tb;baseline-shift:baseline;text-anchor:start;white-space:normal;clip-rule:nonzero;display:inline;overflow:visible;visibility:visible;opacity:1;isolation:auto;mix-blend-mode:normal;color-interpolation:sRGB;color-interpolation-filters:linearRGB;solid-color:#000000;solid-opacity:1;fill:#d4825e;fill-opacity:1;fill-rule:nonzero;stroke:none;stroke-width:3;stroke-linecap:butt;stroke-linejoin:miter;stroke-miterlimit:4;stroke-dasharray:none;stroke-dashoffset:0;stroke-opacity:1;color-rendering:auto;image-rendering:auto;shape-rendering:auto;text-rendering:auto;enable-background:accumulate"
         d="m -25.857422,209.72266 c -5.988499,25.85941 -6.407108,49.80355 -3.394531,67.81054 1.506288,9.00352 3.85898,16.52699 6.878906,22.10157 3.019927,5.57457 6.749864,9.31918 11.175781,10.26757 2.3754252,0.50903 4.6701859,-0.34621 6.4453129,-1.98437 1.7751228,-1.63801 3.2054616,-4.00871 4.5097656,-6.88867 2.608603,-5.75997 4.6638811,-13.64015 6.6289063,-21.97461 1.9650289,-8.33443 3.8220262,-17.1047 5.9121092,-24.47852 2.090086,-7.37382 4.537438,-13.35972 7.064453,-15.88672 0.628739,-0.62876 1.129419,-0.90397 1.404297,-0.98047 0.274885,-0.0763 0.335728,-0.0613 0.56836,0.0801 0.465233,0.28271 1.374864,1.579 2.111328,3.72071 1.472923,4.28341 2.599301,11.54112 3.71289,19.4375 1.113588,7.89637 2.241721,16.46826 3.896485,23.6875 1.654764,7.21923 3.615936,13.16022 7.470703,15.84179 l 1.71289,-2.45898 c -2.361448,-1.64277 -4.654392,-7.05092 -6.259765,-14.05469 -1.605369,-7.00373 -2.737376,-15.52306 -3.853516,-23.4375 -1.116139,-7.91444 -2.185813,-15.18581 -3.837891,-19.99023 -0.826038,-2.40223 -1.714334,-4.29228 -3.396484,-5.31446 -0.841078,-0.5111 -1.93952,-0.674 -2.929687,-0.39843 -0.990164,0.27552 -1.859048,0.88442 -2.716797,1.74218 -3.41893,3.41893 -5.699143,9.66656 -7.8320315,17.19141 -2.1328861,7.52481 -3.997281,16.31829 -5.9511719,24.60547 -1.953891,8.28718 -4.01036788,16.0806 -6.4355468,21.43555 -1.2125889,2.67745 -2.5298744,4.72691 -3.8164063,5.91406 -1.2865289,1.18715 -2.3728922,1.56351 -3.7812495,1.26172 -3.141653,-0.67321 -6.377085,-3.61777 -9.167969,-8.76954 -2.790884,-5.15176 -5.095815,-12.39729 -6.5625,-21.16406 -2.933369,-17.53353 -2.536207,-41.1526 3.367187,-66.64453 z m 208.000002,0 c -1.59022,6.86683 -2.77635,13.59186 -3.6211,20.11328 -5.81722,2.86994 -10.78279,8.46815 -14.94531,15.32031 -4.48748,7.38712 -8.0334,16.2828 -10.49609,25.03906 -2.39323,8.50923 -6.17567,17.04162 -10.26172,22.02149 -2.04303,2.48991 -4.13377,4.02596 -5.95703,4.43554 -1.82327,0.40955 -3.52307,-0.0453 -5.57227,-2.21484 -1.80951,-1.91596 -3.99117,-6.45096 -5.95703,-12.30469 -1.96585,-5.85373 -3.81263,-13.06039 -5.42578,-20.55859 -3.22632,-14.99641 -5.51486,-31.20988 -6.04687,-40.25391 l -2.9961,0.17774 c 0.40518,6.888 1.76698,17.53714 3.75977,28.72851 -2.63325,2.11964 -4.87278,5.61321 -7.06836,9.82617 -2.54581,4.88501 -4.9484,10.76392 -7.24805,16.60938 -2.29966,5.84545 -4.492588,11.66483 -6.562499,16.35156 -2.069912,4.68677 -4.181078,8.26438 -5.574219,9.38867 -5.108848,4.1229 -8.911536,5.28734 -11.322266,4.73243 -2.410741,-0.55491 -4.150578,-2.80806 -5.130859,-7.10157 -1.960581,-8.58708 -0.04902,-24.24374 5.845703,-41.92773 6.078671,-18.23603 1.590603,-30.9777 -7.359375,-37.13867 -4.474983,-3.08047 -9.95127,-4.5231 -15.619141,-4.3418 -5.667866,0.18142 -11.523181,1.98465 -16.75,5.375 l 1.63086,2.51758 c 9.546357,-6.19223 21.270995,-6.43461 29.041015,-1.08594 7.770021,5.34871 12.028064,16.28106 6.214844,33.7207 -5.997222,17.99169 -8.148471,33.81839 -5.927734,43.54493 1.110361,4.86323 3.52371,8.47302 7.382812,9.36132 3.85911,0.88831 8.437325,-0.91829 13.884766,-5.31445 2.41341,-1.94767 4.306145,-5.71137 6.429687,-10.51953 2.123551,-4.80816 4.318176,-10.64389 6.607426,-16.46289 2.28924,-5.819 4.66815,-11.62474 7.11523,-16.32031 1.67838,-3.22054 3.42626,-5.87522 5.06836,-7.66407 0.53041,2.81575 1.0849,5.63982 1.68555,8.43164 1.62909,7.57229 3.50011,14.86377 5.52148,20.88282 2.02138,6.01908 4.09645,10.7393 6.61524,13.40625 2.54539,2.6951 5.57711,3.72365 8.41601,3.08593 2.83889,-0.63772 5.33589,-2.68251 7.61719,-5.46289 4.5626,-5.56063 8.35844,-14.32527 10.83008,-23.11328 2.40217,-8.54105 5.87558,-17.22056 10.17187,-24.29297 3.51128,-5.7801 7.57409,-10.45196 11.93164,-13.18945 -1.83551,16.58853 -1.38322,31.68893 0.67774,44.00781 1.50629,9.00352 3.85898,16.52699 6.8789,22.10157 3.01993,5.57457 6.74987,9.31918 11.17578,10.26757 2.37543,0.50903 4.67019,-0.34621 6.44532,-1.98437 1.77512,-1.63801 3.20546,-4.00871 4.50976,-6.88867 2.60861,-5.75997 4.66389,-13.64015 6.62891,-21.97461 1.96503,-8.33443 3.82203,-17.1047 5.91211,-24.47852 2.09008,-7.37382 4.53744,-13.35972 7.06445,-15.88672 0.62874,-0.62876 1.12942,-0.90397 1.4043,-0.98047 0.27488,-0.0763 0.33573,-0.0613 0.56836,0.0801 0.46523,0.28271 1.37486,1.579 2.11133,3.72071 1.47292,4.28341 2.5993,11.54112 3.71289,19.4375 1.11358,7.89637 2.24172,16.46826 3.89648,23.6875 1.65476,7.21923 3.61594,13.16022 7.4707,15.84179 l 1.71289,-2.45898 c -2.36144,-1.64277 -4.65439,-7.05092 -6.25976,-14.05469 -1.60537,-7.00373 -2.73738,-15.52306 -3.85352,-23.4375 -1.11614,-7.91444 -2.18581,-15.18581 -3.83789,-19.99023 -0.82604,-2.40223 -1.71433,-4.29228 -3.39648,-5.31446 -0.84108,-0.5111 -1.93952,-0.674 -2.92969,-0.39843 -0.99016,0.27552 -1.85905,0.88442 -2.7168,1.74218 -3.41893,3.41893 -5.69914,9.66656 -7.83203,17.19141 -2.13288,7.52481 -3.99728,16.31829 -5.95117,24.60547 -1.95389,8.28718 -4.01037,16.0806 -6.43555,21.43555 -1.21259,2.67745 -2.52987,4.72691 -3.8164,5.91406 -1.28653,1.18715 -2.37289,1.56351 -3.78125,1.26172 -3.14166,-0.67321 -6.37709,-3.61777 -9.16797,-8.76954 -2.79088,-5.15176 -5.09582,-12.39729 -6.5625,-21.16406 -2.93337,-17.53353 -2.53621,-41.1526 3.36719,-66.64453 z m 80.4414,6.90234 c -5.66786,0.18142 -11.52318,1.98465 -16.75,5.375 l 1.63086,2.51758 c 9.54636,-6.19223 21.271,-6.43461 29.04102,-1.08594 7.77002,5.34871 12.02806,16.28106 6.21484,33.7207 -5.99722,17.99169 -8.14847,33.81839 -5.92773,43.54493 1.11036,4.86323 3.52371,8.47302 7.38281,9.36132 3.85911,0.88831 8.43733,-0.91829 13.88477,-5.31445 2.41341,-1.94767 4.30614,-5.71137 6.42968,-10.51953 2.12355,-4.80816 4.31818,-10.64389 6.60743,-16.46289 2.28924,-5.819 4.66815,-11.62474 7.11523,-16.32031 1.67838,-3.22054 3.42626,-5.87522 5.06836,-7.66407 0.53041,2.81575 1.0849,5.63982 1.68555,8.43164 1.62909,7.57229 3.50011,14.86377 5.52148,20.88282 2.02138,6.01908 4.09645,10.7393 6.61524,13.40625 2.54539,2.6951 5.57711,3.72365 8.41601,3.08593 2.83889,-0.63772 5.33589,-2.68251 7.61719,-5.46289 4.5626,-5.56063 8.35844,-14.32527 10.83008,-23.11328 2.40217,-8.54105 5.87558,-17.22056 10.17187,-24.29297 4.29631,-7.07236 9.41988,-12.48613 14.89649,-14.72656 l -1.13672,-2.77734 c -6.41526,2.62443 -11.83478,8.55819 -16.32227,15.94531 -4.48748,7.38712 -8.0334,16.2828 -10.49609,25.03906 -2.39323,8.50923 -6.17567,17.04162 -10.26172,22.02149 -2.04303,2.48991 -4.13377,4.02596 -5.95703,4.43554 -1.82327,0.40955 -3.52307,-0.0453 -5.57227,-2.21484 -1.80951,-1.91596 -3.99117,-6.45096 -5.95703,-12.30469 -1.96585,-5.85373 -3.81263,-13.06039 -5.42578,-20.55859 -3.22632,-14.99641 -5.51486,-31.20988 -6.04687,-40.25391 l -2.9961,0.17774 c 0.40518,6.888 1.76698,17.53714 3.75977,28.72851 -2.63325,2.11964 -4.87278,5.61321 -7.06836,9.82617 -2.54581,4.88501 -4.9484,10.76392 -7.24805,16.60938 -2.29966,5.84545 -4.49259,11.66483 -6.5625,16.35156 -2.06991,4.68677 -4.18108,8.26438 -5.57422,9.38867 -5.10885,4.1229 -8.91153,5.28734 -11.32226,4.73243 -2.41075,-0.55491 -4.15058,-2.80806 -5.13086,-7.10157 -1.96058,-8.58708 -0.049,-24.24374 5.8457,-41.92773 6.07867,-18.23603 1.5906,-30.9777 -7.35938,-37.13867 -4.47498,-3.08047 -9.95127,-4.5231 -15.61914,-4.3418 z"
         transform="matrix(0.26458333,0,0,0.26458333,0,169.99998)"
         id="path5458-3" />
    </g>
  </g>
</svg>
