<?xml version="1.0" encoding="UTF-8" standalone="no"?>
<svg
   xmlns:dc="http://purl.org/dc/elements/1.1/"
   xmlns:cc="http://creativecommons.org/ns#"
   xmlns:rdf="http://www.w3.org/1999/02/22-rdf-syntax-ns#"
   xmlns:svg="http://www.w3.org/2000/svg"
   xmlns="http://www.w3.org/2000/svg"
   version="1.1"
   id="svg2"
   viewBox="0 0 128 128"
   height="128"
   width="128">
  <defs
     id="defs4" />
  <metadata
     id="metadata7">
    <rdf:RDF>
      <cc:Work
         rdf:about="">
        <dc:format>image/svg+xml</dc:format>
        <dc:type
           rdf:resource="http://purl.org/dc/dcmitype/StillImage" />
        <dc:title></dc:title>
      </cc:Work>
    </rdf:RDF>
  </metadata>
  <g
     transform="translate(0,-924.36216)"
     id="layer1">
    <path
       id="path4316-9"
       d="m 85.207744,1039.0187 c 4.25404,0.9246 12.2063,-9.6516 20.851666,-22.2304 8.53542,-12.4189 19.60067,-28.18426 17.17158,-32.3383 -2.9347,-5.01883 -22.82604,-2.96764 -37.849486,-1.59349 -15.6724,1.43354 -27.5615,2.1453 -29.06263,7.61097 -1.42054,5.17231 5.13967,14.00842 12.63448,26.27872 6.73866,11.0323 11.43776,21.2256 16.25439,22.2725 z"
       style="fill:#f07823;fill-opacity:1;fill-rule:evenodd;stroke:none;stroke-width:1px;stroke-linecap:butt;stroke-linejoin:miter;stroke-opacity:1" />
    <path
       id="path4426"
       d="m 93.637944,982.12027 c -2.82031,0.24112 -5.61782,0.49413 -8.25608,0.73545 -3.67819,0.33644 -7.12198,0.63578 -10.29801,0.9635 -8.64385,5.65099 -11.11224,16.18738 -11.11301,24.93618 1.55498,2.4821 3.23661,5.1335 4.98194,7.9909 0.44043,0.7211 0.85104,1.4223 1.27465,2.1339 6.45364,-9.3613 15.16648,-23.09407 23.41051,-36.75993 z"
       style="fill:#8a2a0d;fill-opacity:1;fill-rule:evenodd;stroke:none;stroke-width:1px;stroke-linecap:butt;stroke-linejoin:miter;stroke-opacity:1" />
    <path
       id="path4316"
       d="m 8.0855036,963.39854 c 1.56092,-5.86652 19.7449504,-9.00026 40.8549504,-11.71901 20.84156,-2.68415 47.44546,-6.37678 51.05305,-0.71865 4.358626,6.83597 -10.84877,30.20928 -22.11736,47.97402 -11.75537,18.5321 -20.20685,32.8297 -27.94367,31.2128 -7.32155,-1.5302 -14.10826,-15.2943 -24.56092,-32.40415 C 15.973514,982.35997 6.3181436,970.04093 8.0855036,963.39854 Z"
       style="fill:#f07823;fill-opacity:1;fill-rule:evenodd;stroke:none;stroke-width:1px;stroke-linecap:butt;stroke-linejoin:miter;stroke-opacity:1" />
    <path
       id="path4318"
       d="m 45.849794,963.27521 a 5.0372323,5.0372323 0 0 1 -5.03723,5.03723 5.0372323,5.0372323 0 0 1 -5.03723,-5.03723 5.0372323,5.0372323 0 0 1 5.03723,-5.03723 5.0372323,5.0372323 0 0 1 5.03723,5.03723 z"
       style="opacity:1;fill:#c9441d;fill-opacity:1;stroke:none;stroke-width:1;stroke-linecap:round;stroke-linejoin:bevel;stroke-miterlimit:4;stroke-dasharray:none;stroke-dashoffset:0;stroke-opacity:1" />
    <path
       id="path4321"
       d="m 40.812884,958.2375 a 5.0372323,5.0372323 0 0 0 -5.03786,5.03786 5.0372323,5.0372323 0 0 0 0.009,0.24683 5.9633164,5.0372323 0 0 0 5.02905,2.33161 5.9633164,5.0372323 0 0 0 5.02463,-2.33491 5.0372323,5.0372323 0 0 0 0.0121,-0.24353 5.0372323,5.0372323 0 0 0 -5.03676,-5.03786 z"
       style="opacity:1;fill:#f29831;fill-opacity:1;stroke:none;stroke-width:1;stroke-linecap:round;stroke-linejoin:bevel;stroke-miterlimit:4;stroke-dasharray:none;stroke-dashoffset:0;stroke-opacity:1" />
    <path
       id="path4318-7"
       d="m 74.948084,979.52699 a 3.5102673,3.5102673 0 0 1 -3.51026,3.51028 3.5102673,3.5102673 0 0 1 -3.51028,-3.51028 3.5102673,3.5102673 0 0 1 3.51028,-3.51026 3.5102673,3.5102673 0 0 1 3.51026,3.51026 z"
       style="opacity:1;fill:#c9441d;fill-opacity:1;stroke:none;stroke-width:1;stroke-linecap:round;stroke-linejoin:bevel;stroke-miterlimit:4;stroke-dasharray:none;stroke-dashoffset:0;stroke-opacity:1" />
    <path
       id="path4321-5"
       d="m 71.438034,976.0164 a 3.5102673,3.5102673 0 0 0 -3.5107,3.5107 3.5102673,3.5102673 0 0 0 0.006,0.17201 4.1556222,3.5102673 0 0 0 3.50456,1.62482 4.1556222,3.5102673 0 0 0 3.50149,-1.62713 3.5102673,3.5102673 0 0 0 0.008,-0.1697 3.5102673,3.5102673 0 0 0 -3.50993,-3.5107 z"
       style="opacity:1;fill:#f29831;fill-opacity:1;stroke:none;stroke-width:1;stroke-linecap:round;stroke-linejoin:bevel;stroke-miterlimit:4;stroke-dasharray:none;stroke-dashoffset:0;stroke-opacity:1" />
    <path
       id="path4318-0"
       d="m 50.603404,998.78561 a 4.4817225,4.4817225 0 0 1 -4.48172,4.48169 4.4817225,4.4817225 0 0 1 -4.48173,-4.48169 4.4817225,4.4817225 0 0 1 4.48173,-4.48172 4.4817225,4.4817225 0 0 1 4.48172,4.48172 z"
       style="opacity:1;fill:#c9441d;fill-opacity:1;stroke:none;stroke-width:1;stroke-linecap:round;stroke-linejoin:bevel;stroke-miterlimit:4;stroke-dasharray:none;stroke-dashoffset:0;stroke-opacity:1" />
    <path
       id="path4321-4"
       d="m 46.121964,994.30346 a 4.4817225,4.4817225 0 0 0 -4.48229,4.48228 4.4817225,4.4817225 0 0 0 0.008,0.21961 5.3056773,4.4817225 0 0 0 4.47444,2.07445 5.3056773,4.4817225 0 0 0 4.47052,-2.07739 4.4817225,4.4817225 0 0 0 0.0108,-0.21667 4.4817225,4.4817225 0 0 0 -4.4813,-4.48228 z"
       style="opacity:1;fill:#f29831;fill-opacity:1;stroke:none;stroke-width:1;stroke-linecap:round;stroke-linejoin:bevel;stroke-miterlimit:4;stroke-dasharray:none;stroke-dashoffset:0;stroke-opacity:1" />
    <path
       id="path4318-6"
       d="m 35.859474,980.04133 a 3.6817014,3.6817014 0 0 1 -3.6817,3.68169 3.6817014,3.6817014 0 0 1 -3.6817,-3.68169 3.6817014,3.6817014 0 0 1 3.6817,-3.6817 3.6817014,3.6817014 0 0 1 3.6817,3.6817 z"
       style="opacity:1;fill:#c9441d;fill-opacity:1;stroke:none;stroke-width:1;stroke-linecap:round;stroke-linejoin:bevel;stroke-miterlimit:4;stroke-dasharray:none;stroke-dashoffset:0;stroke-opacity:1" />
    <path
       id="path4321-47"
       d="m 32.178004,976.35927 a 3.6817014,3.6817014 0 0 0 -3.68216,3.68216 3.6817014,3.6817014 0 0 0 0.006,0.18041 4.3585741,3.6817014 0 0 0 3.67572,1.70416 4.3585741,3.6817014 0 0 0 3.6725,-1.70657 3.6817014,3.6817014 0 0 0 0.009,-0.178 3.6817014,3.6817014 0 0 0 -3.68135,-3.68216 z"
       style="opacity:1;fill:#f29831;fill-opacity:1;stroke:none;stroke-width:1;stroke-linecap:round;stroke-linejoin:bevel;stroke-miterlimit:4;stroke-dasharray:none;stroke-dashoffset:0;stroke-opacity:1" />
    <path
       id="path4318-76"
       d="m 90.949224,957.98261 a 5.2817436,5.2817436 0 0 1 -5.28174,5.28175 5.2817436,5.2817436 0 0 1 -5.28175,-5.28175 5.2817436,5.2817436 0 0 1 5.28175,-5.28174 5.2817436,5.2817436 0 0 1 5.28174,5.28174 z"
       style="opacity:1;fill:#c9441d;fill-opacity:1;stroke:none;stroke-width:1;stroke-linecap:round;stroke-linejoin:bevel;stroke-miterlimit:4;stroke-dasharray:none;stroke-dashoffset:0;stroke-opacity:1" />
    <path
       id="path4321-8"
       d="m 85.667814,952.70037 a 5.2817436,5.2817436 0 0 0 -5.2824,5.2824 5.2817436,5.2817436 0 0 0 0.01,0.25881 6.2527805,5.2817436 0 0 0 5.27316,2.44479 6.2527805,5.2817436 0 0 0 5.26854,-2.44825 5.2817436,5.2817436 0 0 0 0.0127,-0.25535 5.2817436,5.2817436 0 0 0 -5.28125,-5.2824 z"
       style="opacity:1;fill:#f29831;fill-opacity:1;stroke:none;stroke-width:1;stroke-linecap:round;stroke-linejoin:bevel;stroke-miterlimit:4;stroke-dasharray:none;stroke-dashoffset:0;stroke-opacity:1" />
    <path
       id="path4318-5"
       d="m 55.632334,981.52718 a 4.4817225,4.4817225 0 0 1 -4.48172,4.48172 4.4817225,4.4817225 0 0 1 -4.48173,-4.48172 4.4817225,4.4817225 0 0 1 4.48173,-4.48172 4.4817225,4.4817225 0 0 1 4.48172,4.48172 z"
       style="opacity:1;fill:#c9441d;fill-opacity:1;stroke:none;stroke-width:1;stroke-linecap:round;stroke-linejoin:bevel;stroke-miterlimit:4;stroke-dasharray:none;stroke-dashoffset:0;stroke-opacity:1" />
    <path
       id="path4321-6"
       d="m 51.150894,977.04503 a 4.4817225,4.4817225 0 0 0 -4.48228,4.48229 4.4817225,4.4817225 0 0 0 0.008,0.21961 5.3056773,4.4817225 0 0 0 4.47444,2.07447 5.3056773,4.4817225 0 0 0 4.47052,-2.07742 4.4817225,4.4817225 0 0 0 0.0108,-0.21666 4.4817225,4.4817225 0 0 0 -4.48131,-4.48229 z"
       style="opacity:1;fill:#f29831;fill-opacity:1;stroke:none;stroke-width:1;stroke-linecap:round;stroke-linejoin:bevel;stroke-miterlimit:4;stroke-dasharray:none;stroke-dashoffset:0;stroke-opacity:1" />
    <path
       id="path4318-9"
       d="m 71.196674,998.80156 a 5.0372323,5.0372323 0 0 1 -5.03723,5.03724 5.0372323,5.0372323 0 0 1 -5.03723,-5.03724 5.0372323,5.0372323 0 0 1 5.03723,-5.03722 5.0372323,5.0372323 0 0 1 5.03723,5.03722 z"
       style="opacity:1;fill:#c9441d;fill-opacity:1;stroke:none;stroke-width:1;stroke-linecap:round;stroke-linejoin:bevel;stroke-miterlimit:4;stroke-dasharray:none;stroke-dashoffset:0;stroke-opacity:1" />
    <path
       id="path4321-40"
       d="m 66.159764,993.76386 a 5.0372323,5.0372323 0 0 0 -5.03786,5.03786 5.0372323,5.0372323 0 0 0 0.009,0.24683 5.9633164,5.0372323 0 0 0 5.02905,2.33165 5.9633164,5.0372323 0 0 0 5.02463,-2.33496 5.0372323,5.0372323 0 0 0 0.0121,-0.24352 5.0372323,5.0372323 0 0 0 -5.03675,-5.03786 z"
       style="opacity:1;fill:#f29831;fill-opacity:1;stroke:none;stroke-width:1;stroke-linecap:round;stroke-linejoin:bevel;stroke-miterlimit:4;stroke-dasharray:none;stroke-dashoffset:0;stroke-opacity:1" />
    <path
       id="path4318-4"
       d="m 56.089564,1015.0725 a 2.9388231,2.9388231 0 0 1 -2.93882,2.9388 2.9388231,2.9388231 0 0 1 -2.93883,-2.9388 2.9388231,2.9388231 0 0 1 2.93883,-2.9389 2.9388231,2.9388231 0 0 1 2.93882,2.9389 z"
       style="opacity:1;fill:#c9441d;fill-opacity:1;stroke:none;stroke-width:1;stroke-linecap:round;stroke-linejoin:bevel;stroke-miterlimit:4;stroke-dasharray:none;stroke-dashoffset:0;stroke-opacity:1" />
    <path
       id="path4321-55"
       d="m 53.150934,1012.1334 a 2.9388231,2.9388231 0 0 0 -2.9392,2.9392 2.9388231,2.9388231 0 0 0 0.005,0.144 3.4791193,2.9388231 0 0 0 2.93406,1.3603 3.4791193,2.9388231 0 0 0 2.93147,-1.3623 2.9388231,2.9388231 0 0 0 0.007,-0.142 2.9388231,2.9388231 0 0 0 -2.93855,-2.9392 z"
       style="opacity:1;fill:#f29831;fill-opacity:1;stroke:none;stroke-width:1;stroke-linecap:round;stroke-linejoin:bevel;stroke-miterlimit:4;stroke-dasharray:none;stroke-dashoffset:0;stroke-opacity:1" />
    <path
       id="path4318-51"
       d="m 27.173084,965.52599 a 4.4817225,4.4817225 0 0 1 -4.48172,4.48172 4.4817225,4.4817225 0 0 1 -4.48173,-4.48172 4.4817225,4.4817225 0 0 1 4.48173,-4.48172 4.4817225,4.4817225 0 0 1 4.48172,4.48172 z"
       style="opacity:1;fill:#c9441d;fill-opacity:1;stroke:none;stroke-width:1;stroke-linecap:round;stroke-linejoin:bevel;stroke-miterlimit:4;stroke-dasharray:none;stroke-dashoffset:0;stroke-opacity:1" />
    <path
       id="path4321-87"
       d="m 22.691644,961.04384 a 4.4817225,4.4817225 0 0 0 -4.48228,4.48229 4.4817225,4.4817225 0 0 0 0.008,0.21961 5.3056773,4.4817225 0 0 0 4.47444,2.07447 5.3056773,4.4817225 0 0 0 4.47051,-2.07742 4.4817225,4.4817225 0 0 0 0.0108,-0.21666 4.4817225,4.4817225 0 0 0 -4.48131,-4.48229 z"
       style="opacity:1;fill:#f29831;fill-opacity:1;stroke:none;stroke-width:1;stroke-linecap:round;stroke-linejoin:bevel;stroke-miterlimit:4;stroke-dasharray:none;stroke-dashoffset:0;stroke-opacity:1" />
    <path
       id="path4318-2"
       d="m 68.661884,963.24011 a 4.4817225,4.4817225 0 0 1 -4.48172,4.48172 4.4817225,4.4817225 0 0 1 -4.48173,-4.48172 4.4817225,4.4817225 0 0 1 4.48173,-4.48172 4.4817225,4.4817225 0 0 1 4.48172,4.48172 z"
       style="opacity:1;fill:#c9441d;fill-opacity:1;stroke:none;stroke-width:1;stroke-linecap:round;stroke-linejoin:bevel;stroke-miterlimit:4;stroke-dasharray:none;stroke-dashoffset:0;stroke-opacity:1" />
    <path
       id="path4321-0"
       d="m 64.180444,958.75796 a 4.4817225,4.4817225 0 0 0 -4.48228,4.48228 4.4817225,4.4817225 0 0 0 0.008,0.21961 5.3056773,4.4817225 0 0 0 4.47445,2.07448 5.3056773,4.4817225 0 0 0 4.47051,-2.07742 4.4817225,4.4817225 0 0 0 0.0108,-0.21667 4.4817225,4.4817225 0 0 0 -4.4813,-4.48228 z"
       style="opacity:1;fill:#f29831;fill-opacity:1;stroke:none;stroke-width:1;stroke-linecap:round;stroke-linejoin:bevel;stroke-miterlimit:4;stroke-dasharray:none;stroke-dashoffset:0;stroke-opacity:1" />
    <path
       id="path4318-7-2"
       d="m 112.01074,991.43618 a 3.9899964,3.9899964 0 0 1 -3.98999,3.99 3.9899964,3.9899964 0 0 1 -3.99001,-3.99 3.9899964,3.9899964 0 0 1 3.99001,-3.98999 3.9899964,3.9899964 0 0 1 3.98999,3.98999 z"
       style="opacity:1;fill:#c9441d;fill-opacity:1;stroke:none;stroke-width:1;stroke-linecap:round;stroke-linejoin:bevel;stroke-miterlimit:4;stroke-dasharray:none;stroke-dashoffset:0;stroke-opacity:1" />
    <path
       id="path4321-5-4"
       d="m 108.021,987.44581 a 3.9899964,3.9899964 0 0 0 -3.9905,3.9905 3.9899964,3.9899964 0 0 0 0.008,0.19551 4.7235484,3.9899964 0 0 0 3.98351,1.84687 4.7235484,3.9899964 0 0 0 3.98002,-1.84949 3.9899964,3.9899964 0 0 0 0.009,-0.19289 3.9899964,3.9899964 0 0 0 -3.98963,-3.9905 z"
       style="opacity:1;fill:#f29831;fill-opacity:1;stroke:none;stroke-width:1;stroke-linecap:round;stroke-linejoin:bevel;stroke-miterlimit:4;stroke-dasharray:none;stroke-dashoffset:0;stroke-opacity:1" />
    <path
       id="path4318-0-9"
       d="m 85.761254,1013.1571 a 2.6893691,2.6893691 0 0 1 -2.68937,2.6894 2.6893691,2.6893691 0 0 1 -2.68938,-2.6894 2.6893691,2.6893691 0 0 1 2.68938,-2.6894 2.6893691,2.6893691 0 0 1 2.68937,2.6894 z"
       style="opacity:1;fill:#c9441d;fill-opacity:1;stroke:none;stroke-width:1;stroke-linecap:round;stroke-linejoin:bevel;stroke-miterlimit:4;stroke-dasharray:none;stroke-dashoffset:0;stroke-opacity:1" />
    <path
       id="path4321-4-6"
       d="m 83.072044,1010.4675 a 2.6893691,2.6893691 0 0 0 -2.6897,2.6897 2.6893691,2.6893691 0 0 0 0.005,0.1318 3.1838036,2.6893691 0 0 0 2.68499,1.2448 3.1838036,2.6893691 0 0 0 2.68266,-1.2466 2.6893691,2.6893691 0 0 0 0.006,-0.13 2.6893691,2.6893691 0 0 0 -2.68911,-2.6897 z"
       style="opacity:1;fill:#f29831;fill-opacity:1;stroke:none;stroke-width:1;stroke-linecap:round;stroke-linejoin:bevel;stroke-miterlimit:4;stroke-dasharray:none;stroke-dashoffset:0;stroke-opacity:1" />
    <path
       id="path4318-5-1"
       d="m 94.426854,998.58555 a 2.5750642,2.5750642 0 0 1 -2.57507,2.57505 2.5750642,2.5750642 0 0 1 -2.57507,-2.57505 2.5750642,2.5750642 0 0 1 2.57507,-2.57507 2.5750642,2.5750642 0 0 1 2.57507,2.57507 z"
       style="opacity:1;fill:#c9441d;fill-opacity:1;stroke:none;stroke-width:1;stroke-linecap:round;stroke-linejoin:bevel;stroke-miterlimit:4;stroke-dasharray:none;stroke-dashoffset:0;stroke-opacity:1" />
    <path
       id="path4321-6-0"
       d="m 91.851944,996.01024 a 2.5750642,2.5750642 0 0 0 -2.57539,2.57538 2.5750642,2.5750642 0 0 0 0.005,0.12618 3.048484,2.5750642 0 0 0 2.57088,1.19194 3.048484,2.5750642 0 0 0 2.56863,-1.19362 2.5750642,2.5750642 0 0 0 0.006,-0.1245 2.5750642,2.5750642 0 0 0 -2.57482,-2.57538 z"
       style="opacity:1;fill:#f29831;fill-opacity:1;stroke:none;stroke-width:1;stroke-linecap:round;stroke-linejoin:bevel;stroke-miterlimit:4;stroke-dasharray:none;stroke-dashoffset:0;stroke-opacity:1" />
    <path
       id="path4318-9-4"
       d="m 103.6575,1009.9123 a 3.4146837,3.4146837 0 0 1 -3.41469,3.4147 3.4146837,3.4146837 0 0 1 -3.414676,-3.4147 3.4146837,3.4146837 0 0 1 3.414676,-3.4146 3.4146837,3.4146837 0 0 1 3.41469,3.4146 z"
       style="opacity:1;fill:#c9441d;fill-opacity:1;stroke:none;stroke-width:1;stroke-linecap:round;stroke-linejoin:bevel;stroke-miterlimit:4;stroke-dasharray:none;stroke-dashoffset:0;stroke-opacity:1" />
    <path
       id="path4321-40-1"
       d="m 100.24303,1006.4973 a 3.4146837,3.4146837 0 0 0 -3.415106,3.4152 3.4146837,3.4146837 0 0 0 0.006,0.1673 4.0424659,3.4146837 0 0 0 3.409126,1.5805 4.0424659,3.4146837 0 0 0 3.40615,-1.5828 3.4146837,3.4146837 0 0 0 0.008,-0.165 3.4146837,3.4146837 0 0 0 -3.41437,-3.4152 z"
       style="opacity:1;fill:#f29831;fill-opacity:1;stroke:none;stroke-width:1;stroke-linecap:round;stroke-linejoin:bevel;stroke-miterlimit:4;stroke-dasharray:none;stroke-dashoffset:0;stroke-opacity:1" />
    <path
       id="path4318-4-9"
       d="m 93.531424,1025.3025 a 2.3255876,2.3255876 0 0 1 -2.32558,2.3256 2.3255876,2.3255876 0 0 1 -2.32558,-2.3256 2.3255876,2.3255876 0 0 1 2.32558,-2.3255 2.3255876,2.3255876 0 0 1 2.32558,2.3255 z"
       style="opacity:1;fill:#c9441d;fill-opacity:1;stroke:none;stroke-width:1;stroke-linecap:round;stroke-linejoin:bevel;stroke-miterlimit:4;stroke-dasharray:none;stroke-dashoffset:0;stroke-opacity:1" />
    <path
       id="path4321-55-7"
       d="m 91.205994,1022.9767 a 2.3255876,2.3255876 0 0 0 -2.32588,2.3259 2.3255876,2.3255876 0 0 0 0.005,0.114 2.7531418,2.3255876 0 0 0 2.32181,1.0764 2.7531418,2.3255876 0 0 0 2.31977,-1.078 2.3255876,2.3255876 0 0 0 0.005,-0.1124 2.3255876,2.3255876 0 0 0 -2.32538,-2.3259 z"
       style="opacity:1;fill:#f29831;fill-opacity:1;stroke:none;stroke-width:1;stroke-linecap:round;stroke-linejoin:bevel;stroke-miterlimit:4;stroke-dasharray:none;stroke-dashoffset:0;stroke-opacity:1" />
  </g>
</svg>
