<?xml version="1.0" encoding="UTF-8" standalone="no"?>
<svg
   xmlns:dc="http://purl.org/dc/elements/1.1/"
   xmlns:cc="http://creativecommons.org/ns#"
   xmlns:rdf="http://www.w3.org/1999/02/22-rdf-syntax-ns#"
   xmlns:svg="http://www.w3.org/2000/svg"
   xmlns="http://www.w3.org/2000/svg"
   version="1.1"
   id="svg4260"
   viewBox="0 0 128 128"
   height="128"
   width="128">
  <defs
     id="defs4262" />
  <metadata
     id="metadata4265">
    <rdf:RDF>
      <cc:Work
         rdf:about="">
        <dc:format>image/svg+xml</dc:format>
        <dc:type
           rdf:resource="http://purl.org/dc/dcmitype/StillImage" />
        <dc:title></dc:title>
      </cc:Work>
    </rdf:RDF>
  </metadata>
  <g
     transform="translate(0,-924.36216)"
     id="layer1">
    <g
       id="g14393"
       transform="matrix(1.0963598,0,0,1.0963597,-6.6800667,737.29586)">
      <path
         id="path5825"
         d="m 44.412013,190.59947 c -12.773329,0 -23.056474,10.28366 -23.056474,23.05699 0,0.31668 0.0082,0.63113 0.02067,0.94464 l 0.02532,0 c 0.472598,4.99775 4.6558,8.88267 9.781316,8.88267 l 223.383785,0 c 5.12551,0 9.30923,-3.88492 9.78183,-8.88267 l 0.0253,0 c 0.0127,-0.31351 0.0207,-0.62796 0.0207,-0.94464 0,-12.77333 -10.28366,-23.05699 -23.05699,-23.05699 z"
         style="fill:#aa5524;fill-opacity:1;stroke:none;stroke-width:4.45793152;stroke-linecap:butt;stroke-linejoin:miter;stroke-miterlimit:4;stroke-dasharray:none;stroke-opacity:1" />
      <path
         style="color:#000000;font-style:normal;font-variant:normal;font-weight:normal;font-stretch:normal;font-size:medium;line-height:normal;font-family:sans-serif;text-indent:0;text-align:start;text-decoration:none;text-decoration-line:none;text-decoration-style:solid;text-decoration-color:#000000;letter-spacing:normal;word-spacing:normal;text-transform:none;direction:ltr;writing-mode:lr-tb;baseline-shift:baseline;text-anchor:start;white-space:normal;clip-rule:nonzero;display:inline;overflow:visible;visibility:visible;opacity:1;isolation:auto;mix-blend-mode:normal;color-interpolation:sRGB;color-interpolation-filters:linearRGB;solid-color:#000000;solid-opacity:1;fill:#cd864c;fill-opacity:1;fill-rule:nonzero;stroke:none;stroke-width:3.70000005;stroke-linecap:butt;stroke-linejoin:miter;stroke-miterlimit:4;stroke-dasharray:none;stroke-dashoffset:0;stroke-opacity:1;color-rendering:auto;image-rendering:auto;shape-rendering:auto;text-rendering:auto;enable-background:accumulate"
         d="m 533.16211,74.806641 -2.24414,2.9375 c 4.2802,3.273108 9.4875,5.501733 14.36328,6.9375 -0.97274,1.012611 -1.9112,2.107626 -2.81836,3.257812 -3.62872,4.600668 -6.78771,10.182792 -9.55859,15.472657 l 3.27734,1.71875 c 2.72912,-5.210117 5.81229,-10.622179 9.18359,-14.896485 1.34967,-1.711181 2.74311,-3.211918 4.15821,-4.466797 3.6929,0.788636 6.92121,1.071769 9.20117,0.84375 l -0.36719,-3.677734 c -0.96918,0.09676 -2.49534,0.04261 -4.33008,-0.177735 0.64619,-0.288 1.29257,-0.533761 1.9375,-0.685547 l -0.84961,-3.59375 c -2.36281,0.555931 -4.53736,1.714079 -6.5664,3.267579 -0.4794,-0.117544 -0.96094,-0.238937 -1.44922,-0.375 -4.76931,-1.328164 -9.95811,-3.519452 -13.9375,-6.5625 z m -243.00977,1.123047 c 0,0 -0.12525,3.326942 -0.49414,7.138671 -0.36888,3.811692 -1.16114,8.293003 -1.8164,9.603516 l 3.31445,1.654297 c 1.34473,-2.689436 1.80442,-6.958217 2.18555,-10.896484 0.38112,-3.938268 0.50976,-7.359376 0.50976,-7.359376 l -3.69922,-0.140624 z m 420,0 c 0,0 -0.1251,3.326942 -0.49414,7.138671 -0.36888,3.811692 -1.16115,8.293003 -1.8164,9.603516 l 3.31445,1.654297 c 1.34476,-2.689436 1.80442,-6.958217 2.18555,-10.896484 0.38112,-3.938268 0.50976,-7.359376 0.50976,-7.359376 l -3.69922,-0.140624 z m -375.02929,0.103515 -2.24414,2.9375 c 4.28021,3.273109 9.4875,5.501733 14.36328,6.9375 -0.97274,1.012611 -1.91118,2.107627 -2.81836,3.257813 -3.62871,4.600667 -6.78772,10.182791 -9.5586,15.472654 l 3.27735,1.71875 c 2.72912,-5.21011 5.81231,-10.622177 9.18359,-14.896482 1.34966,-1.711182 2.74311,-3.211919 4.15821,-4.466797 3.6929,0.788636 6.92119,1.071769 9.20117,0.84375 l -0.36719,-3.677735 c -0.96918,0.09676 -2.49534,0.04261 -4.33008,-0.177734 0.6462,-0.288 1.29256,-0.533761 1.9375,-0.685547 l -0.84961,-3.59375 c -2.3628,0.555931 -4.53736,1.714079 -6.5664,3.267578 -0.47937,-0.117543 -0.96092,-0.238937 -1.44922,-0.375 -4.76931,-1.328164 -9.95811,-3.519451 -13.9375,-6.5625 z m 420,0 -2.24414,2.9375 c 4.2802,3.273109 9.4875,5.501733 14.36328,6.9375 -0.97274,1.012611 -1.9112,2.107627 -2.81836,3.257813 -3.62873,4.600667 -6.78771,10.182791 -9.5586,15.472654 l 3.27735,1.71875 c 2.72912,-5.21011 5.81229,-10.622177 9.18359,-14.896482 1.34967,-1.711182 2.74311,-3.211919 4.15821,-4.466797 3.6929,0.788636 6.9212,1.071769 9.20117,0.84375 l -0.36719,-3.677735 c -0.96918,0.09676 -2.49534,0.04261 -4.33008,-0.177734 0.64619,-0.288 1.29256,-0.533761 1.9375,-0.685547 l -0.84961,-3.59375 c -2.36281,0.555931 -4.53736,1.714079 -6.5664,3.267578 -0.4794,-0.117543 -0.96095,-0.238937 -1.44922,-0.375 -4.76931,-1.328164 -9.95811,-3.519451 -13.9375,-6.5625 z m -371.81836,0.15625 -2.61328,2.619141 c 2.15115,2.151156 4.38988,6.247234 6.02343,10.482422 0.19541,0.506683 0.38151,1.016439 0.56055,1.52539 -6.39965,1.976882 -12.92746,4.523329 -18.63867,7.546875 l 1.72656,3.271489 c 5.44298,-2.881554 11.78679,-5.354249 18.00781,-7.277348 0.67937,2.434734 1.14723,4.686393 1.28125,6.294918 l 3.69141,-0.30273 c -0.16554,-1.985273 -0.6571,-4.430005 -1.39648,-7.041016 2.02911,-0.56247 4.02984,-1.073027 5.95117,-1.5 l -0.79688,-3.617188 c -2.02979,0.451049 -4.13852,0.988117 -6.27539,1.582032 -0.21165,-0.602344 -0.43124,-1.206919 -0.66406,-1.810547 -1.74119,-4.514306 -4.00906,-8.924543 -6.85742,-11.773438 z m 420,0 -2.61328,2.619141 c 2.15115,2.151156 4.38988,6.247234 6.02343,10.482422 0.19541,0.506683 0.38151,1.016439 0.56055,1.52539 -6.39965,1.976882 -12.92746,4.523329 -18.63867,7.546875 l 1.72656,3.271489 c 5.44297,-2.881554 11.78679,-5.354249 18.00781,-7.277348 0.67937,2.434734 1.14723,4.686393 1.28125,6.294918 l 3.69141,-0.30273 c -0.16554,-1.985273 -0.6571,-4.430005 -1.39648,-7.041016 2.02911,-0.56247 4.02984,-1.073027 5.95117,-1.5 l -0.79688,-3.617188 c -2.02979,0.451049 -4.13852,0.988117 -6.27539,1.582032 -0.21165,-0.602344 -0.43124,-1.206919 -0.66406,-1.810547 -1.74119,-4.514306 -4.00906,-8.924543 -6.85742,-11.773438 z m -586.72071,0.0078 c -2.03515,0.469644 -4.40866,1.659932 -7.20312,3.277343 -2.50282,1.448656 -5.30161,3.278947 -8.14258,5.22461 -2.1648,-2.450759 -3.97821,-5.141328 -5.01367,-7.859375 l -3.45313,1.322265 c 1.19643,3.140561 3.12778,6.059833 5.4004,8.679688 -5.67009,4.020888 -11.23761,8.297049 -14.83594,11.220703 l 2.33398,2.873053 c 3.61587,-2.937909 9.33654,-7.330408 15.06836,-11.376959 1.15275,1.107023 2.35136,2.140262 3.5625,3.085937 4.7556,3.713273 9.44013,6.208985 13.19922,6.208985 l 0,-3.699219 c -1.74091,0 -6.55639,-2.01404 -10.92578,-5.425781 -0.92205,-0.719925 -1.82927,-1.508132 -2.71289,-2.332032 2.60008,-1.7681 5.14331,-3.427335 7.37109,-4.716796 2.65866,-1.538835 4.9707,-2.590729 6.18555,-2.871094 l -0.83399,-3.611328 z m 420,0 c -2.03512,0.469644 -4.40865,1.659932 -7.20312,3.277343 -2.50284,1.448656 -5.30162,3.278947 -8.14258,5.22461 -2.1648,-2.450759 -3.97819,-5.141328 -5.01367,-7.859375 l -3.45313,1.322265 c 1.19641,3.140561 3.12777,6.059833 5.4004,8.679688 -5.67013,4.020888 -11.23761,8.297049 -14.83594,11.220703 l 2.33398,2.873053 c 3.61584,-2.937909 9.33652,-7.330408 15.06836,-11.376959 1.15272,1.107023 2.35139,2.140262 3.5625,3.085937 4.75563,3.713273 9.4401,6.208985 13.19922,6.208985 l 0,-3.699219 c -1.74093,0 -6.55638,-2.01404 -10.92578,-5.425781 -0.92205,-0.719925 -1.82928,-1.508132 -2.71289,-2.332032 2.60009,-1.7681 5.14332,-3.427335 7.37109,-4.716796 2.65867,-1.538835 4.9707,-2.590729 6.18555,-2.871094 l -0.83399,-3.611328 z m -203.6289,0.03711 c -3.97319,1.222526 -7.85619,4.793548 -11.33789,8.726563 -3.48167,3.932976 -6.40771,8.210131 -7.80274,11.279296 l 3.37305,1.527344 c 1.10494,-2.430879 3.92888,-6.657616 7.19727,-10.349609 3.26827,-3.692032 7.12948,-6.868998 9.65625,-7.646485 l -1.08594,-3.537109 z m 420,0 c -3.97319,1.222526 -7.85619,4.793548 -11.33789,8.726563 -3.48167,3.932976 -6.40771,8.210131 -7.80274,11.279296 l 3.37305,1.527344 c 1.10494,-2.430879 3.92888,-6.657616 7.19727,-10.349609 3.26827,-3.692032 7.12948,-6.868998 9.65625,-7.646485 l -1.08594,-3.537109 z m -287.71094,0.0957 c -0.0265,0.113008 -0.41253,1.106308 -0.9668,2.214844 -0.55426,1.108535 -1.29067,2.447909 -2.08203,3.787109 -1.58271,2.678476 -3.6478,5.46977 -4.31054,6 l 2.31054,2.886719 c 1.83727,-1.469783 3.52215,-4.184329 5.18946,-7.005859 0.83361,-1.410785 1.59725,-2.811657 2.19921,-4.015625 0.60201,-1.203969 1.02627,-2.087517 1.24805,-2.97461 l -3.58789,-0.892578 z m -385.51758,0.06641 c -8.36305,3.961474 -14.4207,8.32413 -20.625,15.322266 -1.82166,-1.987011 -3.61011,-4.043637 -5.18945,-5.910156 l -2.82617,2.384765 c 1.68404,1.990224 3.61461,4.208408 5.60156,6.359375 -3.18931,3.918841 -6.49808,8.591957 -10.24609,14.324217 l 3.10156,2.03125 c 3.61248,-5.52499 6.73545,-9.97347 9.70312,-13.681639 0.42979,0.433134 0.85992,0.884466 1.28711,1.294922 1.63963,1.575307 3.24506,2.966747 4.78516,4.007817 1.5401,1.04107 2.98594,1.82226 4.67969,1.82226 l 0,-3.69726 c -0.30626,0 -1.3565,-0.34583 -2.61328,-1.195317 -1.25678,-0.849524 -2.74118,-2.116347 -4.28907,-3.603515 -0.4831,-0.464164 -0.97846,-0.977842 -1.4707,-1.478516 5.9281,-6.781153 11.56486,-10.786299 19.68945,-14.634765 l -1.58789,-3.345704 z m 420,0 c -8.36307,3.961474 -14.42071,8.32413 -20.625,15.322266 -1.82169,-1.987011 -3.6101,-4.043637 -5.18945,-5.910156 l -2.82617,2.384765 c 1.68404,1.990224 3.61462,4.208408 5.60156,6.359375 -3.18928,3.918841 -6.49809,8.591957 -10.24609,14.324217 l 3.10156,2.03125 c 3.61247,-5.52499 6.73544,-9.97347 9.70312,-13.681639 0.42977,0.433134 0.85991,0.884466 1.28711,1.294922 1.6396,1.575307 3.24504,2.966747 4.78516,4.007817 1.54008,1.04107 2.98593,1.82226 4.67969,1.82226 l 0,-3.69726 c -0.30614,0 -1.35652,-0.34583 -2.61328,-1.195317 -1.25681,-0.849524 -2.7412,-2.116347 -4.28907,-3.603515 -0.4831,-0.464164 -0.97845,-0.977842 -1.4707,-1.478516 5.92808,-6.781153 11.56487,-10.786299 19.68945,-14.634765 l -1.58789,-3.345704 z M 231.65039,76.5 c 0,5.687924 -0.39542,10.225343 -0.94922,13.904297 -2.97756,1.595527 -6.05166,3.435506 -9.23047,5.554687 l 2.05274,3.085938 c 2.1532,-1.435465 4.24519,-2.724277 6.28711,-3.900391 -0.51078,2.180183 -1.05585,3.913261 -1.54102,5.207029 l 3.46289,1.29883 c 0.76167,-2.031118 1.62856,-4.913388 2.32422,-8.812499 8.77988,-4.468876 16.4431,-6.482422 22.94336,-6.482422 l 0,-3.705078 c -6.63595,0 -14.06499,1.847484 -22.30078,5.738281 0.39191,-3.36378 0.65039,-7.276212 0.65039,-11.888672 l -3.69922,0 z m 420,0 c 0,5.687924 -0.3954,10.225343 -0.94922,13.904297 -2.97755,1.595527 -6.05166,3.435506 -9.23047,5.554687 l 2.05274,3.085938 c 2.15319,-1.435465 4.24518,-2.724277 6.28711,-3.900391 -0.51081,2.180183 -1.05584,3.913261 -1.54102,5.207029 l 3.46289,1.29883 c 0.76169,-2.031118 1.62856,-4.913388 2.32422,-8.812499 8.77988,-4.468876 16.4431,-6.482422 22.94336,-6.482422 l 0,-3.705078 c -6.63594,0 -14.065,1.847484 -22.30078,5.738281 0.3919,-3.36378 0.65039,-7.276212 0.65039,-11.888672 l -3.69922,0 z m -284.44531,1.056641 c -0.0283,0.113008 -0.41253,1.106308 -0.9668,2.214843 -0.55427,1.108536 -1.29067,2.44791 -2.08203,3.78711 -1.58272,2.678475 -3.6478,5.46977 -4.31055,6 l 2.31055,2.886718 c 1.83725,-1.469782 3.52217,-4.184328 5.18945,-7.005859 0.83364,-1.410784 1.59725,-2.811656 2.19922,-4.015625 0.60198,-1.203968 1.02627,-2.087516 1.24805,-2.974609 l -3.58789,-0.892578 z m 420,0 c -0.0265,0.113008 -0.41253,1.106308 -0.9668,2.214843 -0.55427,1.108536 -1.29067,2.44791 -2.08203,3.78711 -1.58271,2.678475 -3.64781,5.46977 -4.31055,6 l 2.31055,2.886718 c 1.83727,-1.469782 3.52215,-4.184328 5.18945,-7.005859 0.83362,-1.410784 1.59726,-2.811656 2.19922,-4.015625 0.60201,-1.203968 1.02627,-2.087516 1.24805,-2.974609 l -3.58789,-0.892578 z m -322.02149,0.08008 c -0.40698,2.034897 -3.44403,12.100449 -9.13086,19.208984 l 2.89454,2.310547 c 6.31317,-7.89154 9.27605,-17.822032 9.86914,-20.787109 l -3.63282,-0.732422 z m 420,0 c -0.40698,2.034897 -3.44403,12.100449 -9.13086,19.208984 l 2.89454,2.310547 c 6.31317,-7.89154 9.27605,-17.822032 9.86914,-20.787109 l -3.63282,-0.732422 z m -412.91992,0.310547 -3.52929,1.115234 c 1.58513,5.019591 4.20227,9.314314 6.74804,12.578125 0.60374,0.774009 1.19178,1.476912 1.76563,2.126953 -1.28406,3.694186 -2.09766,7.05842 -2.09766,9.23437 l 3.69727,0 c 0,-0.87095 0.48426,-3.434482 1.33593,-6.29687 0.67767,0.57978 1.30771,1.048677 1.86133,1.38086 l 1.9043,-3.167969 c -0.43518,-0.261166 -1.33806,-1.000403 -2.42774,-2.064453 1.35538,-3.374098 3.15477,-6.585304 4.70899,-7.966797 l -2.45899,-2.769531 c -2.08051,1.84936 -3.70109,4.671236 -5.01171,7.695312 -0.12057,-0.149291 -0.24077,-0.291032 -0.36133,-0.445312 -2.32921,-2.986167 -4.71983,-6.939519 -6.13477,-11.419922 z m 420,0 -3.52929,1.115234 c 1.58513,5.019591 4.20227,9.314314 6.74804,12.578125 0.60374,0.774009 1.19178,1.476912 1.76563,2.126953 -1.28406,3.694186 -2.09766,7.05842 -2.09766,9.23437 l 3.69727,0 c 0,-0.87095 0.48426,-3.434482 1.33593,-6.29687 0.67767,0.57978 1.30771,1.048677 1.86133,1.38086 l 1.9043,-3.167969 c -0.43518,-0.261166 -1.33806,-1.000403 -2.42774,-2.064453 1.35538,-3.374098 3.15477,-6.585304 4.70899,-7.966797 l -2.45899,-2.769531 c -2.08051,1.84936 -3.70109,4.671236 -5.01171,7.695312 -0.12057,-0.149291 -0.24077,-0.291032 -0.36133,-0.445312 -2.32921,-2.986167 -4.71983,-6.939519 -6.13477,-11.419922 z m -628.76758,0.464843 -2.98828,2.177735 c 4.98263,6.818305 11.93445,11.816708 18.02539,15.214844 3.04548,1.699048 5.88104,2.992712 8.16407,3.904296 2.28302,0.911584 3.89458,1.433274 4.99804,1.617184 l 0.60547,-3.64648 c -0.39654,-0.06614 -2.09162,-0.548322 -4.23047,-1.402344 -2.13885,-0.85406 -4.83649,-2.093589 -7.72851,-3.707032 -5.78405,-3.226885 -12.32833,-7.976483 -16.84571,-14.158203 z m 420,0 -2.98828,2.177735 c 4.98263,6.818305 11.93442,11.816708 18.02539,15.214844 3.04547,1.699048 5.88104,2.992712 8.16407,3.904296 2.28302,0.911584 3.89457,1.433274 4.99804,1.617184 l 0.60547,-3.64648 c -0.39655,-0.06614 -2.09163,-0.548322 -4.23047,-1.402344 -2.13887,-0.85406 -4.83649,-2.093589 -7.72851,-3.707032 -5.78404,-3.226885 -12.3283,-7.976483 -16.84571,-14.158203 z m -377.73047,1.048829 -3.5371,1.083984 c 1.09312,3.552642 3.07989,6.829849 5.07226,9.353516 0.99619,1.261833 1.99052,2.332515 2.92383,3.160156 0.93331,0.827678 1.67512,1.454452 2.82617,1.742187 l 0.90039,-3.595703 c 0.15103,0.0378 -0.54659,-0.275159 -1.26953,-0.916016 -0.72294,-0.641083 -1.60166,-1.572362 -2.48047,-2.685546 -1.75763,-2.226293 -3.52867,-5.195265 -4.43555,-8.142578 z m 420,0 -3.5371,1.083984 c 1.09311,3.552642 3.07988,6.829849 5.07226,9.353516 0.99621,1.261833 1.99051,2.332515 2.92383,3.160156 0.93332,0.827678 1.67512,1.454452 2.82617,1.742187 l 0.90039,-3.595703 c 0.15118,0.0378 -0.54662,-0.275159 -1.26953,-0.916016 -0.72295,-0.641083 -1.60169,-1.572362 -2.48047,-2.685546 -1.75763,-2.226293 -3.52865,-5.195265 -4.43555,-8.142578 z m -275.46289,2.310546 c -0.13644,0.317859 -0.88453,1.252987 -2.04492,2.185547 -1.16035,0.932561 -2.70302,1.939705 -4.35547,2.871094 -3.30489,1.86274 -7.15904,3.440402 -9.26367,3.861328 l 0.72266,3.623047 c 2.89538,-0.579061 6.78728,-2.247507 10.35742,-4.259766 1.78503,-1.00611 3.4709,-2.096619 4.85742,-3.210937 1.38652,-1.114318 2.50929,-2.177312 3.12305,-3.609375 l -3.39649,-1.460938 z m 420,0 c -0.13644,0.317859 -0.88453,1.252987 -2.04492,2.185547 -1.16035,0.932561 -2.70302,1.939705 -4.35547,2.871094 -3.30489,1.86274 -7.15904,3.440402 -9.26367,3.861328 l 0.72266,3.623047 c 2.89538,-0.579061 6.78728,-2.247507 10.35742,-4.259766 1.78503,-1.00611 3.4709,-2.096619 4.85742,-3.210937 1.38652,-1.114318 2.50929,-2.177312 3.12305,-3.609375 l -3.39649,-1.460938 z m -366.93164,0.05859 -3.35937,1.550781 c 1.87926,4.071761 1.94922,9.478113 1.94922,13.013672 l 3.70508,0 c 0,-3.535559 0.0684,-9.443873 -2.29493,-14.564453 z m 420,0 -3.35937,1.550781 c 1.87926,4.071761 1.94922,9.478113 1.94922,13.013672 l 3.70508,0 c 0,-3.535559 0.0684,-9.443873 -2.29493,-14.564453 z m -506.28711,2.369141 c -6.93883,1.601272 -13.85771,5.821084 -17.67968,12.373047 l 3.19726,1.859375 c 3.17802,-5.448038 9.25526,-9.230217 15.31641,-10.628907 l -0.83399,-3.603515 z m 420,0 c -6.93883,1.601272 -13.85771,5.821084 -17.67968,12.373047 l 3.19726,1.859375 c 3.17802,-5.448038 9.25526,-9.230217 15.31641,-10.628907 l -0.83399,-3.603515 z m -321.36523,1.742187 c -1.8994,10.446652 -7.30314,14.351766 -11.16211,16.763676 l 1.96484,3.13672 c 4.14104,-2.58811 10.73536,-7.682998 12.83594,-19.236333 l -3.63867,-0.664063 z m -198.03906,1.226563 c -1.8994,10.446652 -7.30312,14.351773 -11.16211,16.763673 l 1.96484,3.13672 c 4.14101,-2.58811 10.73533,-7.682995 12.83594,-19.236331 l -3.63867,-0.664062 z m 420,0 c -1.8994,10.446652 -7.30314,14.351773 -11.16211,16.763673 l 1.96484,3.13672 c 4.14104,-2.58811 10.73535,-7.682995 12.83594,-19.236331 l -3.63867,-0.664062 z m -283.98047,11.101562 -3.39649,1.460938 c 3.19265,7.449523 8.73387,11.939313 15.25,13.568363 l 0.89454,-3.59375 c -5.48383,-1.37095 -9.94073,-4.8851 -12.74805,-11.435551 z m 420,0 -3.39649,1.460938 c 3.19265,7.449523 8.73387,11.939313 15.25,13.568363 l 0.89454,-3.59375 c -5.48383,-1.37095 -9.94073,-4.8851 -12.74805,-11.435551 z"
         transform="matrix(0.26458333,0,0,0.26458333,0,169.99998)"
         id="path5829" />
    </g>
    <path
       style="fill:#d1832e;fill-opacity:1;stroke:none;stroke-width:4.45793152;stroke-linecap:butt;stroke-linejoin:miter;stroke-miterlimit:4;stroke-dasharray:none;stroke-opacity:1"
       d="m 16.866825,1005.3182 c -0.01368,0.3437 -0.0227,0.6884 -0.0227,1.0356 0,14.0042 11.274033,25.2788 25.278191,25.2788 l 215.901145,0 c 14.00416,0 25.27877,-11.2746 25.27877,-25.2788 0,-0.3472 -0.009,-0.6919 -0.0227,-1.0356 z"
       id="path5827" />
    <path
       style="fill:#f9f2e5;fill-opacity:1;stroke:none;stroke-width:2.9104166;stroke-linecap:butt;stroke-linejoin:miter;stroke-miterlimit:4;stroke-dasharray:none;stroke-opacity:1"
       d="m 27.50776,995.57973 244.90914,0 c 5.969,0 10.77435,4.80547 10.77435,10.77427 0,5.969 -4.80535,10.7744 -10.77435,10.7744 l -244.90914,0 c -5.968985,0 -10.774345,-4.8054 -10.774345,-10.7744 0,-5.9688 4.80536,-10.77427 10.774345,-10.77427 z"
       id="path10372" />
    <path
       id="rect4482"
       d="m 27.50776,995.57973 117.27459,0 c 5.96899,0 10.77435,4.80547 10.77435,10.77427 0,5.969 -4.80536,10.7744 -10.77435,10.7744 l -117.27459,0 c -5.968985,0 -10.774345,-4.8054 -10.774345,-10.7744 0,-5.9688 4.80536,-10.77427 10.774345,-10.77427 z"
       style="fill:#f9f2e5;fill-opacity:1;stroke:none;stroke-width:2.9104166;stroke-linecap:butt;stroke-linejoin:miter;stroke-miterlimit:4;stroke-dasharray:none;stroke-opacity:1" />
  </g>
</svg>
