<?xml version="1.0" encoding="UTF-8" standalone="no"?>
<svg
   xmlns:dc="http://purl.org/dc/elements/1.1/"
   xmlns:cc="http://creativecommons.org/ns#"
   xmlns:rdf="http://www.w3.org/1999/02/22-rdf-syntax-ns#"
   xmlns:svg="http://www.w3.org/2000/svg"
   xmlns="http://www.w3.org/2000/svg"
   version="1.1"
   id="svg4260"
   viewBox="0 0 128 128"
   height="128"
   width="128">
  <defs
     id="defs4262" />
  <metadata
     id="metadata4265">
    <rdf:RDF>
      <cc:Work
         rdf:about="">
        <dc:format>image/svg+xml</dc:format>
        <dc:type
           rdf:resource="http://purl.org/dc/dcmitype/StillImage" />
        <dc:title></dc:title>
      </cc:Work>
    </rdf:RDF>
  </metadata>
  <g
     transform="translate(0,-924.36216)"
     id="layer1">
    <g
       transform="matrix(2.8106032,0,0,2.8106031,-468.78808,392.14902)"
       id="g5165">
      <path
         style="color:#000000;font-style:normal;font-variant:normal;font-weight:normal;font-stretch:normal;font-size:medium;line-height:normal;font-family:sans-serif;text-indent:0;text-align:start;text-decoration:none;text-decoration-line:none;text-decoration-style:solid;text-decoration-color:#000000;letter-spacing:normal;word-spacing:normal;text-transform:none;direction:ltr;writing-mode:lr-tb;baseline-shift:baseline;text-anchor:start;white-space:normal;clip-rule:nonzero;display:inline;overflow:visible;visibility:visible;opacity:1;isolation:auto;mix-blend-mode:normal;color-interpolation:sRGB;color-interpolation-filters:linearRGB;solid-color:#000000;solid-opacity:1;fill:#fac133;fill-opacity:1;fill-rule:nonzero;stroke:none;stroke-width:3.99999976;stroke-linecap:butt;stroke-linejoin:miter;stroke-miterlimit:4;stroke-dasharray:none;stroke-dashoffset:0;stroke-opacity:1;color-rendering:auto;image-rendering:auto;shape-rendering:auto;text-rendering:auto;enable-background:accumulate"
         d="m 732.32031,116.38281 c -4.15378,3.03115 -7.95981,6.27455 -11.41211,9.63672 l -1.65429,0.0859 c 0.0252,0.48612 0.0659,0.96585 0.0976,1.44922 -2.10698,2.14549 -4.04871,4.33603 -5.83984,6.55273 -0.32803,-4.00901 -1.31217,-7.9755 -3.22656,-11.75976 l -3.57227,1.80859 c 2.3545,4.65424 3.11553,9.749 2.85742,14.92578 -0.42615,0.25924 -0.85721,0.52337 -1.28515,0.78516 0.41053,-1.98298 0.7393,-3.95504 0.95117,-5.90039 l -3.65625,-0.40039 c 0.72478,-1.40077 1.27234,-2.66021 1.58984,-3.77149 l -3.8457,-1.0918 c -0.46398,1.62392 -2.50857,5.38939 -5.41797,9.89844 -0.69237,1.07303 -1.43687,2.19889 -2.2207,3.36719 -4.39294,-5.79609 -8.95835,-11.66985 -13.36914,-17.21484 l -3.13086,2.48828 c 4.06298,5.10774 8.25253,10.50123 12.32226,15.84961 -3.68399,0.24055 -6.72465,0.40429 -8.01172,0.40429 l 0,4.00196 c 1.55046,0 4.79407,-0.15938 8.67188,-0.39844 -1.44809,2.08785 -2.92839,4.20939 -4.49024,6.41797 -1.08819,-1.0576 -2.21192,-2.17476 -3.39648,-3.39453 -2.23109,-5.42481 -4.46817,-11.39793 -6.63086,-17.99414 l -3.80273,1.24804 c 0.99965,3.04893 2.01639,5.93693 3.03711,8.73828 -0.13132,-0.1485 -0.25445,-0.28338 -0.38672,-0.43359 l -2.9961,2.64258 c 2.62958,2.98612 5.06584,5.63418 7.34571,8.00976 0.66595,1.61113 1.32965,3.17253 1.99218,4.68164 -0.8962,0.65265 -1.78796,1.30297 -2.68359,1.96485 -1.58327,-2.01846 -3.14575,-3.9727 -4.61719,-5.75391 l -3.07812,2.54688 c 1.43429,1.73626 2.9532,3.63832 4.49218,5.60156 -4.93657,3.71252 -9.81974,7.51726 -14.47265,11.32422 l 2.53906,3.09961 c 3.46394,-2.83413 7.07848,-5.66027 10.73047,-8.46094 l 0.94141,1.27149 c 0.18447,-0.13688 0.40222,-0.27613 0.59961,-0.41407 -4.70727,6.68994 -9.07236,13.05757 -12.01368,18.03516 l 3.44727,2.03711 c 3.14137,-5.31617 8.12543,-12.51621 13.42969,-20.02735 1.77757,2.44838 3.50795,4.9405 5.09961,7.4043 0.19577,0.30305 0.37518,0.60386 0.5664,0.90625 -2.24991,3.47954 -4.49432,6.65014 -6.57617,9.29492 -3.14173,3.99122 -5.99916,6.8842 -7.625,8.00196 l 2.26758,3.30078 c 2.37415,-1.63223 5.23164,-4.67095 8.5039,-8.82813 1.83445,-2.33046 3.77187,-5.0321 5.72461,-7.96679 0.3002,0.52502 0.58264,1.03897 0.86329,1.55468 l 0.75586,3.03125 c 0.23336,-0.0583 0.47242,-0.13642 0.70703,-0.19922 0.51809,1.06385 0.99789,2.10251 1.39843,3.08594 -0.86724,0.49314 -1.74636,0.94748 -2.64453,1.3418 l 1.60938,3.66211 c 0.79135,-0.34743 1.56431,-0.73273 2.32617,-1.14063 0.17722,0.71463 0.31548,1.39697 0.37695,2.01172 l 3.40625,-0.33984 2.46094,2.59179 c 3.07857,-2.92068 6.30063,-7.61179 9.28125,-13.35351 0.88929,0.50151 1.82767,0.96569 2.82617,1.38281 -5.1034,5.91557 -9.33035,11.1975 -11.60547,14.34766 l 3.24024,2.33984 c 2.27682,-3.15253 6.97874,-8.90295 12.58203,-15.27539 4.67824,1.22019 10.30433,1.68149 16.95312,1.28125 -2.49536,4.02531 -5.7609,7.4975 -9.75781,10.16211 l 2.21485,3.33008 c 5.65545,-3.77033 9.97183,-8.92257 12.88281,-14.9043 0.65193,0.87461 1.30108,1.71742 1.94726,2.50586 -1.63836,3.97162 -3.49309,7.15382 -5.375,9.08399 l 2.86524,2.78906 c 2.07854,-2.13184 3.92433,-5.03907 5.51758,-8.49805 1.72053,1.77394 3.38409,3.21449 4.93554,4.26172 l 2.23633,-3.31445 c -1.5605,-1.05334 -3.44622,-2.7854 -5.48633,-5.08008 1.78083,-4.89151 3.1424,-10.53649 4.03125,-16.49805 0.1402,-0.94025 0.26439,-1.88877 0.37891,-2.84179 0.538,-0.41005 1.07652,-0.81968 1.60937,-1.24024 2.35113,7.21138 5.63994,14.61212 10.20704,21.20898 l 3.28515,-2.28124 c -4.58605,-6.62432 -7.85136,-14.26625 -10.13867,-21.66797 6.97062,-5.92358 12.85781,-12.39214 14.43555,-18.70313 l -3.88477,-0.97461 c -1.04719,4.18872 -5.77104,9.98748 -11.78125,15.4043 -1.28484,-4.86725 -2.14509,-9.49776 -2.69727,-13.54688 1.52785,-0.11513 2.88459,-0.17825 3.80469,-0.12304 l 0.23633,-3.99414 c -0.66431,-0.0399 -1.42471,-0.0366 -2.23047,-0.0156 1.16226,-1.18277 2.24444,-2.30848 3.17774,-3.31836 0.002,-5.6e-4 0.004,-10e-4 0.006,-0.002 l -0.002,-0.004 c 1.81963,-1.9692 3.20777,-3.59492 4.03907,-4.72851 l -3.22461,-2.36914 c -0.56733,0.77362 -1.63787,2.02458 -3.04688,3.56836 -1.72595,0.47649 -3.71645,0.9344 -5.86133,1.38085 -0.26708,-0.84275 -0.54961,-1.675 -0.85937,-2.48437 l -3.73438,1.43359 c 0.22705,0.59325 0.44205,1.199 0.64453,1.81836 -2.49892,0.45645 -5.13634,0.89563 -7.91601,1.3125 -0.45023,-0.80507 -0.91605,-1.60629 -1.41016,-2.40039 l -0.42578,0.26367 c 0.12372,-0.18591 0.25189,-0.40186 0.375,-0.58203 l -3.30078,-2.25781 c -1.25862,1.84188 -2.51986,3.92541 -3.79688,6.1582 -1.19527,0.15253 -2.39621,0.2893 -3.5957,0.43164 -0.26525,-1.39923 -0.50662,-2.81435 -0.71875,-4.24609 3.25612,-1.54157 5.99126,-2.60602 7.91992,-3.00781 l -0.82031,-3.91406 c -2.15068,0.44806 -4.74303,1.40194 -7.63867,2.70507 -0.0827,-0.7728 -0.16089,-1.54751 -0.22656,-2.32812 3.36122,-3.33259 7.10305,-6.55314 11.21093,-9.55078 z m -27.17383,18.00391 c -0.31885,2.53366 -0.83232,5.1374 -1.50781,7.77539 -1.23637,0.10737 -2.30664,0.18814 -3.47265,0.2832 0.37122,-0.56237 0.75835,-1.14172 1.10546,-1.67969 1.54219,-2.39001 2.85417,-4.50637 3.875,-6.3789 z m 12.85743,4.51758 c 0.0168,0.60901 0.0246,1.2227 0.0195,1.84375 -1.36294,0.14659 -2.73307,0.3003 -4.08203,0.4375 1.40459,-0.81419 2.74897,-1.56389 4.0625,-2.28125 z m 28.10547,2.03906 c 0.11467,0.49476 0.21007,1.00517 0.31054,1.51172 -2.0002,0.27965 -4.11268,0.60741 -6.44531,1.02734 -0.0975,0.0175 -0.20673,0.0408 -0.30469,0.0586 -0.20053,-0.45781 -0.38657,-0.91738 -0.59961,-1.37305 2.45568,-0.38733 4.79011,-0.79979 7.03907,-1.22461 z m -11.18555,1.84375 c 0.25225,0.50831 0.48763,1.01855 0.72265,1.5293 -1.88201,0.37598 -3.82023,0.78653 -5.8164,1.23047 0.39883,-0.7347 0.81047,-1.51268 1.20117,-2.2168 1.31214,-0.17576 2.60571,-0.35708 3.89258,-0.54297 z m -8.83399,1.17773 c -0.0672,0.12416 -0.14038,0.26295 -0.20898,0.39063 -0.0279,-0.11976 -0.0584,-0.23739 -0.0859,-0.35742 0.0989,-0.0119 0.19583,-0.0211 0.29492,-0.0332 z m -4.20898,0.8711 c 0.18814,0.8235 0.38576,1.63894 0.58984,2.44922 -0.27463,0.068 -0.54754,0.13294 -0.82226,0.20117 0.0976,-0.88804 0.16972,-1.77032 0.23242,-2.65039 z m -4.03711,0.0625 c -0.0947,1.20859 -0.22465,2.43019 -0.38672,3.66211 -0.36885,0.0973 -0.73351,0.18765 -1.10351,0.28711 -1.51937,0.4084 -3.03589,0.8321 -4.54883,1.26562 0.41525,-1.55353 0.77422,-3.12843 1.0625,-4.71875 1.65119,-0.16139 3.29646,-0.31939 4.97656,-0.49609 z m 24.72266,2.20898 c -0.3659,0.33976 -0.71566,0.6707 -1.0918,1.01563 -0.0897,-0.26373 -0.19893,-0.52573 -0.29297,-0.78907 0.48119,-0.0851 0.91685,-0.1479 1.38477,-0.22656 z m -5.35352,0.97852 c 0.36672,0.98342 0.71224,1.96814 1.01367,2.95508 -2.06887,1.83611 -4.1995,3.68862 -6.4375,5.54296 -0.58553,0.48516 -1.18954,0.96593 -1.78515,1.44922 -0.93623,-2.51497 -1.8045,-5.12818 -2.58985,-7.82812 3.41414,-0.79957 6.69803,-1.51023 9.79883,-2.11914 z m 10.08594,0.11523 c 0.25671,2.4301 0.39212,4.92634 0.41406,7.45313 l -1.75781,-2.85742 c -0.86267,0.53082 -1.76184,1.13954 -2.69336,1.81054 -0.15556,-0.73903 -0.32984,-1.47779 -0.51758,-2.2168 1.59772,-1.43631 3.10777,-2.82934 4.55469,-4.18945 z m -45.6836,0.63867 c -0.0822,0.2376 -0.17359,0.47529 -0.25781,0.71289 -0.0874,-0.11826 -0.18182,-0.24088 -0.26953,-0.35937 0.17389,-0.11476 0.35396,-0.23952 0.52734,-0.35352 z m -3.85156,2.58204 c 0.61476,0.82989 1.21163,1.64081 1.81055,2.45703 -2.8817,0.96297 -5.68441,1.95117 -8.33008,2.97461 -0.20548,-0.18491 -0.38803,-0.33388 -0.59766,-0.5254 2.40392,-1.69864 4.77197,-3.32238 7.11719,-4.90624 z m 24.30664,0.0801 c -0.47343,0.89024 -0.96937,1.79318 -1.45117,2.68946 0.15869,-0.80996 0.30481,-1.6184 0.43945,-2.42774 0.33639,-0.0853 0.67565,-0.17681 1.01172,-0.26172 z m -5.30664,1.38477 c -0.84142,4.4891 -2.06203,9.01715 -3.53515,13.35937 -1.41469,-2.102 -2.97767,-4.35714 -4.63477,-6.70312 0.25144,-0.61364 0.49985,-1.23168 0.74023,-1.85742 0.3754,-0.97717 0.73032,-1.97767 1.07422,-2.98633 2.11133,-0.62573 4.23255,-1.23613 6.35547,-1.8125 z m 7.95703,2.1543 c 0.62847,1.91771 1.29343,3.7889 1.99414,5.60742 -2.9032,2.26485 -5.88069,4.48417 -8.89648,6.57812 0.24489,-0.40184 0.50082,-0.79776 0.74219,-1.20117 2.2042,-3.68401 4.21649,-7.36801 6.16015,-10.98437 z m 14.63086,0.35937 c 0.13793,0.65109 0.26414,1.30182 0.375,1.95117 -2.35028,1.92357 -4.82685,4.14534 -7.34765,6.54883 -0.28433,-0.64896 -0.56748,-1.30164 -0.84375,-1.9668 0.9396,-0.75595 1.88378,-1.51169 2.80078,-2.27148 1.72464,-1.42899 3.39549,-2.85244 5.01562,-4.26172 z m 8.36914,1.02344 c -9.9e-4,3.02271 -0.16171,6.07631 -0.46484,9.08789 -0.96009,0.70365 -1.92461,1.39858 -2.88867,2.06445 0.12004,-2.78195 -0.003,-5.62028 -0.35547,-8.47851 1.31909,-1.03634 2.56684,-1.94576 3.70898,-2.67383 z m -50.17578,2.44726 c -0.36093,0.78718 -0.71624,1.57692 -1.0918,2.35547 -0.53036,-0.40635 -1.11146,-0.88919 -1.67578,-1.34765 0.90536,-0.33825 1.83125,-0.67402 2.76758,-1.00782 z m -7.06054,2.66407 c 1.4534,1.24809 2.84988,2.39983 4.13281,3.35742 -0.60805,1.16893 -1.22332,2.32589 -1.85352,3.45898 -1.04531,-1.97178 -2.12725,-4.15155 -3.2207,-6.42578 0.31357,-0.12999 0.62179,-0.26087 0.94141,-0.39062 z m 10.02539,0.53125 c -0.0258,0.29407 -0.0551,0.58915 -0.0723,0.88086 -0.0208,0.35351 -0.0207,0.70243 -0.0273,1.05273 -0.20737,-0.12965 -0.42809,-0.27831 -0.64258,-0.41797 0.24776,-0.50489 0.49985,-1.0062 0.74219,-1.51562 z m 39.79101,0.10937 c 0.19268,2.78326 0.13808,5.5227 -0.1582,8.1875 -1.21429,0.76251 -2.39173,1.45989 -3.54102,2.11914 -0.60393,-1.09505 -1.20056,-2.21389 -1.78515,-3.37695 -0.20486,-0.40757 -0.40712,-0.82848 -0.60938,-1.24414 2.09268,-2.04552 4.1461,-3.97447 6.09375,-5.68555 z m -54.47266,1.35742 c 1.56,3.25258 3.08579,6.21907 4.55665,8.89649 -0.073,0.12155 -0.14569,0.24039 -0.21875,0.36133 -1.75903,-2.68811 -3.64798,-5.38108 -5.58008,-8.00391 0.2392,-0.3371 0.4782,-0.67215 0.71679,-1.00781 0.17764,-0.0823 0.34485,-0.16381 0.52539,-0.2461 z m 20.8711,0.29492 c 0.78675,1.12934 1.62199,2.30732 2.34961,3.37696 -0.97172,1.1e-4 -2.13373,-0.197 -3.61914,-0.71094 0.42818,-0.86529 0.84674,-1.75547 1.26953,-2.66602 z M 728.28125,164.5 c 0.34387,0.80512 0.69195,1.59936 1.04687,2.38086 -3.20267,3.18602 -6.42459,6.57907 -9.5039,9.95898 -0.69792,-1.29663 -1.54069,-2.72319 -2.55274,-4.36132 3.74268,-2.49614 7.43007,-5.202 11.00977,-7.97852 z m -30.3457,2.69141 c 0.70189,0.44405 1.36896,0.82755 2.01953,1.18554 -1.30248,2.42764 -2.52375,4.55882 -3.58008,6.39258 -0.44426,-0.74851 -0.88807,-1.49643 -1.34961,-2.30859 0.99005,-1.70992 1.96272,-3.469 2.91016,-5.26953 z m 7.38672,3.4414 c 2.04524,0.53816 3.78524,0.58402 5.24414,0.43555 -0.36755,0.53019 -0.73495,1.06103 -1.10938,1.58008 -0.81404,0.48788 -1.62818,0.97426 -2.4375,1.43359 -0.71973,-1.06779 -1.27756,-2.22201 -1.69726,-3.44922 z m 25.89062,0.20508 c 0.01,0.0198 0.0193,0.0407 0.0293,0.0606 0.60304,1.19976 1.21727,2.35571 1.83593,3.48633 -1.37988,0.69893 -2.68523,1.31509 -3.80664,1.7539 l 1.45508,3.72071 c 1.3255,-0.51868 2.79248,-1.19619 4.34571,-1.98438 0.74574,1.2469 1.49803,2.44437 2.25195,3.58594 -0.16023,0.3867 -0.31754,0.77484 -0.49024,1.15429 l -0.01,-0.10546 c -6.4074,0.57096 -11.73521,0.32283 -16.08789,-0.53516 0.17211,-0.19118 0.35611,-0.38454 0.52929,-0.57617 l 0.43165,-0.0996 c -0.0213,-0.0923 -0.0553,-0.19105 -0.0801,-0.28516 3.10654,-3.42766 6.37066,-6.90722 9.5957,-10.17578 z m 15.32813,0.10547 c -0.7088,4.39415 -1.73328,8.5958 -2.95704,12.34961 -0.581,-0.76344 -1.16668,-1.55924 -1.75586,-2.39844 0.91864,-2.60573 1.59481,-5.33024 2.02344,-8.13672 0.89226,-0.5816 1.79009,-1.19206 2.68946,-1.81445 z m -44.5254,2.02734 c 0.42516,1.04172 0.92264,2.05 1.52735,3.00196 -1.50079,0.77625 -2.97425,1.46117 -4.43359,2.10351 0.79944,-1.38256 1.81013,-3.14045 2.90624,-5.10547 z m 12.13282,2.08985 c 1.19916,1.97944 2.14006,3.70974 2.76562,5.01172 -0.20677,0.23277 -0.42214,0.46938 -0.62695,0.70117 -1.44125,-0.51068 -2.73188,-1.10662 -3.88281,-1.77344 0.59717,-1.27755 1.1781,-2.58908 1.74414,-3.93945 z m 25.08008,0.55273 c -0.0765,0.31678 -0.16648,0.62777 -0.25,0.94141 -0.12175,-0.19722 -0.24376,-0.39558 -0.36524,-0.59571 0.20693,-0.11817 0.40644,-0.2244 0.61524,-0.3457 z m -46.58399,0.80469 c 0.50698,0.85977 0.98825,1.62535 1.47266,2.4043 -0.0356,0.0692 -0.0876,0.16002 -0.1211,0.22656 -0.46732,-0.82388 -0.93193,-1.64736 -1.4414,-2.48438 0.0299,-0.048 0.06,-0.0984 0.0898,-0.14648 z m 1.41211,2.73633 0.37891,0.1875 c 0.10107,0.16096 0.20814,0.34725 0.30859,0.50586 -0.0788,0.0279 -0.1577,0.0547 -0.23633,0.082 -0.14206,-0.25602 -0.30569,-0.51823 -0.45117,-0.77539 z m 8.49024,1.80078 c -0.44111,0.44859 -0.88778,0.88647 -1.3379,1.3125 -0.13162,-0.18401 -0.25356,-0.34854 -0.38867,-0.54102 0.57463,-0.25358 1.14872,-0.49973 1.72657,-0.77148 z m -5.5293,2.33203 c 0.39361,0.56954 0.77292,1.10232 1.14453,1.61328 -0.28794,0.2268 -0.57761,0.45139 -0.86914,0.66797 -0.28812,-0.67923 -0.58886,-1.36343 -0.92188,-2.05859 0.21645,-0.0772 0.42931,-0.14227 0.64649,-0.22266 z m 8.30664,0.56055 c -0.41729,0.72094 -0.83624,1.45002 -1.25195,2.11523 -0.13512,-0.16036 -0.27094,-0.32169 -0.40821,-0.48633 0.56443,-0.52436 1.11197,-1.07726 1.66016,-1.6289 z m -1.80274,2.97656 c -1.45281,2.24271 -2.8736,4.11662 -4.17968,5.49805 -0.14535,-0.92278 -0.34117,-1.86398 -0.62305,-2.83789 0.64649,-0.44824 1.28126,-0.91762 1.90625,-1.40626 0.20936,0.24969 0.42817,0.52048 0.625,0.74415 z"
         id="path5072-8"
         transform="matrix(0.26458333,0,0,0.26458333,0,169.99998)" />
      <path
         style="color:#000000;font-style:normal;font-variant:normal;font-weight:normal;font-stretch:normal;font-size:medium;line-height:normal;font-family:sans-serif;text-indent:0;text-align:start;text-decoration:none;text-decoration-line:none;text-decoration-style:solid;text-decoration-color:#000000;letter-spacing:normal;word-spacing:normal;text-transform:none;direction:ltr;writing-mode:lr-tb;baseline-shift:baseline;text-anchor:start;white-space:normal;clip-rule:nonzero;display:inline;overflow:visible;visibility:visible;opacity:1;isolation:auto;mix-blend-mode:normal;color-interpolation:sRGB;color-interpolation-filters:linearRGB;solid-color:#000000;solid-opacity:1;fill:#f2dfc3;fill-opacity:1;fill-rule:nonzero;stroke:none;stroke-width:3.99999976;stroke-linecap:butt;stroke-linejoin:miter;stroke-miterlimit:4;stroke-dasharray:none;stroke-dashoffset:0;stroke-opacity:1;color-rendering:auto;image-rendering:auto;shape-rendering:auto;text-rendering:auto;enable-background:accumulate"
         d="m 719.39453,116.36914 -3.79492,1.26172 c 3.78232,11.34697 6.96,17.9664 8.84375,22.94922 1.63662,4.32915 2.33859,7.28088 1.875,11.54687 -1.2937,0.28178 -2.6088,0.57987 -3.9668,0.90039 -4.84028,-7.72219 -13.58287,-17.05808 -28.96289,-31.96484 l -2.7832,2.87305 c 14.53418,14.08697 22.98791,23.14168 27.63086,30.09765 -3.66532,0.93961 -7.54584,2.05009 -11.58399,3.33789 -4.5638,-1.98779 -9.21332,-4.16752 -13.71289,-6.41601 0.40666,-3.61897 0.74662,-7.39461 1.05469,-11.29688 l -3.98633,-0.31836 c -0.26279,3.32878 -0.56922,6.55338 -0.92578,9.65039 -6.36433,-3.30433 -12.22731,-6.65805 -16.72461,-9.65625 l -2.21484,3.32813 c 5.01208,3.34138 11.44654,7.05142 18.39453,10.64648 -1.71806,12.46167 -4.44344,22.26961 -8.95313,26.7793 l 2.82813,2.82813 c 5.63651,-5.63651 8.34916,-15.5283 9.99219,-27.64844 2.7926,1.39003 5.63602,2.74512 8.48047,4.04297 -1.43577,0.50623 -2.87127,1.01219 -4.34375,1.57031 l 1.41601,3.74219 c 2.85586,-1.08247 5.61692,-2.03195 8.32813,-2.92188 0.61731,0.26462 1.22663,0.51674 1.83984,0.77344 -0.45496,0.47793 -0.9071,0.94752 -1.38281,1.47656 -2.73082,3.03693 -5.69442,6.89663 -8.57813,11.11133 -5.76748,8.42937 -11.20744,18.21738 -13.57422,25.84375 l 3.82227,1.1875 c 2.13316,-6.87364 7.4452,-16.57783 13.05273,-24.77344 2.80377,-4.09784 5.68588,-7.84165 8.25196,-10.69531 0.86223,-0.95889 1.68045,-1.76999 2.46093,-2.50391 3.99032,1.57535 7.80617,2.93206 11.30469,3.99219 0.14644,2.61103 -0.0741,5.37428 -0.4707,8.64649 l 3.9707,0.47851 c 0.34492,-2.84559 0.54581,-5.47161 0.48633,-8.01562 1.68061,0.42192 3.28914,0.78085 4.72656,1.0039 l 0.61133,-3.94922 c -1.66083,-0.25771 -3.59125,-0.70705 -5.7168,-1.30273 -0.43851,-2.72753 -1.28674,-5.44665 -2.70507,-8.32227 3.94805,-0.91121 7.59681,-1.64057 10.96289,-2.26757 -0.17478,1.39038 -0.33419,2.78401 -0.46485,4.17773 -1.14402,12.20307 -0.5704,24.45919 6.09571,32.23633 l 3.04296,-2.59766 c -5.33389,-6.22288 -6.26026,-17.46475 -5.15429,-29.26172 0.16545,-1.76486 0.38334,-3.5342 0.62109,-5.30078 3.97046,-0.69742 7.54636,-1.29247 10.40039,-1.86719 3.48412,-0.70159 6.0687,-1.31228 7.98828,-2.62109 l -2.25195,-3.30664 c -0.83036,0.56617 -3.18138,1.33441 -6.52539,2.00781 -2.43113,0.48957 -5.56648,1.02219 -9,1.61914 1.3664,-8.54936 3.24979,-16.66693 4.36328,-22.60547 l -3.92578,-0.73046 c -1.13985,6.07926 -3.19414,14.80476 -4.60352,24.07031 -1.75525,0.32036 -3.62787,0.68333 -5.5625,1.07226 0.23475,-4.32713 -0.60593,-7.93426 -2.18359,-12.10742 -1.99124,-5.26719 -5.07527,-11.64777 -8.79297,-22.80078 z m 1.00781,41.24805 c 1.14659,2.14362 1.91851,4.10589 2.41016,6.03906 -2.25056,-0.7435 -4.63497,-1.59717 -7.13086,-2.56055 l -0.85742,-2.0039 c 1.91159,-0.53491 3.76452,-1.0206 5.57812,-1.47461 z"
         id="path5058-8"
         transform="matrix(0.26458333,0,0,0.26458333,0,169.99998)" />
    </g>
  </g>
</svg>
