<?xml version="1.0" encoding="UTF-8" standalone="no"?>
<svg
   xmlns:dc="http://purl.org/dc/elements/1.1/"
   xmlns:cc="http://creativecommons.org/ns#"
   xmlns:rdf="http://www.w3.org/1999/02/22-rdf-syntax-ns#"
   xmlns:svg="http://www.w3.org/2000/svg"
   xmlns="http://www.w3.org/2000/svg"
   version="1.1"
   id="svg4260"
   viewBox="0 0 128 128"
   height="128"
   width="128">
  <defs
     id="defs4262" />
  <metadata
     id="metadata4265">
    <rdf:RDF>
      <cc:Work
         rdf:about="">
        <dc:format>image/svg+xml</dc:format>
        <dc:type
           rdf:resource="http://purl.org/dc/dcmitype/StillImage" />
        <dc:title></dc:title>
      </cc:Work>
    </rdf:RDF>
  </metadata>
  <g
     transform="translate(0,-924.36216)"
     id="layer1">
    <path
       id="path5134"
       d="M 112.36105,988.36218 A 48.361053,35.102802 0 0 1 64,1023.465 48.361053,35.102802 0 0 1 15.638947,988.36218 48.361053,35.102802 0 0 1 64,953.25938 a 48.361053,35.102802 0 0 1 48.36105,35.1028 z"
       style="opacity:1;fill:#e8d618;fill-opacity:1;stroke:none;stroke-width:1;stroke-linecap:round;stroke-linejoin:bevel;stroke-miterlimit:4;stroke-dasharray:none;stroke-dashoffset:0;stroke-opacity:1" />
    <path
       id="path5177"
       d="m 41.572788,971.35945 c -6.783693,22.27557 1.779114,30.92365 31.909355,36.89555 9.91071,1.9643 5.454482,7.5436 -1.696428,8.75 -23.832738,4.0206 -66.1713864,-16.6141 -37.500001,-47.49998 4.288699,-4.61995 8.365407,-1.68649 7.287074,1.85443 z"
       style="fill:#f2e87e;fill-rule:evenodd;stroke:none;stroke-width:1px;stroke-linecap:butt;stroke-linejoin:miter;stroke-opacity:1;fill-opacity:1" />
  </g>
</svg>
