<?xml version="1.0" encoding="UTF-8" standalone="no"?>
<svg
   xmlns:dc="http://purl.org/dc/elements/1.1/"
   xmlns:cc="http://creativecommons.org/ns#"
   xmlns:rdf="http://www.w3.org/1999/02/22-rdf-syntax-ns#"
   xmlns:svg="http://www.w3.org/2000/svg"
   xmlns="http://www.w3.org/2000/svg"
   version="1.1"
   id="svg4260"
   viewBox="0 0 128 128"
   height="128"
   width="128">
  <defs
     id="defs4262" />
  <metadata
     id="metadata4265">
    <rdf:RDF>
      <cc:Work
         rdf:about="">
        <dc:format>image/svg+xml</dc:format>
        <dc:type
           rdf:resource="http://purl.org/dc/dcmitype/StillImage" />
        <dc:title></dc:title>
      </cc:Work>
    </rdf:RDF>
  </metadata>
  <g
     transform="translate(0,-924.36216)"
     id="layer1">
    <path
       id="path5134"
       d="M 112.36105,988.36218 A 48.361053,35.102802 0 0 1 64,1023.465 48.361053,35.102802 0 0 1 15.638947,988.36218 48.361053,35.102802 0 0 1 64,953.25938 a 48.361053,35.102802 0 0 1 48.36105,35.1028 z"
       style="opacity:1;fill:#f3e8d3;fill-opacity:1;stroke:none;stroke-width:1;stroke-linecap:round;stroke-linejoin:bevel;stroke-miterlimit:4;stroke-dasharray:none;stroke-dashoffset:0;stroke-opacity:1" />
    <path
       id="path5149"
       d="m 34.642857,982.7193 4.285714,3.21429 L 37.5,991.64787 34.285714,990.2193 Z"
       style="fill:#b6a99a;fill-rule:evenodd;stroke:none;stroke-width:1px;stroke-linecap:butt;stroke-linejoin:miter;stroke-opacity:1;fill-opacity:0.8509804" />
    <path
       id="path5151"
       d="m 57.142857,989.14787 5.714286,0.35714 -1.071429,3.2143 -5.714286,-0.3572 z"
       style="fill:#b6a99a;fill-rule:evenodd;stroke:none;stroke-width:1px;stroke-linecap:butt;stroke-linejoin:miter;stroke-opacity:1;fill-opacity:0.8509804" />
    <path
       id="path5153"
       d="m 88.214286,986.64787 3.214286,8.92858 1.785714,-3.21429 -2.5,-8.92857 z"
       style="fill:#b6a99a;fill-rule:evenodd;stroke:none;stroke-width:1px;stroke-linecap:butt;stroke-linejoin:miter;stroke-opacity:1;fill-opacity:0.8509804" />
    <path
       id="path5155"
       d="m 71.071429,965.2193 0,3.21429 7.5,-3.92857 0,-5.71429 z"
       style="fill:#b6a99a;fill-rule:evenodd;stroke:none;stroke-width:1px;stroke-linecap:butt;stroke-linejoin:miter;stroke-opacity:1;fill-opacity:0.8509804" />
    <path
       id="path5157"
       d="m 61.428572,1014.505 -1.071429,2.8572 5.714286,1.4285 1.785714,-2.5 z"
       style="fill:#b6a99a;fill-rule:evenodd;stroke:none;stroke-width:1px;stroke-linecap:butt;stroke-linejoin:miter;stroke-opacity:1;fill-opacity:0.8509804" />
  </g>
</svg>
