<?xml version="1.0" encoding="UTF-8" standalone="no"?>
<svg
   xmlns:dc="http://purl.org/dc/elements/1.1/"
   xmlns:cc="http://creativecommons.org/ns#"
   xmlns:rdf="http://www.w3.org/1999/02/22-rdf-syntax-ns#"
   xmlns:svg="http://www.w3.org/2000/svg"
   xmlns="http://www.w3.org/2000/svg"
   width="128"
   height="128"
   viewBox="0 0 128 128"
   id="svg5864"
   version="1.1">
  <defs
     id="defs5866" />
  <metadata
     id="metadata5869">
    <rdf:RDF>
      <cc:Work
         rdf:about="">
        <dc:format>image/svg+xml</dc:format>
        <dc:type
           rdf:resource="http://purl.org/dc/dcmitype/StillImage" />
        <dc:title></dc:title>
      </cc:Work>
    </rdf:RDF>
  </metadata>
  <g
     id="layer1"
     transform="matrix(0.84893858,0,0,0.84893858,9.6679309,-775.05877)">
    <g
       id="g6848"
       transform="matrix(0.88790078,0,0,0.88790078,8.8030238,109.90447)">
      <path
         style="fill:#e6bc87;fill-opacity:1;stroke:none;stroke-width:4.45793152;stroke-linecap:butt;stroke-linejoin:miter;stroke-miterlimit:4;stroke-dasharray:none;stroke-opacity:1"
         d="m 9.698432,1010.9553 c -0.010383,0.2601 -0.017144,0.521 -0.017144,0.7837 0,10.5974 8.531452,19.1293 19.128895,19.1293 l 66.794428,0 c 10.597439,0 19.129319,-8.5319 19.129319,-19.1293 0,-0.2627 -0.007,-0.5236 -0.0172,-0.7837 z"
         id="path5930-8" />
      <path
         style="fill:#f9f2e5;fill-opacity:1;stroke:none;stroke-width:2.9104166;stroke-linecap:butt;stroke-linejoin:miter;stroke-miterlimit:4;stroke-dasharray:none;stroke-opacity:1"
         d="m 17.750802,1003.5859 88.745798,0 c 4.51694,0 8.15334,3.6363 8.15334,8.1533 0,4.5169 -3.6364,8.1533 -8.15334,8.1533 l -88.745798,0 c -4.516942,0 -8.153326,-3.6364 -8.153326,-8.1533 0,-4.517 3.636384,-8.1533 8.153326,-8.1533 z"
         id="rect4482" />
      <path
         id="path4654"
         d="m 13.283745,994.53593 c -2.61042,11.27227 -0.355931,20.88347 2.966422,21.59537 0,0 9.370967,-1.5548 17.46197,-3.4157 0.01357,2.962 1.43264,4.3752 4.909022,3.5225 2.076299,-0.5093 5.859304,-1.847 8.618013,-3.0848 0.327471,0.4854 0.6586,0.7782 0.986949,0.8013 1.765368,0.1248 6.417534,-0.3608 10.87016,-1.2073 0.728381,1.9289 1.710932,3.148 2.812506,3.384 0,0 9.370968,-1.5548 17.46197,-3.4157 0.01357,2.962 1.43264,4.3752 4.909022,3.5225 2.076299,-0.5093 5.859305,-1.847 8.618014,-3.0848 0.327471,0.4854 0.658599,0.7782 0.986948,0.8013 2.88777,0.2042 13.502199,-1.219 18.327159,-3.197 1.28613,-4.0978 1.43157,-6.1064 0.24781,-10.2592 -4.23647,-0.75707 -23.49728,-3.47066 -23.49728,-3.47066 0.03801,0.64605 0.136757,1.53072 0.276962,2.53554 -3.169909,-1.36736 -12.926507,-5.18057 -16.831728,-2.13424 l -13.465298,-2.89311 c -0.366165,1.58116 -0.633683,3.12766 -0.818885,4.62348 -6.827066,-1.00487 -14.819671,-2.13167 -14.819671,-2.13167 0.03801,0.64605 0.136756,1.53072 0.276961,2.53554 -3.169909,-1.36736 -12.926507,-5.18057 -16.831728,-2.13424 z"
         style="fill:#dfb8b5;fill-opacity:1;stroke:none;stroke-width:3;stroke-linecap:butt;stroke-linejoin:miter;stroke-miterlimit:4;stroke-dasharray:none;stroke-opacity:1" />
      <path
         id="path5458"
         d="m 12.96348,994.46219 c -1.314551,5.67651 -1.406441,10.93251 -0.745142,14.88531 0.330649,1.9763 0.847094,3.6278 1.510006,4.8515 0.662912,1.2237 1.48168,2.0457 2.453225,2.2539 0.521436,0.1117 1.025165,-0.076 1.414827,-0.4356 0.389662,-0.3596 0.70364,-0.88 0.989951,-1.5122 0.572621,-1.2643 1.02378,-2.9941 1.455128,-4.8237 0.431349,-1.8295 0.838983,-3.7547 1.297783,-5.3733 0.4588,-1.6186 0.996025,-2.9326 1.550736,-3.4873 0.138016,-0.1381 0.247922,-0.1985 0.308261,-0.2153 0.06034,-0.017 0.0737,-0.013 0.124762,0.018 0.102125,0.062 0.3018,0.3466 0.463463,0.8168 0.323325,0.9402 0.57058,2.5334 0.815026,4.2667 0.244447,1.7334 0.492086,3.615 0.855328,5.1997 0.363242,1.5848 0.793744,2.8889 1.639913,3.4775 l 0.376001,-0.5398 c -0.518367,-0.3606 -1.021697,-1.5477 -1.374097,-3.0851 -0.352399,-1.5375 -0.600888,-3.4076 -0.845895,-5.1449 -0.245007,-1.7373 -0.479814,-3.3334 -0.842466,-4.3881 -0.181325,-0.5273 -0.376318,-0.9422 -0.745571,-1.1666 -0.184627,-0.11216 -0.425749,-0.14792 -0.643103,-0.0874 -0.217353,0.0605 -0.408084,0.1941 -0.596371,0.3824 -0.750498,0.7505 -1.251034,2.1219 -1.71923,3.7737 -0.468195,1.6518 -0.877453,3.5821 -1.306357,5.4012 -0.428904,1.8192 -0.880326,3.5299 -1.412683,4.7054 -0.266179,0.5878 -0.55534,1.0376 -0.83775,1.2982 -0.282409,0.2606 -0.520879,0.3432 -0.830032,0.277 -0.689632,-0.1478 -1.39985,-0.7942 -2.012484,-1.925 -0.612635,-1.1309 -1.118596,-2.7214 -1.440552,-4.6458 -0.643911,-3.8488 -0.556729,-9.0335 0.73914,-14.6293 z m 45.658621,0 c -0.349073,1.50735 -0.609444,2.98358 -0.794877,4.41511 -1.276953,0.62999 -2.366958,1.8589 -3.280684,3.363 -0.985058,1.6216 -1.763432,3.5743 -2.304024,5.4964 -0.525344,1.8679 -1.355637,3.7408 -2.252576,4.834 -0.448471,0.5466 -0.907415,0.8837 -1.307644,0.9736 -0.40023,0.09 -0.773358,-0.01 -1.223183,-0.4861 -0.39721,-0.4206 -0.876112,-1.4161 -1.307643,-2.7011 -0.431529,-1.2849 -0.836921,-2.8669 -1.191027,-4.5128 -0.708218,-3.2919 -1.210582,-6.851 -1.327364,-8.83628 l -0.657682,0.039 c 0.08894,1.51201 0.387874,3.84968 0.825317,6.30628 -0.578032,0.4653 -1.069637,1.2322 -1.551594,2.157 -0.558838,1.0723 -1.086237,2.3628 -1.591039,3.6459 -0.504804,1.2832 -0.986179,2.5606 -1.440551,3.5894 -0.454372,1.0288 -0.917799,1.8141 -1.223611,2.0609 -1.121457,0.9051 -1.956195,1.1607 -2.48538,1.0389 -0.529188,-0.1218 -0.911104,-0.6164 -1.126288,-1.5589 -0.430373,-1.885 -0.01076,-5.3218 1.283205,-9.2037 1.334345,-4.003 0.349157,-6.79998 -1.615476,-8.15239 -0.982315,-0.67621 -2.184429,-0.99288 -3.428598,-0.95308 -1.244168,0.0398 -2.529483,0.43565 -3.676836,1.17988 l 0.357995,0.55264 c 2.095545,-1.35927 4.669251,-1.41248 6.374868,-0.23838 1.705618,1.17411 2.640312,3.57393 1.364237,7.40213 -1.316466,3.9494 -1.788692,7.4236 -1.301213,9.5587 0.243739,1.0675 0.773499,1.8599 1.620621,2.0549 0.847123,0.195 1.852099,-0.2016 3.047881,-1.1666 0.529774,-0.4275 0.945253,-1.2537 1.411397,-2.3092 0.466146,-1.0554 0.947894,-2.3364 1.450413,-3.6138 0.502517,-1.2773 1.024718,-2.5518 1.561883,-3.5825 0.368426,-0.7069 0.752107,-1.2897 1.112569,-1.6824 0.116432,0.6181 0.238149,1.2381 0.369999,1.8509 0.357606,1.6622 0.768319,3.2628 1.212035,4.584 0.443718,1.3213 0.899222,2.3574 1.452128,2.9429 0.558746,0.5916 1.224246,0.8174 1.847421,0.6774 0.623172,-0.14 1.171295,-0.5889 1.672069,-1.1992 1.001548,-1.2206 1.834783,-3.1446 2.377339,-5.0737 0.527306,-1.8748 1.289764,-3.7801 2.232853,-5.3326 0.770771,-1.2688 1.662609,-2.2943 2.619146,-2.89522 -0.402918,3.64142 -0.303634,6.95612 0.148772,9.66032 0.33065,1.9763 0.847095,3.6278 1.510005,4.8515 0.662913,1.2237 1.481682,2.0457 2.453225,2.2539 0.521437,0.1117 1.025165,-0.076 1.414829,-0.4356 0.389661,-0.3596 0.703639,-0.88 0.989949,-1.5122 0.572623,-1.2643 1.023783,-2.9941 1.455129,-4.8237 0.431349,-1.8295 0.838984,-3.7547 1.297783,-5.3733 0.458799,-1.6186 0.996025,-2.9326 1.550736,-3.4873 0.138016,-0.1381 0.247922,-0.1985 0.308261,-0.2153 0.06034,-0.017 0.0737,-0.013 0.124762,0.018 0.102124,0.062 0.3018,0.3466 0.463464,0.8168 0.323324,0.9402 0.570579,2.5334 0.815026,4.2667 0.244445,1.7334 0.492086,3.615 0.855327,5.1997 0.36324,1.5848 0.793744,2.8889 1.639912,3.4775 l 0.376001,-0.5398 c -0.518366,-0.3606 -1.021697,-1.5477 -1.374096,-3.0851 -0.352399,-1.5375 -0.600889,-3.4076 -0.845896,-5.1449 -0.245007,-1.7373 -0.479813,-3.3334 -0.842465,-4.3881 -0.181326,-0.5273 -0.376317,-0.9422 -0.74557,-1.1666 -0.184628,-0.11217 -0.42575,-0.14793 -0.643104,-0.0874 -0.217353,0.0605 -0.408085,0.1941 -0.596372,0.3824 -0.750498,0.7505 -1.251033,2.1219 -1.719229,3.7737 -0.468194,1.6518 -0.877454,3.5821 -1.306357,5.4012 -0.428904,1.8192 -0.880327,3.5299 -1.412685,4.7054 -0.266178,0.5878 -0.555338,1.0376 -0.837747,1.2982 -0.28241,0.2606 -0.52088,0.3432 -0.830032,0.277 -0.689634,-0.1478 -1.399852,-0.7942 -2.012485,-1.925 -0.612634,-1.1309 -1.118597,-2.7214 -1.440552,-4.6458 -0.643911,-3.8488 -0.55673,-9.0335 0.739141,-14.6293 z m 17.657901,1.51515 c -1.244167,0.0398 -2.529483,0.43565 -3.676836,1.17988 l 0.357994,0.55264 c 2.095547,-1.35927 4.669253,-1.41248 6.37487,-0.23838 1.705618,1.17411 2.640311,3.57392 1.364236,7.40212 -1.316465,3.9494 -1.788692,7.4236 -1.301211,9.5587 0.243738,1.0675 0.773498,1.8599 1.620619,2.0549 0.847124,0.195 1.852101,-0.2016 3.047882,-1.1666 0.529774,-0.4275 0.945252,-1.2537 1.411396,-2.3092 0.466146,-1.0554 0.947895,-2.3364 1.450414,-3.6138 0.502517,-1.2773 1.024718,-2.5518 1.561883,-3.5825 0.368425,-0.7069 0.752107,-1.2897 1.112569,-1.6824 0.116431,0.6181 0.238149,1.2381 0.369999,1.8509 0.357606,1.6622 0.768318,3.2628 1.212035,4.584 0.443718,1.3213 0.899222,2.3574 1.452128,2.9429 0.558745,0.5916 1.224246,0.8174 1.84742,0.6774 0.623173,-0.14 1.171295,-0.5889 1.67207,-1.1992 1.001548,-1.2206 1.834782,-3.1446 2.377339,-5.0737 0.527306,-1.8748 1.289763,-3.7801 2.232851,-5.3326 0.9431,-1.5524 2.06778,-2.74083 3.26997,-3.23263 l -0.24952,-0.60966 c -1.40824,0.57609 -2.59789,1.87859 -3.58295,3.50019 -0.985057,1.6216 -1.763431,3.5743 -2.304023,5.4964 -0.525344,1.8679 -1.355637,3.7408 -2.252577,4.834 -0.44847,0.5466 -0.907414,0.8837 -1.307643,0.9736 -0.400231,0.09 -0.773358,-0.01 -1.223183,-0.4861 -0.397211,-0.4206 -0.876112,-1.4161 -1.307643,-2.7011 -0.431529,-1.2849 -0.836921,-2.8669 -1.191028,-4.5128 -0.708217,-3.2919 -1.210581,-6.851 -1.327364,-8.83628 l -0.657681,0.039 c 0.08894,1.51201 0.387874,3.84968 0.825317,6.30628 -0.578032,0.4653 -1.069637,1.2322 -1.551595,2.157 -0.558837,1.0723 -1.086236,2.3628 -1.591038,3.6459 -0.504804,1.2832 -0.98618,2.5606 -1.440551,3.5894 -0.454372,1.0288 -0.9178,1.8141 -1.223612,2.0609 -1.121457,0.9051 -1.956193,1.1607 -2.485379,1.0389 -0.52919,-0.1218 -0.911104,-0.6164 -1.126288,-1.5589 -0.430372,-1.885 -0.01076,-5.3218 1.283205,-9.2037 1.334344,-4.003 0.349157,-6.79998 -1.615477,-8.15239 -0.982314,-0.67621 -2.184429,-0.99288 -3.428598,-0.95308 z"
         style="color:#000000;font-style:normal;font-variant:normal;font-weight:normal;font-stretch:normal;font-size:medium;line-height:normal;font-family:sans-serif;text-indent:0;text-align:start;text-decoration:none;text-decoration-line:none;text-decoration-style:solid;text-decoration-color:#000000;letter-spacing:normal;word-spacing:normal;text-transform:none;direction:ltr;writing-mode:lr-tb;baseline-shift:baseline;text-anchor:start;white-space:normal;clip-rule:nonzero;display:inline;overflow:visible;visibility:visible;opacity:1;isolation:auto;mix-blend-mode:normal;color-interpolation:sRGB;color-interpolation-filters:linearRGB;solid-color:#000000;solid-opacity:1;fill:#d4825e;fill-opacity:1;fill-rule:nonzero;stroke:none;stroke-width:3;stroke-linecap:butt;stroke-linejoin:miter;stroke-miterlimit:4;stroke-dasharray:none;stroke-dashoffset:0;stroke-opacity:1;color-rendering:auto;image-rendering:auto;shape-rendering:auto;text-rendering:auto;enable-background:accumulate" />
      <path
         id="path4998"
         d="m 19.171138,994.85303 -0.0099,0.82446 19.56749,13.99861 19.561919,-14.02862 -0.0043,-0.79445 z m 46.975699,0 -0.0094,0.82446 19.567062,13.99861 19.561921,-14.02862 -0.004,-0.79445 z"
         style="fill:#fbc968;fill-opacity:1;stroke:none;stroke-width:0.99999994px;stroke-linecap:butt;stroke-linejoin:miter;stroke-opacity:1" />
      <path
         id="path4996"
         d="m 19.171138,994.85303 19.55763,13.96947 19.557632,-13.96947 z m 46.975699,0 19.55763,13.96947 19.557633,-13.96947 z"
         style="fill:#ffefa4;fill-opacity:1;stroke:none;stroke-width:0.99999994px;stroke-linecap:butt;stroke-linejoin:miter;stroke-opacity:1" />
      <path
         id="path5188"
         d="m 58.261368,989.54966 c -4.768406,0.18377 -10.562293,3.94266 -13.856194,11.31864 -2.548063,5.7059 -7.145435,8.1721 -9.889415,8.0113 -1.371985,-0.081 -2.214607,-0.6099 -2.663966,-1.7792 -0.449359,-1.1691 -0.411613,-3.2314 0.899339,-6.1932 1.458459,-3.29505 1.554464,-6.11245 0.406722,-8.17826 -1.147743,-2.06581 -3.441575,-3.08712 -5.895081,-3.09176 -4.907011,-0.009 -10.928845,3.63183 -14.215924,10.99942 a 1.3218176,1.3218176 0 1 0 2.412799,1.0776 c 2.923849,-6.55349 8.257305,-9.44078 11.798262,-9.4341 1.770483,0 2.97395,0.62639 3.589229,1.73382 0.615279,1.10744 0.74091,2.99301 -0.512054,5.82377 -1.482004,3.34831 -1.764153,6.09541 -0.951184,8.21071 0.812959,2.1153 2.814433,3.3443 4.976305,3.4709 4.323744,0.2533 9.554382,-3.0719 12.457767,-9.5734 2.95302,-6.61265 8.141318,-9.62385 11.543864,-9.7549 1.701274,-0.0659 2.825015,0.47687 3.410974,1.481 0.585969,1.00423 0.737624,2.78585 -0.414823,5.51269 -1.449567,3.42991 -1.365674,6.44741 -0.105323,8.67251 1.260341,2.225 3.585776,3.5181 6.117077,3.8598 5.062593,0.6836 11.260676,-2.3297 13.481873,-9.2882 2.293823,-7.18604 7.204975,-10.10248 10.484118,-9.9834 1.639563,0.0594 2.842667,0.75057 3.529263,2.11621 0.686587,1.36573 0.844247,3.59554 -0.322466,6.74739 -1.307444,3.5322 -1.379745,6.2805 -0.223622,8.2415 1.156151,1.961 3.454259,2.6891 5.739542,2.4533 4.57054,-0.4716 9.9556,-4.2202 12.61495,-10.2572 a 1.3218176,1.3218176 0 1 0 -2.41929,-1.0646 c -2.27419,5.1627 -7.19581,8.3544 -10.46628,8.6919 -1.635238,0.1687 -2.641302,-0.2307 -3.192216,-1.1651 -0.550921,-0.9344 -0.733027,-2.8493 0.426165,-5.9809 1.334591,-3.60551 1.325264,-6.62411 0.204168,-8.85401 -1.121084,-2.2299 -3.367025,-3.48175 -5.792993,-3.56983 -4.851947,-0.17616 -10.537197,3.79397 -13.099469,11.82104 -1.858358,5.8218 -6.846024,7.98 -10.610491,7.4717 -1.882238,-0.2541 -3.380086,-1.1462 -4.170957,-2.5425 -0.790879,-1.3962 -0.986202,-3.4359 0.241442,-6.3406 1.348077,-3.18979 1.412507,-5.90287 0.2625,-7.87364 -1.150006,-1.97077 -3.410408,-2.88228 -5.794611,-2.7904 z"
         style="color:#000000;font-style:normal;font-variant:normal;font-weight:normal;font-stretch:normal;font-size:medium;line-height:normal;font-family:sans-serif;text-indent:0;text-align:start;text-decoration:none;text-decoration-line:none;text-decoration-style:solid;text-decoration-color:#000000;letter-spacing:normal;word-spacing:normal;text-transform:none;direction:ltr;writing-mode:lr-tb;baseline-shift:baseline;text-anchor:start;white-space:normal;clip-rule:nonzero;display:inline;overflow:visible;visibility:visible;opacity:1;isolation:auto;mix-blend-mode:normal;color-interpolation:sRGB;color-interpolation-filters:linearRGB;solid-color:#000000;solid-opacity:1;fill:#f4cda1;fill-opacity:1;fill-rule:nonzero;stroke:none;stroke-width:3.1861124;stroke-linecap:round;stroke-linejoin:miter;stroke-miterlimit:4;stroke-dasharray:none;stroke-dashoffset:0;stroke-opacity:1;color-rendering:auto;image-rendering:auto;shape-rendering:auto;text-rendering:auto;enable-background:accumulate" />
      <path
         id="ellipse4776"
         d="m 26.027137,983.74721 c -6.546312,0.0853 -11.178458,3.17745 -12.102349,8.15112 -0.936607,5.04214 4.87185,11.09457 13.138602,12.63007 8.266749,1.5356 15.911337,-2.2964 16.797859,-7.06894 1.217616,-6.55492 -4.211034,-11.64111 -13.018126,-13.27709 -1.69253,-0.31439 -3.3053,-0.45486 -4.815986,-0.43516 z m 32.926889,0 c -6.546311,0.0853 -11.178456,3.17745 -12.102347,8.15112 -0.936607,5.04214 4.871849,11.09457 13.138601,12.63007 8.266749,1.5356 15.911338,-2.2964 16.797859,-7.06894 1.217615,-6.55492 -4.211033,-11.64111 -13.018126,-13.27709 -1.69253,-0.31439 -3.3053,-0.45486 -4.815987,-0.43516 z m 32.926891,0 c -6.546312,0.0853 -11.178458,3.17745 -12.102349,8.15112 -0.936607,5.04214 4.87185,11.09457 13.138602,12.63007 8.26675,1.5356 15.91134,-2.2964 16.79786,-7.06894 1.21761,-6.55492 -4.21103,-11.64111 -13.018128,-13.27709 -1.692529,-0.31439 -3.305299,-0.45486 -4.815985,-0.43516 z"
         style="fill:#e84438;fill-opacity:1;stroke:none;stroke-width:9.93053913;stroke-linecap:butt;stroke-linejoin:miter;stroke-miterlimit:4;stroke-dasharray:none;stroke-opacity:1" />
      <path
         id="path4759"
         d="m 26.880749,984.2111 a 14.706403,9.3546655 10.523099 0 0 -12.237828,6.89493 14.706403,9.3546655 10.523099 0 0 12.750596,11.88327 14.706403,9.3546655 10.523099 0 0 16.167617,-6.51165 14.706403,9.3546655 10.523099 0 0 -12.750595,-11.88326 14.706403,9.3546655 10.523099 0 0 -3.92979,-0.38329 z m 32.92689,0 a 14.706403,9.3546655 10.523099 0 0 -12.237828,6.89493 14.706403,9.3546655 10.523099 0 0 12.750595,11.88327 14.706403,9.3546655 10.523099 0 0 16.167618,-6.51165 14.706403,9.3546655 10.523099 0 0 -12.750595,-11.88326 14.706403,9.3546655 10.523099 0 0 -3.92979,-0.38329 z m 32.92689,0 a 14.706403,9.3546655 10.523099 0 0 -12.237828,6.89493 14.706403,9.3546655 10.523099 0 0 12.750596,11.88327 14.706403,9.3546655 10.523099 0 0 16.167613,-6.51165 14.706403,9.3546655 10.523099 0 0 -12.750592,-11.88326 14.706403,9.3546655 10.523099 0 0 -3.929789,-0.38329 z"
         style="fill:#f37567;fill-opacity:1;stroke:none;stroke-width:9.13617992;stroke-linecap:butt;stroke-linejoin:miter;stroke-miterlimit:4;stroke-dasharray:none;stroke-opacity:1" />
      <path
         id="path4779"
         d="m 25.440197,985.65294 c -0.927025,-0.0129 -1.961463,0.17796 -3.014439,0.57064 -5.821805,1.51268 -9.780678,9.79904 4.036545,6.58324 l -1.83113,-1.10957 0.06217,-0.74686 0.727563,-0.11575 0.149201,-0.54193 0.679117,0.002 0.306117,-0.4416 0.745998,0.10976 1.185026,1.37753 c 1.549611,-3.77371 -0.265088,-5.64829 -3.046166,-5.68718 z m 32.92689,0 c -0.927025,-0.0129 -1.961464,0.17796 -3.014439,0.57064 -5.821805,1.51268 -9.78068,9.79904 4.036545,6.58324 l -1.83113,-1.10957 0.06217,-0.74686 0.727564,-0.11575 0.1492,-0.54193 0.679117,0.002 0.306118,-0.4416 0.745999,0.10976 1.185025,1.37753 c 1.549611,-3.77371 -0.265089,-5.64829 -3.046166,-5.68718 z m 32.92689,0 c -0.927025,-0.0129 -1.961463,0.17796 -3.014439,0.57064 -5.821805,1.51268 -9.780678,9.79904 4.036545,6.58324 l -1.83113,-1.10957 0.06217,-0.74686 0.727563,-0.11575 0.149201,-0.54193 0.679117,0.002 0.306117,-0.4416 0.745998,0.10976 1.185026,1.37753 c 1.549609,-3.77371 -0.265088,-5.64829 -3.046166,-5.68718 z m -57.597619,1.50186 c -1.909716,-0.0506 -3.378041,1.31024 -3.30598,4.53902 l 1.60047,-0.86004 0.73571,0.16549 0.127334,0.52177 0.634529,0.24267 -0.05574,0.5595 0.63753,0.36914 -0.21008,0.71941 -2.107664,0.37815 c 11.740458,7.96309 11.021734,-1.19244 6.131775,-4.69508 l -4.39e-4,0 c -1.367715,-1.2099 -2.880891,-1.90538 -4.18746,-1.94003 z m 32.92689,0 c -1.909716,-0.0506 -3.37804,1.31024 -3.30598,4.53902 l 1.60047,-0.86004 0.73571,0.16549 0.127334,0.52177 0.634529,0.24267 -0.05574,0.5595 0.63753,0.36914 -0.21008,0.71941 -2.107664,0.37815 c 11.740458,7.96309 11.021734,-1.19244 6.131775,-4.69508 l -4.39e-4,0 c -1.367715,-1.2099 -2.880891,-1.90538 -4.18746,-1.94003 z m 32.92689,0 c -1.909715,-0.0506 -3.37804,1.31024 -3.30598,4.53902 l 1.600471,-0.86004 0.735709,0.16549 0.127335,0.52177 0.634528,0.24267 -0.05573,0.5595 0.637529,0.36914 -0.210081,0.71941 -2.107663,0.37815 c 11.740454,7.96309 11.021734,-1.19244 6.131774,-4.69508 l -4.4e-4,0 c -1.36772,-1.2099 -2.8809,-1.90538 -4.187458,-1.94003 z m -72.197779,6.88463 c -13.004478,1.18686 -7.430502,6.32307 0.25724,7.50027 7.687739,1.1772 13.824936,-0.6946 3.017012,-7.00336 l -0.320265,1.69908 -0.518342,0.35585 -0.490473,-0.43603 -0.675259,0.29797 -0.460891,-0.48918 -0.592083,0.19121 -0.477183,-0.35328 z m 32.926889,0 c -13.004478,1.18686 -7.430501,6.32307 0.257241,7.50027 7.687739,1.1772 13.824936,-0.6946 3.017012,-7.00336 l -0.320265,1.69908 -0.518342,0.35585 -0.490473,-0.43603 -0.675259,0.29797 -0.46089,-0.48918 -0.592084,0.19121 -0.477183,-0.35328 z m 32.926891,0 c -13.004478,1.18686 -7.430502,6.32307 0.25724,7.50027 7.687741,1.1772 13.824941,-0.6946 3.017012,-7.00336 l -0.320265,1.69908 -0.518342,0.35585 -0.490472,-0.43603 -0.67526,0.29797 -0.460891,-0.48918 -0.592083,0.19121 -0.477183,-0.35328 z"
         style="fill:#eb3d00;fill-opacity:1;stroke:none;stroke-width:0.95649463px;stroke-linecap:butt;stroke-linejoin:miter;stroke-opacity:1" />
      <path
         id="path4781"
         d="m 24.358499,987.56338 a 0.78735985,0.37493323 52.682601 0 0 -0.03087,4.4e-4 0.78735985,0.37493323 52.682601 0 0 -0.109757,0.039 0.78735985,0.37493323 52.682601 0 0 0.179213,0.85361 0.78735985,0.37493323 52.682601 0 0 0.775581,0.39872 0.78735985,0.37493323 52.682601 0 0 -0.179212,-0.85318 0.78735985,0.37493323 52.682601 0 0 -0.634955,-0.4386 z m 32.926888,0 a 0.78735985,0.37493323 52.682601 0 0 -0.03087,4.4e-4 0.78735985,0.37493323 52.682601 0 0 -0.109757,0.039 0.78735985,0.37493323 52.682601 0 0 0.179212,0.85361 0.78735985,0.37493323 52.682601 0 0 0.775582,0.39872 0.78735985,0.37493323 52.682601 0 0 -0.179211,-0.85318 0.78735985,0.37493323 52.682601 0 0 -0.634958,-0.4386 z m 32.926892,0 a 0.78735985,0.37493323 52.682601 0 0 -0.03087,4.4e-4 0.78735985,0.37493323 52.682601 0 0 -0.109757,0.039 0.78735985,0.37493323 52.682601 0 0 0.179213,0.85361 0.78735985,0.37493323 52.682601 0 0 0.775581,0.39872 0.78735985,0.37493323 52.682601 0 0 -0.179212,-0.85318 0.78735985,0.37493323 52.682601 0 0 -0.634955,-0.4386 z m -66.855737,0.76358 a 0.78735985,0.37493323 52.682601 0 0 -0.03087,4.4e-4 0.78735985,0.37493323 52.682601 0 0 -0.109756,0.0394 0.78735985,0.37493323 52.682601 0 0 0.17921,0.85319 0.78735985,0.37493323 52.682601 0 0 0.775584,0.39915 0.78735985,0.37493323 52.682601 0 0 -0.179212,-0.85361 0.78735985,0.37493323 52.682601 0 0 -0.634958,-0.4386 z m 32.926891,0 a 0.78735985,0.37493323 52.682601 0 0 -0.03087,4.4e-4 0.78735985,0.37493323 52.682601 0 0 -0.109757,0.0394 0.78735985,0.37493323 52.682601 0 0 0.179212,0.85319 0.78735985,0.37493323 52.682601 0 0 0.775582,0.39915 0.78735985,0.37493323 52.682601 0 0 -0.179211,-0.85362 0.78735985,0.37493323 52.682601 0 0 -0.634957,-0.4386 z m 32.926889,0 a 0.78735985,0.37493323 52.682601 0 0 -0.03087,4.4e-4 0.78735985,0.37493323 52.682601 0 0 -0.109756,0.0394 0.78735985,0.37493323 52.682601 0 0 0.17921,0.85319 0.78735985,0.37493323 52.682601 0 0 0.775584,0.39915 0.78735985,0.37493323 52.682601 0 0 -0.179212,-0.85361 0.78735985,0.37493323 52.682601 0 0 -0.634958,-0.4386 z m -66.855734,0.76401 a 0.78735985,0.37493323 52.682601 0 0 -0.03087,4.4e-4 0.78735985,0.37493323 52.682601 0 0 -0.109326,0.039 0.78735985,0.37493323 52.682601 0 0 0.178782,0.85362 0.78735985,0.37493323 52.682601 0 0 0.775582,0.39872 0.78735985,0.37493323 52.682601 0 0 -0.17921,-0.85361 0.78735985,0.37493323 52.682601 0 0 -0.634958,-0.43817 z m 32.92689,0 a 0.78735985,0.37493323 52.682601 0 0 -0.03087,4.4e-4 0.78735985,0.37493323 52.682601 0 0 -0.109328,0.039 0.78735985,0.37493323 52.682601 0 0 0.178783,0.85362 0.78735985,0.37493323 52.682601 0 0 0.775582,0.39872 0.78735985,0.37493323 52.682601 0 0 -0.179211,-0.85361 0.78735985,0.37493323 52.682601 0 0 -0.634957,-0.43817 z m 32.92689,0 a 0.78735985,0.37493323 52.682601 0 0 -0.03087,4.4e-4 0.78735985,0.37493323 52.682601 0 0 -0.109326,0.039 0.78735985,0.37493323 52.682601 0 0 0.178782,0.85362 0.78735985,0.37493323 52.682601 0 0 0.775582,0.39872 0.78735985,0.37493323 52.682601 0 0 -0.17921,-0.85361 0.78735985,0.37493323 52.682601 0 0 -0.634958,-0.43817 z m -52.809501,0.3044 a 0.37493324,0.78735983 58.363596 0 0 -0.582652,0.20236 0.37493324,0.78735983 58.363596 0 0 -0.473753,0.73228 0.37493324,0.78735983 58.363596 0 0 0.867332,-0.0939 0.37493324,0.78735983 58.363596 0 0 0.473753,-0.73228 0.37493324,0.78735983 58.363596 0 0 -0.28468,-0.10847 z m 32.92689,0 a 0.37493324,0.78735983 58.363596 0 0 -0.582652,0.20236 0.37493324,0.78735983 58.363596 0 0 -0.473753,0.73228 0.37493324,0.78735983 58.363596 0 0 0.867332,-0.0939 0.37493324,0.78735983 58.363596 0 0 0.473753,-0.73228 0.37493324,0.78735983 58.363596 0 0 -0.28468,-0.10847 z m 32.926893,0 a 0.37493324,0.78735983 58.363596 0 0 -0.58266,0.20236 0.37493324,0.78735983 58.363596 0 0 -0.47375,0.73228 0.37493324,0.78735983 58.363596 0 0 0.86733,-0.0939 0.37493324,0.78735983 58.363596 0 0 0.47376,-0.73228 0.37493324,0.78735983 58.363596 0 0 -0.28468,-0.10847 z m -65.192673,1.0727 a 0.37493324,0.78735983 58.363596 0 0 -0.582652,0.20236 0.37493324,0.78735983 58.363596 0 0 -0.473753,0.73228 0.37493324,0.78735983 58.363596 0 0 0.866904,-0.0939 0.37493324,0.78735983 58.363596 0 0 0.473753,-0.73228 0.37493324,0.78735983 58.363596 0 0 -0.284252,-0.10847 z m 32.92689,0 a 0.37493324,0.78735983 58.363596 0 0 -0.582652,0.20236 0.37493324,0.78735983 58.363596 0 0 -0.473753,0.73228 0.37493324,0.78735983 58.363596 0 0 0.866904,-0.0939 0.37493324,0.78735983 58.363596 0 0 0.473753,-0.73228 0.37493324,0.78735983 58.363596 0 0 -0.284252,-0.10847 z m 32.926893,0 a 0.37493324,0.78735983 58.363596 0 0 -0.58265,0.20236 0.37493324,0.78735983 58.363596 0 0 -0.47376,0.73228 0.37493324,0.78735983 58.363596 0 0 0.8669,-0.0939 0.37493324,0.78735983 58.363596 0 0 0.47376,-0.73228 0.37493324,0.78735983 58.363596 0 0 -0.28425,-0.10847 z m -65.193102,1.07269 a 0.37493324,0.78735983 58.363596 0 0 -0.582651,0.20194 0.37493324,0.78735983 58.363596 0 0 -0.473753,0.73228 0.37493324,0.78735983 58.363596 0 0 0.866903,-0.0935 0.37493324,0.78735983 58.363596 0 0 0.473753,-0.73228 0.37493324,0.78735983 58.363596 0 0 -0.284252,-0.10847 z m 32.92689,0 a 0.37493324,0.78735983 58.363596 0 0 -0.582651,0.20194 0.37493324,0.78735983 58.363596 0 0 -0.473753,0.73228 0.37493324,0.78735983 58.363596 0 0 0.866903,-0.0935 0.37493324,0.78735983 58.363596 0 0 0.473753,-0.73228 0.37493324,0.78735983 58.363596 0 0 -0.284252,-0.10847 z m 32.926892,0 a 0.37493324,0.78735983 58.363596 0 0 -0.58265,0.20194 0.37493324,0.78735983 58.363596 0 0 -0.47376,0.73228 0.37493324,0.78735983 58.363596 0 0 0.86691,-0.0935 0.37493324,0.78735983 58.363596 0 0 0.47375,-0.73228 0.37493324,0.78735983 58.363596 0 0 -0.28425,-0.10847 z m -75.623379,5.95385 a 0.37493323,0.78735986 9.8698065 0 0 -0.466892,0.71385 0.37493323,0.78735986 9.8698065 0 0 0.234518,0.83989 0.37493323,0.78735986 9.8698065 0 0 0.504192,-0.71127 0.37493323,0.78735986 9.8698065 0 0 -0.234518,-0.84032 0.37493323,0.78735986 9.8698065 0 0 -0.0373,-0.002 z m 32.92689,0 a 0.37493323,0.78735986 9.8698065 0 0 -0.466893,0.71385 0.37493323,0.78735986 9.8698065 0 0 0.234519,0.83989 0.37493323,0.78735986 9.8698065 0 0 0.504193,-0.71127 0.37493323,0.78735986 9.8698065 0 0 -0.234519,-0.84032 0.37493323,0.78735986 9.8698065 0 0 -0.0373,-0.002 z m 32.92689,0 a 0.37493323,0.78735986 9.8698065 0 0 -0.466892,0.71385 0.37493323,0.78735986 9.8698065 0 0 0.234518,0.83989 0.37493323,0.78735986 9.8698065 0 0 0.504192,-0.71127 0.37493323,0.78735986 9.8698065 0 0 -0.234518,-0.84032 0.37493323,0.78735986 9.8698065 0 0 -0.0373,-0.002 z m -64.61259,0.21566 a 0.37493323,0.78735986 9.8698065 0 0 -0.466892,0.71427 0.37493323,0.78735986 9.8698065 0 0 0.234516,0.83989 0.37493323,0.78735986 9.8698065 0 0 0.504194,-0.7117 0.37493323,0.78735986 9.8698065 0 0 -0.234518,-0.83989 0.37493323,0.78735986 9.8698065 0 0 -0.0373,-0.002 z m 32.92689,0 a 0.37493323,0.78735986 9.8698065 0 0 -0.466893,0.71427 0.37493323,0.78735986 9.8698065 0 0 0.234518,0.83989 0.37493323,0.78735986 9.8698065 0 0 0.504193,-0.7117 0.37493323,0.78735986 9.8698065 0 0 -0.234518,-0.83989 0.37493323,0.78735986 9.8698065 0 0 -0.0373,-0.002 z m 32.92689,0 a 0.37493323,0.78735986 9.8698065 0 0 -0.466892,0.71427 0.37493323,0.78735986 9.8698065 0 0 0.234516,0.83989 0.37493323,0.78735986 9.8698065 0 0 0.504194,-0.7117 0.37493323,0.78735986 9.8698065 0 0 -0.234518,-0.83989 0.37493323,0.78735986 9.8698065 0 0 -0.0373,-0.002 z m -64.61302,0.21608 a 0.37493323,0.78735986 9.8698065 0 0 -0.466464,0.71384 0.37493323,0.78735986 9.8698065 0 0 0.23409,0.8399 0.37493323,0.78735986 9.8698065 0 0 0.504622,-0.71127 0.37493323,0.78735986 9.8698065 0 0 -0.234519,-0.8399 0.37493323,0.78735986 9.8698065 0 0 -0.03773,-0.002 z m 32.92689,0 a 0.37493323,0.78735986 9.8698065 0 0 -0.466464,0.71384 0.37493323,0.78735986 9.8698065 0 0 0.23409,0.8399 0.37493323,0.78735986 9.8698065 0 0 0.504622,-0.71127 0.37493323,0.78735986 9.8698065 0 0 -0.234519,-0.8399 0.37493323,0.78735986 9.8698065 0 0 -0.03773,-0.002 z m 32.92689,0 a 0.37493323,0.78735986 9.8698065 0 0 -0.466464,0.71384 0.37493323,0.78735986 9.8698065 0 0 0.23409,0.8399 0.37493323,0.78735986 9.8698065 0 0 0.504622,-0.71127 0.37493323,0.78735986 9.8698065 0 0 -0.234518,-0.8399 0.37493323,0.78735986 9.8698065 0 0 -0.03773,-0.002 z"
         style="fill:#ffc182;fill-opacity:1;stroke:none;stroke-width:11.36445427;stroke-linecap:butt;stroke-linejoin:miter;stroke-miterlimit:4;stroke-dasharray:none;stroke-opacity:1" />
      <path
         id="path5078"
         d="m 43.407194,974.85206 c -2.509027,0.0431 -5.210176,1.34106 -7.175747,3.89207 -2.485997,3.22644 0.0281,5.37551 0.874192,8.09109 0.481549,1.54556 -0.329929,3.32839 -1.400679,4.95747 -1.671842,-0.62224 -2.897211,-1.39857 -3.37715,-2.66673 -0.631863,-1.66962 -0.115513,-6.00093 -5.390921,-7.89946 -5.232043,-1.88292 -11.408536,0.0978 -12.779749,3.6061 -1.417272,3.62613 1.691263,8.59483 7.736533,11.02536 4.778675,1.9213 6.223307,-1.05862 9.020167,-2.44293 1.01002,-0.49992 2.348392,-0.48659 3.788308,-0.21094 -0.463987,0.61355 -0.921294,1.18438 -1.299069,1.67979 l 1.69865,1.13443 c 0.48418,-0.81985 0.914132,-1.62602 1.326079,-2.38205 1.932225,0.57709 3.886758,1.43172 5.365198,2.01934 l 0.607088,-1.95203 c -1.879737,-0.55039 -3.665059,-0.96505 -5.208279,-1.42083 1.025763,-1.72585 2.054493,-2.92992 3.633963,-2.89097 0.833698,0.0206 2.262833,0.51374 3.799882,0.50205 -1.396195,1.94097 -2.03551,4.10106 -1.544304,5.86768 1.042955,3.75097 6.511859,5.8587 12.805902,4.17417 4.975327,-1.33162 4.341968,-4.58186 5.748056,-7.36782 0.728566,-1.44356 2.632724,-2.4462 4.731526,-3.20094 -0.707742,1.6458 -1.181512,3.74556 0.607946,5.90969 2.802849,3.38967 8.475874,4.04524 11.46096,1.74795 3.085359,-2.37446 3.585172,-7.45336 0.490044,-11.57286 -2.446639,-3.25638 -5.18863,-1.4062 -8.031503,-1.31493 -2.764733,0.0888 -5.195633,-3.64112 -6.770162,-5.71504 l -1.54602,1.33465 c 2.773346,2.87506 5.610132,4.81209 4.860145,7.28379 -0.03128,0.10309 -0.07397,0.2147 -0.123476,0.33227 -2.983058,1.20107 -5.394204,2.01224 -7.123013,0.91578 -1.50754,-0.95615 -3.694214,-4.73017 -9.05318,-3.08218 -0.433272,0.13324 -0.854865,0.29307 -1.265626,0.47204 1.175817,-3.44209 0.147023,-7.66428 -2.357616,-9.54838 -1.166725,-0.87765 -2.602728,-1.30349 -4.108145,-1.27763 z m 41.688101,0.83046 c -1.738373,0.0386 -3.279903,0.54037 -4.297644,1.51987 -2.80515,2.69975 -2.06215,8.51326 2.410351,13.25136 3.535428,3.74537 6.094882,1.64431 9.214384,1.55803 1.893402,-0.0524 4.022369,1.59762 5.907117,3.42559 -0.66601,1.0296 -1.472084,1.9926 -2.0575,2.75291 l 1.429832,0.96466 c 0.585346,-0.98065 1.080046,-1.93397 1.564884,-2.77606 0.772281,0.79672 1.485861,1.57854 2.097801,2.2217 l 1.36853,-1.51858 c -0.87374,-0.76137 -1.7328,-1.46152 -2.54412,-2.12953 0.66441,-0.86092 1.39458,-1.39936 2.37262,-1.37066 1.37381,0.0403 4.65482,1.61394 6.81433,-1.4457 2.14176,-3.03448 1.41992,-7.80275 -1.113,-9.72672 -2.61802,-1.9886 -6.86716,-1.27126 -9.538939,2.16297 -2.11199,2.7147 0.0023,4.5393 0.706128,6.83576 0.253546,0.82737 0.06894,1.73356 -0.330986,2.635 -2.170696,-1.84235 -3.728445,-3.45985 -3.596661,-5.33518 0.125146,-1.78079 2.407171,-5.49781 -1.588894,-9.43047 -2.47701,-2.4377 -5.920946,-3.65928 -8.818233,-3.59495 z"
         style="fill:#76b010;fill-opacity:1;stroke:none;stroke-width:0.99999994px;stroke-linecap:butt;stroke-linejoin:miter;stroke-opacity:1" />
      <path
         id="path5080"
         d="m 46.28744,978.12889 c -1.902695,3.25075 -4.06075,6.38435 -6.308416,9.1728 3.529253,-1.64913 5.688482,-7.06177 6.308416,-9.1728 z m 36.716053,1.04997 c 3.591549,3.11007 7.037508,6.46455 10.08815,9.81076 -1.696493,-4.40368 -7.725665,-8.46966 -10.08815,-9.81076 z m 24.214557,4.91374 c -1.61953,2.73754 -3.45405,5.37531 -5.36305,7.7211 2.98673,-1.37865 4.83122,-5.94092 5.36305,-7.7211 z m -90.230398,1.61162 c 4.563672,1.32084 9.09763,2.92477 13.268937,4.68651 -3.384233,-3.28899 -10.562002,-4.45762 -13.268937,-4.68651 z m 52.690742,1.07784 c 0.64824,3.84122 5.288905,7.36539 7.158167,8.52583 -2.62563,-2.70069 -5.070098,-5.61595 -7.158167,-8.52583 z m -11.74221,3.69227 c -4.494424,0.085 -9.981012,2.97822 -12.06762,4.28478 4.442953,-1.68282 9.032083,-3.12151 13.425854,-4.21618 -0.438839,-0.0562 -0.893293,-0.0774 -1.358234,-0.0686 z"
         style="fill:#97c73d;fill-opacity:1;stroke:none;stroke-width:0.99999994px;stroke-linecap:butt;stroke-linejoin:miter;stroke-opacity:1" />
      <path
         id="path5263-2"
         d="m 47.341983,980.75071 c -5.423564,0.0203 -12.480655,2.30446 -15.927955,4.15573 l 1.546021,3.42946 c 3.950279,-1.54618 9.534602,-3.79387 15.137794,-3.74243 z m 30.731764,0 c -5.423565,0.0203 -12.480654,2.30446 -15.927955,4.15573 l 1.546021,3.42946 c 3.950279,-1.54618 9.534602,-3.79387 15.137795,-3.74243 z m 30.731763,0 c -5.42356,0.0203 -12.480653,2.30446 -15.927954,4.15573 l 1.546021,3.42946 c 3.950279,-1.54618 9.534603,-3.79387 15.137793,-3.74243 z"
         style="fill:#9bc10c;fill-opacity:1;stroke:none;stroke-width:0.87229121px;stroke-linecap:butt;stroke-linejoin:miter;stroke-opacity:1" />
      <path
         id="path5263"
         d="m 16.156616,975.25518 -3.769871,2.43907 c 2.328282,5.76527 7.761154,12.30661 11.198143,15.18925 l 2.993432,-3.10448 c -3.326116,-3.54786 -8.093421,-8.53683 -10.421704,-14.52384 z m 30.731764,0 -3.769871,2.43907 c 2.328282,5.76527 7.761153,12.30661 11.198143,15.18925 l 2.993431,-3.10448 c -3.326116,-3.54786 -8.09342,-8.53683 -10.421703,-14.52384 z m 30.731764,0 -3.769872,2.43907 c 2.328283,5.76527 7.761154,12.30661 11.198144,15.18925 l 2.993431,-3.10448 c -3.326116,-3.54786 -8.09342,-8.53683 -10.421703,-14.52384 z"
         style="fill:#a8c723;fill-opacity:1;stroke:none;stroke-width:0.99999994px;stroke-linecap:butt;stroke-linejoin:miter;stroke-opacity:1" />
      <path
         id="path5263-7"
         d="m 30.25044,979.22827 c -4.130973,3.92719 -9.843494,6.13215 -13.854161,7.7241 l 1.2309,3.62324 c 3.848384,-1.01598 10.681149,-4.21589 14.728352,-7.96505 z m 30.731764,0 c -4.130972,3.92719 -9.843493,6.13215 -13.854161,7.7241 l 1.2309,3.62324 c 3.848384,-1.01598 10.681148,-4.21589 14.728352,-7.96505 z m 30.731764,0 c -4.130972,3.92719 -9.843493,6.13215 -13.85416,7.7241 l 1.2309,3.62324 c 3.848383,-1.01598 10.681147,-4.21589 14.728351,-7.96505 z"
         style="fill:#d4e683;fill-opacity:1;stroke:none;stroke-width:0.88729411px;stroke-linecap:butt;stroke-linejoin:miter;stroke-opacity:1" />
      <path
         id="path5263-7-5-5"
         d="m 37.017602,975.86055 c -2.171519,4.2141 -4.993287,10.21085 -7.3511,14.91571 l 3.286258,2.56899 c 2.432429,-5.78609 4.611575,-10.25874 7.692802,-15.68272 z m 30.731763,0 c -2.171517,4.2141 -4.993286,10.21085 -7.351099,14.91571 l 3.286257,2.56899 c 2.43243,-5.78609 4.611576,-10.25874 7.692804,-15.68272 z m 30.731764,0 c -2.171517,4.2141 -4.993286,10.21085 -7.351099,14.91571 l 3.286257,2.56899 c 2.43243,-5.78609 4.611576,-10.25874 7.692803,-15.68272 z"
         style="fill:#e6f2aa;fill-opacity:1;stroke:none;stroke-width:0.90226007px;stroke-linecap:butt;stroke-linejoin:miter;stroke-opacity:1" />
      <path
         id="path5263-7-5"
         d="m 24.905394,979.15367 -2.391487,2.75763 c 4.55539,2.55427 8.03028,6.95871 10.508737,10.03927 l 2.839087,-2.05707 c -1.930337,-3.09428 -6.579467,-8.21075 -10.956337,-10.73983 z m 30.731764,0 -2.391486,2.75763 c 4.555389,2.55427 8.03028,6.95871 10.508735,10.03927 l 2.839088,-2.05707 c -1.930336,-3.09428 -6.579466,-8.21075 -10.956337,-10.73983 z m 30.731764,0 -2.391486,2.75763 c 4.555389,2.55427 8.03028,6.95871 10.508735,10.03927 l 2.839088,-2.05707 c -1.930336,-3.09428 -6.579466,-8.21075 -10.956337,-10.73983 z"
         style="fill:#c2de4d;fill-opacity:1;stroke:none;stroke-width:0.81301135px;stroke-linecap:butt;stroke-linejoin:miter;stroke-opacity:1" />
      <g
         id="g5393"
         transform="matrix(0.82965396,0,0,0.82965398,-9.1912007,775.14557)">
        <path
           style="fill:#48842c;fill-opacity:1;stroke:none;stroke-width:3.20668411;stroke-linecap:butt;stroke-linejoin:miter;stroke-miterlimit:4;stroke-dasharray:none;stroke-opacity:1"
           d="m 48.20089,250.36209 c -2.804477,4.33916 -9.199581,5.19288 -14.28386,1.90683 -5.084279,-3.28606 -6.932419,-9.46753 -4.127942,-13.8067 3.434259,-5.31358 9.70946,-4.75083 14.23257,-1.82747 4.410877,2.85083 7.634737,8.38089 4.179232,13.72734 z"
           id="ellipse4514" />
        <ellipse
           style="fill:#d7f4c6;fill-opacity:1;stroke:none;stroke-width:2.9104166;stroke-linecap:butt;stroke-linejoin:miter;stroke-miterlimit:4;stroke-dasharray:none;stroke-opacity:1"
           id="path4512"
           cx="165.3822"
           cy="183.40434"
           rx="10.394345"
           ry="8.1264877"
           transform="matrix(0.83985413,0.54281216,-0.54281216,0.83985413,0,0)" />
        <path
           style="fill:#fcfded;fill-opacity:1;stroke:none;stroke-width:11;stroke-linecap:butt;stroke-linejoin:miter;stroke-miterlimit:4;stroke-dasharray:none;stroke-opacity:1"
           d="m 152.84961,268.36719 a 1.3889597,3.5355339 32.875281 0 0 -2.70313,2.31054 1.3889597,3.5355339 32.875281 0 0 -0.75195,3.72266 1.3889597,3.5355339 32.875281 0 0 3.08594,-2.21484 1.3889597,3.5355339 32.875281 0 0 0.75195,-3.72461 1.3889597,3.5355339 32.875281 0 0 -0.38281,-0.0937 z m 4.4043,2.8457 a 1.3889597,3.5355339 32.875281 0 0 -2.70508,2.31055 1.3889597,3.5355339 32.875281 0 0 -0.75195,3.72265 1.3889597,3.5355339 32.875281 0 0 3.08593,-2.21484 1.3889597,3.5355339 32.875281 0 0 0.75196,-3.72461 1.3889597,3.5355339 32.875281 0 0 -0.38086,-0.0937 z m -15.22657,2.40625 a 1.5509779,3.8686425 77.426081 0 0 -2.2207,0.28711 1.5509779,3.8686425 77.426081 0 0 -3.11719,2.40039 1.5509779,3.8686425 77.426081 0 0 4.36133,0.49219 1.5509779,3.8686425 77.426081 0 0 3.11719,-2.40039 1.5509779,3.8686425 77.426081 0 0 -2.14063,-0.7793 z m 2.34571,5.45898 a 1.5509779,3.8686425 77.426081 0 0 -2.21875,0.28516 1.5509779,3.8686425 77.426081 0 0 -3.11914,2.40039 1.5509779,3.8686425 77.426081 0 0 4.36132,0.49219 1.5509779,3.8686425 77.426081 0 0 3.11914,-2.40039 1.5509779,3.8686425 77.426081 0 0 -2.14257,-0.77735 z m 11.62109,2.9629 a 3.868642,1.5509779 78.324481 0 0 -0.9082,3.82812 3.868642,1.5509779 78.324481 0 0 2.24023,3.77539 3.868642,1.5509779 78.324481 0 0 0.90625,-3.82812 3.868642,1.5509779 78.324481 0 0 -2.23828,-3.77539 z m -5.93945,0.10156 a 3.868642,1.5509779 78.324481 0 0 -0.90821,3.82812 3.868642,1.5509779 78.324481 0 0 2.24024,3.77539 3.868642,1.5509779 78.324481 0 0 0.90625,-3.82812 3.868642,1.5509779 78.324481 0 0 -2.23828,-3.77539 z"
           transform="matrix(0.26458333,0,0,0.26458333,0,169.99998)"
           id="path4517" />
      </g>
      <g
         transform="matrix(0.82965396,0,0,0.82965398,6.174682,775.14557)"
         id="g9228">
        <path
           id="path9222"
           d="m 48.20089,250.36209 c -2.804477,4.33916 -9.199581,5.19288 -14.28386,1.90683 -5.084279,-3.28606 -6.932419,-9.46753 -4.127942,-13.8067 3.434259,-5.31358 9.70946,-4.75083 14.23257,-1.82747 4.410877,2.85083 7.634737,8.38089 4.179232,13.72734 z"
           style="fill:#48842c;fill-opacity:1;stroke:none;stroke-width:3.20668411;stroke-linecap:butt;stroke-linejoin:miter;stroke-miterlimit:4;stroke-dasharray:none;stroke-opacity:1" />
        <ellipse
           transform="matrix(0.83985413,0.54281216,-0.54281216,0.83985413,0,0)"
           ry="8.1264877"
           rx="10.394345"
           cy="183.40434"
           cx="165.3822"
           id="ellipse9224"
           style="fill:#d7f4c6;fill-opacity:1;stroke:none;stroke-width:2.9104166;stroke-linecap:butt;stroke-linejoin:miter;stroke-miterlimit:4;stroke-dasharray:none;stroke-opacity:1" />
        <path
           id="path9226"
           transform="matrix(0.26458333,0,0,0.26458333,0,169.99998)"
           d="m 152.84961,268.36719 a 1.3889597,3.5355339 32.875281 0 0 -2.70313,2.31054 1.3889597,3.5355339 32.875281 0 0 -0.75195,3.72266 1.3889597,3.5355339 32.875281 0 0 3.08594,-2.21484 1.3889597,3.5355339 32.875281 0 0 0.75195,-3.72461 1.3889597,3.5355339 32.875281 0 0 -0.38281,-0.0937 z m 4.4043,2.8457 a 1.3889597,3.5355339 32.875281 0 0 -2.70508,2.31055 1.3889597,3.5355339 32.875281 0 0 -0.75195,3.72265 1.3889597,3.5355339 32.875281 0 0 3.08593,-2.21484 1.3889597,3.5355339 32.875281 0 0 0.75196,-3.72461 1.3889597,3.5355339 32.875281 0 0 -0.38086,-0.0937 z m -15.22657,2.40625 a 1.5509779,3.8686425 77.426081 0 0 -2.2207,0.28711 1.5509779,3.8686425 77.426081 0 0 -3.11719,2.40039 1.5509779,3.8686425 77.426081 0 0 4.36133,0.49219 1.5509779,3.8686425 77.426081 0 0 3.11719,-2.40039 1.5509779,3.8686425 77.426081 0 0 -2.14063,-0.7793 z m 2.34571,5.45898 a 1.5509779,3.8686425 77.426081 0 0 -2.21875,0.28516 1.5509779,3.8686425 77.426081 0 0 -3.11914,2.40039 1.5509779,3.8686425 77.426081 0 0 4.36132,0.49219 1.5509779,3.8686425 77.426081 0 0 3.11914,-2.40039 1.5509779,3.8686425 77.426081 0 0 -2.14257,-0.77735 z m 11.62109,2.9629 a 3.868642,1.5509779 78.324481 0 0 -0.9082,3.82812 3.868642,1.5509779 78.324481 0 0 2.24023,3.77539 3.868642,1.5509779 78.324481 0 0 0.90625,-3.82812 3.868642,1.5509779 78.324481 0 0 -2.23828,-3.77539 z m -5.93945,0.10156 a 3.868642,1.5509779 78.324481 0 0 -0.90821,3.82812 3.868642,1.5509779 78.324481 0 0 2.24024,3.77539 3.868642,1.5509779 78.324481 0 0 0.90625,-3.82812 3.868642,1.5509779 78.324481 0 0 -2.23828,-3.77539 z"
           style="fill:#fcfded;fill-opacity:1;stroke:none;stroke-width:11;stroke-linecap:butt;stroke-linejoin:miter;stroke-miterlimit:4;stroke-dasharray:none;stroke-opacity:1" />
      </g>
      <g
         id="g9236"
         transform="matrix(0.82965396,0,0,0.82965398,21.540562,775.14557)">
        <path
           style="fill:#48842c;fill-opacity:1;stroke:none;stroke-width:3.20668411;stroke-linecap:butt;stroke-linejoin:miter;stroke-miterlimit:4;stroke-dasharray:none;stroke-opacity:1"
           d="m 48.20089,250.36209 c -2.804477,4.33916 -9.199581,5.19288 -14.28386,1.90683 -5.084279,-3.28606 -6.932419,-9.46753 -4.127942,-13.8067 3.434259,-5.31358 9.70946,-4.75083 14.23257,-1.82747 4.410877,2.85083 7.634737,8.38089 4.179232,13.72734 z"
           id="path9230" />
        <ellipse
           style="fill:#d7f4c6;fill-opacity:1;stroke:none;stroke-width:2.9104166;stroke-linecap:butt;stroke-linejoin:miter;stroke-miterlimit:4;stroke-dasharray:none;stroke-opacity:1"
           id="ellipse9232"
           cx="165.3822"
           cy="183.40434"
           rx="10.394345"
           ry="8.1264877"
           transform="matrix(0.83985413,0.54281216,-0.54281216,0.83985413,0,0)" />
        <path
           style="fill:#fcfded;fill-opacity:1;stroke:none;stroke-width:11;stroke-linecap:butt;stroke-linejoin:miter;stroke-miterlimit:4;stroke-dasharray:none;stroke-opacity:1"
           d="m 152.84961,268.36719 a 1.3889597,3.5355339 32.875281 0 0 -2.70313,2.31054 1.3889597,3.5355339 32.875281 0 0 -0.75195,3.72266 1.3889597,3.5355339 32.875281 0 0 3.08594,-2.21484 1.3889597,3.5355339 32.875281 0 0 0.75195,-3.72461 1.3889597,3.5355339 32.875281 0 0 -0.38281,-0.0937 z m 4.4043,2.8457 a 1.3889597,3.5355339 32.875281 0 0 -2.70508,2.31055 1.3889597,3.5355339 32.875281 0 0 -0.75195,3.72265 1.3889597,3.5355339 32.875281 0 0 3.08593,-2.21484 1.3889597,3.5355339 32.875281 0 0 0.75196,-3.72461 1.3889597,3.5355339 32.875281 0 0 -0.38086,-0.0937 z m -15.22657,2.40625 a 1.5509779,3.8686425 77.426081 0 0 -2.2207,0.28711 1.5509779,3.8686425 77.426081 0 0 -3.11719,2.40039 1.5509779,3.8686425 77.426081 0 0 4.36133,0.49219 1.5509779,3.8686425 77.426081 0 0 3.11719,-2.40039 1.5509779,3.8686425 77.426081 0 0 -2.14063,-0.7793 z m 2.34571,5.45898 a 1.5509779,3.8686425 77.426081 0 0 -2.21875,0.28516 1.5509779,3.8686425 77.426081 0 0 -3.11914,2.40039 1.5509779,3.8686425 77.426081 0 0 4.36132,0.49219 1.5509779,3.8686425 77.426081 0 0 3.11914,-2.40039 1.5509779,3.8686425 77.426081 0 0 -2.14257,-0.77735 z m 11.62109,2.9629 a 3.868642,1.5509779 78.324481 0 0 -0.9082,3.82812 3.868642,1.5509779 78.324481 0 0 2.24023,3.77539 3.868642,1.5509779 78.324481 0 0 0.90625,-3.82812 3.868642,1.5509779 78.324481 0 0 -2.23828,-3.77539 z m -5.93945,0.10156 a 3.868642,1.5509779 78.324481 0 0 -0.90821,3.82812 3.868642,1.5509779 78.324481 0 0 2.24024,3.77539 3.868642,1.5509779 78.324481 0 0 0.90625,-3.82812 3.868642,1.5509779 78.324481 0 0 -2.23828,-3.77539 z"
           transform="matrix(0.26458333,0,0,0.26458333,0,169.99998)"
           id="path9234" />
      </g>
      <g
         transform="matrix(0.82965396,0,0,0.82965398,36.906445,775.14557)"
         id="g9260">
        <path
           id="path9254"
           d="m 48.20089,250.36209 c -2.804477,4.33916 -9.199581,5.19288 -14.28386,1.90683 -5.084279,-3.28606 -6.932419,-9.46753 -4.127942,-13.8067 3.434259,-5.31358 9.70946,-4.75083 14.23257,-1.82747 4.410877,2.85083 7.634737,8.38089 4.179232,13.72734 z"
           style="fill:#48842c;fill-opacity:1;stroke:none;stroke-width:3.20668411;stroke-linecap:butt;stroke-linejoin:miter;stroke-miterlimit:4;stroke-dasharray:none;stroke-opacity:1" />
        <ellipse
           transform="matrix(0.83985413,0.54281216,-0.54281216,0.83985413,0,0)"
           ry="8.1264877"
           rx="10.394345"
           cy="183.40434"
           cx="165.3822"
           id="ellipse9256"
           style="fill:#d7f4c6;fill-opacity:1;stroke:none;stroke-width:2.9104166;stroke-linecap:butt;stroke-linejoin:miter;stroke-miterlimit:4;stroke-dasharray:none;stroke-opacity:1" />
        <path
           id="path9258"
           transform="matrix(0.26458333,0,0,0.26458333,0,169.99998)"
           d="m 152.84961,268.36719 a 1.3889597,3.5355339 32.875281 0 0 -2.70313,2.31054 1.3889597,3.5355339 32.875281 0 0 -0.75195,3.72266 1.3889597,3.5355339 32.875281 0 0 3.08594,-2.21484 1.3889597,3.5355339 32.875281 0 0 0.75195,-3.72461 1.3889597,3.5355339 32.875281 0 0 -0.38281,-0.0937 z m 4.4043,2.8457 a 1.3889597,3.5355339 32.875281 0 0 -2.70508,2.31055 1.3889597,3.5355339 32.875281 0 0 -0.75195,3.72265 1.3889597,3.5355339 32.875281 0 0 3.08593,-2.21484 1.3889597,3.5355339 32.875281 0 0 0.75196,-3.72461 1.3889597,3.5355339 32.875281 0 0 -0.38086,-0.0937 z m -15.22657,2.40625 a 1.5509779,3.8686425 77.426081 0 0 -2.2207,0.28711 1.5509779,3.8686425 77.426081 0 0 -3.11719,2.40039 1.5509779,3.8686425 77.426081 0 0 4.36133,0.49219 1.5509779,3.8686425 77.426081 0 0 3.11719,-2.40039 1.5509779,3.8686425 77.426081 0 0 -2.14063,-0.7793 z m 2.34571,5.45898 a 1.5509779,3.8686425 77.426081 0 0 -2.21875,0.28516 1.5509779,3.8686425 77.426081 0 0 -3.11914,2.40039 1.5509779,3.8686425 77.426081 0 0 4.36132,0.49219 1.5509779,3.8686425 77.426081 0 0 3.11914,-2.40039 1.5509779,3.8686425 77.426081 0 0 -2.14257,-0.77735 z m 11.62109,2.9629 a 3.868642,1.5509779 78.324481 0 0 -0.9082,3.82812 3.868642,1.5509779 78.324481 0 0 2.24023,3.77539 3.868642,1.5509779 78.324481 0 0 0.90625,-3.82812 3.868642,1.5509779 78.324481 0 0 -2.23828,-3.77539 z m -5.93945,0.10156 a 3.868642,1.5509779 78.324481 0 0 -0.90821,3.82812 3.868642,1.5509779 78.324481 0 0 2.24024,3.77539 3.868642,1.5509779 78.324481 0 0 0.90625,-3.82812 3.868642,1.5509779 78.324481 0 0 -2.23828,-3.77539 z"
           style="fill:#fcfded;fill-opacity:1;stroke:none;stroke-width:11;stroke-linecap:butt;stroke-linejoin:miter;stroke-miterlimit:4;stroke-dasharray:none;stroke-opacity:1" />
      </g>
      <g
         id="g9268"
         transform="matrix(0.82965396,0,0,0.82965398,52.272328,775.14557)">
        <path
           style="fill:#48842c;fill-opacity:1;stroke:none;stroke-width:3.20668411;stroke-linecap:butt;stroke-linejoin:miter;stroke-miterlimit:4;stroke-dasharray:none;stroke-opacity:1"
           d="m 48.20089,250.36209 c -2.804477,4.33916 -9.199581,5.19288 -14.28386,1.90683 -5.084279,-3.28606 -6.932419,-9.46753 -4.127942,-13.8067 3.434259,-5.31358 9.70946,-4.75083 14.23257,-1.82747 4.410877,2.85083 7.634737,8.38089 4.179232,13.72734 z"
           id="path9262" />
        <ellipse
           style="fill:#d7f4c6;fill-opacity:1;stroke:none;stroke-width:2.9104166;stroke-linecap:butt;stroke-linejoin:miter;stroke-miterlimit:4;stroke-dasharray:none;stroke-opacity:1"
           id="ellipse9264"
           cx="165.3822"
           cy="183.40434"
           rx="10.394345"
           ry="8.1264877"
           transform="matrix(0.83985413,0.54281216,-0.54281216,0.83985413,0,0)" />
        <path
           style="fill:#fcfded;fill-opacity:1;stroke:none;stroke-width:11;stroke-linecap:butt;stroke-linejoin:miter;stroke-miterlimit:4;stroke-dasharray:none;stroke-opacity:1"
           d="m 152.84961,268.36719 a 1.3889597,3.5355339 32.875281 0 0 -2.70313,2.31054 1.3889597,3.5355339 32.875281 0 0 -0.75195,3.72266 1.3889597,3.5355339 32.875281 0 0 3.08594,-2.21484 1.3889597,3.5355339 32.875281 0 0 0.75195,-3.72461 1.3889597,3.5355339 32.875281 0 0 -0.38281,-0.0937 z m 4.4043,2.8457 a 1.3889597,3.5355339 32.875281 0 0 -2.70508,2.31055 1.3889597,3.5355339 32.875281 0 0 -0.75195,3.72265 1.3889597,3.5355339 32.875281 0 0 3.08593,-2.21484 1.3889597,3.5355339 32.875281 0 0 0.75196,-3.72461 1.3889597,3.5355339 32.875281 0 0 -0.38086,-0.0937 z m -15.22657,2.40625 a 1.5509779,3.8686425 77.426081 0 0 -2.2207,0.28711 1.5509779,3.8686425 77.426081 0 0 -3.11719,2.40039 1.5509779,3.8686425 77.426081 0 0 4.36133,0.49219 1.5509779,3.8686425 77.426081 0 0 3.11719,-2.40039 1.5509779,3.8686425 77.426081 0 0 -2.14063,-0.7793 z m 2.34571,5.45898 a 1.5509779,3.8686425 77.426081 0 0 -2.21875,0.28516 1.5509779,3.8686425 77.426081 0 0 -3.11914,2.40039 1.5509779,3.8686425 77.426081 0 0 4.36132,0.49219 1.5509779,3.8686425 77.426081 0 0 3.11914,-2.40039 1.5509779,3.8686425 77.426081 0 0 -2.14257,-0.77735 z m 11.62109,2.9629 a 3.868642,1.5509779 78.324481 0 0 -0.9082,3.82812 3.868642,1.5509779 78.324481 0 0 2.24023,3.77539 3.868642,1.5509779 78.324481 0 0 0.90625,-3.82812 3.868642,1.5509779 78.324481 0 0 -2.23828,-3.77539 z m -5.93945,0.10156 a 3.868642,1.5509779 78.324481 0 0 -0.90821,3.82812 3.868642,1.5509779 78.324481 0 0 2.24024,3.77539 3.868642,1.5509779 78.324481 0 0 0.90625,-3.82812 3.868642,1.5509779 78.324481 0 0 -2.23828,-3.77539 z"
           transform="matrix(0.26458333,0,0,0.26458333,0,169.99998)"
           id="path9266" />
      </g>
      <g
         transform="matrix(0.82965396,0,0,0.82965398,67.638211,775.14557)"
         id="g9276">
        <path
           id="path9270"
           d="m 48.20089,250.36209 c -2.804477,4.33916 -9.199581,5.19288 -14.28386,1.90683 -5.084279,-3.28606 -6.932419,-9.46753 -4.127942,-13.8067 3.434259,-5.31358 9.70946,-4.75083 14.23257,-1.82747 4.410877,2.85083 7.634737,8.38089 4.179232,13.72734 z"
           style="fill:#48842c;fill-opacity:1;stroke:none;stroke-width:3.20668411;stroke-linecap:butt;stroke-linejoin:miter;stroke-miterlimit:4;stroke-dasharray:none;stroke-opacity:1" />
        <ellipse
           transform="matrix(0.83985413,0.54281216,-0.54281216,0.83985413,0,0)"
           ry="8.1264877"
           rx="10.394345"
           cy="183.40434"
           cx="165.3822"
           id="ellipse9272"
           style="fill:#d7f4c6;fill-opacity:1;stroke:none;stroke-width:2.9104166;stroke-linecap:butt;stroke-linejoin:miter;stroke-miterlimit:4;stroke-dasharray:none;stroke-opacity:1" />
        <path
           id="path9274"
           transform="matrix(0.26458333,0,0,0.26458333,0,169.99998)"
           d="m 152.84961,268.36719 a 1.3889597,3.5355339 32.875281 0 0 -2.70313,2.31054 1.3889597,3.5355339 32.875281 0 0 -0.75195,3.72266 1.3889597,3.5355339 32.875281 0 0 3.08594,-2.21484 1.3889597,3.5355339 32.875281 0 0 0.75195,-3.72461 1.3889597,3.5355339 32.875281 0 0 -0.38281,-0.0937 z m 4.4043,2.8457 a 1.3889597,3.5355339 32.875281 0 0 -2.70508,2.31055 1.3889597,3.5355339 32.875281 0 0 -0.75195,3.72265 1.3889597,3.5355339 32.875281 0 0 3.08593,-2.21484 1.3889597,3.5355339 32.875281 0 0 0.75196,-3.72461 1.3889597,3.5355339 32.875281 0 0 -0.38086,-0.0937 z m -15.22657,2.40625 a 1.5509779,3.8686425 77.426081 0 0 -2.2207,0.28711 1.5509779,3.8686425 77.426081 0 0 -3.11719,2.40039 1.5509779,3.8686425 77.426081 0 0 4.36133,0.49219 1.5509779,3.8686425 77.426081 0 0 3.11719,-2.40039 1.5509779,3.8686425 77.426081 0 0 -2.14063,-0.7793 z m 2.34571,5.45898 a 1.5509779,3.8686425 77.426081 0 0 -2.21875,0.28516 1.5509779,3.8686425 77.426081 0 0 -3.11914,2.40039 1.5509779,3.8686425 77.426081 0 0 4.36132,0.49219 1.5509779,3.8686425 77.426081 0 0 3.11914,-2.40039 1.5509779,3.8686425 77.426081 0 0 -2.14257,-0.77735 z m 11.62109,2.9629 a 3.868642,1.5509779 78.324481 0 0 -0.9082,3.82812 3.868642,1.5509779 78.324481 0 0 2.24023,3.77539 3.868642,1.5509779 78.324481 0 0 0.90625,-3.82812 3.868642,1.5509779 78.324481 0 0 -2.23828,-3.77539 z m -5.93945,0.10156 a 3.868642,1.5509779 78.324481 0 0 -0.90821,3.82812 3.868642,1.5509779 78.324481 0 0 2.24024,3.77539 3.868642,1.5509779 78.324481 0 0 0.90625,-3.82812 3.868642,1.5509779 78.324481 0 0 -2.23828,-3.77539 z"
           style="fill:#fcfded;fill-opacity:1;stroke:none;stroke-width:11;stroke-linecap:butt;stroke-linejoin:miter;stroke-miterlimit:4;stroke-dasharray:none;stroke-opacity:1" />
      </g>
      <path
         style="fill:#c07f4b;fill-opacity:1;stroke:none;stroke-width:4.45793152;stroke-linecap:butt;stroke-linejoin:miter;stroke-miterlimit:4;stroke-dasharray:none;stroke-opacity:1"
         d="m 28.768271,947.8611 c -10.597442,0 -19.1288931,8.53188 -19.1288931,19.12932 0,0.26274 0.0068,0.52362 0.017149,0.78373 l 0.021007,0 c 0.3920921,4.1464 3.8627021,7.36954 8.1151071,7.36954 l 88.745689,0 c 4.25239,0 7.72343,-3.22314 8.11553,-7.36954 l 0.021,0 c 0.0105,-0.26011 0.0172,-0.52099 0.0172,-0.78373 2e-5,-10.59744 -8.53186,-19.12932 -19.129305,-19.12932 z"
         id="path5926-7" />
    </g>
  </g>
</svg>
