<?xml version="1.0" encoding="UTF-8" standalone="no"?>
<svg
   xmlns:dc="http://purl.org/dc/elements/1.1/"
   xmlns:cc="http://creativecommons.org/ns#"
   xmlns:rdf="http://www.w3.org/1999/02/22-rdf-syntax-ns#"
   xmlns:svg="http://www.w3.org/2000/svg"
   xmlns="http://www.w3.org/2000/svg"
   version="1.1"
   id="svg4260"
   viewBox="0 0 128 128"
   height="128"
   width="128">
  <defs
     id="defs4262" />
  <metadata
     id="metadata4265">
    <rdf:RDF>
      <cc:Work
         rdf:about="">
        <dc:format>image/svg+xml</dc:format>
        <dc:type
           rdf:resource="http://purl.org/dc/dcmitype/StillImage" />
        <dc:title></dc:title>
      </cc:Work>
    </rdf:RDF>
  </metadata>
  <g
     transform="translate(0,-924.36216)"
     id="layer1">
    <g
       id="layer1-84"
       transform="matrix(1.9325517,0,0,1.9325517,-107.60242,534.90834)">
      <path
         style="fill:#eed9b1;fill-opacity:1;stroke:none;stroke-width:0.18503459px;stroke-linecap:butt;stroke-linejoin:miter;stroke-opacity:1"
         d="m 34.74987,249.29827 -1.55028,-4.35081 0.10001,-5.80109 18.4499,-7.12204 1.90391,3.77142 z"
         id="path4747" />
      <path
         style="fill:#e3bc86;fill-opacity:1;stroke:none;stroke-width:0.18503459px;stroke-linecap:butt;stroke-linejoin:miter;stroke-opacity:1"
         d="m 53.65341,235.79575 -18.90354,7.40138 0,6.10114 18.90353,-7.40138 z"
         id="path4745" />
      <path
         style="opacity:1;fill:#b46330;fill-opacity:0.94117647;stroke:none;stroke-width:0.55510378;stroke-linecap:butt;stroke-linejoin:miter;stroke-miterlimit:4;stroke-dasharray:none;stroke-opacity:1"
         d="m 50.63895,236.97601 -2.32631,0.91071 2.79179,5.00787 2.3263,-0.91072 z m -6.26155,2.45135 -2.3263,0.91107 2.79179,5.00787 2.3263,-0.91072 z m -5.92472,2.32016 -2.3263,0.91071 2.79178,5.00787 2.32631,-0.91072 z"
         id="rect4749" />
      <path
         style="fill:#eed9b1;fill-opacity:1;stroke:none;stroke-width:0.18503459px;stroke-linecap:butt;stroke-linejoin:miter;stroke-opacity:1"
         d="m 60.5547,225.8939 0.30006,5.30099 7.40138,17.00318 7.00131,-2.30043 0.40007,-3.30061 z"
         id="path4697" />
      <path
         style="fill:#eed9b1;fill-opacity:1;stroke:none;stroke-width:0.18503459px;stroke-linecap:butt;stroke-linejoin:miter;stroke-opacity:1"
         d="m 46.55208,222.99335 23.60441,16.70313 -4.00074,6.60123 -5.40101,1.6003 -19.70369,-24.1045 z"
         id="path4659" />
      <path
         style="fill:#e3bc86;fill-opacity:1;stroke:none;stroke-width:0.18503459px;stroke-linecap:butt;stroke-linejoin:miter;stroke-opacity:1"
         d="m 41.05105,223.79351 -4.60086,7.00131 24.30455,17.10319 4.50084,-6.60123 z"
         id="path4657" />
      <path
         style="fill:#e3bc86;fill-opacity:1;stroke:none;stroke-width:0.18503459px;stroke-linecap:butt;stroke-linejoin:miter;stroke-opacity:1"
         d="m 60.5547,225.8939 8.20153,19.20359 6.90129,-2.50046 -8.10151,-19.40364 z"
         id="path4695" />
      <path
         style="opacity:1;fill:#b46330;fill-opacity:1;stroke:none;stroke-width:0.79374999;stroke-linecap:butt;stroke-linejoin:miter;stroke-miterlimit:4;stroke-dasharray:none;stroke-opacity:1"
         d="m 42.54501,224.87384 0,8.2889 c 0,0.8684 0.65368,1.56735 1.46607,1.56735 0.81238,0 1.46657,-0.69895 1.46657,-1.56735 l 0,-6.16861 z m 7.02852,5.08238 0,8.11113 c 0,0.8684 0.65368,1.56735 1.46606,1.56735 0.81238,0 1.46657,-0.69895 1.46657,-1.56735 l 0,-5.99033 z m 7.38197,5.33818 0,8.03155 c 0,0.86839 0.6542,1.56734 1.46658,1.56734 0.81238,0 1.46658,-0.69895 1.46658,-1.56734 l 0,-5.91024 z"
         id="rect4871" />
      <path
         style="opacity:1;fill:#b46330;fill-opacity:1;stroke:none;stroke-width:0.79374999;stroke-linecap:butt;stroke-linejoin:miter;stroke-miterlimit:4;stroke-dasharray:none;stroke-opacity:1"
         d="m 67.88249,223.97519 -5.83221,5.41983 1.13947,2.66857 5.81411,-5.40278 z m 2.56108,6.13451 -5.79035,5.38107 1.13999,2.66805 5.77174,-5.36401 z m 2.61896,6.27197 -5.74745,5.34127 1.13998,2.66857 5.72885,-5.32422 z"
         id="rect4898" />
      <path
         id="path13578"
         d="m 71.791556,249.29827 -1.55028,-4.35081 0.10001,-5.80109 18.4499,-7.12204 1.90391,3.77142 z"
         style="fill:#eed9b1;fill-opacity:1;stroke:none;stroke-width:0.18503459px;stroke-linecap:butt;stroke-linejoin:miter;stroke-opacity:1" />
      <path
         id="path13580"
         d="m 90.695096,235.79575 -18.90354,7.40138 0,6.10114 18.90353,-7.40138 z"
         style="fill:#e3bc86;fill-opacity:1;stroke:none;stroke-width:0.18503459px;stroke-linecap:butt;stroke-linejoin:miter;stroke-opacity:1" />
      <path
         id="path13582"
         d="m 87.680636,236.97601 -2.32631,0.91071 2.79179,5.00787 2.3263,-0.91072 z m -6.26155,2.45135 -2.3263,0.91107 2.79179,5.00787 2.3263,-0.91072 z m -5.92472,2.32016 -2.3263,0.91071 2.79178,5.00787 2.32631,-0.91072 z"
         style="opacity:1;fill:#b46330;fill-opacity:0.94117647;stroke:none;stroke-width:0.55510378;stroke-linecap:butt;stroke-linejoin:miter;stroke-miterlimit:4;stroke-dasharray:none;stroke-opacity:1" />
      <path
         id="path13584"
         d="m 97.596386,225.8939 0.30006,5.30099 7.401384,17.00318 7.00131,-2.30043 0.40007,-3.30061 z"
         style="fill:#eed9b1;fill-opacity:1;stroke:none;stroke-width:0.18503459px;stroke-linecap:butt;stroke-linejoin:miter;stroke-opacity:1" />
      <path
         id="path13586"
         d="m 83.593766,222.99335 23.604414,16.70313 -4.00074,6.60123 -5.401014,1.6003 -19.70369,-24.1045 z"
         style="fill:#eed9b1;fill-opacity:1;stroke:none;stroke-width:0.18503459px;stroke-linecap:butt;stroke-linejoin:miter;stroke-opacity:1" />
      <path
         id="path13588"
         d="m 78.092736,223.79351 -4.60086,7.00131 24.30455,17.10319 4.500844,-6.60123 z"
         style="fill:#e3bc86;fill-opacity:1;stroke:none;stroke-width:0.18503459px;stroke-linecap:butt;stroke-linejoin:miter;stroke-opacity:1" />
      <path
         id="path13590"
         d="m 97.596386,225.8939 8.201534,19.20359 6.90129,-2.50046 -8.10151,-19.40364 z"
         style="fill:#e3bc86;fill-opacity:1;stroke:none;stroke-width:0.18503459px;stroke-linecap:butt;stroke-linejoin:miter;stroke-opacity:1" />
      <path
         id="path13592"
         d="m 79.586696,224.87384 0,8.2889 c 0,0.8684 0.65368,1.56735 1.46607,1.56735 0.81238,0 1.46657,-0.69895 1.46657,-1.56735 l 0,-6.16861 z m 7.02852,5.08238 0,8.11113 c 0,0.8684 0.65368,1.56735 1.46606,1.56735 0.81238,0 1.46657,-0.69895 1.46657,-1.56735 l 0,-5.99033 z m 7.38197,5.33818 0,8.03155 c 0,0.86839 0.6542,1.56734 1.46658,1.56734 0.81238,0 1.46658,-0.69895 1.46658,-1.56734 l 0,-5.91024 z"
         style="opacity:1;fill:#b46330;fill-opacity:1;stroke:none;stroke-width:0.79374999;stroke-linecap:butt;stroke-linejoin:miter;stroke-miterlimit:4;stroke-dasharray:none;stroke-opacity:1" />
      <path
         id="path13594"
         d="m 104.92418,223.97519 -5.832214,5.41983 1.139474,2.66857 5.81411,-5.40278 z m 2.56108,6.13451 -5.79035,5.38107 1.13999,2.66805 5.77174,-5.36401 z m 2.61896,6.27197 -5.74745,5.34127 1.13998,2.66857 5.72885,-5.32422 z"
         style="opacity:1;fill:#b46330;fill-opacity:1;stroke:none;stroke-width:0.79374999;stroke-linecap:butt;stroke-linejoin:miter;stroke-miterlimit:4;stroke-dasharray:none;stroke-opacity:1" />
      <path
         style="fill:#eed9b1;fill-opacity:1;stroke:none;stroke-width:0.18503459px;stroke-linecap:butt;stroke-linejoin:miter;stroke-opacity:1"
         d="m 108.83324,249.29827 -1.55028,-4.35081 0.10001,-5.80109 18.4499,-7.12204 1.90391,3.77142 z"
         id="path13618" />
      <path
         style="fill:#e3bc86;fill-opacity:1;stroke:none;stroke-width:0.18503459px;stroke-linecap:butt;stroke-linejoin:miter;stroke-opacity:1"
         d="m 127.73678,235.79575 -18.90354,7.40138 0,6.10114 18.90353,-7.40138 z"
         id="path13620" />
      <path
         style="opacity:1;fill:#b46330;fill-opacity:0.94117647;stroke:none;stroke-width:0.55510378;stroke-linecap:butt;stroke-linejoin:miter;stroke-miterlimit:4;stroke-dasharray:none;stroke-opacity:1"
         d="m 124.72232,236.97601 -2.32631,0.91071 2.79179,5.00787 2.3263,-0.91072 z m -6.26155,2.45135 -2.3263,0.91107 2.79179,5.00787 2.3263,-0.91072 z m -5.92472,2.32016 -2.3263,0.91071 2.79178,5.00787 2.32631,-0.91072 z"
         id="path13622" />
      <path
         style="fill:#eed9b1;fill-opacity:1;stroke:none;stroke-width:0.18503459px;stroke-linecap:butt;stroke-linejoin:miter;stroke-opacity:1"
         d="m 134.63807,225.8939 0.30006,5.30099 7.40138,17.00318 7.00131,-2.30043 0.40007,-3.30061 z"
         id="path13624" />
      <path
         style="fill:#eed9b1;fill-opacity:1;stroke:none;stroke-width:0.18503459px;stroke-linecap:butt;stroke-linejoin:miter;stroke-opacity:1"
         d="m 120.63545,222.99335 23.60441,16.70313 -4.00074,6.60123 -5.40101,1.6003 -19.70369,-24.1045 z"
         id="path13626" />
      <path
         style="fill:#e3bc86;fill-opacity:1;stroke:none;stroke-width:0.18503459px;stroke-linecap:butt;stroke-linejoin:miter;stroke-opacity:1"
         d="m 115.13442,223.79351 -4.60086,7.00131 24.30455,17.10319 4.50084,-6.60123 z"
         id="path13628" />
      <path
         style="fill:#e3bc86;fill-opacity:1;stroke:none;stroke-width:0.18503459px;stroke-linecap:butt;stroke-linejoin:miter;stroke-opacity:1"
         d="m 134.63807,225.8939 8.20153,19.20359 6.90129,-2.50046 -8.10151,-19.40364 z"
         id="path13630" />
      <path
         style="opacity:1;fill:#b46330;fill-opacity:1;stroke:none;stroke-width:0.79374999;stroke-linecap:butt;stroke-linejoin:miter;stroke-miterlimit:4;stroke-dasharray:none;stroke-opacity:1"
         d="m 116.62838,224.87384 0,8.2889 c 0,0.8684 0.65368,1.56735 1.46607,1.56735 0.81238,0 1.46657,-0.69895 1.46657,-1.56735 l 0,-6.16861 z m 7.02852,5.08238 0,8.11113 c 0,0.8684 0.65368,1.56735 1.46606,1.56735 0.81238,0 1.46657,-0.69895 1.46657,-1.56735 l 0,-5.99033 z m 7.38197,5.33818 0,8.03155 c 0,0.86839 0.6542,1.56734 1.46658,1.56734 0.81238,0 1.46658,-0.69895 1.46658,-1.56734 l 0,-5.91024 z"
         id="path13632" />
      <path
         style="opacity:1;fill:#b46330;fill-opacity:1;stroke:none;stroke-width:0.79374999;stroke-linecap:butt;stroke-linejoin:miter;stroke-miterlimit:4;stroke-dasharray:none;stroke-opacity:1"
         d="m 141.96586,223.97519 -5.83221,5.41983 1.13947,2.66857 5.81411,-5.40278 z m 2.56108,6.13451 -5.79035,5.38107 1.13999,2.66805 5.77174,-5.36401 z m 2.61896,6.27197 -5.74745,5.34127 1.13998,2.66857 5.72885,-5.32422 z"
         id="path13634" />
    </g>
  </g>
</svg>
