<?xml version="1.0" encoding="UTF-8" standalone="no"?>
<svg
   xmlns:dc="http://purl.org/dc/elements/1.1/"
   xmlns:cc="http://creativecommons.org/ns#"
   xmlns:rdf="http://www.w3.org/1999/02/22-rdf-syntax-ns#"
   xmlns:svg="http://www.w3.org/2000/svg"
   xmlns="http://www.w3.org/2000/svg"
   version="1.1"
   id="svg4260"
   viewBox="0 0 128 128"
   height="128"
   width="128">
  <defs
     id="defs4262" />
  <metadata
     id="metadata4265">
    <rdf:RDF>
      <cc:Work
         rdf:about="">
        <dc:format>image/svg+xml</dc:format>
        <dc:type
           rdf:resource="http://purl.org/dc/dcmitype/StillImage" />
        <dc:title></dc:title>
      </cc:Work>
    </rdf:RDF>
  </metadata>
  <g
     transform="translate(0,-924.36216)"
     id="layer1">
    <g
       id="layer1-4"
       transform="matrix(1.8952981,0,0,1.8952982,-60.616954,606.01911)">
      <path
         style="fill:#e4cfbc;fill-opacity:1;stroke:none;stroke-width:0.2890406px;stroke-linecap:butt;stroke-linejoin:miter;stroke-opacity:1"
         d="m 19.163911,189.73717 -1.657263,0.44184 0,1.76785 -1.215429,-1.54668 -1.546676,2.0991 -0.662492,-2.54093 -2.872693,0.33124 -0.662491,2.54093 -2.2096845,-2.43034 -0.1105877,2.98276 -3.3140094,-0.88366 -2.320272,3.20393 1.8779218,1.54668 -3.9770184,0.33125 -0.99425455,3.31401 3.31452645,0.55242 -2.43085945,3.31452 2.65151775,-0.11058 -1.436088,2.98276 1.6572632,2.76211 2.9827635,-0.88367 0,2.65152 2.8721762,-1.21543 0.6630084,3.20393 3.2039387,1.87793 0.994255,-2.76159 0.994254,1.43609 2.651518,-1.43609 1.767334,2.54093 3.535701,0 1.436088,-2.20969 0.994255,1.87793 1.657262,-2.31976 2.540931,2.87218 1.988508,-2.31976 1.767851,1.98851 2.761588,0.22066 0.773597,-2.31976 0.883666,1.87793 3.424597,-0.44184 0.442352,-2.7621 1.988508,2.54144 0.204123,-2.86494 0.597379,-0.25269 1.909445,-0.0796 0.524515,2.53421 3.203938,1.87793 0.994256,-2.76159 0.994254,1.43609 2.651517,-1.43609 1.767334,2.54093 3.535701,0 1.43609,-2.20969 0.994254,1.87793 1.657262,-2.31976 2.540932,2.87218 1.988507,-2.31976 1.767851,1.98851 2.761589,0.22066 0.773596,-2.31976 0.883666,1.87793 3.424598,-0.44184 0.442351,-2.7621 1.988508,2.54144 0.204123,-2.86494 0.597379,-0.25269 1.909445,-0.0796 0.524515,2.53421 3.203938,1.87793 0.994256,-2.76159 0.994254,1.43609 2.651517,-1.43609 1.76785,2.54093 3.535186,0 1.436089,-2.20969 0.994254,1.87793 1.657264,-2.31976 2.54093,2.87218 1.98851,-2.31976 1.76785,1.98851 2.76158,0.22066 0.7736,-2.31976 0.88367,1.87793 3.42459,-0.44184 0.44236,-2.7621 1.9885,2.54144 0.22066,-3.09335 2.65152,-0.11058 1.21543,-2.76211 -2.20968,-1.3255 2.43034,-0.55242 -1.76733,-1.21543 2.65151,-1.10484 -2.43086,-0.88367 2.54093,-1.43609 -0.44183,-2.98328 -2.0991,0.66301 1.87844,-1.98851 -1.98851,-2.7621 -3.5357,0 2.20969,-2.31976 -1.65727,-0.66301 -2.43034,1.76785 -1.43609,-2.7621 -1.10484,2.09909 -1.43609,-2.20968 -2.87269,-0.11007 -0.33125,1.87792 -1.87792,-2.43034 -1.87844,2.76159 -1.54667,-2.87218 -3.977018,-0.11059 -0.883668,2.65152 -2.099096,-2.98276 -0.331764,2.76158 -1.87792,-2.98276 -1.657265,0.44184 0,1.76785 -1.214911,-1.54668 -1.547193,2.0991 -0.662491,-2.54093 -2.872695,0.33124 -0.66249,2.54093 -2.209683,-2.43034 -0.110588,2.98276 -0.625287,-0.16691 0.262001,-0.27492 -1.657263,-0.66301 -0.569476,0.41445 -0.723985,-0.19327 -1.101225,1.52083 -0.03566,0.0259 -1.436086,-2.7621 -1.104845,2.09909 -1.436087,-2.20968 -2.872692,-0.11007 -0.331245,1.87792 -1.877923,-2.43034 -1.878438,2.76159 -1.546675,-2.87218 -3.977018,-0.11059 -0.883669,2.65152 -2.099095,-2.98276 -0.331764,2.76158 -1.87792,-2.98276 -1.657265,0.44184 0,1.76785 -1.215427,-1.54668 -1.546678,2.0991 -0.66249,-2.54093 -2.872695,0.33124 -0.66249,2.54093 -2.209684,-2.43034 -0.110588,2.98276 -0.625287,-0.16691 0.262001,-0.27492 -1.657262,-0.66301 -0.569476,0.41445 -0.723985,-0.19327 -1.101225,1.52083 -0.03566,0.0259 -1.436087,-2.7621 -1.104844,2.09909 -1.436087,-2.20968 -2.872692,-0.11007 -0.331246,1.87792 -1.877922,-2.43034 -1.878438,2.76159 -1.546675,-2.87218 -3.977019,-0.11059 -0.883667,2.65152 -2.099096,-2.98276 -0.331763,2.76159 z"
         id="path5376" />
      <path
         style="fill:#c99983;fill-opacity:1;stroke:none;stroke-width:0.26458332px;stroke-linecap:butt;stroke-linejoin:miter;stroke-opacity:1"
         d="m 34.832206,204.70783 -1.728579,1.98128 -2.085144,-1.14773 -1.842264,2.41897 -3.242695,0.79427 -2.464449,-0.40515 -1.372009,-1.19682 -1.39113,-1.48208 -0.340548,1.31309 -1.436604,-0.046 -1.472262,1.53428 -3.145544,2.22105 -0.668177,-1.38803 -2.045869,-0.57723 -0.820622,-1.52083 -0.363286,-1.12242 -1.8810214,1.84847 -1.7507974,-0.45372 -1.9812746,-1.72858 -0.8273396,0.48628 -1.4443562,-0.53537 -0.9301758,1.9327 1.6572632,2.76211 2.9827635,-0.88419 0,2.65152 2.8721762,-1.21491 0.6630084,3.20342 3.2039387,1.87844 0.994255,-2.76211 0.994254,1.43609 2.651518,-1.43609 1.767334,2.54093 3.535701,0 1.436088,-2.20968 0.994255,1.87844 1.657262,-2.32028 2.540931,2.8727 1.988508,-2.32027 1.767335,1.9885 2.762104,0.22118 0.773597,-2.32027 0.883666,1.87844 3.424597,-0.44184 0.441836,-2.7621 1.989024,2.54093 0.204123,-2.86495 0.597895,-0.25269 1.908929,-0.0796 0.524515,2.53421 3.203938,1.87844 0.994256,-2.76211 0.994254,1.43609 2.651517,-1.43609 1.767334,2.54093 3.535701,0 1.43609,-2.20968 0.994254,1.87844 1.657262,-2.32028 2.540932,2.8727 1.988507,-2.32027 1.767335,1.9885 2.762105,0.22118 0.773596,-2.32027 0.883666,1.87844 3.424598,-0.44184 0.441835,-2.7621 1.989024,2.54093 0.204123,-2.86495 0.597895,-0.25269 1.908929,-0.0796 0.524515,2.53421 3.203938,1.87844 0.994256,-2.76211 0.994254,1.43609 2.651517,-1.43609 1.767334,2.54093 3.535702,0 1.436089,-2.20968 0.994254,1.87844 1.657264,-2.32028 2.54093,2.8727 1.98851,-2.32027 1.76733,1.9885 2.7621,0.22118 0.7736,-2.32027 0.88367,1.87844 3.42459,-0.44184 0.44184,-2.7621 1.98902,2.54093 0.22066,-3.09335 2.65152,-0.11059 1.21543,-2.76159 -2.20968,-1.32602 2.43034,-0.55242 -2.50321,-0.97617 -1.07383,1.07694 -2.63292,1.32602 -2.39003,-1.41387 -2.25361,0.58343 -1.42059,-1.90996 -0.78134,-0.94982 -1.72858,1.98128 -2.08515,-1.14773 -1.84226,2.41897 -3.2427,0.79427 -2.464443,-0.40515 -1.37201,-1.19682 -1.391129,-1.48208 -0.340548,1.31309 -1.436606,-0.046 -1.47226,1.53428 -3.145544,2.22105 -0.668176,-1.38803 -2.04587,-0.57723 -0.820624,-1.52083 -0.06614,-0.20464 0.135911,-0.031 -0.166915,-0.0651 -0.266134,-0.82166 -0.522965,0.51418 -1.547193,-0.60358 -1.073835,1.07694 -0.605132,0.30489 -1.863971,-1.62626 -0.827339,0.48628 -1.444355,-0.53537 -0.665077,1.38183 -1.870687,0.48421 -1.420585,-1.90996 -0.781346,-0.94982 -1.728578,1.98128 -2.085145,-1.14773 -1.842264,2.41897 -3.242696,0.79427 -2.464449,-0.40515 -1.37201,-1.19682 -1.391129,-1.48208 -0.340547,1.31309 -1.436606,-0.046 -1.472261,1.53428 -3.145544,2.22105 -0.668176,-1.38803 -2.045869,-0.57723 -0.820624,-1.52083 -0.06615,-0.20464 0.135912,-0.031 -0.166916,-0.0651 -0.266133,-0.82166 -0.522965,0.51418 -1.547193,-0.60358 -1.073836,1.07694 -0.605131,0.30489 -1.863971,-1.62626 -0.827339,0.48628 -1.444355,-0.53537 -0.665078,1.38183 -1.870686,0.48421 -1.420585,-1.90996 z m 11.318171,2.65824 -0.362252,0.35605 -0.330729,-0.19844 z m 37.041666,0 -0.362251,0.35605 -0.33073,-0.19844 z"
         id="path4618" />
    </g>
  </g>
</svg>
