<?xml version="1.0" encoding="UTF-8" standalone="no"?>
<svg
   xmlns:dc="http://purl.org/dc/elements/1.1/"
   xmlns:cc="http://creativecommons.org/ns#"
   xmlns:rdf="http://www.w3.org/1999/02/22-rdf-syntax-ns#"
   xmlns:svg="http://www.w3.org/2000/svg"
   xmlns="http://www.w3.org/2000/svg"
   version="1.1"
   id="svg4260"
   viewBox="0 0 128 128"
   height="128"
   width="128">
  <defs
     id="defs4262" />
  <metadata
     id="metadata4265">
    <rdf:RDF>
      <cc:Work
         rdf:about="">
        <dc:format>image/svg+xml</dc:format>
        <dc:type
           rdf:resource="http://purl.org/dc/dcmitype/StillImage" />
        <dc:title></dc:title>
      </cc:Work>
    </rdf:RDF>
  </metadata>
  <g
     transform="translate(0,-924.36216)"
     id="layer1">
    <g
       id="layer1-2"
       transform="matrix(1.9325516,0,0,1.9325516,-58.851943,575.82565)">
      <path
         style="fill:#edd8ca;fill-opacity:1;stroke:none;stroke-width:3;stroke-linecap:butt;stroke-linejoin:miter;stroke-miterlimit:4;stroke-dasharray:none;stroke-opacity:1"
         d="m 21.029297,114.34375 c -11.8918906,51.35135 -1.621465,95.13569 13.513672,98.37891 0,0 42.689885,-7.0833 79.548831,-15.56055 0.0618,13.49356 6.52646,19.93136 22.36328,16.04687 9.45868,-2.32006 26.69233,-8.41401 39.25976,-14.05273 1.49181,2.21099 3.00029,3.54472 4.4961,3.65039 8.0424,0.56843 29.23691,-1.64189 49.52148,-5.49805 3.3181,8.78619 7.7926,14.3388 12.81055,15.41407 0,0 42.68988,-7.0833 79.54883,-15.56055 0.0618,13.49356 6.52646,19.93136 22.36328,16.04687 9.45868,-2.32006 26.69233,-8.41401 39.25976,-14.05273 1.49182,2.21099 3.00027,3.54472 4.4961,3.65039 13.15536,0.9298 61.51185,-5.55353 83.49218,-14.56445 5.85903,-18.66777 6.52158,-27.81775 1.12891,-46.73633 -19.29948,-3.44863 -107.04492,-15.81055 -107.04492,-15.81055 0.17314,2.94312 0.62301,6.97328 1.26172,11.55078 -14.44067,-6.22907 -58.88731,-23.60032 -76.67774,-9.72265 L 229.0293,114.34375 c -1.66808,7.20306 -2.88482,14.24822 -3.72852,21.0625 -31.10145,-4.57781 -67.51367,-9.71094 -67.51367,-9.71094 0.17314,2.94312 0.62301,6.97328 1.26172,11.55078 -14.44067,-6.22907 -58.88731,-23.60032 -76.677736,-9.72265 z"
         transform="matrix(0.26458333,0,0,0.26458333,0,169.99998)"
         id="path4654-9" />
      <path
         style="color:#000000;font-style:normal;font-variant:normal;font-weight:normal;font-stretch:normal;font-size:medium;line-height:normal;font-family:sans-serif;text-indent:0;text-align:start;text-decoration:none;text-decoration-line:none;text-decoration-style:solid;text-decoration-color:#000000;letter-spacing:normal;word-spacing:normal;text-transform:none;direction:ltr;writing-mode:lr-tb;baseline-shift:baseline;text-anchor:start;white-space:normal;clip-rule:nonzero;display:inline;overflow:visible;visibility:visible;opacity:1;isolation:auto;mix-blend-mode:normal;color-interpolation:sRGB;color-interpolation-filters:linearRGB;solid-color:#000000;solid-opacity:1;fill:#dd9870;fill-opacity:1;fill-rule:nonzero;stroke:none;stroke-width:3;stroke-linecap:butt;stroke-linejoin:miter;stroke-miterlimit:4;stroke-dasharray:none;stroke-dashoffset:0;stroke-opacity:1;color-rendering:auto;image-rendering:auto;shape-rendering:auto;text-rendering:auto;enable-background:accumulate"
         d="m 19.570312,114.00781 c -5.988498,25.85942 -6.407109,49.80356 -3.394531,67.81055 1.506289,9.00351 3.858981,16.52699 6.878907,22.10156 3.019925,5.57458 6.749863,9.31918 11.175781,10.26758 2.375425,0.50903 4.670185,-0.34621 6.445312,-1.98438 1.775123,-1.638 3.205462,-4.0087 4.509766,-6.88867 2.608603,-5.75996 4.663884,-13.64014 6.628906,-21.97461 1.965029,-8.33442 3.822027,-17.10469 5.912109,-24.47851 2.090087,-7.37382 4.537439,-13.35973 7.064454,-15.88672 0.628739,-0.62876 1.129419,-0.90397 1.404296,-0.98047 0.274886,-0.0763 0.335734,-0.0613 0.56836,0.0801 0.465229,0.28271 1.374864,1.57899 2.111328,3.7207 1.472923,4.28342 2.599302,11.54112 3.712891,19.4375 1.113588,7.89638 2.24172,16.46826 3.896484,23.6875 1.65476,7.21924 3.615936,13.16022 7.470703,15.8418 l 1.712891,-2.45899 c -2.361449,-1.64277 -4.654393,-7.05092 -6.259766,-14.05468 -1.605369,-7.00373 -2.737376,-15.52306 -3.853515,-23.4375 -1.11614,-7.91445 -2.185814,-15.18582 -3.837891,-19.99024 -0.826039,-2.40223 -1.714334,-4.29228 -3.396485,-5.31445 -0.841077,-0.51111 -1.939519,-0.674 -2.929687,-0.39844 -0.990164,0.27553 -1.859048,0.88443 -2.716797,1.74219 -3.41893,3.41892 -5.699142,9.66656 -7.832031,17.19141 -2.132886,7.52481 -3.997281,16.31828 -5.951172,24.60546 -1.953891,8.28719 -4.010368,16.0806 -6.435547,21.43555 -1.212589,2.67746 -2.529874,4.72691 -3.816406,5.91406 -1.286529,1.18715 -2.372892,1.56352 -3.78125,1.26172 -3.141653,-0.67321 -6.377086,-3.61777 -9.167969,-8.76953 -2.790882,-5.15176 -5.095816,-12.3973 -6.5625,-21.16406 -2.933371,-17.53353 -2.536208,-41.1526 3.367188,-66.64453 z m 207.999998,0 c -1.59053,6.86819 -2.77631,13.59457 -3.62109,20.11719 -5.81615,2.87031 -10.78339,8.46522 -14.94531,15.31641 -4.48748,7.38712 -8.03341,16.2828 -10.4961,25.03906 -2.39323,8.50923 -6.17567,17.04162 -10.26172,22.02148 -2.04303,2.48992 -4.13377,4.02596 -5.95703,4.43555 -1.82327,0.40955 -3.52306,-0.0454 -5.57226,-2.21484 -1.80951,-1.91596 -3.99117,-6.45096 -5.95703,-12.30469 -1.96585,-5.85373 -3.81263,-13.06039 -5.42579,-20.55859 -3.22631,-14.99641 -5.51486,-31.20988 -6.04687,-40.25391 l -2.99609,0.17773 c 0.40518,6.888 1.76698,17.53715 3.75976,28.72852 -2.63324,2.11963 -4.87278,5.61321 -7.06836,9.82617 -2.54581,4.885 -4.9484,10.76392 -7.24804,16.60938 -2.29967,5.84545 -4.49259,11.66483 -6.5625,16.35156 -2.06992,4.68676 -4.18108,8.26437 -5.57422,9.38867 -5.10885,4.1229 -8.91154,5.28733 -11.32227,4.73242 -2.41074,-0.55491 -4.15058,-2.80806 -5.13086,-7.10156 -1.96058,-8.58709 -0.049,-24.24374 5.8457,-41.92774 6.07868,-18.23603 1.59061,-30.9777 -7.35937,-37.13867 -4.47498,-3.08046 -9.95127,-4.5231 -15.61914,-4.34179 -5.667868,0.18141 -11.523183,1.98465 -16.750001,5.375 l 1.630859,2.51757 c 9.546357,-6.19222 21.270992,-6.43461 29.041012,-1.08593 7.77002,5.34871 12.02807,16.28105 6.21485,33.7207 -5.99722,17.99169 -8.14847,33.81838 -5.92774,43.54492 1.11036,4.86323 3.52371,8.47303 7.38282,9.36133 3.8591,0.8883 8.43732,-0.9183 13.88476,-5.31445 2.41341,-1.94767 4.30615,-5.71137 6.42969,-10.51953 2.12355,-4.80817 4.31817,-10.6439 6.60742,-16.46289 2.28924,-5.819 4.66815,-11.62475 7.11523,-16.32032 1.67838,-3.22053 3.42627,-5.87521 5.06836,-7.66406 0.53042,2.81575 1.08491,5.63982 1.68555,8.43164 1.62909,7.57228 3.50012,14.86376 5.52149,20.88281 2.02138,6.01909 4.09645,10.73931 6.61523,13.40625 2.5454,2.69511 5.57712,3.72366 8.41602,3.08594 2.83889,-0.63772 5.33588,-2.68252 7.61718,-5.46289 4.5626,-5.56063 8.35844,-14.32527 10.83008,-23.11328 2.40217,-8.54105 5.87559,-17.22057 10.17188,-24.29297 3.51068,-5.77912 7.57493,-10.44981 11.93164,-13.1875 -1.83527,16.5878 -1.38315,31.68743 0.67773,44.00586 1.50629,9.00351 3.85898,16.52699 6.87891,22.10156 3.01992,5.57458 6.74986,9.31918 11.17578,10.26758 2.37542,0.50903 4.67018,-0.34621 6.44531,-1.98438 1.77512,-1.638 3.20546,-4.0087 4.50977,-6.88867 2.6086,-5.75996 4.66388,-13.64014 6.6289,-21.97461 1.96503,-8.33442 3.82203,-17.10469 5.91211,-24.47851 2.09009,-7.37382 4.53744,-13.35973 7.06446,-15.88672 0.62874,-0.62876 1.12942,-0.90397 1.40429,-0.98047 0.27489,-0.0763 0.33574,-0.0613 0.56836,0.0801 0.46523,0.28271 1.37487,1.57899 2.11133,3.7207 1.47292,4.28342 2.5993,11.54112 3.71289,19.4375 1.11359,7.89638 2.24172,16.46826 3.89649,23.6875 1.65476,7.21924 3.61593,13.16022 7.4707,15.8418 l 1.71289,-2.45899 c -2.36145,-1.64277 -4.65439,-7.05092 -6.25977,-14.05468 -1.60537,-7.00373 -2.73737,-15.52306 -3.85351,-23.4375 -1.11614,-7.91445 -2.18582,-15.18582 -3.83789,-19.99024 -0.82604,-2.40223 -1.71434,-4.29228 -3.39649,-5.31445 -0.84107,-0.51111 -1.93952,-0.674 -2.92969,-0.39844 -0.99016,0.27553 -1.85904,0.88443 -2.71679,1.74219 -3.41893,3.41892 -5.69914,9.66656 -7.83203,17.19141 -2.13289,7.52481 -3.99728,16.31828 -5.95118,24.60546 -1.95389,8.28719 -4.01036,16.0806 -6.43554,21.43555 -1.21259,2.67746 -2.52988,4.72691 -3.81641,5.91406 -1.28653,1.18715 -2.37289,1.56352 -3.78125,1.26172 -3.14165,-0.67321 -6.37708,-3.61777 -9.16797,-8.76953 -2.79088,-5.15176 -5.09581,-12.3973 -6.5625,-21.16406 -2.93337,-17.53353 -2.5362,-41.1526 3.36719,-66.64453 z m 80.44141,6.90235 c -5.66787,0.18141 -11.52318,1.98465 -16.75,5.375 l 1.63086,2.51757 c 9.54636,-6.19222 21.27099,-6.43461 29.04101,-1.08593 7.77002,5.34871 12.02807,16.28105 6.21485,33.7207 -5.99722,17.99169 -8.14847,33.81838 -5.92774,43.54492 1.11036,4.86323 3.52371,8.47303 7.38282,9.36133 3.8591,0.8883 8.43732,-0.9183 13.88476,-5.31445 2.41341,-1.94767 4.30615,-5.71137 6.42969,-10.51953 2.12355,-4.80817 4.31817,-10.6439 6.60742,-16.46289 2.28924,-5.819 4.66815,-11.62475 7.11523,-16.32032 1.67838,-3.22053 3.42627,-5.87521 5.06836,-7.66406 0.53042,2.81575 1.08491,5.63982 1.68555,8.43164 1.62909,7.57228 3.50011,14.86376 5.52149,20.88281 2.02138,6.01909 4.09644,10.73931 6.61523,13.40625 2.5454,2.69511 5.5771,3.72366 8.41602,3.08594 2.83887,-0.63772 5.33586,-2.68252 7.61718,-5.46289 4.56261,-5.56063 8.35842,-14.32527 10.83008,-23.11328 2.40216,-8.54105 5.87561,-17.22057 10.17188,-24.29297 4.2963,-7.07237 9.41983,-12.48613 14.89648,-14.72656 l -1.13672,-2.77735 c -6.41525,2.62443 -11.83479,8.55819 -16.32226,15.94532 -4.48747,7.38712 -8.0334,16.2828 -10.4961,25.03906 -2.39323,8.50923 -6.17567,17.04162 -10.26172,22.02148 -2.04302,2.48992 -4.13378,4.02596 -5.95703,4.43555 -1.82328,0.40955 -3.52308,-0.0454 -5.57226,-2.21484 -1.80953,-1.91596 -3.99119,-6.45096 -5.95703,-12.30469 -1.96586,-5.85373 -3.81263,-13.06039 -5.42579,-20.55859 -3.22631,-14.99641 -5.51486,-31.20988 -6.04687,-40.25391 l -2.99609,0.17773 c 0.40518,6.888 1.76698,17.53715 3.75976,28.72852 -2.63324,2.11963 -4.87278,5.61321 -7.06836,9.82617 -2.54581,4.885 -4.9484,10.76392 -7.24804,16.60938 -2.29967,5.84545 -4.49259,11.66483 -6.5625,16.35156 -2.06992,4.68676 -4.18108,8.26437 -5.57422,9.38867 -5.10885,4.1229 -8.91154,5.28733 -11.32227,4.73242 -2.41074,-0.55491 -4.15058,-2.80806 -5.13086,-7.10156 -1.96058,-8.58709 -0.049,-24.24374 5.8457,-41.92774 6.07868,-18.23603 1.59061,-30.9777 -7.35937,-37.13867 -4.47498,-3.08046 -9.95127,-4.5231 -15.61914,-4.34179 z"
         transform="matrix(0.26458333,0,0,0.26458333,0,169.99998)"
         id="path5458-1" />
    </g>
  </g>
</svg>
