<?xml version="1.0" encoding="UTF-8" standalone="no"?>
<svg
   xmlns:dc="http://purl.org/dc/elements/1.1/"
   xmlns:cc="http://creativecommons.org/ns#"
   xmlns:rdf="http://www.w3.org/1999/02/22-rdf-syntax-ns#"
   xmlns:svg="http://www.w3.org/2000/svg"
   xmlns="http://www.w3.org/2000/svg"
   version="1.1"
   id="svg2"
   viewBox="0 0 128 128"
   height="128"
   width="128">
  <defs
     id="defs4" />
  <metadata
     id="metadata7">
    <rdf:RDF>
      <cc:Work
         rdf:about="">
        <dc:format>image/svg+xml</dc:format>
        <dc:type
           rdf:resource="http://purl.org/dc/dcmitype/StillImage" />
        <dc:title></dc:title>
      </cc:Work>
    </rdf:RDF>
  </metadata>
  <g
     transform="translate(0,-924.36216)"
     id="layer1">
    <path
       id="path4487-7-9"
       d="m 63.128368,1032.0181 c 7.83204,-3.9757 13.45691,-10.0313 16.61015,-18.8605 2.63371,-7.3744 2.89205,-13.89877 -1.45912,-23.90165 -2.6318,-6.05019 -10.97143,-10.39358 -17.76326,-12.17536 -6.79184,-1.78179 -27.95101,0.29696 -32.91428,1.78178 -4.963254,1.48478 -13.583646,8.0179 -16.718349,11.87838 -3.134694,3.86048 -4.179594,13.95715 -3.657143,20.49025 0.522449,6.5331 8.881635,16.0358 14.367343,19.0054 5.485709,2.9696 17.763269,4.7514 24.816299,4.4544 7.05306,-0.2969 12.23693,-0.3977 16.71836,-2.6727 z"
       style="fill:#b87c41;fill-opacity:1;fill-rule:evenodd;stroke:none;stroke-width:1px;stroke-linecap:butt;stroke-linejoin:miter;stroke-opacity:1" />
    <path
       id="path4589-6"
       d="m 53.205868,976.3992 c -9.04897,-0.0974 -21.88163,1.35028 -25.60408,2.46389 -4.963261,1.48478 -13.583576,8.01664 -16.718279,11.87711 -2.720689,3.35063 -3.863256,11.394 -3.777036,17.7329 3.236759,5.1162 8.731567,10.2244 12.775739,12.2607 5.897746,2.9696 19.097736,4.7514 26.680576,4.4546 7.58283,-0.297 13.15615,-0.3978 17.97421,-2.6728 7.73218,-3.6509 13.45716,-9.0629 16.9673,-16.7585 0.50152,-4.8156 -0.35328,-9.90023 -3.22487,-16.50172 -2.63178,-6.05019 -10.97202,-10.3923 -17.76385,-12.17408 -1.69796,-0.44545 -4.29339,-0.64961 -7.30971,-0.6821 z"
       style="fill:#e4ac67;fill-opacity:1;fill-rule:evenodd;stroke:none;stroke-width:1px;stroke-linecap:butt;stroke-linejoin:miter;stroke-opacity:1" />
    <path
       id="path4487-5"
       d="m 59.761168,948.95284 c -8.54637,4.33843 -14.68428,10.9462 -18.12513,20.58074 -2.87393,8.04708 -3.15582,15.16652 1.59221,26.08176 2.87183,6.60196 11.97212,11.34156 19.38343,13.28586 7.4113,1.9442 30.50038,-0.3241 35.91633,-1.9443 5.415952,-1.6202 14.822612,-8.74921 18.243212,-12.9618 3.42061,-4.21258 4.56081,-15.2301 3.99072,-22.3591 -0.57011,-7.12899 -9.69173,-17.49843 -15.67778,-20.73889 -5.986052,-3.24045 -19.383422,-5.18471 -27.079772,-4.86067 -7.69635,0.32404 -13.35303,0.43398 -18.24322,2.9164 z"
       style="fill:#b87c41;fill-opacity:1;fill-rule:evenodd;stroke:none;stroke-width:1px;stroke-linecap:butt;stroke-linejoin:miter;stroke-opacity:1" />
    <path
       id="path4487-6-5"
       d="m 79.510738,946.00223 c -0.52236,0.004 -1.0258,0.0139 -1.50683,0.0342 -7.69635,0.32404 -13.35264,0.43423 -18.24283,2.91665 -8.54638,4.33842 -14.68404,10.94626 -18.1249,20.5808 -1.43426,4.01599 -2.22229,7.80116 -2.06238,11.94217 0.54999,1.68259 1.22367,3.44354 2.05687,5.32184 3.01414,6.79489 12.56521,11.6728 20.34379,13.67391 7.7786,2.0011 32.01165,-0.3331 37.69601,-2.00069 5.684362,-1.66753 15.557682,-9.00532 19.147812,-13.34097 0.63183,-0.76303 1.18534,-1.75112 1.67217,-2.888 0.44361,-3.68505 0.51861,-7.51188 0.27116,-10.6062 -0.5701,-7.12899 -9.69176,-17.49796 -15.67782,-20.73842 -5.611922,-3.03793 -17.737642,-4.93679 -25.573052,-4.89526 z"
       style="fill:#e4ac67;fill-opacity:1;fill-rule:evenodd;stroke:none;stroke-width:1px;stroke-linecap:butt;stroke-linejoin:miter;stroke-opacity:1" />
    <path
       id="path4507-63"
       d="m 82.407108,998.09457 c 0.0105,-1.77482 4.72358,-7.00792 6.80303,-5.99315 2.08982,1.01979 2.02146,8.34318 0.32396,9.07068 -1.98422,0.8504 -7.13989,-0.8864 -7.12699,-3.07753 z"
       style="fill:#ffedb9;fill-opacity:1;fill-rule:evenodd;stroke:none;stroke-width:1px;stroke-linecap:butt;stroke-linejoin:miter;stroke-opacity:1" />
    <path
       id="path4507-6-8"
       d="m 61.316898,961.43379 c 1.1108,1.19487 1.25104,7.66693 -0.78033,8.29717 -2.04146,0.63338 -6.60802,-4.31291 -5.92967,-5.86909 0.79293,-1.81903 5.33863,-3.90325 6.71,-2.42808 z"
       style="fill:#ffedb9;fill-opacity:1;fill-rule:evenodd;stroke:none;stroke-width:1px;stroke-linecap:butt;stroke-linejoin:miter;stroke-opacity:1" />
    <path
       id="path4507-4-7"
       d="m 75.892208,978.07841 c -0.388,-1.51275 2.45272,-7.02018 4.4493,-6.62162 2.00653,0.40054 3.58604,6.64819 2.30413,7.6469 -1.49844,1.16741 -6.2744,0.84229 -6.75343,-1.02528 z"
       style="fill:#ffedb9;fill-opacity:1;fill-rule:evenodd;stroke:none;stroke-width:1px;stroke-linecap:butt;stroke-linejoin:miter;stroke-opacity:1" />
    <path
       id="path4507-2-8"
       d="m 100.49297,961.3082 c 0.16065,1.25218 -2.667842,5.38692 -4.229742,4.86802 -1.56966,-0.52147 -2.21354,-5.69088 -1.08557,-6.36417 1.31849,-0.78702 5.117332,-0.0498 5.315312,1.49615 z"
       style="fill:#ffedb9;fill-opacity:1;fill-rule:evenodd;stroke:none;stroke-width:1px;stroke-linecap:butt;stroke-linejoin:miter;stroke-opacity:1" />
    <path
       id="path4507-9-7"
       d="m 104.86776,986.17358 c -0.72411,-1.03413 -0.14088,-6.00968 1.48327,-6.27601 1.63222,-0.26765 4.60449,4.01056 3.91857,5.13089 -0.80181,1.30957 -4.50814,2.42204 -5.40184,1.14512 z"
       style="fill:#ffedb9;fill-opacity:1;fill-rule:evenodd;stroke:none;stroke-width:1px;stroke-linecap:butt;stroke-linejoin:miter;stroke-opacity:1" />
    <path
       id="path4507-92-5"
       d="m 54.733438,983.90204 c 1.25837,-0.92489 7.42822,-0.34658 7.80416,1.65439 0.37781,2.01093 -4.82787,5.80945 -6.23307,4.99329 -1.64256,-0.95403 -3.12464,-5.50583 -1.57109,-6.64768 z"
       style="fill:#ffedb9;fill-opacity:1;fill-rule:evenodd;stroke:none;stroke-width:1px;stroke-linecap:butt;stroke-linejoin:miter;stroke-opacity:1" />
    <path
       id="path4507-27-5"
       d="m 36.116018,1019.4896 c -0.76823,-1.6 1.17559,-8.3691 3.48946,-8.368 2.32535,8e-4 5.47259,6.6141 4.26546,8.0118 -1.41104,1.6338 -6.80647,2.3315 -7.75492,0.3562 z"
       style="fill:#ffedb9;fill-opacity:1;fill-rule:evenodd;stroke:none;stroke-width:1px;stroke-linecap:butt;stroke-linejoin:miter;stroke-opacity:1" />
    <path
       id="path4507-27-3-4"
       d="m 17.940703,1004.9832 c 0.770218,-1.3566 6.631952,-3.3457 7.790825,-1.6744 1.16486,1.6794 -2.032846,7.2663 -3.647024,7.0952 -1.886828,-0.2 -5.094679,-3.7461 -4.143801,-5.4208 z"
       style="fill:#ffedb9;fill-opacity:1;fill-rule:evenodd;stroke:none;stroke-width:1px;stroke-linecap:butt;stroke-linejoin:miter;stroke-opacity:1" />
    <path
       id="path4507-27-4-1"
       d="m 31.928188,992.56741 c -1.34371,-0.0773 -5.1228,-3.85106 -4.27305,-5.38625 0.85376,-1.54296 6.39754,-1.205 6.88218,0.10897 0.56648,1.53594 -0.95021,5.37263 -2.60913,5.27728 z"
       style="fill:#ffedb9;fill-opacity:1;fill-rule:evenodd;stroke:none;stroke-width:1px;stroke-linecap:butt;stroke-linejoin:miter;stroke-opacity:1" />
  </g>
</svg>
