<?xml version="1.0" encoding="UTF-8" standalone="no"?>
<svg
   xmlns:dc="http://purl.org/dc/elements/1.1/"
   xmlns:cc="http://creativecommons.org/ns#"
   xmlns:rdf="http://www.w3.org/1999/02/22-rdf-syntax-ns#"
   xmlns:svg="http://www.w3.org/2000/svg"
   xmlns="http://www.w3.org/2000/svg"
   id="svg8"
   version="1.1"
   viewBox="0 0 107.21236 13.031381"
   height="49.252464"
   width="405.21207">
  <defs
     id="defs2" />
  <metadata
     id="metadata5">
    <rdf:RDF>
      <cc:Work
         rdf:about="">
        <dc:format>image/svg+xml</dc:format>
        <dc:type
           rdf:resource="http://purl.org/dc/dcmitype/StillImage" />
        <dc:title></dc:title>
      </cc:Work>
    </rdf:RDF>
  </metadata>
  <g
     transform="translate(5.9810303,-201.28179)"
     id="layer1">
    <path
       id="path5126"
       transform="matrix(0.26458333,0,0,0.26458333,0,169.99998)"
       d="m -8.9765625,120.74023 c -5.2698025,0.0912 -13.4617775,1.04885 -13.5410155,6.51563 l -0.08789,6.08008 c -8.31e-4,5.34761 6.825597,9.68164 15.2480471,9.68164 8.4224883,0 15.2507937,-4.33403 15.25,-9.68164 v -5.84571 c -3.4552441,-1.75884 -7.35921041,-6.60077 -14.8222656,-6.74609 -0.6013559,-0.0117 -1.294046,-0.0169 -2.046875,-0.004 z m 98.5527345,0.80469 c -5.269803,0.0912 -13.463731,1.04885 -13.542969,6.51563 l -0.08789,6.07812 c -8.31e-4,5.34762 6.82755,9.6836 15.25,9.6836 8.422489,0 15.248837,-4.33598 15.248047,-9.6836 v -5.84375 c -3.45524,-1.75884 -7.357257,-6.60077 -14.820312,-6.74609 -0.601356,-0.0117 -1.294046,-0.0169 -2.046875,-0.004 z m 272.261718,0.8086 c -4.3594,0.0363 -8.73499,1.05351 -9.32422,4.91406 l -0.91797,6.00976 c -0.73097,5.29743 5.44159,10.52387 13.78516,11.67383 8.34361,1.15 15.6984,-2.21211 16.42773,-7.50976 l 0.79688,-5.78907 c -3.18274,-2.21416 -6.38645,-7.54602 -13.75977,-8.70898 -1.78237,-0.28114 -4.39217,-0.61164 -7.00781,-0.58984 z m -155.66211,2.73046 c -1.87727,-0.0372 -3.90656,0.22495 -6.0918,1.04102 -4.5077,1.68336 -14.31471,5.94843 -12.0996,11.79102 l 2.15624,5.68554 c 1.96727,4.97261 9.91085,6.49029 17.74219,3.39063 7.83138,-3.09963 12.58402,-9.64323 10.61524,-14.61524 l -2.15039,-5.43359 c -2.65378,-0.24997 -6.04189,-1.77749 -10.17188,-1.85938 z m -213.6894519,1.57227 c 4.901367,0.15874 6.93280007,3.22559 6.93359378,5.83203 3.4015e-4,2.60704 -3.14245408,4.72082 -7.01953128,4.7207 -3.8770396,1.2e-4 -7.0198336,-2.11366 -7.0195316,-4.7207 7.94e-4,-2.6064 2.373992,-5.98529 7.1054691,-5.83203 z m 98.5507809,0.80469 c 4.901367,0.15874 6.934754,3.22364 6.935547,5.83008 3.4e-4,2.607 -3.142454,4.72077 -7.019531,4.7207 -3.877039,7e-5 -7.019834,-2.1137 -7.019531,-4.7207 7.93e-4,-2.60644 2.372038,-5.98334 7.103515,-5.83008 z m 274.759771,1.13281 c 0.52416,-0.0113 1.07882,0.0272 1.6621,0.12695 4.8338,0.82647 6.42736,4.14248 6.07227,6.72461 -0.35562,2.58267 -3.7569,4.24624 -7.59766,3.7168 -3.84074,-0.52929 -6.6668,-3.05222 -6.31054,-5.63477 0.31209,-2.2592 2.50469,-4.85423 6.17383,-4.93359 z m -160.92579,2.65234 c 2.84104,0.006 4.71753,1.64351 5.4375,3.46094 0.95976,2.42389 -1.18405,5.54585 -4.78906,6.97266 -3.60491,1.42688 -7.30452,0.61946 -8.26367,-1.80469 -0.95849,-2.42377 0.003,-6.43833 4.45898,-8.03711 1.15395,-0.41406 2.20924,-0.59394 3.15625,-0.5918 z m -74.49218,5.0293 c -4.35929,0.0478 -8.73148,1.07541 -9.31055,4.9375 l -0.90234,6.01172 c -0.71705,5.29931 5.46984,10.51063 13.8164,11.63867 8.34661,1.12808 15.69277,-2.25515 16.4082,-7.55469 l 0.78321,-5.79101 c -3.18855,-2.20573 -6.40881,-7.52831 -13.78516,-8.67188 -1.7831,-0.27645 -4.39419,-0.59898 -7.00976,-0.57031 z m -91.406254,3.08594 c -1.552625,-0.0186 -3.217953,0.18103 -5.001953,0.72851 -4.600037,1.41166 -14.642165,5.08654 -12.779297,11.05078 l 1.8125,5.80274 c 1.667332,5.08105 9.50562,7.07062 17.507813,4.44336 8.002227,-2.6273 13.137627,-8.87652 11.46875,-13.95703 l -1.822266,-5.55274 c -2.873613,-0.44492 -6.527671,-2.45992 -11.185547,-2.51562 z m 214.248044,1.37695 c -5.2698,0.0912 -13.46373,1.04885 -13.54297,6.51563 l -0.0879,6.07812 c -8.3e-4,5.34762 6.82755,9.68359 15.25,9.68359 8.42249,0 15.2508,-4.33597 15.25,-9.68359 l -0.002,-5.84375 c -3.45524,-1.75884 -7.35726,-6.60272 -14.82031,-6.74805 -0.60136,-0.0117 -1.29405,-0.015 -2.04688,-0.002 z m -118.86523,1.76563 c 0.52413,-0.0127 1.07857,0.0249 1.66211,0.12304 4.83595,0.81377 6.43814,4.12594 6.08984,6.70899 -0.34881,2.58357 -3.74575,4.25567 -7.58789,3.73633 -3.84212,-0.5192 -6.67368,-3.03373 -6.32422,-5.61719 0.30614,-2.26 2.49124,-4.86217 6.16016,-4.95117 z m 191.71289,1.98828 c -1.20862,0.0278 -2.48717,0.19533 -3.83984,0.55469 -4.65047,1.23537 -14.82575,4.5238 -13.19141,10.55468 l 1.5918,5.86719 c 1.47258,5.14088 9.22971,7.42798 17.32617,5.10742 8.09649,-2.32059 13.46438,-8.36934 11.99023,-13.50976 l -1.60937,-5.61719 c -3.09247,-0.60026 -7.03021,-3.07757 -12.26758,-2.95703 z m -288.355469,0.98633 c 3.262315,-0.10415 5.291912,1.77718 5.953125,3.78906 0.813543,2.4768 -1.511668,5.46449 -5.195313,6.67383 -3.683563,1.20945 -7.329643,0.18206 -8.142578,-2.29493 -0.812292,-2.47661 0.388444,-6.42554 4.931641,-7.75586 0.882434,-0.25839 1.700283,-0.38807 2.453125,-0.4121 z m 216.970699,1.17578 c 4.90137,0.15874 6.9328,3.22364 6.9336,5.83008 3.4e-4,2.607 -3.14246,4.72077 -7.01953,4.7207 -3.87704,7e-5 -7.01984,-2.1137 -7.01954,-4.7207 8e-4,-2.60644 2.374,-5.98334 7.10547,-5.83008 z m 71.08008,3.91797 c 3.26392,0.0202 5.22059,1.97808 5.80469,4.01367 0.71861,2.50601 -1.72023,5.40448 -5.44727,6.47265 -3.72695,1.06829 -7.33083,-0.0974 -8.04882,-2.60351 -0.71737,-2.50579 0.63404,-6.40818 5.22461,-7.56446 0.89163,-0.22459 1.71358,-0.32301 2.46679,-0.31835 z"
       style="fill:#333032;fill-opacity:1;stroke:none;stroke-width:7.45516109;stroke-linecap:butt;stroke-linejoin:miter;stroke-miterlimit:4;stroke-dasharray:none;stroke-opacity:1" />
    <path
       id="path5118"
       transform="matrix(0.26458333,0,0,0.26458333,0,169.99998)"
       d="m -7.3574219,118.23047 a 15.249193,9.6820276 0 0 0 -15.2480471,9.68164 15.249193,9.6820276 0 0 0 15.2480471,9.68359 15.249193,9.6820276 0 0 0 15.25,-9.68359 15.249193,9.6820276 0 0 0 -15.25,-9.68164 z m 98.5527339,0.80469 a 15.249193,9.6820276 0 0 0 -15.25,9.68164 15.249193,9.6820276 0 0 0 15.25,9.68359 15.249193,9.6820276 0 0 0 15.248048,-9.68359 15.249193,9.6820276 0 0 0 -15.248048,-9.68164 z m 274.541018,1.13867 a 15.249193,9.6820276 7.8475008 0 0 -13.40039,7.73242 15.249193,9.6820276 7.8475008 0 0 13.7832,11.67383 15.249193,9.6820276 7.8475008 0 0 16.42969,-7.50977 15.249193,9.6820276 7.8475008 0 0 -13.78516,-11.67383 15.249193,9.6820276 7.8475008 0 0 -3.02734,-0.22265 z m -158.75,2.16797 a 9.6820276,15.249193 68.406334 0 0 -8.22461,1.60351 9.6820276,15.249193 68.406334 0 0 -10.61719,14.61524 9.6820276,15.249193 68.406334 0 0 17.74219,3.39062 9.6820276,15.249193 68.406334 0 0 10.61523,-14.61523 9.6820276,15.249193 68.406334 0 0 -9.51562,-4.99414 z m -214.5859394,0.006 a 7.0194694,4.7199886 0 0 1 7.01953128,4.71875 7.0194694,4.7199886 0 0 1 -7.01953128,4.7207 7.0194694,4.7199886 0 0 1 -7.0195316,-4.7207 7.0194694,4.7199886 0 0 1 7.0195316,-4.71875 z m 98.5527344,0.80273 a 7.0194694,4.7199886 0 0 1 7.019531,4.71875 7.0194694,4.7199886 0 0 1 -7.019531,4.7207 7.0194694,4.7199886 0 0 1 -7.019531,-4.7207 7.0194694,4.7199886 0 0 1 7.019531,-4.71875 z m 275.818355,1.19531 a 7.0194694,4.7199886 7.8475008 0 1 1.19141,0.0957 7.0194694,4.7199886 7.8475008 0 1 6.30859,5.63281 7.0194694,4.7199886 7.8475008 0 1 -7.59765,3.7168 7.0194694,4.7199886 7.8475008 0 1 -6.31055,-5.63477 7.0194694,4.7199886 7.8475008 0 1 6.4082,-3.81055 z m -163.3789,2.81446 a 4.7199886,7.0194694 68.406334 0 1 4.92187,2.50586 4.7199886,7.0194694 68.406334 0 1 -4.79101,6.97265 4.7199886,7.0194694 68.406334 0 1 -8.26367,-1.80469 4.7199886,7.0194694 68.406334 0 1 4.79101,-6.97265 4.7199886,7.0194694 68.406334 0 1 3.3418,-0.70117 z m -69.11914,6.92578 a 15.249193,9.6820276 7.6969273 0 0 -13.38086,7.76562 15.249193,9.6820276 7.6969273 0 0 13.81445,11.63867 15.249193,9.6820276 7.6969273 0 0 16.41016,-7.55468 15.249193,9.6820276 7.6969273 0 0 -13.81641,-11.63672 15.249193,9.6820276 7.6969273 0 0 -3.02734,-0.21289 z m -94.593752,2.59375 a 9.6820276,15.249193 71.823968 0 0 -6.898438,1.15625 9.6820276,15.249193 71.823968 0 0 -11.46875,13.95703 9.6820276,15.249193 71.823968 0 0 17.507812,4.44141 9.6820276,15.249193 71.823968 0 0 11.46875,-13.95508 9.6820276,15.249193 71.823968 0 0 -10.609374,-5.59961 z m 215.160152,1.54883 a 15.249193,9.6820276 0 0 0 -15.25,9.68164 15.249193,9.6820276 0 0 0 15.25,9.68359 15.249193,9.6820276 0 0 0 15.24805,-9.68359 15.249193,9.6820276 0 0 0 -15.24805,-9.68164 z m -119.51953,0.0254 a 7.0194694,4.7199886 7.6969273 0 1 1.18946,0.0918 7.0194694,4.7199886 7.6969273 0 1 6.32421,5.61719 7.0194694,4.7199886 7.6969273 0 1 -7.58789,3.73633 7.0194694,4.7199886 7.6969273 0 1 -6.32421,-5.61719 7.0194694,4.7199886 7.6969273 0 1 6.39843,-3.82812 z m -98.109372,3.06836 a 4.7199886,7.0194694 71.823968 0 1 4.765624,2.79492 4.7199886,7.0194694 71.823968 0 1 -5.197265,6.67383 4.7199886,7.0194694 71.823968 0 1 -8.142578,-2.29493 4.7199886,7.0194694 71.823968 0 1 5.197265,-6.67382 4.7199886,7.0194694 71.823968 0 1 3.376954,-0.5 z m 290.853512,0.5332 a 9.6820276,15.249193 74.006901 0 0 -6.93945,0.89258 9.6820276,15.249193 74.006901 0 0 -11.99023,13.50976 9.6820276,15.249193 74.006901 0 0 17.32617,5.10547 9.6820276,15.249193 74.006901 0 0 11.99023,-13.50976 9.6820276,15.249193 74.006901 0 0 -10.38672,-5.99805 z m -73.46679,0.48828 a 7.0194694,4.7199886 0 0 1 7.01953,4.71875 7.0194694,4.7199886 0 0 1 -7.01953,4.7207 7.0194694,4.7199886 0 0 1 -7.01954,-4.7207 7.0194694,4.7199886 0 0 1 7.01954,-4.71875 z m 70.1582,4.0332 a 4.7199886,7.0194694 74.006901 0 1 5.31836,2.99805 4.7199886,7.0194694 74.006901 0 1 -5.44727,6.4707 4.7199886,7.0194694 74.006901 0 1 -8.04883,-2.60351 4.7199886,7.0194694 74.006901 0 1 5.44922,-6.47071 4.7199886,7.0194694 74.006901 0 1 2.72852,-0.39453 z"
       style="fill:#655c58;fill-opacity:1;stroke:none;stroke-width:7.45516109;stroke-linecap:butt;stroke-linejoin:miter;stroke-miterlimit:4;stroke-dasharray:none;stroke-opacity:1" />
  </g>
</svg>
