<?xml version="1.0" encoding="UTF-8" standalone="no"?>
<svg
   xmlns:dc="http://purl.org/dc/elements/1.1/"
   xmlns:cc="http://creativecommons.org/ns#"
   xmlns:rdf="http://www.w3.org/1999/02/22-rdf-syntax-ns#"
   xmlns:svg="http://www.w3.org/2000/svg"
   xmlns="http://www.w3.org/2000/svg"
   width="451.04623"
   height="82.781441"
   viewBox="0 0 119.33931 21.90259"
   version="1.1"
   id="svg8">
  <defs
     id="defs2" />
  <metadata
     id="metadata5">
    <rdf:RDF>
      <cc:Work
         rdf:about="">
        <dc:format>image/svg+xml</dc:format>
        <dc:type
           rdf:resource="http://purl.org/dc/dcmitype/StillImage" />
        <dc:title></dc:title>
      </cc:Work>
    </rdf:RDF>
  </metadata>
  <path
     id="path4914-99"
     d="m 29.18217,17.66249 c -0.74042,0.10688 -1.47891,0.17756 -2.21175,0.20825 -0.75134,0.0315 -1.49734,0.0238 -2.23553,-0.0217 -0.73818,-0.0455 -1.4682,-0.12882 -2.18798,-0.24805 -0.71978,-0.11922 -1.42934,-0.27426 -2.12545,-0.46405 -0.69611,-0.1898 -1.37869,-0.4141 -2.04587,-0.67128 -0.66718,-0.25718 -1.31883,-0.5473 -1.95182,-0.86868 C 15.79078,15.27559 15.17608,14.92312 14.58254,14.54071 13.989,14.1583 13.41675,13.74589 12.86792,13.30565 12.31908,12.8654 11.79375,12.39701 11.29489,11.90211 10.79602,11.40722 10.32362,10.88578 9.87999,10.33942 9.43635,9.79306 9.02134,9.22203 8.6382,8.62738 8.25506,8.03273 7.90346,7.41453 7.58607,6.77478 7.26867,6.13503 6.98548,5.47362 6.73909,4.79195 6.49271,4.11028 6.28341,3.40861 6.11329,2.6882 6.10829,2.6665 6.10629,2.6433 6.10139,2.6215 L 5.91277,2.92949 c -0.28348,6.99255 10.86711,19.7491 23.52931,15.68586 z"
     style="fill:#627f37;fill-opacity:1;stroke:none;stroke-width:0.26458332px;stroke-linecap:butt;stroke-linejoin:miter;stroke-opacity:1" />
  <path
     id="path4902-2"
     d="M 7.70802,0 6.10141,2.62155 c 0.005,0.0217 0.007,0.045 0.0119,0.0667 0.17011,0.7204 0.37941,1.42208 0.6258,2.10374 0.24638,0.68167 0.52958,1.34308 0.84697,1.98283 0.3174,0.63975 0.66899,1.25795 1.05214,1.8526 0.38314,0.59465 0.79815,1.16568 1.24178,1.71204 0.44363,0.54636 0.91604,1.0678 1.4149,1.56269 0.49886,0.4949 1.0242,0.96329 1.57303,1.40354 0.54883,0.44024 1.12108,0.85266 1.71463,1.23506 0.59354,0.38241 1.20824,0.73488 1.84123,1.05627 0.63299,0.32139 1.28464,0.6115 1.95181,0.86868 0.66719,0.25718 1.34977,0.48148 2.04588,0.67128 0.69611,0.18979 1.40567,0.34483 2.12545,0.46405 0.71978,0.11923 1.44979,0.20258 2.18798,0.24805 0.73819,0.0455 1.48418,0.0532 2.23552,0.0217 0.73285,-0.0307 1.47133,-0.10137 2.21175,-0.20825 L 28.59152,15.49729 C 17.9137,17.76515 6.00715,7.1816 7.70804,5e-5 Z"
     style="fill:#b4bc5c;fill-opacity:1;stroke:none;stroke-width:0.26458332px;stroke-linecap:butt;stroke-linejoin:miter;stroke-opacity:1" />
  <path
     id="path4914-9-9"
     d="m 10.16046,5.47512 c 0.40993,0.46135 0.83792,0.89884 1.28362,1.30813 0.45696,0.41961 0.93138,0.81168 1.42097,1.1758 0.4896,0.36411 0.9942,0.69998 1.51144,1.0078 0.51723,0.30781 1.04708,0.58761 1.58694,0.83834 0.53986,0.25072 1.08955,0.4725 1.64703,0.66535 0.55748,0.19284 1.12269,0.35667 1.69277,0.49084 0.57008,0.13418 1.14518,0.23903 1.72285,0.31375 0.57768,0.0747 1.15791,0.11918 1.73818,0.13364 0.58026,0.0145 1.16069,-0.001 1.73853,-0.0479 0.57785,-0.0466 1.15313,-0.12397 1.72353,-0.23239 0.57041,-0.10841 1.13589,-0.24761 1.69385,-0.41865 0.55796,-0.17105 1.10857,-0.37373 1.64907,-0.60819 0.54051,-0.23446 1.07098,-0.50078 1.58902,-0.79945 0.51804,-0.29867 1.02334,-0.62969 1.51391,-0.99337 0.0148,-0.0109 0.0282,-0.0247 0.043,-0.0357 l -0.045,0.29453 C 29.12829,13.12707 15.31068,15.23665 9.48954,5.9376 Z"
     style="fill:#627f37;fill-opacity:1;stroke:none;stroke-width:0.21827723px;stroke-linecap:butt;stroke-linejoin:miter;stroke-opacity:1" />
  <path
     id="path4902-0-7"
     d="m 33.09709,5.76546 -0.38195,2.50765 c -0.0148,0.011 -0.0282,0.0248 -0.043,0.0357 -0.49057,0.36368 -0.99587,0.6947 -1.51391,0.99337 -0.51805,0.29867 -1.04851,0.56499 -1.58902,0.79945 -0.54051,0.23446 -1.09111,0.43714 -1.64907,0.60818 -0.55796,0.17105 -1.12344,0.31024 -1.69385,0.41866 -0.5704,0.10842 -1.14569,0.18581 -1.72353,0.23239 -0.57784,0.0466 -1.15827,0.0624 -1.73854,0.0479 -0.58026,-0.0145 -1.16049,-0.0589 -1.73817,-0.13365 -0.57768,-0.0747 -1.15277,-0.17956 -1.72285,-0.31374 -0.57009,-0.13418 -1.1353,-0.298 -1.69277,-0.49085 C 17.05295,10.27767 16.50326,10.0559 15.9634,9.80517 15.42354,9.55445 14.89369,9.27465 14.37645,8.96683 13.85922,8.65902 13.35462,8.32314 12.86502,7.95904 12.37542,7.59493 11.901,7.20285 11.44405,6.78324 10.99834,6.37395 10.57036,5.93646 10.16042,5.47511 l 1.52447,-1.05084 c 5.52535,7.11128 18.66336,6.77393 21.41216,1.34118 z"
     style="fill:#b4bc5c;fill-opacity:1;stroke:none;stroke-width:0.21827723px;stroke-linecap:butt;stroke-linejoin:miter;stroke-opacity:1" />
  <path
     id="path4914-9-8-2"
     d="m 22.92031,3.47095 c 0.30094,0.53883 0.62463,1.05824 0.97171,1.55393 0.35584,0.50819 0.73467,0.99326 1.13433,1.45429 0.39967,0.46102 0.82007,0.89771 1.25886,1.30971 0.43879,0.41201 0.89592,0.79937 1.3691,1.16051 0.47318,0.36113 0.96219,0.69611 1.46504,1.00452 0.50285,0.3084 1.0195,0.59013 1.5473,0.84396 0.52779,0.25383 1.0668,0.4801 1.61482,0.6775 0.54803,0.1974 1.10505,0.36581 1.66858,0.50493 0.56353,0.13912 1.13373,0.24873 1.70804,0.32772 0.57431,0.079 1.15276,0.12733 1.73313,0.14433 0.58036,0.017 1.16256,0.003 1.74426,-0.044 0.58171,-0.0468 1.16305,-0.12616 1.74137,-0.23868 0.57832,-0.11253 1.1537,-0.25832 1.72392,-0.43839 0.57021,-0.18007 1.13496,-0.39447 1.69235,-0.64394 0.0168,-0.008 0.0329,-0.018 0.0496,-0.0256 l -0.10734,0.27794 C 39.79451,15.0291 25.84686,14.1127 22.16549,3.77801 Z"
     style="fill:#627f37;fill-opacity:1;stroke:none;stroke-width:0.21827723px;stroke-linecap:butt;stroke-linejoin:miter;stroke-opacity:1" />
  <path
     id="path4902-0-5-5"
     d="m 45.25593,8.69527 -0.91316,2.36651 c -0.0168,0.008 -0.0329,0.0181 -0.0496,0.0256 -0.55739,0.24947 -1.12214,0.46387 -1.69235,0.64394 -0.57022,0.18007 -1.1456,0.32586 -1.72392,0.43839 -0.57833,0.11252 -1.15966,0.19184 -1.74137,0.23868 -0.58171,0.0468 -1.1639,0.061 -1.74427,0.044 -0.58036,-0.017 -1.15881,-0.0653 -1.73312,-0.14433 -0.57431,-0.079 -1.14452,-0.1886 -1.70804,-0.32772 -0.56353,-0.13912 -1.12056,-0.30753 -1.66858,-0.50493 -0.54802,-0.1974 -1.08703,-0.42367 -1.61483,-0.6775 C 30.1389,10.54408 29.62225,10.26235 29.1194,9.95394 28.61655,9.64554 28.12754,9.31056 27.65436,8.94943 27.18118,8.58829 26.72405,8.20093 26.28526,7.78892 25.84647,7.37692 25.42607,6.94023 25.0264,6.47921 24.62673,6.01818 24.2479,5.53312 23.89207,5.02492 23.54499,4.52923 23.22129,4.00981 22.92036,3.47099 L 24.6354,2.77322 c 3.86379,8.13455 16.76603,10.63518 20.62057,5.92209 z"
     style="fill:#b4bc5c;fill-opacity:1;stroke:none;stroke-width:0.21827723px;stroke-linecap:butt;stroke-linejoin:miter;stroke-opacity:1" />
  <path
     id="path4914-7-7"
     d="m 27.06662,9.94834 c -0.36402,0.65355 -0.75565,1.28361 -1.17566,1.88494 -0.43061,0.6165 -0.88913,1.205 -1.37293,1.7644 -0.48381,0.55939 -0.99278,1.08931 -1.52408,1.58933 -0.53129,0.50003 -1.08486,0.97021 -1.65791,1.40862 -0.57305,0.43841 -1.16534,0.84514 -1.77442,1.21968 -0.60909,0.37454 -1.23495,0.71676 -1.87436,1.02518 -0.63941,0.30842 -1.29244,0.58345 -1.95645,0.8235 -0.664,0.24004 -1.33896,0.44496 -2.02184,0.61439 -0.68288,0.16943 -1.3739,0.3031 -2.06993,0.39965 -0.69603,0.0966 -1.39713,0.15596 -2.10059,0.17739 -0.70347,0.0214 -1.40919,0.005 -2.11436,-0.0508 C 6.71891,20.74862 6.01413,20.65333 5.31297,20.51775 4.6118,20.38216 3.91415,20.20625 3.22271,19.98878 2.53128,19.77132 1.84642,19.51222 1.17044,19.21062 c -0.0204,-0.009 -0.0399,-0.0218 -0.0602,-0.031 l 0.1305,0.33675 c 5.38816,4.46586 22.29341,3.33545 26.74122,-9.19684 z"
     style="fill:#627f37;fill-opacity:1;stroke:none;stroke-width:0.26458332px;stroke-linecap:butt;stroke-linejoin:miter;stroke-opacity:1" />
  <path
     id="path4902-9-1"
     d="m 1e-5,16.31235 1.11021,2.86726 c 0.0203,0.009 0.0399,0.0219 0.0602,0.031 0.67598,0.3016 1.36084,0.56069 2.05227,0.77816 0.69144,0.21747 1.38909,0.39338 2.09026,0.52897 0.70116,0.13558 1.40594,0.23091 2.11112,0.28687 0.70517,0.0559 1.41089,0.0722 2.11436,0.0508 0.70346,-0.0214 1.40456,-0.0808 2.10059,-0.1774 0.69604,-0.0965 1.38705,-0.23021 2.06993,-0.39964 0.68288,-0.16943 1.35784,-0.37435 2.02184,-0.61439 0.66401,-0.24005 1.31704,-0.51508 1.95645,-0.8235 0.63941,-0.30842 1.26527,-0.65064 1.87436,-1.02518 0.60909,-0.37454 1.20137,-0.78127 1.77442,-1.21968 0.57305,-0.43841 1.12662,-0.90859 1.65791,-1.40862 0.5313,-0.50002 1.04027,-1.02994 1.52408,-1.58933 0.48381,-0.55939 0.94232,-1.14789 1.37293,-1.7644 0.42001,-0.60133 0.81164,-1.23139 1.17566,-1.88495 L 24.98675,9.10493 C 20.31472,18.9706 4.67888,22.01986 0,16.31234 Z"
     style="fill:#b4bc5c;fill-opacity:1;stroke:none;stroke-width:0.26458332px;stroke-linecap:butt;stroke-linejoin:miter;stroke-opacity:1" />
  <path
     style="fill:#627f37;fill-opacity:1;stroke:none;stroke-width:0.26458332px;stroke-linecap:butt;stroke-linejoin:miter;stroke-opacity:1"
     d="m 66.223843,17.66249 c -0.74042,0.10688 -1.47891,0.17756 -2.21175,0.20825 -0.75134,0.0315 -1.49734,0.0238 -2.23553,-0.0217 -0.73818,-0.0455 -1.4682,-0.12882 -2.18798,-0.24805 -0.71978,-0.11922 -1.42934,-0.27426 -2.12545,-0.46405 -0.69611,-0.1898 -1.37869,-0.4141 -2.04587,-0.67128 -0.66718,-0.25718 -1.31883,-0.5473 -1.95182,-0.86868 -0.63299,-0.32139 -1.24769,-0.67386 -1.84123,-1.05627 -0.59354,-0.38241 -1.16579,-0.79482 -1.71462,-1.23506 -0.54884,-0.44025 -1.07417,-0.90864 -1.57303,-1.40354 -0.49887,-0.49489 -0.97127,-1.01633 -1.4149,-1.56269 -0.44364,-0.54636 -0.85865,-1.11739 -1.24179,-1.71204 -0.38314,-0.59465 -0.73474,-1.21285 -1.05213,-1.8526 -0.3174,-0.63975 -0.60059,-1.30116 -0.84698,-1.98283 -0.24638,-0.68167 -0.45568,-1.38334 -0.6258,-2.10375 -0.005,-0.0217 -0.007,-0.0449 -0.0119,-0.0667 l -0.18862,0.30799 c -0.28348,6.99255 10.86711,19.7491 23.52931,15.68586 z"
     id="path11056" />
  <path
     style="fill:#b4bc5c;fill-opacity:1;stroke:none;stroke-width:0.26458332px;stroke-linecap:butt;stroke-linejoin:miter;stroke-opacity:1"
     d="m 44.749693,0 -1.60661,2.62155 c 0.005,0.0217 0.007,0.045 0.0119,0.0667 0.17011,0.7204 0.37941,1.42208 0.6258,2.10374 0.24638,0.68167 0.52958,1.34308 0.84697,1.98283 0.3174,0.63975 0.66899,1.25795 1.05214,1.8526 0.38314,0.59465 0.79815,1.16568 1.24178,1.71204 0.44363,0.54636 0.91604,1.0678 1.4149,1.56269 0.49886,0.4949 1.0242,0.96329 1.57303,1.40354 0.54883,0.44024 1.12108,0.85266 1.71463,1.23506 0.59354,0.38241 1.20824,0.73488 1.84123,1.05627 0.63299,0.32139 1.28464,0.6115 1.95181,0.86868 0.66719,0.25718 1.34977,0.48148 2.04588,0.67128 0.69611,0.18979 1.40567,0.34483 2.12545,0.46405 0.71978,0.11923 1.44979,0.20258 2.18798,0.24805 0.73819,0.0455 1.48418,0.0532 2.23552,0.0217 0.73285,-0.0307 1.47133,-0.10137 2.21175,-0.20825 l -0.59066,-2.16524 C 54.955373,17.76515 43.048823,7.1816 44.749713,5e-5 Z"
     id="path11058" />
  <path
     style="fill:#627f37;fill-opacity:1;stroke:none;stroke-width:0.21827723px;stroke-linecap:butt;stroke-linejoin:miter;stroke-opacity:1"
     d="m 47.202133,5.47512 c 0.40993,0.46135 0.83792,0.89884 1.28362,1.30813 0.45696,0.41961 0.93138,0.81168 1.42097,1.1758 0.4896,0.36411 0.9942,0.69998 1.51144,1.0078 0.51723,0.30781 1.04708,0.58761 1.58694,0.83834 0.53986,0.25072 1.08955,0.4725 1.64703,0.66535 0.55748,0.19284 1.12269,0.35667 1.69277,0.49084 0.57008,0.13418 1.14518,0.23903 1.72285,0.31375 0.57768,0.0747 1.15791,0.11918 1.73818,0.13364 0.58026,0.0145 1.16069,-0.001 1.73853,-0.0479 0.57785,-0.0466 1.15313,-0.12397 1.72353,-0.23239 0.57041,-0.10841 1.13589,-0.24761 1.69385,-0.41865 0.55796,-0.17105 1.10857,-0.37373 1.64907,-0.60819 0.54051,-0.23446 1.07098,-0.50078 1.58902,-0.79945 0.51804,-0.29867 1.02334,-0.62969 1.51391,-0.99337 0.0148,-0.0109 0.0282,-0.0247 0.043,-0.0357 l -0.045,0.29453 c -3.54188,4.55942 -17.35949,6.669 -23.18063,-2.63005 z"
     id="path11060" />
  <path
     style="fill:#b4bc5c;fill-opacity:1;stroke:none;stroke-width:0.21827723px;stroke-linecap:butt;stroke-linejoin:miter;stroke-opacity:1"
     d="m 70.138763,5.76546 -0.38195,2.50765 c -0.0148,0.011 -0.0282,0.0248 -0.043,0.0357 -0.49057,0.36368 -0.99587,0.6947 -1.51391,0.99337 -0.51805,0.29867 -1.04851,0.56499 -1.58902,0.79945 -0.54051,0.23446 -1.09111,0.43714 -1.64907,0.60818 -0.55796,0.17105 -1.12344,0.31024 -1.69385,0.41866 -0.5704,0.10842 -1.14569,0.18581 -1.72353,0.23239 -0.57784,0.0466 -1.15827,0.0624 -1.73854,0.0479 -0.58026,-0.0145 -1.16049,-0.0589 -1.73817,-0.13365 -0.57768,-0.0747 -1.15277,-0.17956 -1.72285,-0.31374 -0.57009,-0.13418 -1.1353,-0.298 -1.69277,-0.49085 -0.55748,-0.19285 -1.10717,-0.41462 -1.64703,-0.66535 -0.53986,-0.25072 -1.06971,-0.53052 -1.58695,-0.83834 -0.51723,-0.30781 -1.02183,-0.64369 -1.51143,-1.00779 -0.4896,-0.36411 -0.96402,-0.75619 -1.42097,-1.1758 -0.44571,-0.40929 -0.87369,-0.84678 -1.28363,-1.30813 l 1.52447,-1.05084 c 5.52535,7.11128 18.66336,6.77393 21.41216,1.34118 z"
     id="path11062" />
  <path
     style="fill:#627f37;fill-opacity:1;stroke:none;stroke-width:0.21827723px;stroke-linecap:butt;stroke-linejoin:miter;stroke-opacity:1"
     d="m 59.961983,3.47095 c 0.30094,0.53883 0.62463,1.05824 0.97171,1.55393 0.35584,0.50819 0.73467,0.99326 1.13433,1.45429 0.39967,0.46102 0.82007,0.89771 1.25886,1.30971 0.43879,0.41201 0.89592,0.79937 1.3691,1.16051 0.47318,0.36113 0.96219,0.69611 1.46504,1.00452 0.50285,0.3084 1.0195,0.59013 1.5473,0.84396 0.52779,0.25383 1.0668,0.4801 1.61482,0.6775 0.54803,0.1974 1.10505,0.36581 1.66858,0.50493 0.56353,0.13912 1.13373,0.24873 1.70804,0.32772 0.57431,0.079 1.15276,0.12733 1.73313,0.14433 0.58036,0.017 1.16256,0.003 1.74426,-0.044 0.58171,-0.0468 1.16305,-0.12616 1.74137,-0.23868 0.57832,-0.11253 1.1537,-0.25832 1.72392,-0.43839 0.57021,-0.18007 1.13496,-0.39447 1.69235,-0.64394 0.0168,-0.008 0.0329,-0.018 0.0496,-0.0256 l -0.10734,0.27794 c -4.44087,3.68942 -18.38852,2.77302 -22.06989,-7.56167 z"
     id="path11064" />
  <path
     style="fill:#b4bc5c;fill-opacity:1;stroke:none;stroke-width:0.21827723px;stroke-linecap:butt;stroke-linejoin:miter;stroke-opacity:1"
     d="m 82.297603,8.69527 -0.91316,2.36651 c -0.0168,0.008 -0.0329,0.0181 -0.0496,0.0256 -0.55739,0.24947 -1.12214,0.46387 -1.69235,0.64394 -0.57022,0.18007 -1.1456,0.32586 -1.72392,0.43839 -0.57833,0.11252 -1.15966,0.19184 -1.74137,0.23868 -0.58171,0.0468 -1.1639,0.061 -1.74427,0.044 -0.58036,-0.017 -1.15881,-0.0653 -1.73312,-0.14433 -0.57431,-0.079 -1.14452,-0.1886 -1.70804,-0.32772 -0.56353,-0.13912 -1.12056,-0.30753 -1.66858,-0.50493 -0.54802,-0.1974 -1.08703,-0.42367 -1.61483,-0.6775 -0.52779,-0.25383 -1.04444,-0.53556 -1.54729,-0.84397 -0.50285,-0.3084 -0.99186,-0.64338 -1.46504,-1.00451 -0.47318,-0.36114 -0.93031,-0.7485 -1.3691,-1.16051 -0.43879,-0.412 -0.85919,-0.84869 -1.25886,-1.30971 -0.39967,-0.46103 -0.7785,-0.94609 -1.13433,-1.45429 -0.34708,-0.49569 -0.67078,-1.01511 -0.97171,-1.55393 l 1.71504,-0.69777 c 3.86379,8.13455 16.76603,10.63518 20.62057,5.92209 z"
     id="path11066" />
  <path
     style="fill:#627f37;fill-opacity:1;stroke:none;stroke-width:0.26458332px;stroke-linecap:butt;stroke-linejoin:miter;stroke-opacity:1"
     d="m 64.108293,9.94834 c -0.36402,0.65355 -0.75565,1.28361 -1.17566,1.88494 -0.43061,0.6165 -0.88913,1.205 -1.37293,1.7644 -0.48381,0.55939 -0.99278,1.08931 -1.52408,1.58933 -0.53129,0.50003 -1.08486,0.97021 -1.65791,1.40862 -0.57305,0.43841 -1.16534,0.84514 -1.77442,1.21968 -0.60909,0.37454 -1.23495,0.71676 -1.87436,1.02518 -0.63941,0.30842 -1.29244,0.58345 -1.95645,0.8235 -0.664,0.24004 -1.33896,0.44496 -2.02184,0.61439 -0.68288,0.16943 -1.3739,0.3031 -2.06993,0.39965 -0.69603,0.0966 -1.39713,0.15596 -2.10059,0.17739 -0.70347,0.0214 -1.40919,0.005 -2.11436,-0.0508 -0.70518,-0.056 -1.40996,-0.15129 -2.11112,-0.28687 -0.70117,-0.13559 -1.39882,-0.3115 -2.09026,-0.52897 -0.69143,-0.21746 -1.37629,-0.47656 -2.05227,-0.77816 -0.0204,-0.009 -0.0399,-0.0218 -0.0602,-0.031 l 0.1305,0.33675 c 5.38816,4.46586 22.29341,3.33545 26.74122,-9.19684 z"
     id="path11068" />
  <path
     style="fill:#b4bc5c;fill-opacity:1;stroke:none;stroke-width:0.26458332px;stroke-linecap:butt;stroke-linejoin:miter;stroke-opacity:1"
     d="m 37.041683,16.31235 1.11021,2.86726 c 0.0203,0.009 0.0399,0.0219 0.0602,0.031 0.67598,0.3016 1.36084,0.56069 2.05227,0.77816 0.69144,0.21747 1.38909,0.39338 2.09026,0.52897 0.70116,0.13558 1.40594,0.23091 2.11112,0.28687 0.70517,0.0559 1.41089,0.0722 2.11436,0.0508 0.70346,-0.0214 1.40456,-0.0808 2.10059,-0.1774 0.69604,-0.0965 1.38705,-0.23021 2.06993,-0.39964 0.68288,-0.16943 1.35784,-0.37435 2.02184,-0.61439 0.66401,-0.24005 1.31704,-0.51508 1.95645,-0.8235 0.63941,-0.30842 1.26527,-0.65064 1.87436,-1.02518 0.60909,-0.37454 1.20137,-0.78127 1.77442,-1.21968 0.57305,-0.43841 1.12662,-0.90859 1.65791,-1.40862 0.5313,-0.50002 1.04027,-1.02994 1.52408,-1.58933 0.48381,-0.55939 0.94232,-1.14789 1.37293,-1.7644 0.42001,-0.60133 0.81164,-1.23139 1.17566,-1.88495 l -2.07985,-0.84339 c -4.67203,9.86567 -20.30787,12.91493 -24.98675,7.20741 z"
     id="path11070" />
  <path
     id="path11074"
     d="m 103.26551,17.66249 c -0.74042,0.10688 -1.47891,0.17756 -2.21175,0.20825 -0.75134,0.0315 -1.497338,0.0238 -2.235528,-0.0217 -0.73818,-0.0455 -1.4682,-0.12882 -2.18798,-0.24805 -0.71978,-0.11922 -1.42934,-0.27426 -2.12545,-0.46405 -0.69611,-0.1898 -1.37869,-0.4141 -2.04587,-0.67128 -0.66718,-0.25718 -1.31883,-0.5473 -1.95182,-0.86868 -0.63299,-0.32139 -1.24769,-0.67386 -1.84123,-1.05627 -0.59354,-0.38241 -1.16579,-0.79482 -1.71462,-1.23506 -0.54884,-0.44025 -1.07417,-0.90864 -1.57303,-1.40354 -0.49887,-0.49489 -0.97127,-1.01633 -1.4149,-1.56269 -0.44364,-0.54636 -0.85865,-1.11739 -1.24179,-1.71204 -0.38314,-0.59465 -0.73474,-1.21285 -1.05213,-1.8526 -0.3174,-0.63975 -0.60059,-1.30116 -0.84698,-1.98283 -0.24638,-0.68167 -0.45568,-1.38334 -0.6258,-2.10375 -0.005,-0.0217 -0.007,-0.0449 -0.0119,-0.0667 l -0.18862,0.30799 c -0.28348,6.99255 10.86711,19.7491 23.529308,15.68586 z"
     style="fill:#627f37;fill-opacity:1;stroke:none;stroke-width:0.26458332px;stroke-linecap:butt;stroke-linejoin:miter;stroke-opacity:1" />
  <path
     id="path11076"
     d="m 81.791362,0 -1.60661,2.62155 c 0.005,0.0217 0.007,0.045 0.0119,0.0667 0.17011,0.7204 0.37941,1.42208 0.6258,2.10374 0.24638,0.68167 0.52958,1.34308 0.84697,1.98283 0.3174,0.63975 0.66899,1.25795 1.05214,1.8526 0.38314,0.59465 0.79815,1.16568 1.24178,1.71204 0.44363,0.54636 0.91604,1.0678 1.4149,1.56269 0.49886,0.4949 1.0242,0.96329 1.57303,1.40354 0.54883,0.44024 1.12108,0.85266 1.71463,1.23506 0.59354,0.38241 1.20824,0.73488 1.84123,1.05627 0.63299,0.32139 1.28464,0.6115 1.95181,0.86868 0.66719,0.25718 1.34977,0.48148 2.04588,0.67128 0.69611,0.18979 1.40567,0.34483 2.12545,0.46405 0.71978,0.11923 1.44979,0.20258 2.18798,0.24805 0.73819,0.0455 1.484178,0.0532 2.235518,0.0217 0.73285,-0.0307 1.47133,-0.10137 2.21175,-0.20825 l -0.59066,-2.16524 C 91.997042,17.76515 80.090492,7.1816 81.791382,5e-5 Z"
     style="fill:#b4bc5c;fill-opacity:1;stroke:none;stroke-width:0.26458332px;stroke-linecap:butt;stroke-linejoin:miter;stroke-opacity:1" />
  <path
     id="path11078"
     d="m 84.243802,5.47512 c 0.40993,0.46135 0.83792,0.89884 1.28362,1.30813 0.45696,0.41961 0.93138,0.81168 1.42097,1.1758 0.4896,0.36411 0.9942,0.69998 1.51144,1.0078 0.51723,0.30781 1.04708,0.58761 1.58694,0.83834 0.53986,0.25072 1.08955,0.4725 1.64703,0.66535 0.55748,0.19284 1.12269,0.35667 1.69277,0.49084 0.57008,0.13418 1.14518,0.23903 1.72285,0.31375 0.57768,0.0747 1.15791,0.11918 1.73818,0.13364 0.58026,0.0145 1.16069,-0.001 1.73853,-0.0479 0.57785,-0.0466 1.15313,-0.12397 1.723528,-0.23239 0.57041,-0.10841 1.13589,-0.24761 1.69385,-0.41865 0.55796,-0.17105 1.10857,-0.37373 1.64907,-0.60819 0.54051,-0.23446 1.07098,-0.50078 1.58902,-0.79945 0.51804,-0.29867 1.02334,-0.62969 1.51391,-0.99337 0.0148,-0.0109 0.0282,-0.0247 0.043,-0.0357 l -0.045,0.29453 c -3.54188,4.55942 -17.359488,6.669 -23.180628,-2.63005 z"
     style="fill:#627f37;fill-opacity:1;stroke:none;stroke-width:0.21827723px;stroke-linecap:butt;stroke-linejoin:miter;stroke-opacity:1" />
  <path
     id="path11080"
     d="m 107.18043,5.76546 -0.38195,2.50765 c -0.0148,0.011 -0.0282,0.0248 -0.043,0.0357 -0.49057,0.36368 -0.99587,0.6947 -1.51391,0.99337 -0.51805,0.29867 -1.04851,0.56499 -1.58902,0.79945 -0.54051,0.23446 -1.09111,0.43714 -1.64907,0.60818 -0.55796,0.17105 -1.12344,0.31024 -1.69385,0.41866 -0.570398,0.10842 -1.145688,0.18581 -1.723528,0.23239 -0.57784,0.0466 -1.15827,0.0624 -1.73854,0.0479 -0.58026,-0.0145 -1.16049,-0.0589 -1.73817,-0.13365 -0.57768,-0.0747 -1.15277,-0.17956 -1.72285,-0.31374 -0.57009,-0.13418 -1.1353,-0.298 -1.69277,-0.49085 -0.55748,-0.19285 -1.10717,-0.41462 -1.64703,-0.66535 -0.53986,-0.25072 -1.06971,-0.53052 -1.58695,-0.83834 -0.51723,-0.30781 -1.02183,-0.64369 -1.51143,-1.00779 -0.4896,-0.36411 -0.96402,-0.75619 -1.42097,-1.1758 -0.44571,-0.40929 -0.87369,-0.84678 -1.28363,-1.30813 l 1.52447,-1.05084 c 5.52535,7.11128 18.663358,6.77393 21.412158,1.34118 z"
     style="fill:#b4bc5c;fill-opacity:1;stroke:none;stroke-width:0.21827723px;stroke-linecap:butt;stroke-linejoin:miter;stroke-opacity:1" />
  <path
     id="path11082"
     d="m 97.003652,3.47095 c 0.30094,0.53883 0.62463,1.05824 0.97171,1.55393 0.35584,0.50819 0.73467,0.99326 1.13433,1.45429 0.39967,0.46102 0.82007,0.89771 1.258858,1.30971 0.43879,0.41201 0.89592,0.79937 1.3691,1.16051 0.47318,0.36113 0.96219,0.69611 1.46504,1.00452 0.50285,0.3084 1.0195,0.59013 1.5473,0.84396 0.52779,0.25383 1.0668,0.4801 1.61482,0.6775 0.54803,0.1974 1.10505,0.36581 1.66858,0.50493 0.56353,0.13912 1.13373,0.24873 1.70804,0.32772 0.57431,0.079 1.15276,0.12733 1.73313,0.14433 0.58036,0.017 1.16256,0.003 1.74426,-0.044 0.58171,-0.0468 1.16305,-0.12616 1.74137,-0.23868 0.57832,-0.11253 1.1537,-0.25832 1.72392,-0.43839 0.57021,-0.18007 1.13496,-0.39447 1.69235,-0.64394 0.0168,-0.008 0.0329,-0.018 0.0496,-0.0256 l -0.10734,0.27794 C 113.87785,15.0291 99.930202,14.1127 96.248832,3.77801 Z"
     style="fill:#627f37;fill-opacity:1;stroke:none;stroke-width:0.21827723px;stroke-linecap:butt;stroke-linejoin:miter;stroke-opacity:1" />
  <path
     id="path11084"
     d="m 119.33927,8.69527 -0.91316,2.36651 c -0.0168,0.008 -0.0329,0.0181 -0.0496,0.0256 -0.55739,0.24947 -1.12214,0.46387 -1.69235,0.64394 -0.57022,0.18007 -1.1456,0.32586 -1.72392,0.43839 -0.57833,0.11252 -1.15966,0.19184 -1.74137,0.23868 -0.58171,0.0468 -1.1639,0.061 -1.74427,0.044 -0.58036,-0.017 -1.15881,-0.0653 -1.73312,-0.14433 -0.57431,-0.079 -1.14452,-0.1886 -1.70804,-0.32772 -0.56353,-0.13912 -1.12056,-0.30753 -1.66858,-0.50493 -0.54802,-0.1974 -1.08703,-0.42367 -1.61483,-0.6775 -0.52779,-0.25383 -1.04444,-0.53556 -1.54729,-0.84397 -0.50285,-0.3084 -0.99186,-0.64338 -1.46504,-1.00451 -0.47318,-0.36114 -0.93031,-0.7485 -1.3691,-1.16051 -0.438788,-0.412 -0.859188,-0.84869 -1.258858,-1.30971 -0.39967,-0.46103 -0.7785,-0.94609 -1.13433,-1.45429 -0.34708,-0.49569 -0.67078,-1.01511 -0.97171,-1.55393 l 1.71504,-0.69777 c 3.863788,8.13455 16.766028,10.63518 20.620568,5.92209 z"
     style="fill:#b4bc5c;fill-opacity:1;stroke:none;stroke-width:0.21827723px;stroke-linecap:butt;stroke-linejoin:miter;stroke-opacity:1" />
  <path
     id="path11086"
     d="m 101.14996,9.94834 c -0.36402,0.65355 -0.75565,1.28361 -1.175658,1.88494 -0.43061,0.6165 -0.88913,1.205 -1.37293,1.7644 -0.48381,0.55939 -0.99278,1.08931 -1.52408,1.58933 -0.53129,0.50003 -1.08486,0.97021 -1.65791,1.40862 -0.57305,0.43841 -1.16534,0.84514 -1.77442,1.21968 -0.60909,0.37454 -1.23495,0.71676 -1.87436,1.02518 -0.63941,0.30842 -1.29244,0.58345 -1.95645,0.8235 -0.664,0.24004 -1.33896,0.44496 -2.02184,0.61439 -0.68288,0.16943 -1.3739,0.3031 -2.06993,0.39965 -0.69603,0.0966 -1.39713,0.15596 -2.10059,0.17739 -0.70347,0.0214 -1.40919,0.005 -2.11436,-0.0508 -0.70518,-0.056 -1.40996,-0.15129 -2.11112,-0.28687 -0.70117,-0.13559 -1.39882,-0.3115 -2.09026,-0.52897 -0.69143,-0.21746 -1.37629,-0.47656 -2.05227,-0.77816 -0.0204,-0.009 -0.0399,-0.0218 -0.0602,-0.031 l 0.1305,0.33675 c 5.38816,4.46586 22.29341,3.33545 26.741218,-9.19684 z"
     style="fill:#627f37;fill-opacity:1;stroke:none;stroke-width:0.26458332px;stroke-linecap:butt;stroke-linejoin:miter;stroke-opacity:1" />
  <path
     id="path11088"
     d="m 74.083352,16.31235 1.11021,2.86726 c 0.0203,0.009 0.0399,0.0219 0.0602,0.031 0.67598,0.3016 1.36084,0.56069 2.05227,0.77816 0.69144,0.21747 1.38909,0.39338 2.09026,0.52897 0.70116,0.13558 1.40594,0.23091 2.11112,0.28687 0.70517,0.0559 1.41089,0.0722 2.11436,0.0508 0.70346,-0.0214 1.40456,-0.0808 2.10059,-0.1774 0.69604,-0.0965 1.38705,-0.23021 2.06993,-0.39964 0.68288,-0.16943 1.35784,-0.37435 2.02184,-0.61439 0.66401,-0.24005 1.31704,-0.51508 1.95645,-0.8235 0.63941,-0.30842 1.26527,-0.65064 1.87436,-1.02518 0.60909,-0.37454 1.20137,-0.78127 1.77442,-1.21968 0.57305,-0.43841 1.12662,-0.90859 1.65791,-1.40862 0.5313,-0.50002 1.04027,-1.02994 1.52408,-1.58933 0.48381,-0.55939 0.94232,-1.14789 1.37293,-1.7644 0.420008,-0.60133 0.811638,-1.23139 1.175658,-1.88495 L 99.070092,9.10493 c -4.67203,9.86567 -20.30787,12.91493 -24.98675,7.20741 z"
     style="fill:#b4bc5c;fill-opacity:1;stroke:none;stroke-width:0.26458332px;stroke-linecap:butt;stroke-linejoin:miter;stroke-opacity:1" />
</svg>
