<?xml version="1.0" encoding="UTF-8" standalone="no"?>
<svg
   xmlns:dc="http://purl.org/dc/elements/1.1/"
   xmlns:cc="http://creativecommons.org/ns#"
   xmlns:rdf="http://www.w3.org/1999/02/22-rdf-syntax-ns#"
   xmlns:svg="http://www.w3.org/2000/svg"
   xmlns="http://www.w3.org/2000/svg"
   width="478.95407"
   height="124.28657"
   viewBox="0 0 126.72326 32.884154"
   version="1.1"
   id="svg8">
  <defs
     id="defs2" />
  <metadata
     id="metadata5">
    <rdf:RDF>
      <cc:Work
         rdf:about="">
        <dc:format>image/svg+xml</dc:format>
        <dc:type
           rdf:resource="http://purl.org/dc/dcmitype/StillImage" />
        <dc:title></dc:title>
      </cc:Work>
    </rdf:RDF>
  </metadata>
  <path
     style="fill:#d1832e;fill-opacity:1;stroke:none;stroke-width:4.45793152;stroke-linecap:butt;stroke-linejoin:miter;stroke-miterlimit:4;stroke-dasharray:none;stroke-opacity:1"
     d="m 0.121685,8.88251 c -0.01252,0.31351 -0.02067,0.62796 -0.02067,0.94464 0,12.77333 10.283145,23.057 23.056474,23.057 h 80.508781 c 12.77333,0 23.05699,-10.28367 23.05699,-23.057 0,-0.31668 -0.008,-0.63113 -0.0207,-0.94464 z"
     id="path5827" />
  <path
     id="rect4482"
     d="M 9.8273832,-3.823242e-6 H 116.79463 c 5.44437,0 9.82739,4.383012823242 9.82739,9.827383023242 0,5.4443698 -4.38302,9.8273828 -9.82739,9.8273828 H 9.8273832 C 4.3830129,19.654762 1.1181641e-7,15.271749 1.1181641e-7,9.8273792 1.1181641e-7,4.383009 4.3830129,-3.823242e-6 9.8273832,-3.823242e-6 Z"
     style="fill:#f9f2e5;fill-opacity:1;stroke:none;stroke-width:2.9104166;stroke-linecap:butt;stroke-linejoin:miter;stroke-miterlimit:4;stroke-dasharray:none;stroke-opacity:1" />
</svg>
