<?xml version="1.0" encoding="UTF-8" standalone="no"?>
<svg
   xmlns:dc="http://purl.org/dc/elements/1.1/"
   xmlns:cc="http://creativecommons.org/ns#"
   xmlns:rdf="http://www.w3.org/1999/02/22-rdf-syntax-ns#"
   xmlns:svg="http://www.w3.org/2000/svg"
   xmlns="http://www.w3.org/2000/svg"
   id="svg8"
   version="1.1"
   viewBox="0 0 114.82013 15.500014"
   height="58.582729"
   width="433.96585">
  <defs
     id="defs2" />
  <metadata
     id="metadata5">
    <rdf:RDF>
      <cc:Work
         rdf:about="">
        <dc:format>image/svg+xml</dc:format>
        <dc:type
           rdf:resource="http://purl.org/dc/dcmitype/StillImage" />
        <dc:title></dc:title>
      </cc:Work>
    </rdf:RDF>
  </metadata>
  <g
     transform="translate(40.023086,-216.30051)"
     id="layer1">
    <path
       id="path5245"
       transform="matrix(0.26458333,0,0,0.26458333,0,169.99998)"
       d="m -72.150391,177.5625 c -5.720484,0.14864 -12.266796,2.38818 -16.210937,5.82227 0,0 -1.141983,3.87857 -0.408203,8.375 1.333357,8.17046 8.972946,17.4052 16.11914,18.11718 9.10941,0.90735 16.62756,-5.66574 19.921875,-12.21093 1.328395,-2.63932 1.236328,-6.76954 1.236328,-6.76954 -3.12082,-5.99058 -10.524299,-12.02823 -16.871093,-13.09179 h -0.002 c -1.190021,-0.1995 -2.465045,-0.27649 -3.785157,-0.24219 z m 134.792969,3.56055 c -6.432684,-0.18482 -14.815048,3.41418 -19.044922,8.26562 0,0 -0.600372,3.99793 0.742188,8.35156 2.439556,7.91093 11.27284,16.01346 18.449218,15.74024 9.147852,-0.34847 15.693478,-7.88958 18.060547,-14.82422 0.95449,-2.79632 0.298829,-6.875 0.298829,-6.875 -3.911706,-5.50689 -12.073217,-10.47372 -18.50586,-10.6582 z m 201.199222,1.21679 c -6.43415,-0.12359 -14.78328,3.55577 -18.9668,8.44727 0,0 -0.56166,4.00311 0.82227,8.34375 2.51472,7.88734 11.4242,15.90593 18.59765,15.56445 9.14412,-0.43555 15.61894,-8.03728 17.91992,-14.99414 0.92784,-2.80528 0.23243,-6.8789 0.23243,-6.8789 -3.96393,-5.4694 -12.17136,-10.35914 -18.60547,-10.48243 z m -338.214847,0.0332 c 4.755009,-0.18558 3.109646,6.06292 1.171875,7.48047 -3.088713,2.25951 -8.471118,3.91156 -9.888672,2.27343 -2.755328,-3.18425 1.127921,-9.45759 8.716797,-9.7539 z m 9.851563,0.86133 c 0.231153,0.0166 0.473402,0.0619 0.726562,0.13671 8.269981,2.44305 8.557387,11.33474 5.69336,12.65039 -2.080714,0.95585 -6.924666,-1.9964 -9.414063,-5.19921 -1.464187,-1.88377 -0.473161,-7.83711 2.994141,-7.58789 z m 131.714843,2.74218 c 0.231251,-0.0152 0.477266,-0.004 0.738282,0.0352 8.52661,1.28765 10.029945,10.05649 7.373047,11.75195 -1.930235,1.23171 -7.134564,-1.02959 -10.039063,-3.86133 -1.708338,-1.66556 -1.541027,-7.69788 1.927734,-7.92578 z m -9.0625,0.42188 c 3.768908,0.0227 2.988678,5.75708 1.371094,7.32226 -2.75023,2.66117 -7.857824,5.03601 -9.486328,3.60742 -3.165388,-2.77697 -0.17605,-9.5228 7.300781,-10.85546 0.2928,-0.0522 0.563193,-0.0757 0.814453,-0.0742 z m 210.306641,0.75195 c 0.2311,-0.0174 0.4769,-0.01 0.73828,0.0273 8.53848,1.20647 10.12502,9.96098 7.48438,11.68165 -1.91843,1.25004 -7.14291,-0.9616 -10.07422,-3.76563 -1.72411,-1.6492 -1.61488,-7.68247 1.85156,-7.94336 z m -9.05859,0.50781 c 3.76895,-0.0131 3.04402,5.7281 1.4414,7.3086 -2.72478,2.6872 -7.80915,5.11028 -9.45117,3.69726 -3.19167,-2.74673 -0.26849,-9.52007 7.19531,-10.92383 0.29229,-0.055 0.56319,-0.0812 0.81446,-0.082 z M 2.2324219,191.71484 c -1.33301379,-0.0146 -2.61165716,0.10134 -3.7890625,0.36524 -6.2796336,1.40704 -13.5150484,6.96234 -16.4179684,12.70703 0,0 0.404628,4.02204 2.779297,7.91016 4.314993,7.06507 14.87236574,12.73948 21.7597651,10.70507 8.7794149,-2.59355 13.2637109,-11.51611 13.8476559,-18.82031 0.235461,-2.94535 -1.40625,-6.73828 -1.40625,-6.73828 -4.183446,-3.55244 -10.9970441,-6.06564 -16.7734371,-6.12891 z m -73.1093749,1.98047 c 3.00754,0.16479 9.132224,5.73523 6.867187,8.38086 -3.03304,3.54263 -13.724432,1.26277 -14.759765,-2.40039 -0.934368,-3.30629 4.884758,-6.1445 7.892578,-5.98047 z m 279.927733,1.16407 c -1.33301,-0.0146 -2.61166,0.10134 -3.78906,0.36523 -6.27963,1.40704 -13.51505,6.96429 -16.41797,12.70898 0,0 0.40463,4.02205 2.7793,7.91016 4.31499,7.06503 14.87432,12.73753 21.76172,10.70313 8.77941,-2.59355 13.26175,-11.5142 13.8457,-18.81836 0.23546,-2.94535 -1.40625,-6.73829 -1.40625,-6.73829 -4.18345,-3.55244 -10.99705,-6.06758 -16.77344,-6.13085 z m -340.10351,0.39257 c -1.33302,-0.0146 -2.61166,0.10134 -3.78907,0.36524 -6.27963,1.40704 -13.51505,6.96429 -16.41797,12.70898 0,0 0.40268,4.02204 2.77735,7.91016 4.31499,7.06507 14.87432,12.73948 21.76172,10.70508 8.77941,-2.59355 13.26371,-11.51611 13.84765,-18.82032 0.23547,-2.94534 -1.40625,-6.73828 -1.40625,-6.73828 -4.18344,-3.55241 -10.99704,-6.06759 -16.77343,-6.13086 z m 137.3769488,0.20117 c 7.4600412,0.19703 10.5141552,7.4743 8.4921872,9.62891 -1.566896,1.66968 -7.1665899,0.76247 -10.6796872,-1.26562 -2.2040453,-1.27238 -3.56608186,-7.88603 0.6367187,-8.30469 0.5363019,-0.0534 1.0534451,-0.0717 1.5507813,-0.0586 z m 56.0058592,1.75391 c 3.001761,-0.24869 9.830668,4.43053 7.949219,7.36133 -2.519388,3.92459 -13.422052,3.13145 -14.949219,-0.35547 -1.378292,-3.14721 3.99805,-6.75652 7,-7.00586 z m -66.2656249,1 c 3.04567581,-0.0619 3.544299,5.06749 2.4414063,6.85547 -2.0090756,3.2572 -6.3722454,6.81689 -8.3027344,5.83398 -3.752428,-1.91066 -2.520817,-9.18508 4.3964844,-12.32031 0.541779,-0.24555 1.0297472,-0.36029 1.4648437,-0.36914 z m 267.6171869,0.2207 c 2.99926,-0.27703 9.873,4.33656 8.01953,7.28516 -2.48193,3.94836 -13.39284,3.25714 -14.95312,-0.21484 -1.40818,-3.13399 3.93415,-6.79241 6.93359,-7.07032 z m -50.53711,0.17188 c 7.46004,0.197 10.51416,7.47429 8.49219,9.62891 -1.5669,1.66968 -7.16854,0.76247 -10.68164,-1.26563 -2.20405,-1.27238 -3.56413,-7.88607 0.63867,-8.30469 0.5363,-0.0534 1.05345,-0.0717 1.55078,-0.0586 z m -340.10547,0.39258 c 7.46005,0.197 10.51416,7.47429 8.49219,9.6289 -1.5669,1.66969 -7.16659,0.76247 -10.67969,-1.26562 -2.20404,-1.27238 -3.56608,-7.88603 0.63672,-8.30469 0.5363,-0.0534 1.05345,-0.0717 1.55078,-0.0586 z m 250.98438,1.33789 c -3.25947,-0.0652 -6.47203,0.40277 -9.08789,1.44531 0,0 -2.36142,3.28154 -3.15625,7.76758 -1.44427,8.15157 2.71229,19.39397 9.2207,22.42969 8.29652,3.86944 17.56403,0.1535 22.83789,-4.9336 2.12663,-2.05134 3.40625,-5.98047 3.40625,-5.98047 -0.96361,-6.68568 -5.95406,-14.83251 -11.5918,-17.93554 -3.17113,-1.74569 -7.43816,-2.7092 -11.6289,-2.79297 z m 78.85937,1.02344 c 3.04568,-0.0619 3.5443,5.06745 2.44141,6.85546 -2.00908,3.25716 -6.37225,6.81685 -8.30274,5.83399 -3.75242,-1.9107 -2.52081,-9.18504 4.39649,-12.32031 0.54178,-0.24555 1.02975,-0.3603 1.46484,-0.36914 z m -340.10351,0.39257 c 3.04567,-0.0619 3.5443,5.06746 2.4414,6.85547 -2.00907,3.2572 -6.37224,6.81689 -8.30273,5.83399 -3.75243,-1.91067 -2.52082,-9.18508 4.39648,-12.32032 0.54178,-0.24555 1.02975,-0.36029 1.46485,-0.36914 z m 261.80468,3.1211 c 1.21631,-0.0145 2.52553,0.16184 3.88672,0.58008 4.54876,1.39763 0.93039,6.74855 -1.36718,7.44531 -3.66225,1.11069 -9.29003,0.89174 -10.08594,-1.12305 -1.2569,-3.18209 2.29575,-6.83931 7.5664,-6.90234 z M 3.3789062,207.54883 c 3.3804271,-0.0665 9.2110968,2.47789 8.2480468,5.36914 -1.473816,4.42465 -12.23632922,6.34245 -14.5761718,3.33984 -2.1118107,-2.71015 2.20888062,-7.53175 5.0566407,-8.51367 0.3559679,-0.12265 0.7885662,-0.18582 1.2714843,-0.19531 z m 132.8515638,1.75 c 0.61075,-0.0449 1.25006,0.12495 1.89258,0.58789 6.99636,5.04106 4.32746,13.52795 1.18945,13.82226 -2.27975,0.21355 -5.87615,-4.17555 -7.16602,-8.02148 -0.6575,-1.96044 1.4374,-6.19406 4.08399,-6.38867 z m 73.9668,1.39648 c 3.38042,-0.0665 9.21109,2.47792 8.24804,5.36914 -1.47381,4.42466 -12.23633,6.34245 -14.57617,3.33985 -2.11181,-2.71019 2.20888,-7.53175 5.05664,-8.51368 0.35597,-0.12265 0.78857,-0.18581 1.27149,-0.19531 z m -340.10352,0.39258 c 3.38043,-0.0665 9.21109,2.47789 8.24805,5.36914 -1.47382,4.42466 -12.23633,6.34245 -14.57618,3.33985 -2.11141,-2.70964 2.20691,-7.53049 5.05469,-8.51368 0,0 0.002,0 0.002,0 0.35565,-0.12227 0.78932,-0.18583 1.27148,-0.19531 z m 254.55469,5.70313 c 1.28117,-0.036 2.50687,0.13681 3.37695,0.49609 2.78377,1.15022 6.72162,8.43222 3.70899,10.17969 -4.03413,2.33998 -13.36938,-3.34708 -13.13477,-7.14649 0.14567,-2.3576 3.23024,-3.45017 6.04883,-3.52929 z"
       style="fill:#654c1d;fill-opacity:1;stroke:none;stroke-width:1.73698235px;stroke-linecap:butt;stroke-linejoin:miter;stroke-opacity:1" />
    <path
       id="path5159"
       transform="matrix(0.26458333,0,0,0.26458333,0,169.99998)"
       d="m -74.576172,182.08984 a 2.0113408,1.0415464 49.781651 0 0 -0.414062,0.14258 2.0113408,1.0415464 49.781651 0 0 0.505859,2.20703 2.0113408,1.0415464 49.781651 0 0 2.09375,0.86328 2.0113408,1.0415464 49.781651 0 0 -0.503906,-2.20703 2.0113408,1.0415464 49.781651 0 0 -1.552735,-1 2.0113408,1.0415464 49.781651 0 0 -0.128906,-0.006 z m 9.966797,0.95118 a 1.0415464,2.0113408 56.175611 0 0 -1.484375,0.54882 1.0415464,2.0113408 56.175611 0 0 -1.089844,1.98633 1.0415464,2.0113408 56.175611 0 0 2.25,-0.25586 1.0415464,2.0113408 56.175611 0 0 1.089844,-1.98437 1.0415464,2.0113408 56.175611 0 0 -0.480469,-0.2793 1.0415464,2.0113408 56.175611 0 0 -0.285156,-0.0156 z m -12.056641,0.8164 a 2.0113408,1.0415464 49.781651 0 0 -0.412109,0.14063 2.0113408,1.0415464 49.781651 0 0 0.503906,2.20898 2.0113408,1.0415464 49.781651 0 0 2.09375,0.86328 2.0113408,1.0415464 49.781651 0 0 -0.501953,-2.20898 2.0113408,1.0415464 49.781651 0 0 -1.554687,-0.99805 v 0.002 a 2.0113408,1.0415464 49.781651 0 0 -0.128907,-0.008 z m 13.580078,1.45703 a 1.0415464,2.0113408 56.175611 0 0 -1.484374,0.54883 1.0415464,2.0113408 56.175611 0 0 -1.089844,1.98438 1.0415464,2.0113408 56.175611 0 0 2.25,-0.25391 1.0415464,2.0113408 56.175611 0 0 1.089844,-1.98437 1.0415464,2.0113408 56.175611 0 0 -0.480469,-0.27735 1.0415464,2.0113408 56.175611 0 0 -0.285157,-0.0176 z m -15.669921,0.31055 a 2.0113408,1.0415464 49.781651 0 0 -0.410157,0.14062 2.0113408,1.0415464 49.781651 0 0 0.501954,2.20899 2.0113408,1.0415464 49.781651 0 0 2.09375,0.86328 2.0113408,1.0415464 49.781651 0 0 -0.501954,-2.20898 2.0113408,1.0415464 49.781651 0 0 -1.554687,-0.99805 2.0113408,1.0415464 49.781651 0 0 -0.128906,-0.006 z m 146.11914,0.14844 a 1.0415464,2.0113408 48.305522 0 0 -1.679687,0.77148 1.0415464,2.0113408 48.305522 0 0 -0.808594,2.11524 1.0415464,2.0113408 48.305522 0 0 2.195312,-0.56055 1.0415464,2.0113408 48.305522 0 0 0.808594,-2.11523 1.0415464,2.0113408 48.305522 0 0 -0.515625,-0.21094 z m -10.158203,0.43359 a 2.0113408,1.0415464 41.911562 0 0 -0.517578,0.20899 2.0113408,1.0415464 41.911562 0 0 0.800781,2.11718 2.0113408,1.0415464 41.911562 0 0 2.19336,0.57032 2.0113408,1.0415464 41.911562 0 0 -0.800782,-2.11914 2.0113408,1.0415464 41.911562 0 0 -1.675781,-0.77735 z m 211.400392,0.73828 a 1.0415464,2.0113408 47.760327 0 0 -1.67188,0.78711 1.0415464,2.0113408 47.760327 0 0 -0.78711,2.12305 1.0415464,2.0113408 47.760327 0 0 2.1875,-0.58203 1.0415464,2.0113408 47.760327 0 0 0.78907,-2.12305 1.0415464,2.0113408 47.760327 0 0 -0.51758,-0.20508 z m -10.1543,0.53125 a 2.0113408,1.0415464 41.366367 0 0 -0.51562,0.21289 2.0113408,1.0415464 41.366367 0 0 0.82226,2.11133 2.0113408,1.0415464 41.366367 0 0 2.19727,0.54688 2.0113408,1.0415464 41.366367 0 0 -0.82031,-2.11133 2.0113408,1.0415464 41.366367 0 0 -1.6836,-0.75977 z m -320.01367,0.11133 a 1.0415464,2.0113408 56.175611 0 0 -1.484375,0.54883 1.0415464,2.0113408 56.175611 0 0 -1.091797,1.98633 1.0415464,2.0113408 56.175611 0 0 2.251953,-0.25586 1.0415464,2.0113408 56.175611 0 0 1.089844,-1.98438 1.0415464,2.0113408 56.175611 0 0 -0.480469,-0.27929 v 0.002 a 1.0415464,2.0113408 56.175611 0 0 -0.285156,-0.0176 z m 130.746094,0.23047 a 1.0415464,2.0113408 48.305522 0 0 -1.679688,0.76758 1.0415464,2.0113408 48.305522 0 0 -0.808594,2.11718 1.0415464,2.0113408 48.305522 0 0 2.195313,-0.56054 1.0415464,2.0113408 48.305522 0 0 0.808594,-2.11719 1.0415464,2.0113408 48.305522 0 0 -0.515625,-0.20703 z m -13.806641,0.42578 v 0.002 a 2.0113408,1.0415464 41.911562 0 0 -0.517578,0.20508 2.0113408,1.0415464 41.911562 0 0 0.800781,2.11914 2.0113408,1.0415464 41.911562 0 0 2.19336,0.56836 2.0113408,1.0415464 41.911562 0 0 -0.800782,-2.11914 2.0113408,1.0415464 41.911562 0 0 -1.675781,-0.77539 z m 215.068357,0.72852 a 1.0415464,2.0113408 47.760327 0 0 -1.67187,0.78515 1.0415464,2.0113408 47.760327 0 0 -0.78906,2.12305 1.0415464,2.0113408 47.760327 0 0 2.18945,-0.58203 1.0415464,2.0113408 47.760327 0 0 0.78906,-2.12305 1.0415464,2.0113408 47.760327 0 0 -0.51758,-0.20312 z m -13.80273,0.55859 a 2.0113408,1.0415464 41.366367 0 0 -0.51563,0.21094 2.0113408,1.0415464 41.366367 0 0 0.82227,2.11133 2.0113408,1.0415464 41.366367 0 0 2.19726,0.54687 2.0113408,1.0415464 41.366367 0 0 -0.82031,-2.11133 2.0113408,1.0415464 41.366367 0 0 -1.68359,-0.75781 z m -185.638674,0.33008 a 1.0415464,2.0113408 48.305522 0 0 -1.679687,0.76953 1.0415464,2.0113408 48.305522 0 0 -0.808594,2.11523 1.0415464,2.0113408 48.305522 0 0 2.195313,-0.56054 1.0415464,2.0113408 48.305522 0 0 0.808593,-2.11524 1.0415464,2.0113408 48.305522 0 0 -0.515625,-0.20898 z m -17.455078,0.41992 a 2.0113408,1.0415464 41.911562 0 0 -0.515625,0.20703 2.0113408,1.0415464 41.911562 0 0 0.798828,2.11914 2.0113408,1.0415464 41.911562 0 0 2.19336,0.56836 2.0113408,1.0415464 41.911562 0 0 -0.800782,-2.11914 2.0113408,1.0415464 41.911562 0 0 -1.675781,-0.77539 z m 218.736332,0.7168 a 1.0415464,2.0113408 47.760327 0 0 -1.67188,0.78515 1.0415464,2.0113408 47.760327 0 0 -0.78906,2.125 1.0415464,2.0113408 47.760327 0 0 2.18945,-0.58203 1.0415464,2.0113408 47.760327 0 0 0.78906,-2.12305 1.0415464,2.0113408 47.760327 0 0 -0.51757,-0.20507 z m -17.45118,0.58593 a 2.0113408,1.0415464 41.366367 0 0 -0.51367,0.2129 2.0113408,1.0415464 41.366367 0 0 0.82031,2.11132 2.0113408,1.0415464 41.366367 0 0 2.19727,0.54688 2.0113408,1.0415464 41.366367 0 0 -0.82031,-2.11133 2.0113408,1.0415464 41.366367 0 0 -1.6836,-0.75977 z m -328.445308,0.13477 a 1.1730159,2.2652231 7.9786306 0 0 -1.359375,2.08594 1.1730159,2.2652231 7.9786306 0 0 0.847656,2.40625 1.1730159,2.2652231 7.9786306 0 0 1.474609,-2.08008 1.1730159,2.2652231 7.9786306 0 0 -0.845703,-2.40625 1.1730159,2.2652231 7.9786306 0 0 -0.117187,-0.006 z m 3.050781,0.42773 a 1.1730159,2.2652231 7.9786306 0 0 -1.357422,2.08594 1.1730159,2.2652231 7.9786306 0 0 0.845703,2.40625 1.1730159,2.2652231 7.9786306 0 0 1.476563,-2.08008 1.1730159,2.2652231 7.9786306 0 0 -0.847656,-2.40625 1.1730159,2.2652231 7.9786306 0 0 -0.117188,-0.006 z m 3.052735,0.42774 a 1.1730159,2.2652231 7.9786306 0 0 -1.357422,2.08594 1.1730159,2.2652231 7.9786306 0 0 0.845703,2.40625 1.1730159,2.2652231 7.9786306 0 0 1.476562,-2.08008 1.1730159,2.2652231 7.9786306 0 0 -0.847656,-2.40625 1.1730159,2.2652231 7.9786306 0 0 -0.117187,-0.006 z m 71.9199214,2.82617 a 1.0415464,2.0113408 34.02956 0 0 -0.2460938,0.0215 1.0415464,2.0113408 34.02956 0 0 -1.4375,1.16015 1.0415464,2.0113408 34.02956 0 0 -0.2636718,2.25 1.0415464,2.0113408 34.02956 0 0 1.9902343,-1.08398 1.0415464,2.0113408 34.02956 0 0 0.2617188,-2.25 1.0415464,2.0113408 34.02956 0 0 -0.3046875,-0.0977 z m 55.0566406,0.21289 a 1.1730159,2.2652231 0.10854245 0 0 -1.179688,2.26367 1.1730159,2.2652231 0.10854245 0 0 1.169922,2.26758 1.1730159,2.2652231 0.10854245 0 0 1.175782,-2.26172 1.1730159,2.2652231 0.10854245 0 0 -1.166016,-2.26953 z m 3.080078,0.008 a 1.1730159,2.2652231 0.10854245 0 0 -1.177734,2.26368 1.1730159,2.2652231 0.10854245 0 0 1.167968,2.26757 1.1730159,2.2652231 0.10854245 0 0 1.177735,-2.26367 1.1730159,2.2652231 0.10854245 0 0 -1.167969,-2.26758 z m 3.082031,0.008 a 1.1730159,2.2652231 0.10854245 0 0 -1.177734,2.26367 1.1730159,2.2652231 0.10854245 0 0 1.167969,2.26758 1.1730159,2.2652231 0.10854245 0 0 1.177734,-2.26368 1.1730159,2.2652231 0.10854245 0 0 -1.167969,-2.26757 z m 201.335941,1.1875 a 2.2652231,1.1730159 89.563347 0 0 -1.1543,2.27343 2.2652231,1.1730159 89.563347 0 0 1.1875,2.25586 2.2652231,1.1730159 89.563347 0 0 1.15625,-2.27343 2.2652231,1.1730159 89.563347 0 0 -1.18945,-2.25586 z m -3.08203,0.0215 a 2.2652231,1.1730159 89.563347 0 0 -1.1543,2.27539 2.2652231,1.1730159 89.563347 0 0 1.1875,2.25586 2.2652231,1.1730159 89.563347 0 0 1.1582,-2.27344 2.2652231,1.1730159 89.563347 0 0 -1.1914,-2.25781 z m -3.08008,0.0234 a 2.2652231,1.1730159 89.563347 0 0 -1.15625,2.27344 2.2652231,1.1730159 89.563347 0 0 1.18945,2.25781 2.2652231,1.1730159 89.563347 0 0 1.15625,-2.27539 2.2652231,1.1730159 89.563347 0 0 -1.18945,-2.25586 z m -254.1269556,0.0703 a 1.0415464,2.0113408 34.02956 0 0 -0.2441406,0.0234 1.0415464,2.0113408 34.02956 0 0 -1.4375,1.1582 1.0415464,2.0113408 34.02956 0 0 -0.2617188,2.25 1.0415464,2.0113408 34.02956 0 0 1.9882812,-1.08398 1.0415464,2.0113408 34.02956 0 0 0.2617188,-2.25 1.0415464,2.0113408 34.02956 0 0 -0.3066406,-0.0977 z m -11.859375,1.36524 a 2.0113408,1.0415464 27.6356 0 0 -0.390625,0.0508 2.0113408,1.0415464 27.6356 0 0 -0.4511719,0.33007 2.0113408,1.0415464 27.6356 0 0 1.3007813,1.85547 2.0113408,1.0415464 27.6356 0 0 2.2636718,0.01 2.0113408,1.0415464 27.6356 0 0 -1.2988281,-1.85547 2.0113408,1.0415464 27.6356 0 0 -1.4238281,-0.39062 z m 14.1289062,0.16601 a 1.0415464,2.0113408 34.02956 0 0 -0.2460937,0.0215 1.0415464,2.0113408 34.02956 0 0 -1.4375,1.1621 1.0415464,2.0113408 34.02956 0 0 -0.2617188,2.24805 1.0415464,2.0113408 34.02956 0 0 1.9882813,-1.08398 1.0415464,2.0113408 34.02956 0 0 0.2617187,-2.24805 1.0415464,2.0113408 34.02956 0 0 -0.3046875,-0.0996 z m 202.2832044,0.084 a 1.0415464,2.0113408 34.02956 0 0 -0.24609,0.0215 1.0415464,2.0113408 34.02956 0 0 -1.4375,1.16016 1.0415464,2.0113408 34.02956 0 0 -0.26172,2.25 1.0415464,2.0113408 34.02956 0 0 1.98828,-1.08399 1.0415464,2.0113408 34.02956 0 0 0.26172,-2.25 1.0415464,2.0113408 34.02956 0 0 -0.30469,-0.0977 z M -128.875,198.9398 a 1.0415464,2.0113408 34.02956 0 0 -0.24609,0.0215 1.0415464,2.0113408 34.02956 0 0 -1.4375,1.16015 1.0415464,2.0113408 34.02956 0 0 -0.26172,2.25 1.0415464,2.0113408 34.02956 0 0 1.98828,-1.08398 1.0415464,2.0113408 34.02956 0 0 0.26367,-2.25 1.0415464,2.0113408 34.02956 0 0 -0.30664,-0.0977 z m 342.37305,1.13867 a 1.0415464,2.0113408 34.02956 0 0 -0.2461,0.0234 1.0415464,2.0113408 34.02956 0 0 -1.4375,1.15821 1.0415464,2.0113408 34.02956 0 0 -0.26172,2.25 1.0415464,2.0113408 34.02956 0 0 1.98829,-1.08399 1.0415464,2.0113408 34.02956 0 0 0.26171,-2.25 1.0415464,2.0113408 34.02956 0 0 -0.30468,-0.0977 z m -340.10547,0.39258 a 1.0415464,2.0113408 34.02956 0 0 -0.24414,0.0234 1.0415464,2.0113408 34.02956 0 0 -1.4375,1.1582 1.0415464,2.0113408 34.02956 0 0 -0.26367,2.25 1.0415464,2.0113408 34.02956 0 0 1.99023,-1.08398 1.0415464,2.0113408 34.02956 0 0 0.26172,-2.25 1.0415464,2.0113408 34.02956 0 0 -0.30664,-0.0977 z m 120.1562481,0.25196 a 2.0113408,1.0415464 27.6356 0 0 -0.390625,0.0508 2.0113408,1.0415464 27.6356 0 0 -0.4511719,0.32617 2.0113408,1.0415464 27.6356 0 0 1.2988282,1.85547 2.0113408,1.0415464 27.6356 0 0 2.265625,0.0117 2.0113408,1.0415464 27.6356 0 0 -1.2988282,-1.85547 2.0113408,1.0415464 27.6356 0 0 -1.4238281,-0.38867 z m 208.0878919,0.7207 a 2.0113408,1.0415464 27.6356 0 0 -0.39063,0.0508 2.0113408,1.0415464 27.6356 0 0 -0.45117,0.32813 2.0113408,1.0415464 27.6356 0 0 1.30078,1.85546 2.0113408,1.0415464 27.6356 0 0 2.26368,0.0117 2.0113408,1.0415464 27.6356 0 0 -1.29688,-1.85547 2.0113408,1.0415464 27.6356 0 0 -1.42578,-0.39062 z m 14.1289,0.16602 a 1.0415464,2.0113408 34.02956 0 0 -0.24609,0.0215 1.0415464,2.0113408 34.02956 0 0 -1.4375,1.16016 1.0415464,2.0113408 34.02956 0 0 -0.26172,2.25 1.0415464,2.0113408 34.02956 0 0 1.98828,-1.08399 1.0415464,2.0113408 34.02956 0 0 0.26172,-2.25 1.0415464,2.0113408 34.02956 0 0 -0.30469,-0.0977 z m -354.23242,0.22656 a 2.0113408,1.0415464 27.6356 0 0 -0.39258,0.0508 2.0113408,1.0415464 27.6356 0 0 -0.44921,0.32812 2.0113408,1.0415464 27.6356 0 0 1.29882,1.85547 2.0113408,1.0415464 27.6356 0 0 2.26563,0.0117 2.0113408,1.0415464 27.6356 0 0 -1.29883,-1.85547 2.0113408,1.0415464 27.6356 0 0 -1.42383,-0.39062 z m 14.12891,0.16601 a 1.0415464,2.0113408 34.02956 0 0 -0.24609,0.0215 1.0415464,2.0113408 34.02956 0 0 -1.4375,1.16015 1.0415464,2.0113408 34.02956 0 0 -0.26172,2.25 1.0415464,2.0113408 34.02956 0 0 1.98828,-1.08398 1.0415464,2.0113408 34.02956 0 0 0.26172,-2.25 1.0415464,2.0113408 34.02956 0 0 -0.30469,-0.0977 z m 116.6171869,1.14453 a 2.0113408,1.0415464 27.6356 0 0 -0.390625,0.0508 2.0113408,1.0415464 27.6356 0 0 -0.4492188,0.32812 2.0113408,1.0415464 27.6356 0 0 1.2988281,1.85547 2.0113408,1.0415464 27.6356 0 0 2.2636719,0.0117 2.0113408,1.0415464 27.6356 0 0 -1.2988281,-1.85547 2.0113408,1.0415464 27.6356 0 0 -1.4238281,-0.39063 z m 208.0878931,0.72266 a 2.0113408,1.0415464 27.6356 0 0 -0.39063,0.0508 2.0113408,1.0415464 27.6356 0 0 -0.45117,0.32617 2.0113408,1.0415464 27.6356 0 0 1.30078,1.85547 2.0113408,1.0415464 27.6356 0 0 2.26367,0.0117 2.0113408,1.0415464 27.6356 0 0 -1.29687,-1.85547 2.0113408,1.0415464 27.6356 0 0 -1.42578,-0.38867 z m -340.10352,0.39258 a 2.0113408,1.0415464 27.6356 0 0 -0.39062,0.0508 2.0113408,1.0415464 27.6356 0 0 -0.45117,0.32617 2.0113408,1.0415464 27.6356 0 0 1.29882,1.85547 2.0113408,1.0415464 27.6356 0 0 2.26563,0.0117 2.0113408,1.0415464 27.6356 0 0 -1.29883,-1.85547 2.0113408,1.0415464 27.6356 0 0 -1.42383,-0.38867 z m 267.88086,0.81055 a 2.0113408,1.0415464 69.097433 0 0 -0.20898,0.0371 2.0113408,1.0415464 69.097433 0 0 -0.25391,2.25 2.0113408,1.0415464 69.097433 0 0 1.69141,1.50781 2.0113408,1.0415464 69.097433 0 0 0.25586,-2.25 2.0113408,1.0415464 69.097433 0 0 -1.13672,-1.45703 2.0113408,1.0415464 69.097433 0 0 -0.34766,-0.0879 z M 5.1171875,205.38086 a 2.2652231,1.1730159 75.83258 0 0 -0.203125,0.0176 2.2652231,1.1730159 75.83258 0 0 -0.5820313,2.48242 2.2652231,1.1730159 75.83258 0 0 1.6914063,1.91016 2.2652231,1.1730159 75.83258 0 0 0.5839844,-2.48438 2.2652231,1.1730159 75.83258 0 0 -1.4902344,-1.92578 z m 120.4707025,0.66797 a 2.0113408,1.0415464 69.097433 0 0 -0.20703,0.0351 2.0113408,1.0415464 69.097433 0 0 -0.25391,2.25196 2.0113408,1.0415464 69.097433 0 0 1.68946,1.50781 2.0113408,1.0415464 69.097433 0 0 0.25586,-2.25 2.0113408,1.0415464 69.097433 0 0 -1.13672,-1.45508 2.0113408,1.0415464 69.097433 0 0 -0.34766,-0.0898 z m -123.4589838,0.0859 a 2.2652231,1.1730159 75.83258 0 0 -0.203125,0.0176 2.2652231,1.1730159 75.83258 0 0 -0.5820312,2.48243 2.2652231,1.1730159 75.83258 0 0 1.6914062,1.91015 2.2652231,1.1730159 75.83258 0 0 0.5839844,-2.48437 2.2652231,1.1730159 75.83258 0 0 -1.4902344,-1.92578 z m 196.9687538,0.1582 a 2.0113408,1.0415464 27.6356 0 0 -0.39063,0.0508 2.0113408,1.0415464 27.6356 0 0 -0.44922,0.32813 2.0113408,1.0415464 27.6356 0 0 1.29883,1.85546 2.0113408,1.0415464 27.6356 0 0 2.26367,0.0117 2.0113408,1.0415464 27.6356 0 0 -1.29687,-1.85547 2.0113408,1.0415464 27.6356 0 0 -1.42578,-0.39062 z m -340.10352,0.39258 a 2.0113408,1.0415464 27.6356 0 0 -0.39062,0.0508 2.0113408,1.0415464 27.6356 0 0 -0.44922,0.32812 2.0113408,1.0415464 27.6356 0 0 1.29882,1.85547 2.0113408,1.0415464 27.6356 0 0 2.26368,0.0117 2.0113408,1.0415464 27.6356 0 0 -1.29883,-1.85547 2.0113408,1.0415464 27.6356 0 0 -1.42383,-0.39062 z m 140.146485,0.20312 a 2.2652231,1.1730159 75.83258 0 0 -0.2011719,0.0176 2.2652231,1.1730159 75.83258 0 0 -0.5839843,2.48437 2.2652231,1.1730159 75.83258 0 0 1.69335932,1.90821 2.2652231,1.1730159 75.83258 0 0 0.58203126,-2.48242 2.2652231,1.1730159 75.83258 0 0 -1.49023438,-1.92774 z m 123.892575,0.13672 a 2.0113408,1.0415464 69.097433 0 0 -0.20898,0.0371 2.0113408,1.0415464 69.097433 0 0 -0.25586,2.25 2.0113408,1.0415464 69.097433 0 0 1.69141,1.50781 2.0113408,1.0415464 69.097433 0 0 0.25585,-2.25 2.0113408,1.0415464 69.097433 0 0 -1.13671,-1.45703 2.0113408,1.0415464 69.097433 0 0 -0.34571,-0.0879 z m 88.90235,1.50195 a 2.2652231,1.1730159 75.83258 0 0 -0.20117,0.0156 2.2652231,1.1730159 75.83258 0 0 -0.58204,2.48437 2.2652231,1.1730159 75.83258 0 0 1.68946,1.91016 2.2652231,1.1730159 75.83258 0 0 0.58398,-2.48438 2.2652231,1.1730159 75.83258 0 0 -1.49023,-1.92578 z m -340.10352,0.39258 a 2.2652231,1.1730159 75.83258 0 0 -0.20312,0.0156 2.2652231,1.1730159 75.83258 0 0 -0.58203,2.48437 2.2652231,1.1730159 75.83258 0 0 1.6914,1.91016 2.2652231,1.1730159 75.83258 0 0 0.58399,-2.48438 2.2652231,1.1730159 75.83258 0 0 -1.49024,-1.92578 z m 264.96094,0.29492 a 1.0415464,2.0113408 75.491393 0 0 -0.91211,0.11914 1.0415464,2.0113408 75.491393 0 0 -1.68555,1.51172 1.0415464,2.0113408 75.491393 0 0 2.20899,0.50586 1.0415464,2.0113408 75.491393 0 0 1.68554,-1.51367 1.0415464,2.0113408 75.491393 0 0 -0.36328,-0.42187 1.0415464,2.0113408 75.491393 0 0 -0.93359,-0.20118 z m 72.1543,0.0664 a 2.2652231,1.1730159 75.83258 0 0 -0.20118,0.0176 2.2652231,1.1730159 75.83258 0 0 -0.58203,2.48242 2.2652231,1.1730159 75.83258 0 0 1.68946,1.91016 2.2652231,1.1730159 75.83258 0 0 0.58398,-2.48438 2.2652231,1.1730159 75.83258 0 0 -1.49023,-1.92578 z m -340.10352,0.39258 a 2.2652231,1.1730159 75.83258 0 0 -0.20313,0.0176 2.2652231,1.1730159 75.83258 0 0 -0.58203,2.48242 2.2652231,1.1730159 75.83258 0 0 1.69141,1.91015 2.2652231,1.1730159 75.83258 0 0 0.58398,-2.48437 2.2652231,1.1730159 75.83258 0 0 -1.49023,-1.92578 z m 337.11523,0.36133 a 2.2652231,1.1730159 75.83258 0 0 -0.19921,0.0176 2.2652231,1.1730159 75.83258 0 0 -0.58399,2.48243 2.2652231,1.1730159 75.83258 0 0 1.69141,1.91015 2.2652231,1.1730159 75.83258 0 0 0.58203,-2.48437 2.2652231,1.1730159 75.83258 0 0 -1.49024,-1.92578 z m -340.10351,0.39257 a 2.2652231,1.1730159 75.83258 0 0 -0.20117,0.0176 2.2652231,1.1730159 75.83258 0 0 -0.58399,2.48242 2.2652231,1.1730159 75.83258 0 0 1.69336,1.91016 2.2652231,1.1730159 75.83258 0 0 0.58203,-2.48242 2.2652231,1.1730159 75.83258 0 0 -1.49023,-1.92774 z m 271.625,1.43555 a 1.0415464,2.0113408 75.491393 0 0 -0.91211,0.11914 1.0415464,2.0113408 75.491393 0 0 -1.6875,1.51172 1.0415464,2.0113408 75.491393 0 0 2.20898,0.50586 1.0415464,2.0113408 75.491393 0 0 1.68555,-1.51367 1.0415464,2.0113408 75.491393 0 0 -0.36328,-0.41992 1.0415464,2.0113408 75.491393 0 0 -0.93164,-0.20313 z m -11.62695,2.62891 a 1.1730159,2.2652231 27.294413 0 0 -1.72852,1.54492 1.1730159,2.2652231 27.294413 0 0 0.006,2.55273 1.1730159,2.2652231 27.294413 0 0 2.08008,-1.47656 1.1730159,2.2652231 27.294413 0 0 -0.004,-2.55078 1.1730159,2.2652231 27.294413 0 0 -0.35351,-0.0703 z m 12.3125,0.0215 a 1.0415464,2.0113408 75.491393 0 0 -0.91407,0.11914 1.0415464,2.0113408 75.491393 0 0 -1.68554,1.51172 1.0415464,2.0113408 75.491393 0 0 2.20898,0.50586 1.0415464,2.0113408 75.491393 0 0 1.68555,-1.51367 1.0415464,2.0113408 75.491393 0 0 -0.36328,-0.42188 1.0415464,2.0113408 75.491393 0 0 -0.93164,-0.20117 z m -9.57618,1.39258 a 1.1730159,2.2652231 27.294413 0 0 -1.72461,1.54492 1.1730159,2.2652231 27.294413 0 0 0.002,2.55078 1.1730159,2.2652231 27.294413 0 0 2.08203,-1.47656 1.1730159,2.2652231 27.294413 0 0 -0.004,-2.55078 1.1730159,2.2652231 27.294413 0 0 -0.35547,-0.0684 z m 2.74024,1.41406 a 1.1730159,2.2652231 27.294413 0 0 -1.72656,1.54297 1.1730159,2.2652231 27.294413 0 0 0.002,2.55078 1.1730159,2.2652231 27.294413 0 0 2.08203,-1.47461 1.1730159,2.2652231 27.294413 0 0 -0.004,-2.55078 1.1730159,2.2652231 27.294413 0 0 -0.35351,-0.0684 z"
       style="fill:#d2cba7;fill-opacity:1;stroke:none;stroke-width:8.46283245;stroke-linecap:butt;stroke-linejoin:miter;stroke-miterlimit:4;stroke-dasharray:none;stroke-opacity:1" />
    <path
       id="path5134"
       transform="matrix(0.26458333,0,0,0.26458333,0,169.99998)"
       d="m -71.617188,174.99805 c -5.220171,-0.0937 -10.431936,1.48704 -14.365234,4.84375 -8.493267,7.24826 4.367809,25.17146 13.769531,26.92773 9.401662,1.75593 25.284647,-10.26882 19.59961,-20.93359 -3.135889,-5.8828 -9.056992,-9.44567 -15.404297,-10.50586 -1.190118,-0.1988 -2.394954,-0.31041 -3.59961,-0.33203 z m 133.058594,3.62109 c -6.031543,0.12709 -12.005367,2.47746 -15.970703,6.93555 -7.420781,8.34293 7.770567,24.3347 17.324219,24.78711 9.553542,0.45199 23.642566,-13.63405 16.550781,-23.41992 -3.911871,-5.398 -10.264574,-8.1158 -16.697265,-8.29688 -0.402043,-0.0113 -0.804929,-0.0143 -1.207032,-0.006 z m -135.453125,1.17578 c 3.758045,0.21279 3.126535,5.9512 1.19336,7.33594 -3.081389,2.20724 -8.459391,3.81523 -9.88086,2.20508 -2.762944,-3.12994 1.165541,-9.9672 8.6875,-9.54102 z m 337.833989,0.0469 c -6.43412,-0.11981 -12.92513,2.29843 -17.10938,7.09375 -7.34106,8.41319 8.00106,24.25962 17.55859,24.62109 9.55741,0.36132 23.51076,-13.85821 16.32618,-23.57617 -3.96306,-5.36054 -10.34127,-8.01879 -16.77539,-8.13867 z m -328.121098,1.07812 c 0.169228,-0.009 0.342221,0.004 0.517578,0.043 7.795106,1.7331 8.931611,10.9755 6.072266,12.25781 -2.077319,0.93158 -6.928621,-1.97564 -9.425782,-5.12304 -1.468754,-1.85117 0.29752,-7.04923 2.835938,-7.17774 z M 67.615234,183.625 c 7.958998,0.64944 10.352147,9.6488 7.695313,11.31055 -1.93019,1.20725 -7.134458,-1.00936 -10.039063,-3.78516 -1.822291,-1.74149 -0.520958,-7.75927 2.34375,-7.52539 z m -10.294922,0.24219 c 3.751764,-0.30388 3.912859,5.46904 2.1875,7.10547 -2.750127,2.60836 -7.857771,4.93551 -9.486328,3.53515 -3.165494,-2.72213 -0.210628,-10.0328 7.298828,-10.64062 z m 211.517578,0.92773 c 7.96482,0.5737 10.44169,9.54938 7.80078,11.23633 -1.91861,1.22559 -7.14333,-0.9414 -10.07422,-3.68945 -1.83877,-1.72407 -0.59336,-7.75347 2.27344,-7.54688 z m -10.29297,0.33985 c 3.7487,-0.33978 3.96362,5.43123 2.25391,7.08398 -2.72519,2.63441 -7.80937,5.01177 -9.45117,3.62695 -3.19126,-2.69185 -0.30609,-10.03172 7.19726,-10.71093 z M 2.609375,189.07422 c -1.6030442,0.0316 -3.20766897,0.22934 -4.7773438,0.58203 -6.2787083,1.41071 -12.0110462,5.29968 -14.9375002,10.95117 -5.134315,9.91521 13.5321537,21.66743 22.902344,19.75 9.369988,-1.91777 19.549582,-19.04243 10.263672,-26.77734 -3.841634,-3.20001 -8.6420395,-4.60065 -13.451172,-4.50586 z m -73.095703,1.83008 c 3.006856,0.1697 9.145651,5.64822 6.888672,8.23632 -3.02225,3.46568 -13.716876,1.20278 -14.761719,-2.39257 -0.943015,-3.24461 4.865926,-6.01277 7.873047,-5.84375 z m 279.914058,1.3164 c -1.60304,0.0316 -3.20766,0.22935 -4.77734,0.58203 -6.27871,1.41071 -12.01105,5.29972 -14.9375,10.95118 -5.13431,9.91521 13.53215,21.66743 22.90234,19.75 9.36999,-1.91774 19.54959,-19.04243 10.26368,-26.77735 -3.84164,-3.2 -8.64204,-4.60065 -13.45118,-4.50586 z m -340.10546,0.39258 c -1.60305,0.0316 -3.20572,0.22935 -4.77539,0.58203 -6.27871,1.41071 -12.01105,5.29968 -14.9375,10.95117 -5.13432,9.91522 13.53215,21.66743 22.90234,19.75 9.36999,-1.91777 19.54958,-19.04242 10.26367,-26.77734 -3.84164,-3.2 -8.64399,-4.60065 -13.45312,-4.50586 z m 135.9941362,0.52149 c 6.9779568,-0.19694 10.8382968,7.08303 8.8085938,9.20703 -1.572881,1.64594 -7.1627032,0.7805 -10.6621094,-1.19336 -2.1954515,-1.23833 -2.4178973,-7.39132 0.4160156,-7.8711 0.4920853,-0.0833 0.9723029,-0.12945 1.4375,-0.14257 z m 57.0195318,1.25585 c 3.001749,-0.24377 9.830557,4.34402 7.949218,7.2168 -2.51924,3.84684 -13.421923,3.06683 -14.949218,-0.35156 -1.378409,-3.08493 3.998057,-6.62093 7,-6.86524 z m 201.324222,1.21876 c 2.99929,-0.27213 9.87149,4.25008 8.01757,7.14062 -2.48252,3.87065 -13.39141,3.1949 -14.95117,-0.20898 -1.4077,-3.07166 3.93411,-6.65876 6.9336,-6.93164 z m -268.457035,0.28124 c 2.6703747,0.27355 3.7408427,4.74789 2.6308594,6.50782 -2.0219988,3.20598 -6.3967246,6.72116 -8.3203124,5.76562 -3.738997,-1.85748 -2.678464,-9.67246 4.4492186,-12.11328 0.4451194,-0.15246 0.8587523,-0.19923 1.2402344,-0.16016 z m 216.931645,0.39063 c 6.97795,-0.19691 10.83829,7.08303 8.80859,9.20703 -1.57288,1.64595 -7.1627,0.78046 -10.66211,-1.19336 -2.19545,-1.23836 -2.41595,-7.39132 0.41797,-7.87109 0.49208,-0.0833 0.97035,-0.12945 1.43555,-0.14258 z m -340.10352,0.39258 c 6.97796,-0.19694 10.8383,7.08303 8.80859,9.20703 -1.57288,1.64595 -7.1627,0.7805 -10.66211,-1.19336 -2.19545,-1.23832 -2.41789,-7.39132 0.41602,-7.87109 0.49209,-0.0833 0.9723,-0.12945 1.4375,-0.14258 z m 253.2793,1.25 c -2.37459,0.0183 -4.7314,0.43336 -6.95703,1.29492 -10.41272,4.0309 -4.20563,25.19754 4.08593,29.96484 8.29163,4.7669 27.25927,-1.32659 25.42188,-13.27148 -1.01349,-6.58893 -5.42317,-11.90972 -11.0625,-15.00977 -3.52457,-1.93755 -7.53064,-3.00904 -11.48828,-2.97851 z m 76.71093,1.11328 c 2.67038,0.27357 3.74085,4.74596 2.63086,6.50586 -2.02199,3.20598 -6.39672,6.72116 -8.32031,5.76562 -3.73899,-1.85748 -2.67846,-9.67051 4.44922,-12.11132 0.44512,-0.15247 0.85875,-0.19924 1.24023,-0.16016 z m -340.10351,0.39258 c 2.67037,0.27354 3.74084,4.74592 2.63086,6.50586 -2.022,3.20598 -6.39868,6.72116 -8.32227,5.76562 -3.73899,-1.85748 -2.67651,-9.67051 4.45117,-12.11133 0.44512,-0.15246 0.85876,-0.19923 1.24024,-0.16015 z m 263.98047,2.86328 c 1.1918,0.0379 2.46108,0.29792 3.76562,0.83984 3.47617,1.44374 0.98162,6.65101 -1.30078,7.31836 -3.63803,1.06375 -9.24389,0.80028 -10.05273,-1.18945 -1.27735,-3.14245 2.42341,-7.13288 7.58789,-6.96875 z M 2.6875,204.81445 c 3.3767198,-0.0811 9.188373,2.38849 8.212891,5.23047 -1.492845,4.34926 -12.2511387,6.28386 -14.5742191,3.34766 -2.0965657,-2.64979 2.2428065,-7.40382 5.0917969,-8.38086 0.3561182,-0.12206 0.7871427,-0.18567 1.2695312,-0.19727 z m 135.27344,2.51367 c 0.33891,0.0104 0.66748,0.10142 0.97265,0.29102 6.78305,4.21398 4.79833,13.31187 1.67579,13.57617 -2.26854,0.192 -5.88566,-4.15689 -7.20118,-7.95312 -0.72217,-2.08396 2.18035,-5.98691 4.55274,-5.91407 z m 71.54687,0.63282 c 3.37672,-0.0812 9.18837,2.38849 8.21289,5.23047 -1.49284,4.34929 -12.25114,6.28385 -14.57422,3.34765 -2.09656,-2.64975 2.24086,-7.40381 5.08985,-8.38086 0.35612,-0.12205 0.78909,-0.18567 1.27148,-0.19726 z m -340.10547,0.39258 c 3.37672,-0.0812 9.18838,2.38849 8.21289,5.23046 -1.49284,4.34926 -12.25113,6.28386 -14.57421,3.34766 -2.09657,-2.64975 2.24085,-7.40381 5.08984,-8.38086 0.35612,-0.12205 0.7891,-0.18567 1.27148,-0.19726 z m 257.30469,5.92382 c 0.99385,0.045 1.91584,0.21732 2.61133,0.50586 2.78152,1.15457 6.75945,8.35686 3.77344,10.05274 -3.99848,2.27089 -13.33993,-3.40406 -13.13672,-7.14258 0.13748,-2.53043 3.7704,-3.55085 6.75195,-3.41602 z"
       style="fill:#95792d;fill-opacity:1;stroke:none;stroke-width:1.71970975px;stroke-linecap:butt;stroke-linejoin:miter;stroke-opacity:1" />
  </g>
</svg>
