<?xml version="1.0" encoding="UTF-8" standalone="no"?>
<svg
   xmlns:dc="http://purl.org/dc/elements/1.1/"
   xmlns:cc="http://creativecommons.org/ns#"
   xmlns:rdf="http://www.w3.org/1999/02/22-rdf-syntax-ns#"
   xmlns:svg="http://www.w3.org/2000/svg"
   xmlns="http://www.w3.org/2000/svg"
   id="svg8"
   version="1.1"
   viewBox="0 0 117.1267 21.804354"
   height="82.410156"
   width="442.68359">
  <defs
     id="defs2" />
  <metadata
     id="metadata5">
    <rdf:RDF>
      <cc:Work
         rdf:about="">
        <dc:format>image/svg+xml</dc:format>
        <dc:type
           rdf:resource="http://purl.org/dc/dcmitype/StillImage" />
        <dc:title></dc:title>
      </cc:Work>
    </rdf:RDF>
  </metadata>
  <g
     transform="translate(16.986043,-212.01447)"
     id="layer1">
    <path
       id="path5263-2"
       transform="matrix(0.26458333,0,0,0.26458333,0,169.99998)"
       d="m 95.041016,183.83008 c -24.707301,0.0926 -56.856209,10.49808 -72.560547,18.93164 l 7.042969,15.62305 c 17.995683,-7.04372 43.43533,-17.28316 68.960937,-17.04883 z m 140.000004,0 c -24.70731,0.0926 -56.85621,10.49808 -72.56055,18.93164 l 7.04297,15.62305 c 17.99568,-7.04372 43.43533,-17.28316 68.96094,-17.04883 z m 140,0 c -24.70731,0.0926 -56.85621,10.49808 -72.56055,18.93164 l 7.04297,15.62305 c 17.99568,-7.04372 43.43534,-17.28316 68.96094,-17.04883 z"
       style="fill:#9bc10c;fill-opacity:1;stroke:none;stroke-width:0.87229121px;stroke-linecap:butt;stroke-linejoin:miter;stroke-opacity:1" />
    <path
       id="path5263"
       transform="matrix(0.26458333,0,0,0.26458333,0,169.99998)"
       d="m -47.025391,158.79492 -17.173828,11.11133 c 10.606602,26.26394 35.356303,56.06331 51.013672,69.19531 L 0.45117188,224.95898 C -14.701105,208.79651 -36.418789,186.06905 -47.025391,158.79492 Z m 140,0 -17.173828,11.11133 c 10.606602,26.26394 35.356299,56.06331 51.013669,69.19531 l 13.63672,-14.14258 C 125.29889,208.79651 103.58121,186.06905 92.974609,158.79492 Z m 140.000001,0 -17.17383,11.11133 c 10.6066,26.26394 35.3563,56.06331 51.01367,69.19531 l 13.63672,-14.14258 c -15.15228,-16.16247 -36.86996,-38.88993 -47.47656,-66.16406 z"
       style="fill:#a8c723;fill-opacity:1;stroke:none;stroke-width:0.99999994px;stroke-linecap:butt;stroke-linejoin:miter;stroke-opacity:1" />
    <path
       transform="matrix(0.26458333,0,0,0.26458333,0,169.99998)"
       id="path5263-7"
       d="m 17.179688,176.89453 c -18.8188429,17.89051 -44.842501,27.93531 -63.113282,35.1875 l 5.607422,16.50586 c 17.531494,-4.62837 48.658476,-19.2057 67.095703,-36.28516 z m 140.000002,0 c -18.81884,17.89051 -44.8425,27.93531 -63.113284,35.1875 l 5.607422,16.50586 c 17.531492,-4.62837 48.658472,-19.2057 67.095702,-36.28516 z m 140,0 c -18.81884,17.89051 -44.8425,27.93531 -63.11328,35.1875 l 5.60742,16.50586 c 17.53149,-4.62837 48.65847,-19.2057 67.0957,-36.28516 z"
       style="fill:#d4e683;fill-opacity:1;stroke:none;stroke-width:0.88729411px;stroke-linecap:butt;stroke-linejoin:miter;stroke-opacity:1" />
    <path
       id="path5263-7-5-5"
       transform="matrix(0.26458333,0,0,0.26458333,0,169.99998)"
       d="m 48.007812,161.55273 c -9.892456,19.19751 -22.747154,46.51598 -33.488281,67.94922 l 14.970703,11.70313 C 40.57128,214.84627 50.498482,194.47091 64.535156,169.76172 Z m 139.999998,0 c -9.89245,19.19751 -22.74715,46.51598 -33.48828,67.94922 l 14.9707,11.70313 c 11.08105,-26.35881 21.00825,-46.73417 35.04493,-71.44336 z m 140,0 c -9.89245,19.19751 -22.74715,46.51598 -33.48828,67.94922 l 14.9707,11.70313 c 11.08105,-26.35881 21.00825,-46.73417 35.04493,-71.44336 z"
       style="fill:#e6f2aa;fill-opacity:1;stroke:none;stroke-width:0.90226007px;stroke-linecap:butt;stroke-linejoin:miter;stroke-opacity:1" />
    <path
       id="path5263-7-5"
       transform="matrix(0.26458333,0,0,0.26458333,0,169.99998)"
       d="m -7.1699219,176.55469 -10.8945311,12.5625 c 20.7522936,11.6361 36.58232,31.70076 47.873047,45.73437 l 12.933594,-9.37109 C 33.948448,211.38434 12.769116,188.07601 -7.1699219,176.55469 Z m 140.0000019,0 -10.89453,12.5625 c 20.75229,11.6361 36.58232,31.70076 47.87304,45.73437 l 12.9336,-9.37109 c -8.79374,-14.09613 -29.97307,-37.40446 -49.91211,-48.92578 z m 140,0 -10.89453,12.5625 c 20.75229,11.6361 36.58232,31.70076 47.87304,45.73437 l 12.9336,-9.37109 c -8.79374,-14.09613 -29.97307,-37.40446 -49.91211,-48.92578 z"
       style="fill:#c2de4d;fill-opacity:1;stroke:none;stroke-width:0.81301135px;stroke-linecap:butt;stroke-linejoin:miter;stroke-opacity:1" />
  </g>
</svg>
