<?xml version="1.0" encoding="UTF-8" standalone="no"?>
<svg
   xmlns:dc="http://purl.org/dc/elements/1.1/"
   xmlns:cc="http://creativecommons.org/ns#"
   xmlns:rdf="http://www.w3.org/1999/02/22-rdf-syntax-ns#"
   xmlns:svg="http://www.w3.org/2000/svg"
   xmlns="http://www.w3.org/2000/svg"
   id="svg8"
   version="1.1"
   viewBox="0 0 116.77213 27.484906"
   height="103.87996"
   width="441.34351">
  <defs
     id="defs2" />
  <metadata
     id="metadata5">
    <rdf:RDF>
      <cc:Work
         rdf:about="">
        <dc:format>image/svg+xml</dc:format>
        <dc:type
           rdf:resource="http://purl.org/dc/dcmitype/StillImage" />
        <dc:title></dc:title>
      </cc:Work>
    </rdf:RDF>
  </metadata>
  <g
     transform="translate(102.98726,-169.86467)"
     id="layer1">
    <path
       id="path5719"
       d="m -87.072676,169.86467 c -6.34926,0 -11.496357,5.14709 -11.496357,11.49635 0.0046,1.55274 0.323209,3.08851 0.937335,4.51465 0.08089,2.5413 -5.314032,2.30833 -5.355472,6.4581 -0.0438,4.38959 16.178573,5.0158 57.451662,5.0158 41.2730976,0 59.492114,-0.51883 59.319161,-5.0158 -0.157217,-4.08788 -5.0706138,-3.95857 -5.1691547,-6.4495 0.612804,-1.42932 0.9292367,-2.9681 0.9301612,-4.52325 9.2e-6,-6.34926 -5.1470877,-11.49635 -11.4963478,-11.49635 -6.34926,0 -11.4963567,5.14709 -11.4963567,11.49635 0.0046,1.5452 0.319955,3.07368 0.928247,4.49411 0.05307,2.73041 -7.181268,2.64456 -7.238734,0.0287 0.612572,-1.4292 0.928848,-2.96782 0.929689,-4.52277 9e-6,-6.34926 -5.147088,-11.49635 -11.496357,-11.49635 -6.34926,0 -11.496357,5.14709 -11.496357,11.49635 0.0046,1.57418 0.332389,3.13064 0.963128,4.57294 -0.03587,2.59878 -7.132714,2.56902 -7.289359,-0.0181 0.622077,-1.43801 0.943649,-2.98799 0.944962,-4.55478 9e-6,-6.34926 -5.147088,-11.49636 -11.496348,-11.49636 -6.34926,0 -11.496357,5.1471 -11.496357,11.49636 0.0046,1.56875 0.330291,3.11995 0.956916,4.55813 -0.07516,2.76522 -7.156326,2.69131 -7.281242,-0.006 0.621133,-1.43708 0.942207,-2.98588 0.943538,-4.55144 0,-6.34926 -5.147097,-11.49635 -11.496357,-11.49635 z"
       style="opacity:1;fill:#bc3503;fill-opacity:1;stroke:none;stroke-width:2.94551253;stroke-linecap:round;stroke-linejoin:miter;stroke-miterlimit:4;stroke-dasharray:none;stroke-opacity:1" />
    <path
       id="path5775"
       d="m -87.294349,170.78718 c -0.06166,-0.007 -0.1387,0.0166 -0.232656,0.0793 -0.687363,0.45824 -0.735058,1.77285 -0.259419,2.20525 0.475647,0.4324 0.346108,-0.30256 0.562308,-1.03765 0.175662,-0.59726 0.196777,-1.21535 -0.07026,-1.24691 z m 28.863184,0 c -0.06166,-0.007 -0.138701,0.0166 -0.232656,0.0793 -0.687373,0.45824 -0.735058,1.77285 -0.25942,2.20525 0.475647,0.4324 0.346109,-0.30256 0.562309,-1.03765 0.175661,-0.59726 0.196813,-1.21535 -0.07026,-1.24691 z m 27.885254,0 c -0.06166,-0.007 -0.138701,0.0166 -0.232656,0.0793 -0.687373,0.45824 -0.735049,1.77285 -0.259411,2.20525 0.475648,0.4324 0.3461,-0.30256 0.5623,-1.03765 0.175661,-0.59726 0.196813,-1.21535 -0.07026,-1.24691 z m 28.8631831,0 c -0.061663,-0.007 -0.1387005,0.0166 -0.2326559,0.0793 -0.6873729,0.45824 -0.7350486,1.77285 -0.2594104,2.20525 0.4756474,0.4324 0.3460994,-0.30256 0.5622994,-1.03765 0.1756613,-0.59726 0.1968136,-1.21535 -0.070261,-1.24691 z m -89.1741321,0.76869 c -0.116754,0.006 -0.249029,0.0341 -0.388885,0.0889 -0.450206,0.17615 -0.518627,0.90817 -0.129465,1.08113 0.389162,0.17296 0.778222,-0.64851 0.951184,-0.86471 0.129724,-0.16216 -0.08256,-0.32592 -0.432834,-0.30528 z m 28.863183,0 c -0.116753,0.006 -0.249028,0.0341 -0.388884,0.0889 -0.450206,0.17615 -0.518627,0.90817 -0.129465,1.08113 0.389162,0.17296 0.778222,-0.64851 0.951184,-0.86471 0.129714,-0.16216 -0.08256,-0.32592 -0.432835,-0.30528 z m 27.885254,0 c -0.116753,0.006 -0.249019,0.0341 -0.388875,0.0889 -0.450206,0.17615 -0.518636,0.90817 -0.129474,1.08113 0.389162,0.17296 0.778222,-0.64851 0.951184,-0.86471 0.129714,-0.16216 -0.08256,-0.32592 -0.432835,-0.30528 z m 28.8631836,0 c -0.1167532,0.006 -0.2490193,0.0341 -0.3888753,0.0889 -0.4502056,0.17615 -0.518636,0.90817 -0.1294741,1.08113 0.3891619,0.17296 0.7782221,-0.64851 0.9511839,-0.86471 0.1297145,-0.16216 -0.082556,-0.32592 -0.4328345,-0.30528 z m -79.0297886,0.20591 c -0.197386,0.0136 -0.326629,0.10855 -0.333942,0.32582 -0.0171,0.50924 0.480788,0.36625 0.505453,0.76295 0.02099,0.33715 -0.742667,0.52359 -0.526467,0.69654 0.2162,0.17297 1.210789,0.21666 1.686418,-0.086 0.475657,-0.30266 -0.02505,-1.32069 -0.58714,-1.53689 -0.281062,-0.1081 -0.546926,-0.17599 -0.744322,-0.16244 z m 28.863184,0 c -0.197396,0.0136 -0.32663,0.10855 -0.333943,0.32582 -0.0171,0.50924 0.480788,0.36625 0.505453,0.76295 0.02099,0.33715 -0.742666,0.52359 -0.526466,0.69654 0.2162,0.17297 1.210788,0.21664 1.686417,-0.086 0.475657,-0.30267 -0.02505,-1.32069 -0.58714,-1.53689 -0.281071,-0.1081 -0.546925,-0.17599 -0.744321,-0.16244 z m 27.885254,0 c -0.197396,0.0136 -0.326621,0.10855 -0.333933,0.32582 -0.0171,0.50924 0.480778,0.36625 0.505443,0.76295 0.02099,0.33715 -0.742666,0.52359 -0.526466,0.69654 0.2162,0.17297 1.210798,0.21664 1.686427,-0.086 0.475656,-0.30267 -0.02505,-1.32069 -0.58715,-1.53689 -0.281071,-0.1081 -0.546916,-0.17599 -0.744321,-0.16244 z m 28.8631833,0 c -0.197396,0.0136 -0.3266298,0.10855 -0.3339332,0.32582 -0.017103,0.50924 0.4807783,0.36625 0.5054436,0.76295 0.020986,0.33715 -0.7426664,0.52359 -0.52646638,0.69654 0.21619998,0.17297 1.21079778,0.21664 1.68642668,-0.086 0.4756567,-0.30267 -0.025054,-1.32069 -0.5871495,-1.53689 -0.2810711,-0.1081 -0.5469252,-0.17599 -0.7443212,-0.16244 z m -90.6259893,1.13034 c -0.411535,-0.0235 -1.021861,0.35859 -1.177147,0.48872 -0.262008,0.21956 -9e-6,0.58093 0.672655,0.58093 0.672655,0 1.10072,-0.39747 0.825538,-0.88668 -0.06878,-0.1223 -0.183862,-0.17515 -0.321046,-0.18297 z m 28.863183,0 c -0.411534,-0.0235 -1.021861,0.35859 -1.177146,0.48872 -0.262018,0.21956 -1e-5,0.58093 0.672655,0.58093 0.672655,0 1.100719,-0.39747 0.825537,-0.88668 -0.06878,-0.1223 -0.183862,-0.17515 -0.321046,-0.18297 z m 27.885263,0 c -0.411534,-0.0235 -1.02187,0.35859 -1.177155,0.48872 -0.262009,0.21956 -10e-6,0.58093 0.672655,0.58093 0.672655,0 1.100719,-0.39747 0.825537,-0.88668 -0.06878,-0.1223 -0.183852,-0.17515 -0.321037,-0.18297 z m 28.8631838,0 c -0.4115344,-0.0235 -1.02187,0.35859 -1.1771557,0.48872 -0.2620083,0.21956 -9.3e-6,0.58093 0.6726551,0.58093 0.6726552,0 1.1007194,-0.39747 0.8255372,-0.88668 -0.068782,-0.1223 -0.1838523,-0.17515 -0.3210366,-0.18297 z m -83.3571628,0.88476 c -0.34315,0.0178 -0.314085,0.77286 0.176761,1.03957 0.28966,0.15723 0.504214,-0.74961 -0.0074,-0.99847 -0.06397,-0.0312 -0.120571,-0.0436 -0.169596,-0.0411 z m 28.863174,0 c -0.343141,0.0178 -0.314075,0.77286 0.176771,1.03957 0.289659,0.15723 0.504445,-0.74961 -0.0074,-0.99847 -0.06397,-0.0312 -0.120571,-0.0437 -0.169597,-0.0411 z m 27.884783,0 c -0.342624,0.0186 -0.313373,0.77299 0.177242,1.03957 0.289659,0.15723 0.503964,-0.74961 -0.0074,-0.99847 -0.06379,-0.0311 -0.120202,-0.0436 -0.169125,-0.0411 z m 28.863183,0 c -0.3426233,0.0186 -0.3133726,0.77299 0.1772423,1.03957 0.28965954,0.15723 0.50396436,-0.74961 -0.0074,-0.99847 -0.063789,-0.0311 -0.1202015,-0.0436 -0.1691253,-0.0411 z m -91.057391,0.22264 c -0.186663,0.0129 -0.347329,0.0943 -0.352571,0.30289 -0.0065,0.25163 0.215803,0.85948 0.643515,0.84225 0.455568,-0.0184 0.432613,-0.90793 0.216413,-1.03765 -0.1081,-0.0649 -0.320694,-0.12049 -0.507357,-0.10749 z m 28.863183,0 c -0.186663,0.0129 -0.347329,0.0943 -0.352571,0.30289 -0.0065,0.25163 0.215803,0.85948 0.643516,0.84225 0.455567,-0.0184 0.432613,-0.90793 0.216412,-1.03765 -0.1081,-0.0649 -0.320694,-0.12049 -0.507357,-0.10749 z m 27.885254,0 c -0.186662,0.0129 -0.347329,0.0943 -0.35257,0.30289 -0.0065,0.25163 0.215802,0.85948 0.643515,0.84225 0.455568,-0.0184 0.432622,-0.90793 0.216422,-1.03765 -0.1081,-0.0649 -0.320704,-0.12049 -0.507367,-0.10749 z m 28.8631837,0 c -0.1866627,0.0129 -0.3473289,0.0943 -0.3525707,0.30289 -0.00647,0.25163 0.2158025,0.85948 0.6435154,0.84225 0.4555676,-0.0184 0.4326219,-0.90793 0.2164219,-1.03765 -0.1081001,-0.0649 -0.3207038,-0.12049 -0.5073666,-0.10749 z m -74.2643187,0.30719 c -0.225667,0.0193 -0.472365,0.29075 -0.598613,0.6244 -0.102082,0.26979 0.172555,0.34575 0.496855,0.45385 0.324309,0.1081 0.692153,-0.23761 0.454329,-0.79973 -0.08921,-0.21081 -0.21718,-0.29012 -0.352571,-0.27852 z m 28.863184,0 c -0.225667,0.0193 -0.472366,0.29075 -0.598614,0.6244 -0.102081,0.26979 0.172555,0.34575 0.496856,0.45385 0.324309,0.1081 0.692152,-0.23761 0.454328,-0.79973 -0.08921,-0.21081 -0.21718,-0.29012 -0.35257,-0.27852 z m 27.885254,0 c -0.225667,0.0193 -0.472357,0.29075 -0.598613,0.6244 -0.102082,0.26979 0.172555,0.34575 0.496855,0.45385 0.324309,0.1081 0.692152,-0.23761 0.454328,-0.79973 -0.08921,-0.21081 -0.21718,-0.29012 -0.35257,-0.27852 z m 28.8631831,0 c -0.2256668,0.0193 -0.4723655,0.29075 -0.5986132,0.6244 -0.1020816,0.26979 0.1725551,0.34575 0.4968551,0.45385 0.3243093,0.1081 0.6921526,-0.23761 0.4543289,-0.79973 -0.089213,-0.21081 -0.21718,-0.29012 -0.3525708,-0.27852 z m -89.2830641,0.26562 c -0.257238,-0.0123 -0.643137,0.22788 -0.721385,0.61915 -0.06462,0.32291 0.865216,0.25923 0.951655,-0.30289 0.03245,-0.2108 -0.0759,-0.3089 -0.23027,-0.31626 z m 28.863183,0 c -0.257238,-0.0123 -0.643136,0.22788 -0.721385,0.61915 -0.06462,0.32291 0.865216,0.25924 0.951656,-0.30289 0.03245,-0.2108 -0.0759,-0.3089 -0.230271,-0.31626 z m 27.885254,0 c -0.257229,-0.0123 -0.643136,0.22788 -0.721385,0.61915 -0.06462,0.32291 0.865226,0.25924 0.951665,-0.30289 0.03245,-0.2108 -0.0759,-0.3089 -0.23028,-0.31626 z m 28.86318353,0 c -0.25722865,-0.0123 -0.64313635,0.22788 -0.72138475,0.61915 -0.06462149,0.32291 0.8652161,0.25924 0.95166472,-0.30289 0.032449,-0.2108 -0.0759003,-0.3089 -0.23027997,-0.31626 z"
       style="fill:#f9f8f6;fill-opacity:1;stroke:none;stroke-width:0.24460326px;stroke-linecap:butt;stroke-linejoin:miter;stroke-opacity:1" />
  </g>
</svg>
