<?xml version="1.0" encoding="UTF-8" standalone="no"?>
<svg
   xmlns:dc="http://purl.org/dc/elements/1.1/"
   xmlns:cc="http://creativecommons.org/ns#"
   xmlns:rdf="http://www.w3.org/1999/02/22-rdf-syntax-ns#"
   xmlns:svg="http://www.w3.org/2000/svg"
   xmlns="http://www.w3.org/2000/svg"
   id="svg8"
   version="1.1"
   viewBox="0 0 112.34334 17.555033"
   height="66.349731"
   width="424.60477">
  <defs
     id="defs2" />
  <metadata
     id="metadata5">
    <rdf:RDF>
      <cc:Work
         rdf:about="">
        <dc:format>image/svg+xml</dc:format>
        <dc:type
           rdf:resource="http://purl.org/dc/dcmitype/StillImage" />
        <dc:title></dc:title>
      </cc:Work>
    </rdf:RDF>
  </metadata>
  <g
     transform="translate(21.019887,-213.38318)"
     id="layer1">
    <path
       id="path4656"
       transform="matrix(0.26458333,0,0,0.26458333,-21.019887,213.38318)"
       d="M 35.542969 0.001953125 C 35.316328 0.0061480685 35.103338 0.021294266 34.90625 0.048828125 C 28.994279 0.87473051 22.979324 2.0030743 18.164062 2.5351562 C 14.761747 2.9111437 12.025964 5.6211487 9.484375 7.8457031 C 6.7618187 10.228695 5.4421626 13.368318 2.8300781 16.482422 C 0.58793382 19.155493 0.37794048 22.925345 0.068359375 26.285156 C -0.42076442 31.593389 1.8578169 37.193094 2.8476562 42.125 C 3.5154383 45.452345 5.5276884 48.723187 8.3183594 50.865234 C 13.021203 54.474948 16.568941 58.927169 22.113281 61.667969 C 26.164149 63.670476 30.28505 65.6267 34.503906 65.619141 C 41.759711 65.607462 45.00173 67.550214 49.162109 65.148438 C 53.908323 62.408469 55.611034 63.156013 58.443359 61.503906 C 63.246716 58.702029 66.890627 54.397509 69.720703 49.548828 C 71.855346 45.891682 72.435792 44.649489 72.601562 37.611328 C 72.67244 34.600745 71.61585 33.149052 71.408203 28.601562 C 71.187418 23.765279 70.356822 19.616868 64.529297 15.527344 C 60.715085 12.850758 56.996541 6.9764722 50.439453 4.3652344 C 45.506532 2.4008249 38.942576 -0.060971028 35.542969 0.001953125 z M 123.54297 0.001953125 C 123.31633 0.0061480685 123.10334 0.021294266 122.90625 0.048828125 C 116.99428 0.87473051 110.98128 2.0030743 106.16602 2.5351562 C 102.7637 2.9111437 100.02792 5.6211487 97.486328 7.8457031 C 94.763772 10.228695 93.442163 13.368318 90.830078 16.482422 C 88.587934 19.155493 88.37794 22.925345 88.068359 26.285156 C 87.579236 31.593389 89.857817 37.193094 90.847656 42.125 C 91.515438 45.452345 93.527688 48.723187 96.318359 50.865234 C 101.0212 54.474948 104.56894 58.927169 110.11328 61.667969 C 114.16415 63.670476 118.28505 65.6267 122.50391 65.619141 C 129.75971 65.607462 133.00173 67.550214 137.16211 65.148438 C 141.90832 62.408469 143.61103 63.156013 146.44336 61.503906 C 151.24672 58.702029 154.89063 54.397509 157.7207 49.548828 C 159.85535 45.891682 160.43579 44.649489 160.60156 37.611328 C 160.67244 34.600745 159.61585 33.149052 159.4082 28.601562 C 159.18742 23.765279 158.35682 19.616868 152.5293 15.527344 C 148.71508 12.850758 144.99654 6.9764722 138.43945 4.3652344 C 133.50653 2.4008249 126.94258 -0.060971028 123.54297 0.001953125 z M 211.54297 0.001953125 C 211.31633 0.0061480685 211.10334 0.021294266 210.90625 0.048828125 C 204.99428 0.87473051 198.98128 2.0030743 194.16602 2.5351562 C 190.7637 2.9111437 188.02596 5.6211487 185.48438 7.8457031 C 182.76182 10.228695 181.44216 13.368318 178.83008 16.482422 C 176.58793 19.155493 176.37794 22.925345 176.06836 26.285156 C 175.57924 31.593389 177.85782 37.193094 178.84766 42.125 C 179.51544 45.452345 181.52769 48.723187 184.31836 50.865234 C 189.0212 54.474948 192.56894 58.927169 198.11328 61.667969 C 202.16415 63.670476 206.28505 65.6267 210.50391 65.619141 C 217.75971 65.607462 221.00173 67.550214 225.16211 65.148438 C 229.90832 62.408469 231.61103 63.156013 234.44336 61.503906 C 239.24672 58.702029 242.89063 54.397509 245.7207 49.548828 C 247.85535 45.891682 248.43579 44.649489 248.60156 37.611328 C 248.67244 34.600745 247.61585 33.149052 247.4082 28.601562 C 247.18742 23.765279 246.35682 19.616868 240.5293 15.527344 C 236.71508 12.850758 232.99654 6.9764722 226.43945 4.3652344 C 221.50653 2.4008249 214.94258 -0.060971028 211.54297 0.001953125 z M 299.54297 0.001953125 C 299.31633 0.0061480685 299.10334 0.021294266 298.90625 0.048828125 C 292.99428 0.87473051 286.98128 2.0030743 282.16602 2.5351562 C 278.7637 2.9111437 276.02792 5.6211487 273.48633 7.8457031 C 270.76377 10.228695 269.44216 13.368318 266.83008 16.482422 C 264.58793 19.155493 264.37794 22.925345 264.06836 26.285156 C 263.57924 31.593389 265.85782 37.193094 266.84766 42.125 C 267.51544 45.452345 269.52769 48.723187 272.31836 50.865234 C 277.0212 54.474948 280.56894 58.927169 286.11328 61.667969 C 290.16415 63.670476 294.28505 65.6267 298.50391 65.619141 C 305.75971 65.607462 309.00173 67.550214 313.16211 65.148438 C 317.90832 62.408469 319.61103 63.156013 322.44336 61.503906 C 327.24672 58.702029 330.89063 54.397509 333.7207 49.548828 C 335.85535 45.891682 336.43579 44.649489 336.60156 37.611328 C 336.67244 34.600745 335.61585 33.149052 335.4082 28.601562 C 335.18742 23.765279 334.35682 19.616868 328.5293 15.527344 C 324.71508 12.850758 320.99654 6.9764722 314.43945 4.3652344 C 309.50653 2.4008249 302.94258 -0.060971028 299.54297 0.001953125 z M 387.54297 0.001953125 C 387.31633 0.0061480685 387.10334 0.021294266 386.90625 0.048828125 C 380.99428 0.87473051 374.98128 2.0030743 370.16602 2.5351562 C 366.7637 2.9111437 364.02792 5.6211487 361.48633 7.8457031 C 358.76377 10.228695 357.44216 13.368318 354.83008 16.482422 C 352.58793 19.155493 352.37794 22.925345 352.06836 26.285156 C 351.57924 31.593389 353.85782 37.193094 354.84766 42.125 C 355.51544 45.452345 357.52769 48.723187 360.31836 50.865234 C 365.0212 54.474948 368.56894 58.927169 374.11328 61.667969 C 378.16415 63.670476 382.28505 65.6267 386.50391 65.619141 C 393.75971 65.607462 397.00173 67.550214 401.16211 65.148438 C 405.90832 62.408469 407.61103 63.156013 410.44336 61.503906 C 415.24672 58.702029 418.89063 54.397509 421.7207 49.548828 C 423.85535 45.891682 424.43579 44.649489 424.60156 37.611328 C 424.67244 34.600745 423.61585 33.149052 423.4082 28.601562 C 423.18742 23.765279 422.35682 19.616868 416.5293 15.527344 C 412.71508 12.850758 408.99654 6.9764722 402.43945 4.3652344 C 397.50653 2.4008249 390.94258 -0.060971028 387.54297 0.001953125 z "
       style="fill:#836800;fill-opacity:1;stroke:none;stroke-width:12.07356644;stroke-linecap:butt;stroke-linejoin:miter;stroke-miterlimit:4;stroke-dasharray:none;stroke-opacity:1" />
    <path
       id="path4653"
       transform="matrix(0.26458333,0,0,0.26458333,-21.019887,213.38318)"
       d="M 36.185547 1.6289062 C 35.976699 1.6295653 35.780897 1.6400228 35.599609 1.6621094 C 30.161587 2.3247362 24.632343 3.2607258 20.201172 3.6738281 C 17.070257 3.965721 14.585579 6.3690591 12.273438 8.3378906 C 9.7966752 10.446943 8.6246463 13.25632 6.2597656 16.025391 C 4.2298078 18.402298 4.0868248 21.792381 3.8476562 24.814453 C 3.4697942 29.589017 5.6467742 34.667097 6.6269531 39.123047 C 7.2882306 42.129283 9.1873113 45.100586 11.789062 47.068359 C 16.173541 50.384441 19.504162 54.445252 24.652344 56.990234 C 28.413771 58.849649 32.240271 60.66697 36.128906 60.71875 C 42.816803 60.807947 45.832939 62.602273 49.634766 60.496094 C 53.971921 58.093372 55.550697 58.789066 58.138672 57.339844 C 62.52766 54.88213 65.827159 51.056982 68.369141 46.728516 C 70.286469 43.463684 70.805278 42.352872 70.861328 36.015625 C 70.885294 33.304834 69.892581 31.981786 69.638672 27.882812 C 69.368662 23.523543 68.544948 19.77541 63.117188 16.011719 C 59.564651 13.548336 56.056477 8.2058515 49.976562 5.7636719 C 45.402624 3.9264671 39.318272 1.619021 36.185547 1.6289062 z M 124.18555 1.6289062 C 123.9767 1.6295653 123.7809 1.6400228 123.59961 1.6621094 C 118.16159 2.3247362 112.63234 3.2607258 108.20117 3.6738281 C 105.07026 3.965721 102.58558 6.3690591 100.27344 8.3378906 C 97.796675 10.446943 96.624646 13.25632 94.259766 16.025391 C 92.229808 18.402298 92.086825 21.792381 91.847656 24.814453 C 91.469794 29.589017 93.646774 34.667097 94.626953 39.123047 C 95.288231 42.129283 97.187311 45.100586 99.789062 47.068359 C 104.17354 50.384441 107.50416 54.445252 112.65234 56.990234 C 116.41377 58.849649 120.24027 60.66697 124.12891 60.71875 C 130.8168 60.807947 133.83294 62.602273 137.63477 60.496094 C 141.97192 58.093372 143.5507 58.789066 146.13867 57.339844 C 150.52766 54.88213 153.82716 51.056982 156.36914 46.728516 C 158.28647 43.463684 158.80528 42.352872 158.86133 36.015625 C 158.88529 33.304834 157.89258 31.981786 157.63867 27.882812 C 157.36866 23.523543 156.54495 19.77541 151.11719 16.011719 C 147.56465 13.548336 144.05648 8.2058515 137.97656 5.7636719 C 133.40262 3.9264671 127.31827 1.619021 124.18555 1.6289062 z M 212.18555 1.6289062 C 211.9767 1.6295653 211.7809 1.6400228 211.59961 1.6621094 C 206.16159 2.3247362 200.63234 3.2607258 196.20117 3.6738281 C 193.07026 3.965721 190.58558 6.3690591 188.27344 8.3378906 C 185.79668 10.446943 184.62465 13.25632 182.25977 16.025391 C 180.22981 18.402298 180.08682 21.792381 179.84766 24.814453 C 179.46979 29.589017 181.64677 34.667097 182.62695 39.123047 C 183.28823 42.129283 185.18731 45.100586 187.78906 47.068359 C 192.17354 50.384441 195.50416 54.445252 200.65234 56.990234 C 204.41377 58.849649 208.24027 60.66697 212.12891 60.71875 C 218.8168 60.807947 221.83294 62.602273 225.63477 60.496094 C 229.97192 58.093372 231.5507 58.789066 234.13867 57.339844 C 238.52766 54.88213 241.82716 51.056982 244.36914 46.728516 C 246.28647 43.463684 246.80528 42.352872 246.86133 36.015625 C 246.88529 33.304834 245.89258 31.981786 245.63867 27.882812 C 245.36866 23.523543 244.54495 19.77541 239.11719 16.011719 C 235.56465 13.548336 232.05648 8.2058515 225.97656 5.7636719 C 221.40262 3.9264671 215.31827 1.619021 212.18555 1.6289062 z M 300.18555 1.6289062 C 299.9767 1.6295653 299.7809 1.6400228 299.59961 1.6621094 C 294.16159 2.3247362 288.63234 3.2607258 284.20117 3.6738281 C 281.07026 3.965721 278.58558 6.3690591 276.27344 8.3378906 C 273.79668 10.446943 272.62465 13.25632 270.25977 16.025391 C 268.22981 18.402298 268.08682 21.792381 267.84766 24.814453 C 267.46979 29.589017 269.64677 34.667097 270.62695 39.123047 C 271.28823 42.129283 273.18731 45.100586 275.78906 47.068359 C 280.17354 50.384441 283.50416 54.445252 288.65234 56.990234 C 292.41377 58.849649 296.24027 60.66697 300.12891 60.71875 C 306.8168 60.807947 309.83294 62.602273 313.63477 60.496094 C 317.97192 58.093372 319.5507 58.789066 322.13867 57.339844 C 326.52766 54.88213 329.82716 51.056982 332.36914 46.728516 C 334.28647 43.463684 334.80528 42.352872 334.86133 36.015625 C 334.88529 33.304834 333.89258 31.981786 333.63867 27.882812 C 333.36866 23.523543 332.54495 19.77541 327.11719 16.011719 C 323.56465 13.548336 320.05648 8.2058515 313.97656 5.7636719 C 309.40262 3.9264671 303.31827 1.619021 300.18555 1.6289062 z M 388.18555 1.6289062 C 387.9767 1.6295653 387.7809 1.6400228 387.59961 1.6621094 C 382.16159 2.3247362 376.63234 3.2607258 372.20117 3.6738281 C 369.07026 3.965721 366.58558 6.3690591 364.27344 8.3378906 C 361.79668 10.446943 360.62465 13.25632 358.25977 16.025391 C 356.22981 18.402298 356.08682 21.792381 355.84766 24.814453 C 355.46979 29.589017 357.64677 34.667097 358.62695 39.123047 C 359.28823 42.129283 361.18731 45.100586 363.78906 47.068359 C 368.17354 50.384441 371.50416 54.445252 376.65234 56.990234 C 380.41377 58.849649 384.24027 60.66697 388.12891 60.71875 C 394.8168 60.807947 397.83294 62.602273 401.63477 60.496094 C 405.97192 58.093372 407.5507 58.789066 410.13867 57.339844 C 414.52766 54.88213 417.82716 51.056982 420.36914 46.728516 C 422.28647 43.463684 422.80528 42.352872 422.86133 36.015625 C 422.88529 33.304834 421.89258 31.981786 421.63867 27.882812 C 421.36866 23.523543 420.54495 19.77541 415.11719 16.011719 C 411.56465 13.548336 408.05648 8.2058515 401.97656 5.7636719 C 397.40262 3.9264671 391.31827 1.619021 388.18555 1.6289062 z "
       style="fill:#c2ba6b;fill-opacity:1;stroke:none;stroke-width:11;stroke-linecap:butt;stroke-linejoin:miter;stroke-miterlimit:4;stroke-dasharray:none;stroke-opacity:1" />
    <path
       id="path4658"
       transform="matrix(0.26458333,0,0,0.26458333,-21.019887,213.38318)"
       d="M 37.910156 22.605469 A 1.5178572 2.4107144 26.305216 0 0 35.884766 24.195312 A 1.5178572 2.4107144 26.305216 0 0 36.175781 27.029297 A 1.5178572 2.4107144 26.305216 0 0 38.605469 25.539062 A 1.5178572 2.4107144 26.305216 0 0 38.3125 22.707031 A 1.5178572 2.4107144 26.305216 0 0 37.910156 22.605469 z M 125.91016 22.605469 A 1.5178572 2.4107144 26.305216 0 0 123.88477 24.195312 A 1.5178572 2.4107144 26.305216 0 0 124.17578 27.029297 A 1.5178572 2.4107144 26.305216 0 0 126.60547 25.539062 A 1.5178572 2.4107144 26.305216 0 0 126.3125 22.707031 A 1.5178572 2.4107144 26.305216 0 0 125.91016 22.605469 z M 213.91016 22.605469 A 1.5178572 2.4107144 26.305216 0 0 211.88477 24.195312 A 1.5178572 2.4107144 26.305216 0 0 212.17578 27.029297 A 1.5178572 2.4107144 26.305216 0 0 214.60547 25.539062 A 1.5178572 2.4107144 26.305216 0 0 214.3125 22.707031 A 1.5178572 2.4107144 26.305216 0 0 213.91016 22.605469 z M 301.91016 22.605469 A 1.5178572 2.4107144 26.305216 0 0 299.88477 24.195312 A 1.5178572 2.4107144 26.305216 0 0 300.17578 27.029297 A 1.5178572 2.4107144 26.305216 0 0 302.60547 25.539062 A 1.5178572 2.4107144 26.305216 0 0 302.3125 22.707031 A 1.5178572 2.4107144 26.305216 0 0 301.91016 22.605469 z M 389.91016 22.605469 A 1.5178572 2.4107144 26.305216 0 0 387.88477 24.195312 A 1.5178572 2.4107144 26.305216 0 0 388.17578 27.029297 A 1.5178572 2.4107144 26.305216 0 0 390.60547 25.539062 A 1.5178572 2.4107144 26.305216 0 0 390.3125 22.707031 A 1.5178572 2.4107144 26.305216 0 0 389.91016 22.605469 z M 42.328125 24.789062 A 1.5178572 2.4107144 26.305216 0 0 40.302734 26.378906 A 1.5178572 2.4107144 26.305216 0 0 40.595703 29.212891 A 1.5178572 2.4107144 26.305216 0 0 43.023438 27.724609 A 1.5178572 2.4107144 26.305216 0 0 42.732422 24.890625 A 1.5178572 2.4107144 26.305216 0 0 42.328125 24.789062 z M 130.32812 24.789062 A 1.5178572 2.4107144 26.305216 0 0 128.30273 26.378906 A 1.5178572 2.4107144 26.305216 0 0 128.5957 29.212891 A 1.5178572 2.4107144 26.305216 0 0 131.02344 27.724609 A 1.5178572 2.4107144 26.305216 0 0 130.73242 24.890625 A 1.5178572 2.4107144 26.305216 0 0 130.32812 24.789062 z M 218.32812 24.789062 A 1.5178572 2.4107144 26.305216 0 0 216.30273 26.378906 A 1.5178572 2.4107144 26.305216 0 0 216.5957 29.212891 A 1.5178572 2.4107144 26.305216 0 0 219.02344 27.724609 A 1.5178572 2.4107144 26.305216 0 0 218.73242 24.890625 A 1.5178572 2.4107144 26.305216 0 0 218.32812 24.789062 z M 306.32812 24.789062 A 1.5178572 2.4107144 26.305216 0 0 304.30273 26.378906 A 1.5178572 2.4107144 26.305216 0 0 304.5957 29.212891 A 1.5178572 2.4107144 26.305216 0 0 307.02344 27.724609 A 1.5178572 2.4107144 26.305216 0 0 306.73242 24.890625 A 1.5178572 2.4107144 26.305216 0 0 306.32812 24.789062 z M 394.32812 24.789062 A 1.5178572 2.4107144 26.305216 0 0 392.30273 26.378906 A 1.5178572 2.4107144 26.305216 0 0 392.5957 29.212891 A 1.5178572 2.4107144 26.305216 0 0 395.02344 27.724609 A 1.5178572 2.4107144 26.305216 0 0 394.73242 24.890625 A 1.5178572 2.4107144 26.305216 0 0 394.32812 24.789062 z M 30.746094 27.863281 A 1.5178572 2.4107144 64.178347 0 0 29.193359 28.21875 A 1.5178572 2.4107144 64.178347 0 0 27.683594 30.634766 A 1.5178572 2.4107144 64.178347 0 0 30.515625 30.951172 A 1.5178572 2.4107144 64.178347 0 0 32.023438 28.535156 A 1.5178572 2.4107144 64.178347 0 0 30.746094 27.863281 z M 118.74609 27.863281 A 1.5178572 2.4107144 64.178347 0 0 117.19336 28.21875 A 1.5178572 2.4107144 64.178347 0 0 115.68359 30.634766 A 1.5178572 2.4107144 64.178347 0 0 118.51562 30.951172 A 1.5178572 2.4107144 64.178347 0 0 120.02344 28.535156 A 1.5178572 2.4107144 64.178347 0 0 118.74609 27.863281 z M 206.74609 27.863281 A 1.5178572 2.4107144 64.178347 0 0 205.19336 28.21875 A 1.5178572 2.4107144 64.178347 0 0 203.68359 30.634766 A 1.5178572 2.4107144 64.178347 0 0 206.51562 30.951172 A 1.5178572 2.4107144 64.178347 0 0 208.02344 28.535156 A 1.5178572 2.4107144 64.178347 0 0 206.74609 27.863281 z M 294.74609 27.863281 A 1.5178572 2.4107144 64.178347 0 0 293.19336 28.21875 A 1.5178572 2.4107144 64.178347 0 0 291.68359 30.634766 A 1.5178572 2.4107144 64.178347 0 0 294.51562 30.951172 A 1.5178572 2.4107144 64.178347 0 0 296.02344 28.535156 A 1.5178572 2.4107144 64.178347 0 0 294.74609 27.863281 z M 382.74609 27.863281 A 1.5178572 2.4107144 64.178347 0 0 381.19336 28.21875 A 1.5178572 2.4107144 64.178347 0 0 379.68359 30.634766 A 1.5178572 2.4107144 64.178347 0 0 382.51562 30.951172 A 1.5178572 2.4107144 64.178347 0 0 384.02344 28.535156 A 1.5178572 2.4107144 64.178347 0 0 382.74609 27.863281 z M 32.832031 32.298828 A 1.5178572 2.4107144 64.178347 0 0 32.679688 32.302734 L 32.679688 32.300781 A 1.5178572 2.4107144 64.178347 0 0 31.339844 32.658203 A 1.5178572 2.4107144 64.178347 0 0 29.830078 35.074219 A 1.5178572 2.4107144 64.178347 0 0 32.662109 35.390625 A 1.5178572 2.4107144 64.178347 0 0 34.169922 32.974609 A 1.5178572 2.4107144 64.178347 0 0 32.832031 32.298828 z M 120.83203 32.298828 A 1.5178572 2.4107144 64.178347 0 0 120.67969 32.302734 L 120.67969 32.300781 A 1.5178572 2.4107144 64.178347 0 0 119.33984 32.658203 A 1.5178572 2.4107144 64.178347 0 0 117.83008 35.074219 A 1.5178572 2.4107144 64.178347 0 0 120.66211 35.390625 A 1.5178572 2.4107144 64.178347 0 0 122.16992 32.974609 A 1.5178572 2.4107144 64.178347 0 0 120.83203 32.298828 z M 208.83203 32.298828 A 1.5178572 2.4107144 64.178347 0 0 208.67969 32.302734 L 208.67969 32.300781 A 1.5178572 2.4107144 64.178347 0 0 207.33984 32.658203 A 1.5178572 2.4107144 64.178347 0 0 205.83008 35.074219 A 1.5178572 2.4107144 64.178347 0 0 208.66211 35.390625 A 1.5178572 2.4107144 64.178347 0 0 210.16992 32.974609 A 1.5178572 2.4107144 64.178347 0 0 208.83203 32.298828 z M 296.83203 32.298828 A 1.5178572 2.4107144 64.178347 0 0 296.67969 32.302734 L 296.67969 32.300781 A 1.5178572 2.4107144 64.178347 0 0 295.33984 32.658203 A 1.5178572 2.4107144 64.178347 0 0 293.83008 35.074219 A 1.5178572 2.4107144 64.178347 0 0 296.66211 35.390625 A 1.5178572 2.4107144 64.178347 0 0 298.16992 32.974609 A 1.5178572 2.4107144 64.178347 0 0 296.83203 32.298828 z M 384.83203 32.298828 A 1.5178572 2.4107144 64.178347 0 0 384.67969 32.302734 L 384.67969 32.300781 A 1.5178572 2.4107144 64.178347 0 0 383.33984 32.658203 A 1.5178572 2.4107144 64.178347 0 0 381.83008 35.074219 A 1.5178572 2.4107144 64.178347 0 0 384.66211 35.390625 A 1.5178572 2.4107144 64.178347 0 0 386.16992 32.974609 A 1.5178572 2.4107144 64.178347 0 0 384.83203 32.298828 z M 42.800781 33.517578 A 2.4107144 1.5178572 78.432085 0 0 42.648438 33.519531 A 2.4107144 1.5178572 78.432085 0 0 42.542969 33.535156 A 2.4107144 1.5178572 78.432085 0 0 41.539062 36.201172 A 2.4107144 1.5178572 78.432085 0 0 43.509766 38.259766 A 2.4107144 1.5178572 78.432085 0 0 44.511719 35.59375 A 2.4107144 1.5178572 78.432085 0 0 42.800781 33.517578 z M 130.80078 33.517578 A 2.4107144 1.5178572 78.432085 0 0 130.64844 33.519531 A 2.4107144 1.5178572 78.432085 0 0 130.54297 33.535156 A 2.4107144 1.5178572 78.432085 0 0 129.53906 36.201172 A 2.4107144 1.5178572 78.432085 0 0 131.50977 38.259766 A 2.4107144 1.5178572 78.432085 0 0 132.51172 35.59375 A 2.4107144 1.5178572 78.432085 0 0 130.80078 33.517578 z M 218.80078 33.517578 A 2.4107144 1.5178572 78.432085 0 0 218.64844 33.519531 A 2.4107144 1.5178572 78.432085 0 0 218.54297 33.535156 A 2.4107144 1.5178572 78.432085 0 0 217.53906 36.201172 A 2.4107144 1.5178572 78.432085 0 0 219.50977 38.259766 A 2.4107144 1.5178572 78.432085 0 0 220.51172 35.59375 A 2.4107144 1.5178572 78.432085 0 0 218.80078 33.517578 z M 306.80078 33.517578 A 2.4107144 1.5178572 78.432085 0 0 306.64844 33.519531 A 2.4107144 1.5178572 78.432085 0 0 306.54297 33.535156 A 2.4107144 1.5178572 78.432085 0 0 305.53906 36.201172 A 2.4107144 1.5178572 78.432085 0 0 307.50977 38.259766 A 2.4107144 1.5178572 78.432085 0 0 308.51172 35.59375 A 2.4107144 1.5178572 78.432085 0 0 306.80078 33.517578 z M 394.80078 33.517578 A 2.4107144 1.5178572 78.432085 0 0 394.64844 33.519531 A 2.4107144 1.5178572 78.432085 0 0 394.54297 33.535156 A 2.4107144 1.5178572 78.432085 0 0 393.53906 36.201172 A 2.4107144 1.5178572 78.432085 0 0 395.50977 38.259766 A 2.4107144 1.5178572 78.432085 0 0 396.51172 35.59375 A 2.4107144 1.5178572 78.432085 0 0 394.80078 33.517578 z M 37.972656 34.505859 A 2.4107144 1.5178572 78.432085 0 0 37.820312 34.507812 A 2.4107144 1.5178572 78.432085 0 0 37.712891 34.523438 A 2.4107144 1.5178572 78.432085 0 0 36.710938 37.189453 A 2.4107144 1.5178572 78.432085 0 0 38.679688 39.248047 A 2.4107144 1.5178572 78.432085 0 0 39.683594 36.582031 A 2.4107144 1.5178572 78.432085 0 0 37.972656 34.505859 z M 125.97266 34.505859 A 2.4107144 1.5178572 78.432085 0 0 125.82031 34.507812 A 2.4107144 1.5178572 78.432085 0 0 125.71289 34.523438 A 2.4107144 1.5178572 78.432085 0 0 124.71094 37.189453 A 2.4107144 1.5178572 78.432085 0 0 126.67969 39.248047 A 2.4107144 1.5178572 78.432085 0 0 127.68359 36.582031 A 2.4107144 1.5178572 78.432085 0 0 125.97266 34.505859 z M 213.97266 34.505859 A 2.4107144 1.5178572 78.432085 0 0 213.82031 34.507812 A 2.4107144 1.5178572 78.432085 0 0 213.71289 34.523438 A 2.4107144 1.5178572 78.432085 0 0 212.71094 37.189453 A 2.4107144 1.5178572 78.432085 0 0 214.67969 39.248047 A 2.4107144 1.5178572 78.432085 0 0 215.68359 36.582031 A 2.4107144 1.5178572 78.432085 0 0 213.97266 34.505859 z M 301.97266 34.505859 A 2.4107144 1.5178572 78.432085 0 0 301.82031 34.507812 A 2.4107144 1.5178572 78.432085 0 0 301.71289 34.523438 A 2.4107144 1.5178572 78.432085 0 0 300.71094 37.189453 A 2.4107144 1.5178572 78.432085 0 0 302.67969 39.248047 A 2.4107144 1.5178572 78.432085 0 0 303.68359 36.582031 A 2.4107144 1.5178572 78.432085 0 0 301.97266 34.505859 z M 389.97266 34.505859 A 2.4107144 1.5178572 78.432085 0 0 389.82031 34.507812 A 2.4107144 1.5178572 78.432085 0 0 389.71289 34.523438 A 2.4107144 1.5178572 78.432085 0 0 388.71094 37.189453 A 2.4107144 1.5178572 78.432085 0 0 390.67969 39.248047 A 2.4107144 1.5178572 78.432085 0 0 391.68359 36.582031 A 2.4107144 1.5178572 78.432085 0 0 389.97266 34.505859 z "
       style="fill:#dad8b4;fill-opacity:1;stroke:none;stroke-width:11;stroke-linecap:butt;stroke-linejoin:miter;stroke-miterlimit:4;stroke-dasharray:none;stroke-opacity:1" />
  </g>
</svg>
