<?xml version="1.0" encoding="UTF-8" standalone="no"?>
<svg
   xmlns:dc="http://purl.org/dc/elements/1.1/"
   xmlns:cc="http://creativecommons.org/ns#"
   xmlns:rdf="http://www.w3.org/1999/02/22-rdf-syntax-ns#"
   xmlns:svg="http://www.w3.org/2000/svg"
   xmlns="http://www.w3.org/2000/svg"
   id="svg8"
   version="1.1"
   viewBox="0 0 120.38756 27.123619"
   height="102.51447"
   width="455.00812">
  <defs
     id="defs2" />
  <metadata
     id="metadata5">
    <rdf:RDF>
      <cc:Work
         rdf:about="">
        <dc:format>image/svg+xml</dc:format>
        <dc:type
           rdf:resource="http://purl.org/dc/dcmitype/StillImage" />
        <dc:title></dc:title>
      </cc:Work>
    </rdf:RDF>
  </metadata>
  <g
     transform="translate(65.100816,-216.54514)"
     id="layer1">
    <path
       id="path5188-6-4-9-3"
       d="m -10.444574,216.55274 c -5.747459,0.22146 -12.730959,4.75209 -16.701172,13.64258 -3.071238,6.87741 -8.612552,9.85001 -11.919923,9.65625 -1.653685,-0.0969 -2.669322,-0.73528 -3.210942,-2.14453 -0.54162,-1.40927 -0.49613,-3.89496 1.08399,-7.46486 1.757917,-3.97158 1.873637,-7.36744 0.490234,-9.85741 -1.383404,-2.48997 -4.148204,-3.72097 -7.105474,-3.72657 -5.91452,-0.0112 -13.17277,4.37749 -17.13476,13.25782 a 1.5932155,1.5932155 0 1 0 2.9082,1.29883 c 3.52418,-7.89902 9.9527,-11.37917 14.2207,-11.37109 2.134,0.004 3.58457,0.75503 4.32618,2.08984 0.7416,1.3348 0.89303,3.60754 -0.61719,7.01953 -1.78629,4.0357 -2.12637,7.34688 -1.14648,9.89649 0.97988,2.5496 3.39229,4.03093 5.998043,4.18359 5.2115,0.30532 11.51611,-3.70261 15.015624,-11.53906 3.559339,-7.97042 9.812904,-11.59979 13.914062,-11.75782 2.050579,-0.079 3.40505,0.5748 4.111329,1.78516 0.706278,1.21036 0.889074,3.35777 -0.499999,6.64453 -1.7472,4.13414 -1.646079,7.77128 -0.126953,10.45312 1.519124,2.68184 4.322016,4.24041 7.373046,4.65235 6.1020557,0.82385 13.572741,-2.80806 16.249999,-11.19532 2.764798,-8.6615 8.68431,-12.1767 12.63672,-12.03321 1.976204,0.0718 3.426348,0.90475 4.253904,2.5508 0.827559,1.64604 1.017582,4.33373 -0.38867,8.13281 -1.575885,4.25734 -1.663049,7.56994 -0.269531,9.93359 1.393515,2.36366 4.163475,3.24126 6.917975,2.95703 5.50898,-0.56846 11.999689,-5.08674 15.205069,-12.36328 a 1.5932155,1.5932155 0 1 0 -2.91601,-1.2832 c -2.74115,6.22268 -8.673259,10.0698 -12.615229,10.47656 -1.97099,0.20338 -3.18363,-0.27798 -3.84766,-1.4043 -0.66403,-1.12631 -0.883529,-3.43437 0.51367,-7.20898 1.6086,-4.34574 1.59736,-7.98414 0.2461,-10.67187 -1.35127,-2.68774 -4.058347,-4.19658 -6.982432,-4.30274 -5.84817,-0.21232 -12.700698,4.57288 -15.789063,14.24805 -2.239926,7.01719 -8.251658,9.61847 -12.789061,9.00586 -2.268702,-0.30631 -4.074086,-1.38159 -5.027343,-3.06446 -0.953259,-1.68286 -1.188688,-4.14137 0.291015,-7.64257 1.624865,-3.84468 1.702533,-7.11481 0.316405,-9.49024 -1.386128,-2.37543 -4.110646,-3.47401 -6.984373,-3.36328 z"
       style="color:#000000;font-style:normal;font-variant:normal;font-weight:normal;font-stretch:normal;font-size:medium;line-height:normal;font-family:sans-serif;font-variant-ligatures:normal;font-variant-position:normal;font-variant-caps:normal;font-variant-numeric:normal;font-variant-alternates:normal;font-feature-settings:normal;text-indent:0;text-align:start;text-decoration:none;text-decoration-line:none;text-decoration-style:solid;text-decoration-color:#000000;letter-spacing:normal;word-spacing:normal;text-transform:none;writing-mode:lr-tb;direction:ltr;text-orientation:mixed;dominant-baseline:auto;baseline-shift:baseline;text-anchor:start;white-space:normal;shape-padding:0;clip-rule:nonzero;display:inline;overflow:visible;visibility:visible;opacity:1;isolation:auto;mix-blend-mode:normal;color-interpolation:sRGB;color-interpolation-filters:linearRGB;solid-color:#000000;solid-opacity:1;vector-effect:none;fill:#f3e8d3;fill-opacity:1;fill-rule:nonzero;stroke:none;stroke-width:3.1861124;stroke-linecap:round;stroke-linejoin:miter;stroke-miterlimit:4;stroke-dasharray:none;stroke-dashoffset:0;stroke-opacity:1;color-rendering:auto;image-rendering:auto;shape-rendering:auto;text-rendering:auto;enable-background:accumulate" />
    <path
       id="path5297"
       d="m -5.3700546,218.33298 -0.6614583,1.5875 0.9260417,1.05833 0.7276041,-1.65364 z m -39.2906244,0.8599 -0.330729,0.7276 1.124479,0.8599 0.396875,-0.59532 z m 69.849999,0.26458 -3.439583,0.79375 -0.132292,0.99219 3.307292,-0.66146 z m -82.153124,0.66146 -1.058333,0.92604 0.992187,0.59531 0.992188,-1.05833 z m 37.372395,3.04271 -2.447395,0.26458 -0.264584,0.92604 2.513542,-0.33073 z m -23.415624,5.75468 -0.396875,1.25678 0.529166,1.91822 0.463021,-1.25677 z m 58.076041,1.78594 -1.190625,1.98438 0.529166,0.99218 1.058334,-1.91822 z m 18.785416,1.98438 -0.463021,1.5875 0.79375,0.66146 0.595313,-1.45521 z m -40.8119785,3.10885 -0.396875,0.92604 0.5953124,1.32292 0.396875,-1.12448 z m -24.8046875,1.5875 -1.322916,1.05833 0.529166,1.5875 1.058334,-1.52135 z m 80.962499,0.39688 -1.719791,0.7276 -0.33073,1.12448 1.984375,-0.99219 z"
       style="fill:#b6a99a;fill-opacity:1;stroke:none;stroke-width:0.26458332px;stroke-linecap:butt;stroke-linejoin:miter;stroke-opacity:1" />
  </g>
</svg>
