<?xml version="1.0" encoding="UTF-8" standalone="no"?>
<svg
   xmlns:dc="http://purl.org/dc/elements/1.1/"
   xmlns:cc="http://creativecommons.org/ns#"
   xmlns:rdf="http://www.w3.org/1999/02/22-rdf-syntax-ns#"
   xmlns:svg="http://www.w3.org/2000/svg"
   xmlns="http://www.w3.org/2000/svg"
   id="svg8"
   version="1.1"
   viewBox="0 0 120.38756 27.123619"
   height="102.51447"
   width="455.00812">
  <defs
     id="defs2" />
  <metadata
     id="metadata5">
    <rdf:RDF>
      <cc:Work
         rdf:about="">
        <dc:format>image/svg+xml</dc:format>
        <dc:type
           rdf:resource="http://purl.org/dc/dcmitype/StillImage" />
        <dc:title></dc:title>
      </cc:Work>
    </rdf:RDF>
  </metadata>
  <g
     transform="translate(5.3872335,-225.22984)"
     id="layer1">
    <path
       id="path5188-6-4-9-37"
       d="m 49.269008,225.23743 c -5.747459,0.22146 -12.730959,4.75209 -16.701172,13.64258 -3.071238,6.87741 -8.612552,9.85001 -11.919923,9.65625 -1.653685,-0.0969 -2.669317,-0.73527 -3.210937,-2.14453 -0.54162,-1.40927 -0.49613,-3.89496 1.083985,-7.46485 1.757917,-3.97159 1.873637,-7.36745 0.490234,-9.85742 -1.383402,-2.48997 -4.148206,-3.72097 -7.10547,-3.72656 -5.914524,-0.0112 -13.172774,4.37749 -17.134764,13.25781 a 1.5932155,1.5932155 0 1 0 2.9082,1.29883 c 3.52418,-7.89902 9.9527,-11.37916 14.220704,-11.37109 2.134001,0.004 3.584568,0.75503 4.326174,2.08984 0.741605,1.3348 0.893037,3.60754 -0.617187,7.01953 -1.786292,4.0357 -2.126367,7.34688 -1.146485,9.89649 0.979882,2.5496 3.392295,4.03093 5.998047,4.18359 5.2115,0.30532 11.51611,-3.70261 15.015624,-11.53906 3.559339,-7.97042 9.812904,-11.59979 13.914062,-11.75782 2.050579,-0.079 3.40505,0.5748 4.111329,1.78516 0.706278,1.21036 0.889074,3.35778 -0.499999,6.64453 -1.7472,4.13414 -1.646079,7.77129 -0.126953,10.45313 1.519124,2.68184 4.322016,4.24041 7.373046,4.65234 6.102056,0.82386 13.572741,-2.80805 16.249999,-11.19531 2.764798,-8.66151 8.68431,-12.1767 12.63672,-12.03321 1.976204,0.0718 3.426348,0.90474 4.253904,2.55079 0.827559,1.64604 1.017582,4.33373 -0.38867,8.13281 -1.575885,4.25734 -1.663049,7.56994 -0.269531,9.93359 1.393515,2.36366 4.163475,3.24126 6.917975,2.95703 5.50898,-0.56846 11.99969,-5.08674 15.20507,-12.36328 a 1.5932155,1.5932155 0 1 0 -2.91601,-1.2832 c -2.74115,6.22268 -8.67326,10.0698 -12.61523,10.47656 -1.97099,0.20338 -3.18363,-0.27798 -3.84766,-1.4043 -0.66403,-1.12631 -0.883529,-3.43437 0.51367,-7.20898 1.6086,-4.34574 1.59736,-7.98414 0.2461,-10.67187 -1.35127,-2.68774 -4.058347,-4.19658 -6.982432,-4.30274 -5.84817,-0.21232 -12.700698,4.57288 -15.789063,14.24805 -2.239926,7.01719 -8.251658,9.61847 -12.789061,9.00586 -2.268702,-0.30631 -4.074086,-1.38159 -5.027343,-3.06446 -0.953259,-1.68286 -1.188688,-4.14137 0.291015,-7.64257 1.624865,-3.84468 1.702533,-7.11481 0.316405,-9.49024 -1.386128,-2.37543 -4.110646,-3.47401 -6.984373,-3.36328 z"
       style="color:#000000;font-style:normal;font-variant:normal;font-weight:normal;font-stretch:normal;font-size:medium;line-height:normal;font-family:sans-serif;font-variant-ligatures:normal;font-variant-position:normal;font-variant-caps:normal;font-variant-numeric:normal;font-variant-alternates:normal;font-feature-settings:normal;text-indent:0;text-align:start;text-decoration:none;text-decoration-line:none;text-decoration-style:solid;text-decoration-color:#000000;letter-spacing:normal;word-spacing:normal;text-transform:none;writing-mode:lr-tb;direction:ltr;text-orientation:mixed;dominant-baseline:auto;baseline-shift:baseline;text-anchor:start;white-space:normal;shape-padding:0;clip-rule:nonzero;display:inline;overflow:visible;visibility:visible;opacity:1;isolation:auto;mix-blend-mode:normal;color-interpolation:sRGB;color-interpolation-filters:linearRGB;solid-color:#000000;solid-opacity:1;vector-effect:none;fill:#b67842;fill-opacity:1;fill-rule:nonzero;stroke:none;stroke-width:3.1861124;stroke-linecap:round;stroke-linejoin:miter;stroke-miterlimit:4;stroke-dasharray:none;stroke-dashoffset:0;stroke-opacity:1;color-rendering:auto;image-rendering:auto;shape-rendering:auto;text-rendering:auto;enable-background:accumulate" />
    <path
       id="path5550"
       d="m 11.040956,227.15358 c -0.384413,0.29721 -0.673288,1.14008 -0.165365,1.20148 0.551244,0.0666 0.51575,-0.77926 0.165365,-1.20148 z m 74.191337,0.25373 c -0.09943,0.0101 -0.182767,0.0653 -0.234094,0.18242 -0.222813,0.50897 0.597438,0.7186 1.102775,0.50488 -0.130288,-0.34033 -0.570376,-0.71753 -0.868681,-0.6873 z m -41.191284,1.40457 c -0.457764,0.16298 -0.994376,0.87408 -0.530717,1.09037 0.503205,0.23473 0.732475,-0.58014 0.530717,-1.09037 z m -45.4396023,5.04517 c -0.4577662,0.16298 -0.9943756,0.87408 -0.5307171,1.09037 0.5032057,0.23473 0.7324725,-0.58014 0.5307171,-1.09037 z m 19.1931423,1.63194 c -0.238453,0.42338 -0.176567,1.31206 0.315227,1.17099 0.533733,-0.15311 0.171844,-0.9184 -0.315227,-1.17099 z m 36.417415,0.49868 c -0.42519,-0.0303 -0.889057,0.1294 -0.757576,0.48989 0.190266,0.52165 0.92847,0.10727 1.146183,-0.39636 -0.109775,-0.052 -0.246876,-0.0834 -0.388607,-0.0935 z m -37.983727,2.66857 c -0.255609,-0.0208 -0.574406,0.0699 -0.788583,0.24133 0.290372,0.38961 1.127977,0.69331 1.198377,0.18655 0.0382,-0.27499 -0.154186,-0.4071 -0.409794,-0.42788 z m 16.662032,0.15865 c -0.07231,-0.005 -0.145844,0.02 -0.217041,0.0842 -0.412099,0.37214 0.249362,0.90084 0.797883,0.91364 0.02281,-0.39414 -0.267496,-0.97701 -0.580842,-0.99787 z m 61.018497,0.19533 c -0.331138,0.039 -0.546463,0.62785 -0.449585,1.06299 0.477662,-0.0892 1.119045,-0.70741 0.695048,-0.99374 -0.08628,-0.0583 -0.169047,-0.0782 -0.245463,-0.0692 z m -39.881803,1.24437 c -0.227914,0.42915 -0.143991,1.31642 0.344165,1.16324 0.529785,-0.16626 0.149,-0.92276 -0.344165,-1.16324 z m 20.044254,1.78646 c -0.457765,0.16298 -0.994376,0.87408 -0.530717,1.09037 0.503205,0.23473 0.732474,-0.58014 0.530717,-1.09037 z m 35.428843,2.17402 c -0.25609,0.41294 -0.2322,1.30359 0.2651,1.18339 0.53972,-0.13046 0.21088,-0.91048 -0.2651,-1.18339 z m -15.629018,1.95906 c -0.261652,0.008 -0.46692,0.11792 -0.433565,0.37155 0.07241,0.55052 0.88266,0.30582 1.204577,-0.13849 -0.191707,-0.14926 -0.50936,-0.24154 -0.771012,-0.23306 z m -31.330387,3.49177 c -0.294235,0.0183 -0.654931,0.36274 -0.766878,0.72296 0.458768,0.16013 1.322596,-0.057 1.09709,-0.51625 -0.07648,-0.15576 -0.196469,-0.21501 -0.330212,-0.20671 z m -40.16034,0.15555 c -0.07234,0.004 -0.142039,0.0384 -0.204637,0.1111 -0.362333,0.42075 0.360072,0.86257 0.905889,0.80667 -0.02666,-0.3939 -0.387755,-0.93625 -0.701252,-0.91777 z"
       style="fill:#381814;fill-opacity:1;stroke:none;stroke-width:0.0413288px;stroke-linecap:butt;stroke-linejoin:miter;stroke-opacity:1" />
  </g>
</svg>
