<?xml version="1.0" encoding="UTF-8" standalone="no"?>
<svg
   xmlns:dc="http://purl.org/dc/elements/1.1/"
   xmlns:cc="http://creativecommons.org/ns#"
   xmlns:rdf="http://www.w3.org/1999/02/22-rdf-syntax-ns#"
   xmlns:svg="http://www.w3.org/2000/svg"
   xmlns="http://www.w3.org/2000/svg"
   id="svg8"
   version="1.1"
   viewBox="0 0 115.78222 25.464587"
   height="96.24411"
   width="437.60208">
  <defs
     id="defs2" />
  <metadata
     id="metadata5">
    <rdf:RDF>
      <cc:Work
         rdf:about="">
        <dc:format>image/svg+xml</dc:format>
        <dc:type
           rdf:resource="http://purl.org/dc/dcmitype/StillImage" />
        <dc:title></dc:title>
      </cc:Work>
    </rdf:RDF>
  </metadata>
  <g
     transform="translate(44.284105,-204.89282)"
     id="layer1">
    <path
       id="ellipse4776"
       transform="matrix(0.26458333,0,0,0.26458333,0,169.99998)"
       d="m -111.78906,131.88672 c -29.82203,0.38877 -50.92399,14.47501 -55.13282,37.13281 -4.26676,22.9697 22.19394,50.54162 59.85352,57.53711 37.659565,6.99549 72.484847,-10.46177 76.523438,-32.20312 5.546907,-29.86126 -19.183562,-53.0316 -59.304687,-60.48438 -7.710401,-1.43225 -15.057451,-2.07214 -21.939451,-1.98242 z m 149.999998,0 c -29.8220306,0.38877 -50.923987,14.47501 -55.132813,37.13281 -4.26676,22.9697 22.1939368,50.54162 59.853516,57.53711 37.659564,6.99549 72.484849,-10.46177 76.523439,-32.20312 5.5469,-29.86126 -19.18356,-53.0316 -59.304689,-60.48438 -7.710401,-1.43225 -15.057447,-2.07214 -21.939453,-1.98242 z m 150.000002,0 c -29.82203,0.38877 -50.92399,14.47501 -55.13282,37.13281 -4.26676,22.9697 22.19394,50.54162 59.85352,57.53711 37.65957,6.99549 72.48485,-10.46177 76.52344,-32.20312 5.5469,-29.86126 -19.18356,-53.0316 -59.30469,-60.48438 -7.7104,-1.43225 -15.05745,-2.07214 -21.93945,-1.98242 z"
       style="fill:#e84438;fill-opacity:1;stroke:none;stroke-width:9.93053913;stroke-linecap:butt;stroke-linejoin:miter;stroke-miterlimit:4;stroke-dasharray:none;stroke-opacity:1" />
    <path
       id="path4759"
       transform="matrix(0.26458333,0,0,0.26458333,0,169.99998)"
       d="m -107.90039,134 a 66.995711,42.615618 10.523098 0 0 -55.75,31.41016 66.995711,42.615618 10.523098 0 0 58.08594,54.13476 66.995711,42.615618 10.523098 0 0 73.652341,-29.66406 A 66.995711,42.615618 10.523098 0 0 -89.998047,135.74609 66.995711,42.615618 10.523098 0 0 -107.90039,134 Z m 149.999999,0 a 66.995711,42.615618 10.523098 0 0 -55.75,31.41016 66.995711,42.615618 10.523098 0 0 58.085938,54.13476 A 66.995711,42.615618 10.523098 0 0 118.08789,189.88086 66.995711,42.615618 10.523098 0 0 60.001953,135.74609 66.995711,42.615618 10.523098 0 0 42.099609,134 Z m 150.000001,0 a 66.995711,42.615618 10.523098 0 0 -55.75,31.41016 66.995711,42.615618 10.523098 0 0 58.08594,54.13476 66.995711,42.615618 10.523098 0 0 73.65234,-29.66406 A 66.995711,42.615618 10.523098 0 0 210.00195,135.74609 66.995711,42.615618 10.523098 0 0 192.09961,134 Z"
       style="fill:#f37567;fill-opacity:1;stroke:none;stroke-width:9.13617992;stroke-linecap:butt;stroke-linejoin:miter;stroke-miterlimit:4;stroke-dasharray:none;stroke-opacity:1" />
    <path
       id="path4779"
       transform="matrix(0.26458333,0,0,0.26458333,0,169.99998)"
       d="m -114.46289,140.56836 c -4.22311,-0.059 -8.93554,0.81072 -13.73242,2.59961 -26.52151,6.89106 -44.55634,44.63998 18.38867,29.99023 l -8.3418,-5.05468 0.28321,-3.40235 3.31445,-0.52734 0.67969,-2.46875 3.09375,0.008 1.39453,-2.01172 3.39843,0.5 5.39844,6.27539 c 7.059325,-17.19129 -1.20762,-25.73105 -13.87695,-25.9082 z m 149.999999,0 c -4.223108,-0.059 -8.935541,0.81072 -13.732421,2.59961 -26.5215069,6.89106 -44.556346,44.63998 18.388671,29.99023 l -8.341797,-5.05468 0.283204,-3.40235 3.314453,-0.52734 0.679687,-2.46875 3.09375,0.008 1.394532,-2.01172 3.398437,0.5 5.398437,6.27539 c 7.059323,-17.19129 -1.207627,-25.73105 -13.876953,-25.9082 z m 150.000001,0 c -4.22311,-0.059 -8.93554,0.81072 -13.73242,2.59961 -26.52151,6.89106 -44.55634,44.63998 18.38867,29.99023 l -8.3418,-5.05468 0.28321,-3.40235 3.31445,-0.52734 0.67969,-2.46875 3.09375,0.008 1.39453,-2.01172 3.39843,0.5 5.39844,6.27539 c 7.05932,-17.19129 -1.20762,-25.73105 -13.87695,-25.9082 z m -262.388672,6.8418 c -8.6998,-0.23055 -15.388822,5.96887 -15.060547,20.67773 l 7.291015,-3.91797 3.351563,0.75391 0.580078,2.37695 2.890625,1.10547 -0.253906,2.54883 2.904296,1.68164 -0.957031,3.27734 -9.601562,1.72266 c 53.48421,36.27609 50.210028,-5.43223 27.933593,-21.38867 h -0.002 c -6.230694,-5.51173 -13.124035,-8.68002 -19.076171,-8.83789 z m 150,0 c -8.6998,-0.23055 -15.388818,5.96887 -15.060547,20.67773 l 7.291015,-3.91797 3.351563,0.75391 0.580078,2.37695 2.890625,1.10547 -0.253906,2.54883 2.904296,1.68164 -0.957031,3.27734 -9.601562,1.72266 c 53.484211,36.27609 50.210031,-5.43223 27.933593,-21.38867 h -0.002 c -6.230694,-5.51173 -13.124035,-8.68002 -19.076171,-8.83789 z m 150.000002,0 c -8.6998,-0.23055 -15.38882,5.96887 -15.06055,20.67773 l 7.29102,-3.91797 3.35156,0.75391 0.58008,2.37695 2.89062,1.10547 -0.2539,2.54883 2.90429,1.68164 -0.95703,3.27734 -9.60156,1.72266 c 53.48421,36.27609 50.21003,-5.43223 27.93359,-21.38867 h -0.002 c -6.2307,-5.51173 -13.12404,-8.68002 -19.07617,-8.83789 z m -328.90039,31.36328 c -59.24251,5.40676 -33.85,28.80523 1.17187,34.16797 35.021857,5.36273 62.980151,-3.16462 13.744142,-31.9043 l -1.458984,7.74023 -2.361328,1.6211 -2.234375,-1.98633 -3.076172,1.35742 -2.099613,-2.22851 -2.69726,0.87109 -2.17383,-1.60938 z m 149.999997,0 c -59.242511,5.40676 -33.849997,28.80523 1.171875,34.16797 35.021855,5.36273 62.980148,-3.16462 13.74414,-31.9043 l -1.458984,7.74023 -2.361328,1.6211 -2.234375,-1.98633 -3.076172,1.35742 -2.099609,-2.22851 -2.697266,0.87109 -2.173828,-1.60938 z m 150.000003,0 c -59.24251,5.40676 -33.85,28.80523 1.17187,34.16797 35.02186,5.36273 62.98015,-3.16462 13.74414,-31.9043 l -1.45898,7.74023 -2.36133,1.6211 -2.23437,-1.98633 -3.07618,1.35742 -2.09961,-2.22851 -2.69726,0.87109 -2.17383,-1.60938 z"
       style="fill:#eb3d00;fill-opacity:1;stroke:none;stroke-width:0.95649463px;stroke-linecap:butt;stroke-linejoin:miter;stroke-opacity:1" />
    <path
       id="path4781"
       transform="matrix(0.26458333,0,0,0.26458333,0,169.99998)"
       d="m -119.39062,149.27148 a 3.5868548,1.708026 52.682599 0 0 -0.14063,0.002 3.5868548,1.708026 52.682599 0 0 -0.5,0.17773 3.5868548,1.708026 52.682599 0 0 0.81641,3.88867 3.5868548,1.708026 52.682599 0 0 3.5332,1.81641 3.5868548,1.708026 52.682599 0 0 -0.81641,-3.88672 3.5868548,1.708026 52.682599 0 0 -2.89257,-1.99805 z m 149.999995,0 a 3.5868548,1.708026 52.682599 0 0 -0.140625,0.002 3.5868548,1.708026 52.682599 0 0 -0.5,0.17773 3.5868548,1.708026 52.682599 0 0 0.816406,3.88867 3.5868548,1.708026 52.682599 0 0 3.533203,1.81641 3.5868548,1.708026 52.682599 0 0 -0.816406,-3.88672 3.5868548,1.708026 52.682599 0 0 -2.892578,-1.99805 z m 150.000005,0 a 3.5868548,1.708026 52.682599 0 0 -0.14063,0.002 3.5868548,1.708026 52.682599 0 0 -0.5,0.17773 3.5868548,1.708026 52.682599 0 0 0.81641,3.88867 3.5868548,1.708026 52.682599 0 0 3.5332,1.81641 3.5868548,1.708026 52.682599 0 0 -0.81641,-3.88672 3.5868548,1.708026 52.682599 0 0 -2.89257,-1.99805 z M -123.95508,152.75 a 3.5868548,1.708026 52.682599 0 0 -0.14062,0.002 3.5868548,1.708026 52.682599 0 0 -0.5,0.17969 3.5868548,1.708026 52.682599 0 0 0.8164,3.88672 3.5868548,1.708026 52.682599 0 0 3.53321,1.81836 3.5868548,1.708026 52.682599 0 0 -0.81641,-3.88867 3.5868548,1.708026 52.682599 0 0 -2.89258,-1.99805 z m 150.000002,0 a 3.5868548,1.708026 52.682599 0 0 -0.140625,0.002 3.5868548,1.708026 52.682599 0 0 -0.5,0.17969 3.5868548,1.708026 52.682599 0 0 0.816406,3.88672 3.5868548,1.708026 52.682599 0 0 3.533203,1.81836 A 3.5868548,1.708026 52.682599 0 0 28.9375,154.74805 3.5868548,1.708026 52.682599 0 0 26.044922,152.75 Z m 149.999998,0 a 3.5868548,1.708026 52.682599 0 0 -0.14062,0.002 3.5868548,1.708026 52.682599 0 0 -0.5,0.17969 3.5868548,1.708026 52.682599 0 0 0.8164,3.88672 3.5868548,1.708026 52.682599 0 0 3.53321,1.81836 3.5868548,1.708026 52.682599 0 0 -0.81641,-3.88867 3.5868548,1.708026 52.682599 0 0 -2.89258,-1.99805 z m -304.56445,3.48047 a 3.5868548,1.708026 52.682599 0 0 -0.14063,0.002 3.5868548,1.708026 52.682599 0 0 -0.49804,0.17774 3.5868548,1.708026 52.682599 0 0 0.81445,3.88867 3.5868548,1.708026 52.682599 0 0 3.5332,1.8164 3.5868548,1.708026 52.682599 0 0 -0.8164,-3.88867 3.5868548,1.708026 52.682599 0 0 -2.89258,-1.99609 z m 149.999999,0 a 3.5868548,1.708026 52.682599 0 0 -0.140625,0.002 3.5868548,1.708026 52.682599 0 0 -0.498047,0.17774 3.5868548,1.708026 52.682599 0 0 0.814453,3.88867 3.5868548,1.708026 52.682599 0 0 3.533203,1.8164 3.5868548,1.708026 52.682599 0 0 -0.816406,-3.88867 3.5868548,1.708026 52.682599 0 0 -2.892578,-1.99609 z m 150.000001,0 a 3.5868548,1.708026 52.682599 0 0 -0.14063,0.002 3.5868548,1.708026 52.682599 0 0 -0.49804,0.17774 3.5868548,1.708026 52.682599 0 0 0.81445,3.88867 3.5868548,1.708026 52.682599 0 0 3.5332,1.8164 3.5868548,1.708026 52.682599 0 0 -0.8164,-3.88867 3.5868548,1.708026 52.682599 0 0 -2.89258,-1.99609 z m -240.576173,1.38672 a 1.708026,3.5868548 58.363598 0 0 -2.654297,0.92187 1.708026,3.5868548 58.363598 0 0 -2.158203,3.33594 1.708026,3.5868548 58.363598 0 0 3.951172,-0.42773 1.708026,3.5868548 58.363598 0 0 2.158203,-3.33594 1.708026,3.5868548 58.363598 0 0 -1.296875,-0.49414 z m 150,0 a 1.708026,3.5868548 58.363598 0 0 -2.654297,0.92187 1.708026,3.5868548 58.363598 0 0 -2.158203,3.33594 1.708026,3.5868548 58.363598 0 0 3.951172,-0.42773 1.708026,3.5868548 58.363598 0 0 2.158203,-3.33594 1.708026,3.5868548 58.363598 0 0 -1.296875,-0.49414 z m 150.000003,0 a 1.708026,3.5868548 58.363598 0 0 -2.6543,0.92187 1.708026,3.5868548 58.363598 0 0 -2.1582,3.33594 1.708026,3.5868548 58.363598 0 0 3.95117,-0.42773 1.708026,3.5868548 58.363598 0 0 2.1582,-3.33594 1.708026,3.5868548 58.363598 0 0 -1.29687,-0.49414 z m -296.988284,4.88672 a 1.708026,3.5868548 58.363598 0 0 -2.654297,0.92187 1.708026,3.5868548 58.363598 0 0 -2.158203,3.33594 1.708026,3.5868548 58.363598 0 0 3.949218,-0.42774 1.708026,3.5868548 58.363598 0 0 2.158204,-3.33593 1.708026,3.5868548 58.363598 0 0 -1.294922,-0.49414 z m 150,0 a 1.708026,3.5868548 58.363598 0 0 -2.654297,0.92187 1.708026,3.5868548 58.363598 0 0 -2.158203,3.33594 1.708026,3.5868548 58.363598 0 0 3.949218,-0.42774 1.708026,3.5868548 58.363598 0 0 2.158204,-3.33593 1.708026,3.5868548 58.363598 0 0 -1.294922,-0.49414 z m 150.000004,0 a 1.708026,3.5868548 58.363598 0 0 -2.6543,0.92187 1.708026,3.5868548 58.363598 0 0 -2.1582,3.33594 1.708026,3.5868548 58.363598 0 0 3.94921,-0.42774 1.708026,3.5868548 58.363598 0 0 2.15821,-3.33593 1.708026,3.5868548 58.363598 0 0 -1.29492,-0.49414 z m -296.990239,4.88671 a 1.708026,3.5868548 58.363598 0 0 -2.654297,0.91993 1.708026,3.5868548 58.363598 0 0 -2.158203,3.33593 1.708026,3.5868548 58.363598 0 0 3.949219,-0.42578 1.708026,3.5868548 58.363598 0 0 2.158203,-3.33593 1.708026,3.5868548 58.363598 0 0 -1.294922,-0.49415 z m 150,0 a 1.708026,3.5868548 58.363598 0 0 -2.654297,0.91993 1.708026,3.5868548 58.363598 0 0 -2.158203,3.33593 1.708026,3.5868548 58.363598 0 0 3.949219,-0.42578 1.708026,3.5868548 58.363598 0 0 2.158203,-3.33593 1.708026,3.5868548 58.363598 0 0 -1.294922,-0.49415 z m 149.999999,0 a 1.708026,3.5868548 58.363598 0 0 -2.6543,0.91993 1.708026,3.5868548 58.363598 0 0 -2.1582,3.33593 1.708026,3.5868548 58.363598 0 0 3.94922,-0.42578 1.708026,3.5868548 58.363598 0 0 2.1582,-3.33593 1.708026,3.5868548 58.363598 0 0 -1.29492,-0.49415 z m -344.50586,27.12305 a 1.708026,3.5868548 9.8698072 0 0 -2.12695,3.25195 1.708026,3.5868548 9.8698072 0 0 1.06836,3.82618 1.708026,3.5868548 9.8698072 0 0 2.29687,-3.24024 1.708026,3.5868548 9.8698072 0 0 -1.06836,-3.82812 1.708026,3.5868548 9.8698072 0 0 -0.16992,-0.01 z m 150.000002,0 a 1.708026,3.5868548 9.8698072 0 0 -2.126953,3.25195 1.708026,3.5868548 9.8698072 0 0 1.068359,3.82618 1.708026,3.5868548 9.8698072 0 0 2.296875,-3.24024 1.708026,3.5868548 9.8698072 0 0 -1.068359,-3.82812 1.708026,3.5868548 9.8698072 0 0 -0.169922,-0.01 z m 149.999998,0 a 1.708026,3.5868548 9.8698072 0 0 -2.12695,3.25195 1.708026,3.5868548 9.8698072 0 0 1.06836,3.82618 1.708026,3.5868548 9.8698072 0 0 2.29687,-3.24024 1.708026,3.5868548 9.8698072 0 0 -1.06836,-3.82812 1.708026,3.5868548 9.8698072 0 0 -0.16992,-0.01 z m -294.3457,0.98242 a 1.708026,3.5868548 9.8698072 0 0 -2.12695,3.25391 1.708026,3.5868548 9.8698072 0 0 1.06835,3.82617 1.708026,3.5868548 9.8698072 0 0 2.29688,-3.24219 1.708026,3.5868548 9.8698072 0 0 -1.06836,-3.82617 1.708026,3.5868548 9.8698072 0 0 -0.16992,-0.01 z m 149.999999,0 a 1.708026,3.5868548 9.8698072 0 0 -2.126953,3.25391 1.708026,3.5868548 9.8698072 0 0 1.068359,3.82617 1.708026,3.5868548 9.8698072 0 0 2.296875,-3.24219 1.708026,3.5868548 9.8698072 0 0 -1.068359,-3.82617 1.708026,3.5868548 9.8698072 0 0 -0.169922,-0.01 z m 150.000001,0 a 1.708026,3.5868548 9.8698072 0 0 -2.12695,3.25391 1.708026,3.5868548 9.8698072 0 0 1.06835,3.82617 1.708026,3.5868548 9.8698072 0 0 2.29688,-3.24219 1.708026,3.5868548 9.8698072 0 0 -1.06836,-3.82617 1.708026,3.5868548 9.8698072 0 0 -0.16992,-0.01 z m -294.347658,0.98438 a 1.708026,3.5868548 9.8698072 0 0 -2.125,3.25195 1.708026,3.5868548 9.8698072 0 0 1.066407,3.82617 1.708026,3.5868548 9.8698072 0 0 2.298828,-3.24023 1.708026,3.5868548 9.8698072 0 0 -1.068359,-3.82617 1.708026,3.5868548 9.8698072 0 0 -0.171876,-0.01 z m 150,0 a 1.708026,3.5868548 9.8698072 0 0 -2.125,3.25195 1.708026,3.5868548 9.8698072 0 0 1.066407,3.82617 1.708026,3.5868548 9.8698072 0 0 2.298828,-3.24023 1.708026,3.5868548 9.8698072 0 0 -1.068359,-3.82617 1.708026,3.5868548 9.8698072 0 0 -0.171876,-0.01 z m 149.999998,0 a 1.708026,3.5868548 9.8698072 0 0 -2.125,3.25195 1.708026,3.5868548 9.8698072 0 0 1.06641,3.82617 1.708026,3.5868548 9.8698072 0 0 2.29883,-3.24023 1.708026,3.5868548 9.8698072 0 0 -1.06836,-3.82617 1.708026,3.5868548 9.8698072 0 0 -0.17188,-0.01 z"
       style="fill:#ffc182;fill-opacity:1;stroke:none;stroke-width:11.36445427;stroke-linecap:butt;stroke-linejoin:miter;stroke-miterlimit:4;stroke-dasharray:none;stroke-opacity:1" />
  </g>
</svg>
