<?xml version="1.0" encoding="UTF-8" standalone="no"?>
<svg
   xmlns:dc="http://purl.org/dc/elements/1.1/"
   xmlns:cc="http://creativecommons.org/ns#"
   xmlns:rdf="http://www.w3.org/1999/02/22-rdf-syntax-ns#"
   xmlns:svg="http://www.w3.org/2000/svg"
   xmlns="http://www.w3.org/2000/svg"
   id="svg8"
   version="1.1"
   viewBox="0 0 120.38755 27.123619"
   height="102.51447"
   width="455.00809">
  <defs
     id="defs2" />
  <metadata
     id="metadata5">
    <rdf:RDF>
      <cc:Work
         rdf:about="">
        <dc:format>image/svg+xml</dc:format>
        <dc:type
           rdf:resource="http://purl.org/dc/dcmitype/StillImage" />
        <dc:title></dc:title>
      </cc:Work>
    </rdf:RDF>
  </metadata>
  <g
     transform="translate(90.053898,-212.75662)"
     id="layer1">
    <path
       id="path5188-6-4-9-4"
       d="m -35.397657,212.76422 c -5.747459,0.22146 -12.730959,4.75209 -16.701172,13.64258 -3.071239,6.87741 -8.612553,9.85001 -11.919922,9.65625 -1.653685,-0.0969 -2.669317,-0.73527 -3.210937,-2.14453 -0.54162,-1.40927 -0.49613,-3.89496 1.083985,-7.46485 1.757917,-3.97159 1.873637,-7.36745 0.490234,-9.85742 -1.383402,-2.48997 -4.148206,-3.72097 -7.10547,-3.72656 -5.914525,-0.0112 -13.172774,4.37749 -17.134764,13.25781 a 1.5932155,1.5932155 0 1 0 2.9082,1.29883 c 3.52418,-7.89902 9.9527,-11.37916 14.220704,-11.37109 2.134001,0.004 3.584568,0.75503 4.326174,2.08984 0.741605,1.3348 0.893037,3.60754 -0.617187,7.01953 -1.786292,4.0357 -2.126367,7.34688 -1.146485,9.89649 0.979882,2.5496 3.392295,4.03093 5.998046,4.18359 5.211502,0.30532 11.51611,-3.70261 15.015624,-11.53906 3.559339,-7.97042 9.812904,-11.59979 13.914062,-11.75782 2.050579,-0.079 3.405049,0.5748 4.111331,1.78516 0.706276,1.21036 0.889071,3.35778 -0.499999,6.64453 -1.747203,4.13414 -1.646082,7.77129 -0.126955,10.45313 1.519124,2.68184 4.322016,4.24041 7.373046,4.65234 6.102056,0.82386 13.572741,-2.80805 16.2499993,-11.19531 2.764798,-8.66151 8.68430995,-12.1767 12.636722,-12.03321 1.976202,0.0718 3.426346,0.90474 4.253902,2.55079 0.827561,1.64604 1.017582,4.33373 -0.38867,8.13281 -1.575885,4.25734 -1.66305,7.56994 -0.269532,9.93359 1.393516,2.36366 4.1634727,3.24126 6.9179727,2.95703 5.50898,-0.56846 11.99969,-5.08674 15.20507,-12.36328 a 1.5932155,1.5932155 0 1 0 -2.91601,-1.2832 c -2.74115,6.22268 -8.67326,10.0698 -12.61523,10.47656 -1.97099,0.20338 -3.18363,-0.27798 -3.84766,-1.4043 -0.66403,-1.12631 -0.8835257,-3.43437 0.51367,-7.20898 1.6086,-4.34574 1.59736,-7.98414 0.2461,-10.67187 -1.35127,-2.68774 -4.0583437,-4.19658 -6.9824287,-4.30274 -5.84817,-0.21232 -12.700696,4.57288 -15.7890633,14.24805 -2.239926,7.01719 -8.251659,9.61847 -12.789062,9.00586 -2.268701,-0.30631 -4.074086,-1.38159 -5.027342,-3.06446 -0.95326,-1.68286 -1.188689,-4.14137 0.291015,-7.64257 1.624864,-3.84468 1.702533,-7.11481 0.316405,-9.49024 -1.386129,-2.37543 -4.110646,-3.47401 -6.984373,-3.36328 z"
       style="color:#000000;font-style:normal;font-variant:normal;font-weight:normal;font-stretch:normal;font-size:medium;line-height:normal;font-family:sans-serif;font-variant-ligatures:normal;font-variant-position:normal;font-variant-caps:normal;font-variant-numeric:normal;font-variant-alternates:normal;font-feature-settings:normal;text-indent:0;text-align:start;text-decoration:none;text-decoration-line:none;text-decoration-style:solid;text-decoration-color:#000000;letter-spacing:normal;word-spacing:normal;text-transform:none;writing-mode:lr-tb;direction:ltr;text-orientation:mixed;dominant-baseline:auto;baseline-shift:baseline;text-anchor:start;white-space:normal;shape-padding:0;clip-rule:nonzero;display:inline;overflow:visible;visibility:visible;opacity:1;isolation:auto;mix-blend-mode:normal;color-interpolation:sRGB;color-interpolation-filters:linearRGB;solid-color:#000000;solid-opacity:1;vector-effect:none;fill:#854037;fill-opacity:1;fill-rule:nonzero;stroke:none;stroke-width:3.1861124;stroke-linecap:round;stroke-linejoin:miter;stroke-miterlimit:4;stroke-dasharray:none;stroke-dashoffset:0;stroke-opacity:1;color-rendering:auto;image-rendering:auto;shape-rendering:auto;text-rendering:auto;enable-background:accumulate" />
  </g>
</svg>
